<svg width="40" height="17" viewBox="0 0 40 17" fill="none" xmlns="http://www.w3.org/2000/svg">
<g clip-path="url(#clip0_156_8943)">
<path d="M7.27127 2.10791C6.80487 2.66017 6.05864 3.09575 5.3124 3.03352C5.21912 2.28681 5.58446 1.49343 6.012 1.0034C6.47839 0.435583 7.29459 0.0311131 7.95533 0C8.03306 0.777826 7.7299 1.5401 7.27127 2.10791ZM7.94755 3.18131C6.86706 3.11908 5.94204 3.79579 5.429 3.79579C4.90818 3.79579 4.12308 3.21242 3.26801 3.22798C2.15643 3.24354 1.12257 3.87358 0.55512 4.87697C-0.610879 6.88376 0.251961 9.85506 1.37909 11.4885C1.931 12.2974 2.59173 13.1842 3.46234 13.153C4.28632 13.1219 4.6128 12.6163 5.60778 12.6163C6.61054 12.6163 6.89815 13.153 7.76877 13.1375C8.67047 13.1219 9.23793 12.3285 9.78983 11.5196C10.4195 10.6018 10.676 9.70727 10.6915 9.6606C10.676 9.64505 8.95031 8.9839 8.93477 6.99266C8.91922 5.32811 10.2951 4.53473 10.3573 4.48806C9.57995 3.33688 8.36731 3.21242 7.94755 3.18131ZM14.1895 0.925613V13.0519H16.0707V8.90611H18.6747C21.0534 8.90611 22.7246 7.27268 22.7246 4.90808C22.7246 2.54349 21.0845 0.925613 18.7369 0.925613H14.1895ZM16.0707 2.51238H18.2394C19.8718 2.51238 20.8046 3.38355 20.8046 4.91586C20.8046 6.44818 19.8718 7.32712 18.2317 7.32712H16.0707V2.51238ZM26.1605 13.1453C27.342 13.1453 28.438 12.5463 28.9355 11.5974H28.9744V13.0519H30.7156V7.01599C30.7156 5.26588 29.3164 4.13804 27.1632 4.13804C25.1655 4.13804 23.6885 5.28144 23.6341 6.85265H25.3287C25.4686 6.10594 26.1605 5.61591 27.1088 5.61591C28.2593 5.61591 28.9044 6.15261 28.9044 7.14045V7.80938L26.5569 7.94939C24.3726 8.08162 23.191 8.97612 23.191 10.5318C23.191 12.103 24.4115 13.1453 26.1605 13.1453ZM26.6657 11.7063C25.663 11.7063 25.0256 11.224 25.0256 10.4851C25.0256 9.72283 25.6396 9.27947 26.8134 9.20947L28.9044 9.07723V9.76172C28.9044 10.8973 27.9406 11.7063 26.6657 11.7063ZM33.0399 16.3499C34.8744 16.3499 35.7372 15.6499 36.4912 13.5264L39.7949 4.25471H37.8826L35.6672 11.4185H35.6284L33.413 4.25471H31.4463L34.6334 13.083L34.4624 13.6197C34.1748 14.5298 33.7084 14.8798 32.8766 14.8798C32.7289 14.8798 32.4413 14.8643 32.3247 14.8487V16.3032C32.4335 16.3344 32.8999 16.3499 33.0399 16.3499Z" fill="black"/>
</g>
<defs>
<clipPath id="clip0_156_8943">
<rect width="40" height="16.4103" fill="white"/>
</clipPath>
</defs>
</svg>
