<svg width="24" height="24" viewBox="0 0 24 24" fill="none" xmlns="http://www.w3.org/2000/svg">
<rect width="24" height="24" rx="6" fill="#D9D9D9"/>
<rect width="24" height="24" rx="6" fill="#F1F1F1"/>
<path d="M2.15812 10.1534L1.69704 9.03037L1.24067 10.1534M12.307 9.70693C12.2138 9.76103 12.1061 9.76574 11.9734 9.76574H11.159V9.13811H11.988C12.1056 9.13811 12.2284 9.14281 12.307 9.18704C12.3954 9.22609 12.4491 9.31454 12.4491 9.43734C12.4491 9.55966 12.395 9.6627 12.307 9.70693ZM18.1438 10.1534L17.6781 9.03037L17.217 10.1534H18.1438ZM7.26948 11.3696H6.57787L6.57316 9.1621L5.59691 11.3696H5.00833L4.02736 9.1621V11.3696H2.65872L2.39854 10.742H1.00072L0.740546 11.3696H0.00988021L1.2115 8.55423H2.21223L3.36021 11.2177V8.55423H4.4588L5.3419 10.4625L6.15114 8.55423H7.26948V11.3696ZM10.0162 11.3696H7.76961V8.55423H10.0162V9.14281H8.44147V9.64811H9.98184V10.2221H8.44664V10.7862H10.0214V11.3701H10.0162V11.3696ZM13.1896 9.30936C13.1896 9.76056 12.8904 9.9911 12.714 10.0598C12.8612 10.1139 12.9887 10.2169 13.0475 10.295C13.1407 10.4371 13.1604 10.5599 13.1604 10.8102V11.3644H12.4834L12.4787 11.0111C12.4787 10.8394 12.4933 10.599 12.371 10.4616C12.2726 10.3633 12.1207 10.3388 11.8803 10.3388H11.159V11.364H10.4871V8.55329H12.0369C12.3804 8.55329 12.6354 8.56317 12.8513 8.6855C13.0621 8.81394 13.1896 8.99555 13.1896 9.30936ZM14.2642 11.3696H13.5773V8.55423H14.2642V11.3696ZM22.2347 11.3696H21.2829L20.0074 9.25573V11.3696H18.6388L18.3786 10.742H16.9808L16.7258 11.3696H15.9358C15.607 11.3696 15.1953 11.2962 14.9596 11.0605C14.7243 10.8201 14.6015 10.4964 14.6015 9.98639C14.6015 9.56954 14.6749 9.18704 14.9643 8.88781C15.1802 8.66197 15.5237 8.55894 15.9848 8.55894H16.6373V9.1621H15.9998C15.7547 9.1621 15.6173 9.19645 15.4799 9.32865C15.367 9.44628 15.2885 9.67211 15.2885 9.96616C15.2885 10.2701 15.3473 10.486 15.4748 10.6281C15.5778 10.7411 15.7693 10.7754 15.9457 10.7754H16.2497L17.1963 8.56317H18.2069L19.345 11.2266V8.55329H20.3702L21.5525 10.5152V8.55329H22.2441L22.2347 11.3696ZM0 11.9192H1.14799L1.40817 11.2915H1.98686L2.24704 11.9192H4.5082V11.4435L4.7091 11.9243H5.88155L6.08245 11.4388V11.9243H11.7033L11.6986 10.8991H11.8064C11.885 10.9038 11.9047 10.909 11.9047 11.0365V11.929H14.8133V11.6886C15.0485 11.8161 15.4117 11.929 15.8926 11.929H17.1139L17.3741 11.3014H17.9528L18.2078 11.929H20.5673V11.3357L20.9254 11.929H22.8336V8H20.9649V8.46578L20.7047 8H18.787V8.46578L18.5466 8H15.9565C15.5251 8 15.1421 8.05881 14.8335 8.23054V8H13.0433V8.23054C12.8471 8.05881 12.5822 8 12.283 8H5.7437L5.30709 9.01531L4.85589 8H2.7961V8.46578L2.57027 8H0.814412L0 9.85889V11.9192Z" fill="#F1F1F1"/>
<path d="M23.994 13.9987H22.7679C22.6451 13.9987 22.5619 14.0034 22.4932 14.0476C22.4245 14.0918 22.3949 14.1605 22.3949 14.2485C22.3949 14.3563 22.4537 14.4249 22.5421 14.4593C22.6108 14.4838 22.6894 14.4936 22.8023 14.4936L23.165 14.5035C23.533 14.5134 23.7781 14.5769 23.93 14.7294C23.9597 14.7491 23.9743 14.7736 23.994 14.798M23.994 15.858C23.8322 16.0985 23.5132 16.2161 23.0818 16.2161H21.7818V15.6129H23.0766C23.2041 15.6129 23.2972 15.5983 23.3513 15.5442C23.4003 15.5 23.4299 15.4365 23.4299 15.3626C23.4299 15.2794 23.3956 15.2154 23.3466 15.1763C23.2977 15.1321 23.229 15.1123 23.1114 15.1123C22.4786 15.0926 21.6891 15.1321 21.6891 14.2391C21.6891 13.8321 21.9493 13.4002 22.6555 13.4002H23.9945V12.8408H22.7487C22.3709 12.8408 22.1013 12.9293 21.9051 13.0714V12.8408H20.0608C19.7662 12.8408 19.4181 12.9142 19.2562 13.0714V12.8408H15.9647V13.0714C15.7045 12.8799 15.2632 12.8408 15.0571 12.8408H12.8891V13.0714C12.6831 12.8705 12.222 12.8408 11.9425 12.8408H9.51435L8.96011 13.444L8.44023 12.8408H4.81042V16.7699H8.37154L8.94553 16.1568L9.48518 16.7699H11.6776V15.8477H11.8936C12.1829 15.8524 12.5264 15.843 12.8303 15.7103V16.7699H14.6403V15.7447H14.7287C14.8417 15.7447 14.8515 15.7494 14.8515 15.8623V16.7699H20.3501C20.6983 16.7699 21.0662 16.6814 21.2676 16.5196V16.7699H23.014C23.3768 16.7699 23.7301 16.7209 24.0002 16.5882V15.8576H23.994V15.858ZM21.3109 14.7298C21.4431 14.8672 21.5117 15.0389 21.5117 15.3283C21.5117 15.9366 21.1339 16.2161 20.4522 16.2161H19.1424V15.6129H20.447C20.5745 15.6129 20.663 15.5983 20.7218 15.5442C20.766 15.5 20.8004 15.4365 20.8004 15.3626C20.8004 15.2794 20.766 15.2154 20.7171 15.1763C20.6682 15.1321 20.5943 15.1123 20.4767 15.1123C19.849 15.0926 19.0591 15.1321 19.0591 14.2391C19.0591 13.8321 19.3141 13.4002 20.0203 13.4002H21.3692V13.9987H20.1332C20.0104 13.9987 19.9323 14.0034 19.8636 14.0476C19.7902 14.0918 19.7606 14.1605 19.7606 14.2485C19.7606 14.3563 19.8246 14.4249 19.9079 14.4593C19.9766 14.4838 20.0551 14.4936 20.168 14.4936L20.5308 14.5035C20.9086 14.5139 21.1589 14.5774 21.3109 14.7298ZM15.2383 14.5581C15.1498 14.6122 15.0374 14.6169 14.9047 14.6169H14.0856V13.9841H14.9146C15.0322 13.9841 15.155 13.9888 15.2336 14.033C15.322 14.0773 15.371 14.1652 15.371 14.288C15.3757 14.4061 15.3216 14.504 15.2383 14.5581ZM15.6453 14.9063C15.7972 14.9604 15.92 15.0582 15.9741 15.1415C16.0673 15.2789 16.0819 15.4064 16.087 15.6567V16.2161H15.41V15.8628C15.41 15.691 15.4246 15.4407 15.3023 15.3132C15.2039 15.2102 15.052 15.1904 14.8068 15.1904H14.0856V16.2203H13.4086V13.4049H14.9635C15.3018 13.4049 15.5521 13.4195 15.7728 13.5371C15.9835 13.6646 16.1209 13.8411 16.1209 14.1648C16.1214 14.607 15.8222 14.8376 15.6453 14.9063ZM16.494 13.4002H18.7406V13.9841H17.1659V14.4941H18.7062V15.0681H17.1659V15.6275L18.7406 15.6322V16.2161H16.494V13.4002ZM11.9519 14.7002H11.0839V13.9841H11.9618C12.2069 13.9841 12.374 14.0824 12.374 14.3276C12.374 14.5727 12.2116 14.7002 11.9519 14.7002ZM10.4116 15.9606L9.37649 14.8126L10.4116 13.7042V15.9606ZM7.74344 15.6275H6.09062V15.0681H7.567V14.4941H6.09062V13.9841H7.77778L8.51362 14.8032L7.74344 15.6275ZM13.0947 14.3276C13.0947 15.1123 12.5109 15.2695 11.9223 15.2695H11.0834V16.2161H9.77358L8.94459 15.2841L8.08125 16.2161H5.41782V13.4007H8.12547L8.95447 14.3229L9.81264 13.4007H11.9609C12.4963 13.4002 13.0947 13.5475 13.0947 14.3276Z" fill="#F1F1F1"/>
<rect width="24" height="24" rx="6" fill="#748BB3"/>
<g clip-path="url(#clip0_162_10430)">
<mask id="mask0_162_10430" style="mask-type:luminance" maskUnits="userSpaceOnUse" x="0" y="8" width="34" height="9">
<path d="M0.298309 16.5385H33.5702V8.61836H0.298309V16.5385Z" fill="white"/>
</mask>
<g mask="url(#mask0_162_10430)">
<path d="M16.0813 14.3664C16.0758 14.3693 16.0694 14.3726 16.0631 14.3753L14.4742 15.0194L13.1364 15.7729C14.3072 15.3056 15.2598 14.894 16.1615 14.4694C16.133 14.4362 16.1065 14.4021 16.0813 14.3664Z" fill="white"/>
<path d="M22.1984 9.8441L20.7188 11.0808L19.2717 12.6762C19.2881 12.734 19.3015 12.793 19.3109 12.8546C19.3157 12.8525 19.3199 12.8496 19.3249 12.8469C21.6468 11.5855 22.9064 10.7936 22.1984 9.8441Z" fill="white"/>
</g>
<path d="M7.06606 10.2941L6.97162 10.3123C6.95189 10.3149 6.93963 10.3315 6.94291 10.3488C6.9462 10.3662 6.96439 10.3771 6.98411 10.3746L7.07723 10.3583C10.4218 9.83126 17.3767 9.10083 18.8733 10.4139C19.3297 10.8143 19.2206 11.3309 18.6912 11.9395C18.9765 12.1015 19.1801 12.357 19.2719 12.6764C20.9583 11.6836 22.1931 10.7284 22.2332 10.062V9.99646C22.2255 9.87217 22.1727 9.75874 22.0697 9.6581C21.5881 9.18809 20.2514 9.0097 18.5293 9.0097C14.9772 9.0097 9.78433 9.76863 7.06606 10.2941ZM15.9241 14.0604C14.9886 14.6466 13.8796 15.2624 12.6871 15.9091L12.6402 15.9331C12.6238 15.9428 12.6201 15.9628 12.6317 15.9766C12.6424 15.9911 12.6648 15.9946 12.681 15.9843L12.7209 15.9657C13.7324 15.4988 14.8937 14.944 16.0632 14.3753C16.0713 14.372 16.0759 14.3695 16.0812 14.3664C16.017 14.2732 15.9644 14.1708 15.9273 14.0585C15.9263 14.0591 15.9254 14.0595 15.9241 14.0604Z" fill="url(#paint0_linear_162_10430)"/>
<path d="M22.7247 14.1306L22.7957 14.1731C22.6167 14.4963 22.2514 14.7567 21.8222 14.7567C21.4716 14.7567 21.1834 14.55 21.1685 14.1614C21.1398 13.4661 21.8765 12.8196 22.4798 12.8196C22.7381 12.8196 22.9781 12.9201 22.9886 13.1665C23.0111 13.7193 22.1331 13.8884 21.5544 13.9001C21.5362 13.9576 21.5294 14.016 21.5325 14.1046C21.5421 14.3338 21.6992 14.5267 22.0233 14.5267C22.3031 14.5267 22.5834 14.327 22.7247 14.1306ZM22.6461 13.1316C22.641 13.0009 22.5672 12.9131 22.414 12.9131C22.0463 12.9131 21.6556 13.5503 21.5881 13.8074C22.1914 13.8074 22.6605 13.4894 22.6461 13.1316Z" fill="white"/>
<path d="M19.134 13.1115C19.1963 13.1042 19.2909 13.0962 19.3339 13.0962C19.4 13.0962 19.4621 13.1075 19.4656 13.1651C19.4664 13.1992 19.3961 13.446 19.3816 13.503L19.2418 14.0483C19.1855 14.2722 19.1244 14.5057 19.0698 14.6905H19.4288L19.631 13.8259C20.247 13.2579 20.4843 13.0728 20.6296 13.0728C20.6953 13.0728 20.7402 13.103 20.7435 13.1724C20.747 13.2729 20.6771 13.4995 20.653 13.5647L20.4464 14.1947C20.3995 14.3366 20.3649 14.4644 20.3682 14.5559C20.3747 14.694 20.4694 14.7552 20.6094 14.7552C20.8724 14.7552 21.0628 14.5136 21.2291 14.2757L21.1756 14.2063C21.1084 14.3019 20.9574 14.5018 20.8345 14.5018C20.7955 14.5018 20.7589 14.4791 20.7575 14.4215C20.754 14.3477 20.7891 14.2379 20.8136 14.1644L21.0424 13.4259C21.1035 13.2225 21.1331 13.0914 21.1316 13.0222C21.1259 12.8843 21.0347 12.8195 20.8958 12.8195C20.6594 12.8195 20.3451 12.9725 19.6805 13.6494H19.6711L19.7548 13.3192C19.8002 13.1385 19.8449 12.95 19.888 12.8195C19.6586 12.8934 19.3345 12.9731 19.131 13.0076L19.134 13.1115Z" fill="white"/>
<path d="M16.0402 13.6534C16.0067 12.7888 16.7719 11.9046 17.8842 11.9046C18.6279 11.9046 19.1141 12.3433 19.1411 13.0145C19.1768 13.9267 18.462 14.7639 17.2978 14.7639C16.5543 14.7639 16.0674 14.3261 16.0402 13.6534ZM16.5245 13.6804C16.5435 14.1871 16.9055 14.602 17.378 14.602C18.2937 14.602 18.6829 13.6073 18.6559 12.9426C18.6369 12.4348 18.2648 12.0204 17.793 12.0204C17.0061 12.0204 16.4971 13.0116 16.5245 13.6804Z" fill="white"/>
<path d="M15.4704 14.1739L14.5573 14.175L15.0161 11.9109L15.906 11.9328L15.4704 14.1739Z" fill="white"/>
<path d="M14.5601 12.8959C14.5566 12.9758 14.5406 13.046 14.5161 13.1666L14.3533 13.9798C14.3392 14.0512 14.3693 14.1074 14.4442 14.1475L14.4392 14.1755L13.5033 14.1772L13.4956 13.9701C13.3593 14.0436 13.1936 14.1047 13.0459 14.14C12.8967 14.1751 12.7766 14.1888 12.5956 14.1888C12.2932 14.1888 12.121 14.1623 12.0011 14.0688C11.8793 13.9726 11.8201 13.9098 11.8272 13.7785C11.8304 13.7022 11.8749 13.6046 11.9396 13.5375C12.0051 13.4677 12.0932 13.4233 12.1896 13.3832C12.2864 13.3429 12.4002 13.3132 12.5639 13.2889C12.7306 13.2661 12.9614 13.2411 13.2705 13.2184C13.4312 13.2067 13.5304 13.1742 13.5762 13.1586C13.6418 13.136 13.6674 13.1109 13.677 13.0646C13.6935 12.9826 13.6643 12.9339 13.5396 12.9116C13.2006 12.8525 12.57 12.9498 12.2439 13.0216L12.4203 12.5987C12.8518 12.543 13.253 12.5071 13.6772 12.5071C14.3506 12.5071 14.5654 12.6782 14.5601 12.8959ZM13.594 13.4287C13.5537 13.4408 13.5017 13.454 13.4384 13.4668C13.3753 13.4801 13.2592 13.4968 13.09 13.5212C12.9745 13.5375 12.8928 13.5587 12.8485 13.5879C12.8056 13.6159 12.7799 13.6506 12.7707 13.6925C12.7615 13.7371 12.7799 13.7733 12.822 13.8005C12.8671 13.8278 12.9423 13.8412 13.0479 13.8412C13.1257 13.8412 13.2024 13.8309 13.2776 13.8103C13.3543 13.7875 13.4174 13.7588 13.4671 13.721C13.5017 13.6938 13.528 13.6579 13.5471 13.6159C13.5583 13.5885 13.5738 13.5261 13.594 13.4287Z" fill="white"/>
<path d="M10.904 12.5427L10.9684 12.2121L11.9056 12.0317L11.8061 12.5427H12.2654L12.1784 12.8696L11.7332 12.8686L11.4623 14.174C11.4623 14.174 10.5591 14.1687 10.556 14.174L10.8253 12.8717H10.485L10.5543 12.5427H10.904Z" fill="white"/>
<path d="M9.56309 12.1762C9.58961 12.0428 9.8278 11.9348 10.0938 11.9348C10.3603 11.9348 10.5546 12.0428 10.5288 12.1762C10.5003 12.3098 10.2634 12.4184 9.99631 12.4184C9.72941 12.4184 9.53614 12.3098 9.56309 12.1762ZM9.18839 14.1752L9.51335 12.552H10.4096L10.0848 14.1752H9.18839Z" fill="white"/>
<path d="M6.37012 14.7351L6.80662 12.5601H7.59351L7.53281 12.8378C7.60096 12.7548 7.70986 12.6867 7.86062 12.6313C8.0127 12.5764 8.18427 12.5357 8.36943 12.5357C8.57476 12.5357 8.70185 12.5454 8.85568 12.6158C9.00841 12.6867 9.11469 12.7897 9.17297 12.9237C9.23236 13.0561 9.24419 13.2045 9.21264 13.3656C9.15917 13.6336 9.01126 13.8453 8.76934 14.0002C8.52874 14.1555 8.31246 14.1964 8.00393 14.1974C7.89437 14.1974 7.80321 14.1873 7.72739 14.1709C7.65289 14.1538 7.59351 14.133 7.5488 14.1074C7.50564 14.0819 7.45984 14.0462 7.40067 13.9896L7.2543 14.7351H6.37012ZM8.00262 12.9324C7.88516 12.9324 7.77845 12.9642 7.68422 13.027C7.59044 13.0902 7.53105 13.182 7.50717 13.3049C7.47868 13.4466 7.49512 13.5482 7.55888 13.6109C7.62265 13.6735 7.7149 13.7049 7.83564 13.7049C7.91716 13.7049 8.00218 13.6919 8.06397 13.6644C8.14067 13.6285 8.19348 13.5907 8.23971 13.5308C8.28858 13.468 8.32123 13.3985 8.3381 13.3171C8.36352 13.1889 8.34204 13.093 8.27477 13.0294C8.20947 12.9646 8.11963 12.9324 8.00262 12.9324Z" fill="white"/>
<mask id="mask1_162_10430" style="mask-type:luminance" maskUnits="userSpaceOnUse" x="1" y="9" width="32" height="7">
<path d="M1.01093 15.9904H32.966V9.00971H1.01093V15.9904Z" fill="white"/>
</mask>
<g mask="url(#mask1_162_10430)">
<path d="M6.47433 12.8934C6.47061 12.9726 6.45483 13.0424 6.43095 13.1633L6.26726 13.9758C6.25301 14.0475 6.28325 14.1047 6.35929 14.1431L6.35403 14.1751L5.41748 14.174L5.40959 13.9669C5.27264 14.0402 5.10829 14.1014 4.95951 14.1373C4.81116 14.1709 4.69108 14.1858 4.51095 14.1858C4.20878 14.1858 4.03479 14.1585 3.91558 14.0656C3.79375 13.9696 3.73502 13.9062 3.74116 13.7747C3.74576 13.6989 3.79002 13.6016 3.85445 13.5337C3.91909 13.4647 4.0074 13.4195 4.10381 13.3799C4.20023 13.3388 4.31374 13.3094 4.47918 13.2867C4.64506 13.2624 4.87536 13.2386 5.18455 13.2159C5.34627 13.2039 5.44553 13.1709 5.4922 13.1542C5.55663 13.1321 5.58183 13.1081 5.59147 13.0612C5.60878 12.9776 5.57854 12.9301 5.4532 12.9082C5.11618 12.8492 4.484 12.946 4.15772 13.0183L4.33521 12.5956C4.76448 12.5405 5.16768 12.5045 5.59191 12.5045C6.2655 12.5045 6.48135 12.6745 6.47433 12.8934ZM5.50798 13.4253C5.46832 13.4383 5.41682 13.4509 5.35328 13.4631C5.28973 13.4759 5.17337 13.4941 5.00508 13.5174C4.88939 13.5337 4.80853 13.5554 4.76295 13.5843C4.71912 13.6132 4.69349 13.6475 4.68604 13.6892C4.67705 13.7334 4.69349 13.7691 4.73687 13.7972C4.78136 13.8247 4.8563 13.8389 4.96104 13.8389C5.03971 13.8389 5.11706 13.8275 5.19178 13.8065C5.2676 13.7848 5.33137 13.7547 5.38067 13.7175C5.41682 13.69 5.4429 13.6553 5.46197 13.6132C5.47292 13.5853 5.4887 13.523 5.50798 13.4253Z" fill="white"/>
<path d="M3.61878 13.5915C3.32647 13.6427 3.16234 13.6625 2.87441 13.6625C2.44602 13.6625 2.10549 13.4742 2.1239 13.1293C2.13705 12.8997 2.44448 12.4149 3.22589 12.4149C3.47197 12.4149 3.66436 12.4535 3.92293 12.584L4.03622 12.0205C3.68474 11.9025 3.45159 11.8852 3.15007 11.8877C2.12609 11.8976 1.14199 12.3098 1.02015 13.1477C0.895909 13.9991 2.07087 14.213 2.59305 14.211C2.89413 14.2101 3.20726 14.1996 3.49936 14.1725L3.61878 13.5915Z" fill="white"/>
</g>
</g>
<defs>
<linearGradient id="paint0_linear_162_10430" x1="8.88859" y1="13.5903" x2="20.3265" y2="6.71747" gradientUnits="userSpaceOnUse">
<stop stop-color="#B5121B"/>
<stop offset="0.699997" stop-color="#BE3D2E"/>
<stop offset="1" stop-color="#F6E2DA"/>
</linearGradient>
<clipPath id="clip0_162_10430">
<rect width="22" height="7" fill="white" transform="translate(1 9)"/>
</clipPath>
</defs>
</svg>
