<svg width="31" height="39" viewBox="0 0 31 39" fill="none" xmlns="http://www.w3.org/2000/svg">
<g clip-path="url(#clip0_158_9563)">
<path d="M6.56626 32.9982C6.06068 32.5085 5.47719 32.1047 5.01135 31.5736C4.95888 31.5196 4.90642 31.4671 4.85395 31.4146V31.3765C4.85236 31.3638 4.85236 31.351 4.85236 31.3367C4.82692 31.3367 4.80148 31.3351 4.77446 31.3351C4.74902 31.3033 4.72199 31.2716 4.69655 31.2398C4.23071 30.669 3.75693 30.103 3.41351 29.4464C2.97788 28.6148 2.66944 27.742 2.54066 26.7992C2.28151 24.8738 2.85546 23.1313 3.6043 21.4079C3.78872 20.985 4.10193 20.6209 4.19891 20.1614C4.20845 20.1248 4.21481 20.0867 4.21958 20.0485V19.8863V19.7735C4.21958 18.2901 4.21322 16.8036 4.22117 15.3202C4.22435 14.9195 4.25138 14.5173 4.2959 14.1198C4.36267 13.5347 4.68542 13.1261 5.22439 12.8892C5.47719 12.3821 5.85876 12.0355 6.43112 11.9242C6.54877 11.851 6.73797 11.8701 6.80315 11.7286C6.80474 11.6968 6.8111 11.6618 6.82541 11.6205C6.81587 10.5521 7.20222 9.60294 7.69508 8.68557C7.70939 8.66014 7.72211 8.6347 7.73642 8.60926C7.75709 8.60767 7.77776 8.60608 7.80002 8.60131C7.81273 8.57269 7.82545 8.54407 7.83817 8.51546C7.8493 8.49002 7.86043 8.46458 7.87156 8.43914C8.07348 8.2404 8.18954 7.96535 8.43438 7.80636C8.80483 7.31509 9.29133 6.9669 9.82395 6.67595C9.94955 6.60759 10.0672 6.52809 10.188 6.45178C10.1483 6.08451 10.2357 5.71089 10.1324 5.3468C9.73014 3.9159 8.27062 3.20363 6.8588 3.74578C6.09406 4.03832 5.33092 4.33722 4.55823 4.6091C3.95089 4.82373 3.43895 4.44693 3.42464 3.79984C3.41669 3.4294 3.43736 3.05736 3.41987 2.68851C3.3992 2.27037 3.50572 1.84428 3.3515 1.4325C3.31494 2.50567 2.95721 3.0351 2.10503 3.3038C1.96035 3.34831 1.81885 3.34831 1.67417 3.35308V3.43258C1.67417 5.10196 1.67417 6.77135 1.67576 8.44073H1.67417V8.44232V8.45822V8.59972H1.67576C1.69166 8.6188 1.70597 8.63788 1.71869 8.65696C1.80931 8.79846 1.80136 8.9638 1.80136 9.12597C1.80295 12.5395 1.80295 15.9514 1.80136 19.3633C1.80136 19.5223 1.80613 19.6828 1.72823 19.8291C1.71551 19.845 1.7012 19.8593 1.68689 19.8736C1.68689 19.8752 1.68848 19.8768 1.68848 19.8784C1.69007 19.8816 1.69166 19.8848 1.69325 19.8879C1.71392 19.9404 1.71551 19.9929 1.69325 20.0469C1.69166 20.0501 1.69007 20.0549 1.68848 20.0581C1.68848 20.0596 1.68848 20.0596 1.68689 20.0612C1.69961 20.0755 1.71392 20.0914 1.72823 20.1058C1.82203 20.2918 1.80136 20.4937 1.80136 20.6892C1.80295 24.0232 1.80295 27.3557 1.80136 30.6897C1.80136 30.9043 1.83475 31.1316 1.68689 31.3192C1.68848 31.3208 1.68848 31.3224 1.68848 31.3224C1.69166 31.3272 1.69325 31.3304 1.69325 31.3351C1.70915 31.3717 1.71392 31.4083 1.7012 31.4448C1.7012 31.4464 1.7012 31.4464 1.7012 31.4464C1.69643 31.4623 1.68689 31.4782 1.67576 31.4925L1.67417 31.4941C1.64237 32.7422 1.81408 33.9505 2.5343 35.0046C3.54547 36.4832 4.95888 37.2591 6.76182 37.2972C6.78567 35.7121 6.8111 34.1254 6.83018 32.5403C6.83177 32.3988 6.86675 32.2462 6.76977 32.1174C6.76659 32.3797 6.765 32.6404 6.75864 32.9028C6.75387 33.0475 6.68232 33.1111 6.56626 32.9982Z" fill="#89BCE5"/>
<path d="M2.53428 35.0046C1.81406 33.9505 1.64235 32.7422 1.67415 31.4941C1.66461 31.4926 1.65507 31.4926 1.64553 31.4926C1.64394 31.4941 1.64394 31.4941 1.64235 31.4957C1.45316 32.076 1.58035 32.6675 1.698 33.2192C2.18769 35.5134 3.9318 37.1208 6.31027 37.391C6.46926 37.4101 6.62984 37.4165 6.7618 37.2972C4.95886 37.2591 3.54545 36.4832 2.53428 35.0046Z" fill="#75ABDC"/>
<path d="M28.7945 36.0523C28.7723 36.0603 28.75 36.0619 28.7262 36.0587C28.7166 36.0587 28.7071 36.0571 28.6976 36.0555C28.6928 36.0539 28.6896 36.0539 28.6848 36.0523C28.1522 35.6167 27.6689 35.135 27.246 34.5912C27.0949 34.3972 27.0154 34.1747 27.017 33.9298C27.0234 32.9012 26.5544 32.1714 25.645 31.7087C25.4748 31.6213 25.4351 31.5927 25.4876 31.518C25.4717 31.51 25.4558 31.5036 25.4399 31.4973C25.362 31.4941 25.2841 31.4925 25.2077 31.4893C25.1044 31.3987 24.9391 31.4989 24.823 31.4464H24.7594C24.6672 31.4432 24.5718 31.448 24.4828 31.4289H24.4812C24.4192 31.4162 24.3603 31.3924 24.3063 31.3462C24.2951 31.3319 24.2872 31.3176 24.2792 31.3033C24.2427 31.2874 24.2077 31.2715 24.1727 31.2556C24.1568 31.2429 24.1425 31.227 24.1314 31.2111C24.125 31.2047 24.1203 31.1968 24.1155 31.1888C23.7848 31.2 23.7514 30.917 23.6878 30.6864C23.6369 30.4972 23.6687 30.2937 23.6656 30.0966C23.6656 30.0044 23.6655 29.9122 23.656 29.82C23.5956 29.2683 23.2903 28.9376 22.8627 28.9614C22.4318 28.9853 22.1138 29.3875 22.1456 29.9312C22.1663 30.2842 22.2092 30.6372 22.2347 30.9917C22.2426 31.0966 22.268 31.2016 22.214 31.297C22.2092 31.3097 22.2013 31.3208 22.1917 31.3319L22.1774 31.3383C22.2013 31.3908 22.2251 31.4401 22.249 31.4909L22.2649 31.4957C22.2649 31.5116 22.2649 31.5259 22.268 31.5402C22.2792 31.6356 22.3412 31.7087 22.4016 31.7739C22.6623 32.0553 22.524 32.1889 22.2362 32.3081C21.8292 32.4751 21.4222 32.4989 20.9993 32.3844C20.7735 32.3224 20.5541 32.2064 20.3125 32.2414C19.9086 32.3002 19.6447 32.5832 19.5716 33.0093C19.5175 33.3257 19.7322 33.7088 20.0883 33.8615C20.8053 34.1683 21.5462 34.2685 22.3221 34.0888C23.0519 33.9203 23.6369 33.5228 24.16 33.014C24.1632 33.0109 24.1664 33.0077 24.1695 33.0045L24.1727 33.0188C24.2013 33.0172 24.23 33.0156 24.2586 33.014C24.2808 33.0125 24.3031 33.0109 24.3254 33.0093C24.3285 33.0315 24.3317 33.0554 24.3349 33.0776C25.203 33.0888 25.4097 33.3066 25.4478 34.181C25.478 34.8758 25.8151 35.4402 26.2746 35.9363C26.6514 36.3433 27.0425 36.7376 27.4272 37.1382C27.7118 37.2749 27.8215 37.6406 28.1633 37.7026C28.1872 37.6994 28.211 37.6979 28.2349 37.6979C28.2572 37.674 28.2731 37.6486 28.2826 37.6184C28.5704 37.4626 28.7627 37.1859 29.0235 36.9935C29.1872 36.9379 29.2524 36.8012 29.3097 36.6565C29.2938 36.6565 29.2763 36.6549 29.2572 36.6517C29.2477 36.3433 28.9026 36.2892 28.7945 36.0523Z" fill="#C34761"/>
<path d="M25.6449 31.7087C26.5543 32.1714 27.0234 32.9011 27.017 33.9298C27.0154 34.1747 27.0949 34.3972 27.2459 34.5912C27.6689 35.1349 28.1522 35.6167 28.6848 36.0523C28.6896 36.0539 28.6927 36.0539 28.6975 36.0555C28.7007 36.0444 28.7039 36.0316 28.7055 36.0189C28.4495 35.7534 28.2046 35.4752 27.936 35.2224C27.432 34.7486 26.9916 34.2541 27.106 33.4862C27.114 33.4385 27.087 33.3845 27.0742 33.3336C26.866 32.4433 26.3095 31.8614 25.4875 31.5179C25.4351 31.5927 25.4748 31.6213 25.6449 31.7087Z" fill="#C34761"/>
<path d="M8.43437 7.80633C8.45027 7.827 8.46299 7.84608 8.47253 7.86674C8.56633 8.04799 8.47889 8.2515 8.51069 8.4407C8.44709 8.47567 8.43119 8.53291 8.43278 8.59809C8.44232 8.59809 8.45345 8.59809 8.46299 8.59968C8.47889 8.59968 8.4932 8.60127 8.5091 8.60286C9.54253 8.60286 10.5744 8.60127 11.6078 8.59968L11.6094 8.59809C11.611 8.59491 11.6126 8.59014 11.6157 8.58696C11.6396 8.53927 11.6634 8.49157 11.6873 8.44546C11.6873 8.44546 11.6873 8.44546 11.6857 8.44546L11.6921 8.43752C11.9687 7.9844 12.2867 7.56785 12.7207 7.25146C12.7223 7.22443 12.7223 7.1974 12.7239 7.17037C12.7541 7.15447 12.7859 7.13858 12.8177 7.12268C12.8384 7.11155 12.859 7.10042 12.8797 7.09088C12.8829 7.06544 12.8861 7.04159 12.8877 7.01774C13.3471 6.79993 13.7462 6.47241 14.2279 6.29752C14.3106 6.26891 14.3917 6.19895 14.476 6.23552C14.4982 6.24347 14.5205 6.25937 14.5443 6.28639C14.7017 6.16556 14.8575 6.04473 15.0133 5.9239C14.3042 5.87779 13.5952 5.89528 12.8861 5.91436C12.8861 5.91436 12.8861 5.91436 12.8861 5.91277C12.832 5.90323 12.7764 5.89528 12.7223 5.88574C12.5872 5.91595 12.4329 5.86189 12.3121 5.96683H12.3105C11.5617 5.94775 10.8764 6.21008 10.1864 6.45174C10.0656 6.52806 9.94795 6.60755 9.82235 6.67592C9.29132 6.96687 8.80482 7.31505 8.43437 7.80633Z" fill="#F19C79"/>
<path d="M24.3269 37.294L24.3312 37.2983L24.3283 37.294H24.3269Z" fill="#D9596B"/>
<path d="M27.4272 37.1382C27.3986 37.1446 27.3684 37.1494 27.3398 37.1541L27.362 37.1764C27.4861 37.2941 27.6037 37.4165 27.7293 37.5309C27.8501 37.6407 27.9567 37.8028 28.1633 37.7027C27.8215 37.6407 27.7118 37.275 27.4272 37.1382Z" fill="#D9596B"/>
<path d="M6.31029 37.3909C3.93182 37.1206 2.18771 35.5132 1.69802 33.219C1.58037 32.6673 1.45318 32.0759 1.64238 31.4955C1.64397 31.494 1.64397 31.494 1.64556 31.4924C1.65509 31.4924 1.66463 31.4924 1.67417 31.494L1.67576 31.4924V31.4637C1.67576 31.4208 1.67576 31.3779 1.67417 31.335C1.4023 31.354 1.43569 31.1617 1.43569 30.9916V28.5527C1.43569 25.8467 1.4341 23.1391 1.43728 20.4331C1.43728 20.2646 1.36256 20.0324 1.67417 20.0467V19.8878C1.39753 19.9068 1.43569 19.7097 1.43569 19.5412V8.61067C1.43251 8.60749 1.42933 8.6059 1.42615 8.60431C1.38958 8.62339 1.35302 8.64088 1.31486 8.65996C1.30214 8.66632 1.28942 8.67268 1.2767 8.67904C1.28465 8.66791 1.29101 8.65837 1.30055 8.64883C1.34507 8.59318 1.3864 8.58205 1.42615 8.60431C1.42933 8.60272 1.43251 8.60113 1.43569 8.59954C1.46272 8.54707 1.48816 8.49461 1.51518 8.44055H1.55811C1.56288 8.41511 1.56288 8.38809 1.55811 8.35947C1.55811 8.26248 1.55652 8.1655 1.55652 8.06852C1.55811 8.20207 1.56924 8.33244 1.65827 8.44055H1.67417H1.67576C1.67417 6.77117 1.67417 5.10178 1.67417 3.4324C1.61217 3.48168 1.58196 3.54051 1.56606 3.60411C1.56606 3.58185 1.56765 3.558 1.56765 3.53574C1.57242 3.50076 1.58196 3.46738 1.59468 3.43399C1.59786 3.42286 1.60263 3.41332 1.6074 3.40219C1.61376 3.39265 1.62012 3.38311 1.62648 3.37357C1.63125 3.36721 1.63761 3.36085 1.64238 3.35449C1.72028 3.27023 1.83793 3.26069 1.94445 3.23207C2.76961 3.00313 3.14641 2.56114 3.24339 1.71691C3.25452 1.61197 3.25452 1.50386 3.35151 1.43232C3.31971 0.594445 2.31649 -0.268866 1.27352 0.0793201C0.556481 0.236719 0.0143285 0.856776 0.00955886 1.6072C1.95257e-05 3.88393 0.0127386 6.16065 0.0159184 8.43896V31.3334V31.4955C0.0127386 33.8867 0.0111488 36.2795 1.9526e-05 38.6707C-0.00157036 38.9235 0.093823 38.9887 0.325947 38.976C0.642335 38.9601 0.958723 38.9664 1.2767 38.9633C1.31486 38.914 1.33712 38.8615 1.34825 38.8074C1.36573 38.8631 1.39276 38.914 1.43569 38.9633C3.11461 38.9664 4.79354 38.9649 6.47087 38.9776C6.73161 38.9792 6.77772 38.8679 6.77136 38.6453C6.75864 38.1953 6.765 37.747 6.76182 37.2971C6.62986 37.4163 6.46928 37.4099 6.31029 37.3909ZM1.55334 5.71389C1.55493 6.4357 1.55811 7.15751 1.55652 7.87932C1.55175 7.15751 1.55334 6.4357 1.55334 5.71389ZM1.19562 1.04597C1.24967 0.995097 1.30532 0.94263 1.35938 0.890164C1.37209 0.886984 1.38322 0.883804 1.39594 0.880625C1.89994 0.759793 2.3928 0.987147 2.52476 1.41165C2.67262 1.88861 2.4405 2.30835 1.93015 2.51026C1.75367 2.58022 1.59468 2.56432 1.4341 2.48005H1.42774C1.41661 2.488 1.40707 2.49754 1.39753 2.51026C1.39753 2.49913 1.39753 2.48959 1.39435 2.47846C1.38163 2.47687 1.3705 2.47687 1.35779 2.47687C1.30373 2.42441 1.24967 2.37194 1.19562 2.32106C0.737728 1.92836 0.737728 1.43868 1.19562 1.04597ZM1.3562 34.3907C1.34507 34.3907 1.33394 34.3891 1.32281 34.3844C1.30691 34.3796 1.29101 34.3701 1.2767 34.3558H1.32281H1.3562H1.43569C1.41025 34.3796 1.38322 34.3907 1.3562 34.3907Z" fill="#75ABDC"/>
<path d="M3.24341 1.71709C3.14643 2.56132 2.76963 3.00331 1.94447 3.23225C1.83795 3.26087 1.7203 3.27041 1.6424 3.35467C1.65193 3.35467 1.66306 3.35467 1.67419 3.35308C1.81887 3.34831 1.96037 3.34831 2.10505 3.3038C2.95723 3.0351 3.31496 2.50567 3.35153 1.4325C3.25454 1.50404 3.25454 1.61215 3.24341 1.71709Z" fill="#75ABDC"/>
<path d="M1.67497 20.0469H1.67419L1.67497 20.0476V20.0469Z" fill="#8AB6E1"/>
<path d="M26.4908 20.039C26.4621 19.9881 26.4319 19.9372 26.4033 19.8864C26.3636 19.9182 26.3222 19.9388 26.2793 19.9515C26.3524 19.9674 26.424 19.9929 26.4908 20.039Z" fill="#E98291"/>
<path d="M6.74434 31.5132C6.74434 31.5116 6.74275 31.51 6.74275 31.5084C6.71731 31.5068 6.69187 31.5036 6.66644 31.4989C6.64895 31.4718 6.63305 31.4432 6.61556 31.4146C6.60284 31.3923 6.58853 31.3717 6.57581 31.3494C6.53129 31.3256 6.48519 31.3001 6.43908 31.2763C6.41841 31.2556 6.39615 31.2349 6.37549 31.2127C5.23871 30.0791 4.27683 28.8231 3.72514 27.292C3.5105 26.6974 3.34992 26.0885 3.34675 25.4477C3.25135 24.8881 3.28792 24.3316 3.41193 23.7799C3.67426 22.4905 4.11466 21.2616 4.70133 20.085C4.69974 20.0819 4.69815 20.0787 4.69656 20.0755C4.69497 20.0771 4.69338 20.0787 4.69179 20.0803L4.64092 20.2091L4.48511 20.1502C4.41356 20.1598 4.34043 20.1598 4.26729 20.1598C4.32294 20.368 4.16554 20.5318 4.0765 20.7019C3.50573 21.783 3.06374 22.9103 2.79028 24.1043C2.22587 26.5638 2.82844 28.7325 4.37858 30.6785C4.52485 30.8597 4.73949 31.0076 4.7697 31.2636C4.78719 31.2699 4.80308 31.2779 4.81898 31.2874C4.83806 31.3001 4.85237 31.316 4.85873 31.3319C4.86032 31.3335 4.86032 31.3351 4.86032 31.3367C4.86509 31.3494 4.86668 31.3621 4.86509 31.378C4.93187 31.3923 4.98751 31.4321 5.0368 31.483C5.04157 31.4877 5.04793 31.4925 5.0527 31.4989C5.0686 31.5163 5.08608 31.5322 5.10357 31.5481C5.57259 32.0188 6.09089 32.4369 6.60284 32.8868C6.74593 32.6245 6.56309 32.3288 6.76978 32.1173C6.77296 31.9631 6.77773 31.8105 6.78091 31.6563C6.73321 31.6086 6.72208 31.5609 6.74434 31.5132Z" fill="#75ABDC"/>
<path d="M6.60283 32.8868C6.09089 32.4369 5.57258 32.0188 5.10357 31.5482C5.07177 31.5561 5.04156 31.5641 5.01135 31.5736C5.47719 32.1046 6.06068 32.5085 6.56626 32.9981C6.68233 33.111 6.75387 33.0474 6.75864 32.9027C6.765 32.6404 6.76659 32.3797 6.76977 32.1173C6.56309 32.3288 6.74592 32.6245 6.60283 32.8868Z" fill="#75ABDC"/>
<path d="M6.78092 31.6563C6.7682 31.6086 6.75707 31.5609 6.74435 31.5132C6.72209 31.5609 6.73322 31.6086 6.78092 31.6563Z" fill="#75ABDC"/>
<path d="M1.30052 8.64902C1.29098 8.65855 1.28462 8.66809 1.27667 8.67922C1.28939 8.67286 1.30211 8.6665 1.31483 8.66014C1.35299 8.64107 1.38955 8.62358 1.42612 8.6045C1.38637 8.58224 1.34504 8.59337 1.30052 8.64902Z" fill="#84B3E0"/>
<path d="M1.39753 2.51044C1.40707 2.49772 1.41661 2.48818 1.42774 2.48023C1.41661 2.47864 1.40548 2.47864 1.39435 2.47864C1.39753 2.48977 1.39753 2.49931 1.39753 2.51044Z" fill="#84B3E0"/>
<path d="M1.62646 3.37376C1.6201 3.3833 1.61374 3.39284 1.60738 3.40237C1.60261 3.4135 1.59785 3.42304 1.59467 3.43417C1.61692 3.43099 1.64395 3.43099 1.67416 3.43258V3.35309C1.66303 3.35468 1.6519 3.35468 1.64236 3.35468C1.63759 3.36104 1.63123 3.3674 1.62646 3.37376Z" fill="#84B3E0"/>
<path d="M25.2077 31.4894C25.284 31.4925 25.3619 31.4941 25.4399 31.4973H25.5034C25.5146 31.483 25.5305 31.4655 25.548 31.4464H25.3763C25.3111 31.4146 25.2348 31.4194 25.1616 31.4162C25.1298 31.4162 25.0964 31.4146 25.0646 31.4162C25.098 31.4194 25.1314 31.429 25.16 31.4464C25.1775 31.4576 25.1934 31.4719 25.2077 31.4894Z" fill="#EC7987"/>
<path d="M30.7263 31.4242C30.8026 31.4385 30.8709 31.4766 30.9155 31.5736C30.9218 31.4591 30.9329 31.3431 30.8598 31.2413C30.8328 31.3415 30.7851 31.3956 30.7263 31.4242Z" fill="#EC7987"/>
<path d="M1.32278 34.3559H1.27667C1.29098 34.3702 1.30688 34.3797 1.32278 34.3845C1.33391 34.3893 1.34504 34.3909 1.35617 34.3909C1.38319 34.3909 1.41022 34.3797 1.43566 34.3559H1.35617H1.32278Z" fill="#82B2E0"/>
<path d="M1.27667 38.9634H1.43566C1.39273 38.9141 1.36571 38.8633 1.34822 38.8076C1.33709 38.8617 1.31483 38.9141 1.27667 38.9634Z" fill="#82B2E0"/>
<path d="M12.6365 35.4752C12.7207 35.5197 12.8034 35.5658 12.8877 35.6103C12.8352 35.5451 12.7986 35.472 12.7843 35.3925C12.7621 35.4323 12.7176 35.4625 12.6365 35.4752Z" fill="#DA7385"/>
<path d="M12.8797 33.0029C12.8479 32.9854 12.8145 32.9695 12.7827 32.9536C12.7954 32.9918 12.8018 33.0299 12.8018 33.0697V33.1667C12.8034 33.1492 12.805 33.1301 12.8066 33.1126C12.8336 33.0713 12.8606 33.0411 12.8876 33.0204V33.0093V33.0077H12.8861C12.8861 33.0061 12.8797 33.0029 12.8797 33.0029Z" fill="#DA7385"/>
<path d="M8.43916 13.8559C8.43757 13.8559 8.43598 13.8543 8.43439 13.8543C8.4328 13.8607 8.4328 13.8686 8.43121 13.875C8.43121 13.8734 8.43121 13.8734 8.43121 13.8718C8.43439 13.867 8.43757 13.8607 8.43916 13.8559Z" fill="#F06977"/>
<path d="M30.9154 31.5736C30.8709 31.4766 30.8026 31.4385 30.7262 31.4242C30.7851 31.3956 30.8328 31.3415 30.8598 31.2413C30.8598 31.0696 30.8455 30.9011 30.7962 30.7326C30.1316 28.4574 29.3128 26.2364 28.3971 24.0519C27.8231 22.6846 27.2078 21.3379 26.4908 20.039C26.424 19.9929 26.3525 19.9674 26.2793 19.9515C26.3223 19.9388 26.3636 19.9181 26.4033 19.8863C25.8326 18.7432 25.1569 17.6637 24.4048 16.6318C24.381 16.573 24.3571 16.5158 24.3333 16.457C24.2808 16.4061 24.2284 16.3536 24.1759 16.3027C24.1521 16.2503 24.1282 16.1978 24.1044 16.1469C24.09 15.9911 23.9788 15.8894 23.8961 15.7717C23.338 14.972 22.6162 14.3217 21.9167 13.6572C21.33 13.0975 20.6432 12.6619 19.9007 12.3296C19.7719 12.2708 19.6177 12.1484 19.4762 12.2644C19.4778 12.2644 19.4778 12.266 19.4794 12.266C19.481 12.9131 19.5016 13.5618 19.4778 14.2073C19.4015 16.3059 19.8752 18.2297 21.2267 19.8848C21.2553 19.8863 21.2823 19.8879 21.3093 19.8911C21.3109 19.8911 21.3109 19.8911 21.3125 19.8911C21.3109 19.8927 21.3109 19.8927 21.3109 19.8943C21.3364 19.942 21.3618 19.9929 21.3872 20.0422L21.3904 20.0501V20.0517C21.4063 20.0692 21.419 20.0883 21.4333 20.1058C21.6209 20.3474 21.8022 20.5923 21.9612 20.8546C22.2108 21.2632 22.0216 21.5684 21.6941 21.8451C21.3968 22.0979 20.9691 22.0995 20.6781 21.8356C20.109 21.3172 19.6431 20.7099 19.2472 20.0517C19.2186 20.0485 19.19 20.0453 19.163 20.0422C19.1439 20.0119 19.1328 19.9833 19.1312 19.9547C19.0962 19.9468 19.0596 19.942 19.0247 19.9404H19.0008C19.0247 19.9293 19.0469 19.9166 19.0692 19.8959C19.0612 19.8927 19.0549 19.8879 19.0469 19.8832C19.0406 19.88 19.0358 19.8752 19.0294 19.8704C18.4936 19.1407 18.2504 18.2837 18.0262 17.4284C17.748 16.36 17.678 15.2645 17.6939 14.1627C17.7035 13.5538 17.6923 12.9449 17.6971 12.336C17.6987 12.1674 17.6733 11.9878 17.8148 11.851C17.8132 11.6269 17.81 11.4027 17.8116 11.1785C17.8179 10.4821 18.1025 10.1848 18.7894 10.1785C19.5414 10.1705 20.295 10.1848 21.047 10.1689C22.3189 10.1435 23.1997 9.58545 23.5511 8.60449C23.5717 8.60449 23.5908 8.6029 23.6099 8.59813C23.6115 8.54566 23.6115 8.49161 23.6115 8.43914C24.2013 6.71411 22.9914 5.08765 21.1122 5.08606C20.0549 5.08447 18.9976 5.09878 17.9404 5.09083C16.8815 5.08129 15.9037 5.34044 15.015 5.92234C14.8591 6.04318 14.7033 6.16401 14.5459 6.28484C13.813 6.83653 13.3678 7.59332 13.0403 8.42801C13.0419 8.43278 13.0451 8.43596 13.0483 8.44073V8.44232C13.053 8.45186 13.0594 8.4614 13.0658 8.47094C13.0864 8.51068 13.0896 8.55361 13.0817 8.59813C13.0801 8.60449 13.0785 8.61085 13.0769 8.6188C13.0753 8.62198 13.0737 8.62357 13.0737 8.62675C12.9592 8.85569 13.0069 9.11166 12.9513 9.35015C12.9084 9.48688 12.9243 9.62997 12.902 9.76829C12.894 9.81916 12.894 9.87799 12.8797 9.92728V9.31517C12.6937 9.52344 12.9099 9.81916 12.7303 10.0306H12.7287C12.7287 10.0322 12.7287 10.0322 12.7271 10.0338C12.7239 10.9575 12.7192 11.8813 12.7144 12.805V12.832C12.7207 13.1436 12.7271 13.4568 12.7335 13.7669V13.7859C12.7335 14.8861 12.7335 15.9879 12.7351 17.0881V17.1072C12.7271 17.5826 12.7207 18.0596 12.7144 18.5365C12.6953 18.7273 12.6635 18.9117 12.6095 19.0819C12.522 19.3601 12.3726 19.6033 12.107 19.7766C12.053 19.8132 11.9926 19.845 11.9274 19.8752C11.902 19.8816 11.8765 19.8879 11.8511 19.8927C11.7986 19.9436 11.7461 19.9945 11.6937 20.0437C11.6937 20.0453 11.6953 20.0469 11.6953 20.0469H11.6905C11.6587 20.0517 11.6285 20.0565 11.5967 20.0612H11.5951C11.3312 20.3124 10.9607 20.2298 10.6602 20.3633C10.6587 20.3426 10.6571 20.3236 10.6539 20.3029C10.6539 20.2997 10.6523 20.2949 10.6523 20.2918C10.4965 20.2902 10.3391 20.2886 10.1833 20.287C9.97342 20.3124 9.79694 20.2218 9.62523 20.1232C9.54415 20.0962 9.46465 20.0692 9.38516 20.0422V19.9738V19.969C9.38516 19.9436 9.38516 19.9181 9.38357 19.8911C9.35813 19.8863 9.3311 19.88 9.30407 19.8752H9.2214C9.19278 19.8545 9.16416 19.8307 9.13554 19.8069H9.13395C8.67448 19.4205 8.41373 18.9245 8.40101 18.2885C8.40101 17.4586 8.39624 16.6271 8.4026 15.7987C8.41214 15.7844 8.42168 15.7701 8.43122 15.7542C8.43122 16.4903 8.42804 17.2281 8.43281 17.9642C8.4344 18.1025 8.38035 18.2567 8.50754 18.3744C8.50754 17.4745 8.50754 16.5762 8.50754 15.6763C8.50595 15.6779 8.50436 15.6795 8.50436 15.6795C8.50595 15.6779 8.50595 15.6763 8.50754 15.6747C8.50913 15.6223 8.51072 15.5682 8.51231 15.5157V15.3933V15.131V15.1199C8.30721 14.6969 8.52821 14.2709 8.50277 13.8464C8.50277 13.8464 8.50277 13.8464 8.50118 13.8464C8.4821 13.8464 8.46302 13.8448 8.44553 13.8432C8.44394 13.8479 8.44235 13.8511 8.43917 13.8559C8.43599 13.8607 8.4344 13.867 8.43281 13.8718C8.43281 13.875 8.43281 13.8766 8.43122 13.8797C8.41373 14.0276 8.37558 14.1755 8.34855 14.3233C8.34537 14.3392 8.34378 14.3535 8.3406 14.3694C8.34219 14.3631 8.34219 14.3567 8.34378 14.3504C8.34537 14.3424 8.34696 14.3345 8.34696 14.3281C8.25633 14.6508 8.08304 14.9227 7.6951 15.0642C7.65695 15.0547 7.63151 15.0356 7.61084 15.0086C7.61084 15.0102 7.60925 15.0102 7.60925 15.0117C7.60448 15.0213 7.59812 15.0292 7.59335 15.0372C7.59176 15.0404 7.58858 15.0451 7.58699 15.0483C7.5854 15.0515 7.58222 15.0547 7.58063 15.0563C7.57586 15.0626 7.57109 15.0706 7.56632 15.0769C7.56473 15.0801 7.56155 15.0833 7.55996 15.0865C7.5536 15.0928 7.54724 15.0992 7.54088 15.104C7.53611 15.1071 7.53293 15.1119 7.52816 15.1151C7.51545 15.1262 7.50114 15.1342 7.48524 15.1389C7.44231 15.158 7.38825 15.1532 7.31989 15.1183C7.26583 15.1437 7.21178 15.1707 7.15772 15.1962C7.0512 15.3281 6.90334 15.2582 6.77297 15.2788C6.76979 15.2788 6.76661 15.2804 6.76343 15.2804C6.76343 15.5952 6.76502 15.9116 6.76502 16.228C6.76502 16.2296 6.76502 16.2296 6.76502 16.2312H6.76184C6.76184 16.2375 6.76184 16.2423 6.76343 16.2487C6.77774 16.2566 6.79364 16.2614 6.80953 16.2678C6.91765 16.9403 6.9558 17.608 6.59649 18.2265C6.29918 18.7353 6.19266 19.3299 5.88104 19.8307C5.8715 19.8466 5.86196 19.8609 5.85242 19.8768C5.85083 19.8784 5.84924 19.88 5.84765 19.88C5.81744 19.9038 5.78564 19.9102 5.75067 19.9007C5.76975 19.9388 5.77134 19.9786 5.75544 20.0215C5.75544 20.0278 5.75385 20.0342 5.75067 20.0406C5.74908 20.0453 5.74749 20.0485 5.7459 20.0533C5.72523 20.0724 5.70456 20.0883 5.68071 20.1026C5.73159 20.2107 5.69025 20.322 5.6505 20.4237C5.20852 21.5732 5.0543 22.764 5.13379 23.9883C5.13697 24.0232 5.13379 24.0566 5.12743 24.0884C5.97325 24.3539 6.79999 24.6703 7.71577 24.6369C8.42804 24.6115 8.91932 24.3031 9.21663 23.6671C9.27863 23.5351 9.33269 23.4 9.409 23.276C9.65544 22.8785 10.1515 22.702 10.5839 22.8563C10.9925 23.0025 11.2056 23.3952 11.142 23.8801C11.1086 24.1329 11.0084 24.3651 10.8844 24.5829C10.7588 24.8055 10.824 24.9136 11.0561 24.9867C11.4329 25.1044 11.824 25.1839 12.1754 25.3794C12.3614 25.4828 12.522 25.6036 12.6333 25.7737C12.6667 25.823 12.6937 25.8755 12.7176 25.9327C12.7192 25.9581 12.7239 25.9804 12.7319 26.0058C12.7462 25.9979 12.7589 25.9963 12.77 25.9995C12.805 26.0042 12.8257 26.0456 12.8368 26.1012C12.8575 26.1998 12.8145 26.3095 12.8797 26.4017C12.751 26.3175 12.8432 26.1521 12.77 26.0472V26.699C12.751 26.6704 12.7319 26.6513 12.7144 26.6402C12.7128 26.6386 12.7128 26.6386 12.7128 26.6386C12.3344 27.1108 11.8845 27.2221 11.3121 26.9836C10.7652 26.7547 10.1833 26.6068 9.63 26.3906C9.24366 26.2395 8.89547 26.2189 8.49005 26.3604C7.73803 26.6211 6.97806 26.4637 6.2324 26.2634C6.09567 26.2284 5.95735 26.1982 5.81903 26.1648C5.88104 26.5623 6.1068 26.8914 6.31349 27.2221C7.12115 28.5099 8.18638 29.564 9.34223 30.5386C9.6141 30.766 9.96388 30.9202 10.1404 31.2525C10.1881 31.27 10.2278 31.297 10.2612 31.3367H10.266C10.2644 31.3383 10.2644 31.3383 10.2644 31.3383V31.3399C10.2819 31.3558 10.2978 31.3733 10.3152 31.3892C10.3486 31.3908 10.382 31.3956 10.4154 31.4035C10.4679 31.4337 10.5187 31.4655 10.5712 31.4957C10.5998 31.5132 10.6284 31.5291 10.6555 31.5466H10.6571C10.6587 31.5482 10.6587 31.5482 10.6602 31.5482C11.355 31.9616 12.0498 32.3733 12.6905 32.8694C12.7017 32.8757 12.7128 32.8853 12.7223 32.8932C12.7319 32.8996 12.7414 32.9075 12.751 32.9155C12.7923 32.9044 12.8273 32.9219 12.8591 32.9489C12.8622 32.9521 12.8638 32.9537 12.867 32.9568C12.8702 32.968 12.875 32.9775 12.8797 32.987C12.8813 32.9934 12.8845 32.9998 12.8877 33.0061V33.0077C12.8909 33.0093 12.894 33.0109 12.8972 33.0125C13.0276 32.9234 13.158 33.0538 13.2788 33.1158C14.7335 33.8774 16.1994 34.6167 17.7384 35.1906C19.7449 35.9395 21.737 36.7439 23.8611 37.1255C23.9803 37.1462 24.0932 37.1828 24.1727 37.2686C24.1759 37.2718 24.1791 37.275 24.1823 37.2797C24.222 37.2352 24.2459 37.1891 24.2602 37.1382C24.2681 37.1907 24.2856 37.24 24.3238 37.2861C24.3254 37.2845 24.3269 37.2829 24.3285 37.2813C24.4653 37.1684 24.6338 37.178 24.796 37.1748C25.548 37.1637 26.3016 37.2114 27.0472 37.0667C27.1172 37.0524 27.1856 37.0508 27.2523 37.0651C26.9185 36.7281 26.575 36.3989 26.2491 36.0555C25.7101 35.4832 25.3588 34.8297 25.3349 34.0173C25.3174 33.4465 25.1346 33.27 24.5559 33.1778C24.4764 33.1651 24.3969 33.1556 24.3349 33.111C24.3285 33.1063 24.3222 33.1015 24.3158 33.0952C24.2888 33.1254 24.2729 33.1587 24.2633 33.1953C24.249 33.1349 24.2236 33.0761 24.1775 33.0236C24.1759 33.022 24.1743 33.022 24.1727 33.0204C24.168 33.0188 24.1648 33.0157 24.16 33.0125C23.6369 33.5212 23.0518 33.9187 22.3221 34.0872C21.5462 34.2669 20.8053 34.1667 20.0883 33.8599C19.7322 33.7073 19.5175 33.3241 19.5716 33.0077C19.6447 32.5816 19.9086 32.2986 20.3125 32.2398C20.5541 32.2048 20.7735 32.3209 20.9993 32.3829C21.4222 32.4974 21.8292 32.4735 22.2362 32.3066C22.524 32.1873 22.6623 32.0538 22.4016 31.7724C22.3412 31.7072 22.2792 31.634 22.268 31.5386C22.2633 31.5371 22.2585 31.5339 22.2537 31.5307C22.2378 31.518 22.2235 31.5037 22.2108 31.4894H22.249C22.2251 31.4385 22.2013 31.3892 22.1774 31.3367L22.1917 31.3304C22.1901 31.3272 22.1901 31.3224 22.1885 31.3192C22.0566 30.8773 22.1043 30.4162 22.0407 29.9662C21.9882 29.5958 22.082 29.2174 22.427 28.9932C23.0391 28.5974 23.7085 28.9916 23.7673 29.7771C23.7864 30.0394 23.7689 30.3033 23.7737 30.5672C23.7768 30.8264 23.8675 31.0362 24.098 31.1555C24.1187 31.1666 24.1409 31.1762 24.1632 31.1857C24.1632 31.1936 24.1648 31.2032 24.1664 31.2111C24.1982 31.2159 24.2268 31.227 24.2522 31.2445H24.2538C24.2824 31.2636 24.3063 31.289 24.3269 31.3224C24.4605 31.3272 24.594 31.3304 24.7276 31.3351C24.7817 31.4051 24.8548 31.413 24.9327 31.413C24.9677 31.413 24.9979 31.4099 25.0313 31.4146H25.0646C25.0964 31.413 25.1298 31.4146 25.1616 31.4146C25.2348 31.4178 25.3111 31.413 25.3763 31.4448H25.548C25.5305 31.4639 25.5146 31.4814 25.5035 31.4957C25.4971 31.5037 25.4907 31.51 25.4876 31.5164C26.3095 31.8598 26.866 32.4417 27.0743 33.332C27.087 33.3829 27.114 33.437 27.1061 33.4847C26.9916 34.2526 27.432 34.747 27.936 35.2208C28.2047 35.4736 28.4495 35.7519 28.7055 36.0174C28.7309 36.0205 28.7564 36.0221 28.7818 36.0221C29.06 35.5181 29.5402 35.6326 29.9838 35.631C29.9711 35.6517 29.9599 35.674 29.9472 35.6946C29.9854 35.6787 30.0172 35.6549 30.041 35.6215C30.7231 34.3575 31.0633 33.0172 30.9154 31.5736ZM20.5971 6.06543C21.2235 5.84126 21.861 5.90327 22.3634 6.39454C22.7768 6.79837 22.9835 7.30078 22.8547 7.89858C22.815 8.07823 22.7768 8.2563 22.7371 8.43596H22.7323C22.71 8.43914 22.6862 8.44232 22.6623 8.4455C22.6623 8.49638 22.6607 8.54725 22.6607 8.59813H22.6417C22.6194 8.59972 22.5987 8.59972 22.5781 8.60131C21.869 9.49165 20.7052 9.55683 19.9277 8.74758C19.8943 8.71419 19.8943 8.65059 19.8784 8.60131C19.853 8.59972 19.826 8.59813 19.8005 8.59654H19.7958C19.7703 8.54566 19.7449 8.49479 19.7194 8.44232V8.43914H19.6988C19.7035 8.43278 19.7083 8.42801 19.7115 8.42165C19.2377 7.35801 19.6733 6.39772 20.5971 6.06543ZM8.38353 14.9799C8.38194 14.9752 8.37876 14.9688 8.37558 14.964C8.37876 14.9688 8.38194 14.9736 8.38353 14.9799ZM8.33742 14.8432C8.33583 14.8353 8.33424 14.8273 8.33265 14.821C8.33424 14.8289 8.33583 14.8353 8.33742 14.8432ZM12.8797 29.9042H12.7271V29.8899C12.7319 29.8852 12.7366 29.8836 12.743 29.882C12.7716 29.8391 12.7859 29.7945 12.7939 29.7468C12.8082 29.7945 12.8289 29.8406 12.8638 29.8836C12.8702 29.8852 12.875 29.8883 12.8797 29.8915V29.9042ZM12.77 23.0979C12.7557 23.0947 12.7414 23.09 12.7287 23.082C12.7255 23.0804 12.7223 23.0773 12.7192 23.0757C12.7223 23.0725 12.7255 23.0693 12.7287 23.0661H12.77H12.8781C12.84 23.0932 12.8034 23.1043 12.77 23.0979ZM15.2677 20.0422V19.9674V19.934V19.8927C15.2805 19.9054 15.29 19.9197 15.2948 19.934C15.2995 19.9452 15.3027 19.9563 15.3027 19.9674C15.3027 19.9929 15.29 20.0183 15.2677 20.0422ZM26.052 27.7197C25.8039 28.0059 25.2872 28.0377 24.947 27.7801C24.7403 27.6212 24.54 27.4558 24.3365 27.2921C24.3333 27.2921 24.3317 27.2936 24.3285 27.2952V27.2857C24.3254 27.2825 24.3222 27.2793 24.319 27.2746H24.3174C24.2713 27.2523 24.2236 27.2316 24.1775 27.2094C24.1775 27.2094 24.1759 27.2094 24.1743 27.211C24.1743 27.2094 24.1743 27.2094 24.1743 27.2078L24.168 27.1919C24.1616 27.1887 24.1568 27.1871 24.1505 27.1839C23.3205 26.7881 22.4127 26.7276 21.5303 26.5671C21.0518 26.4796 20.57 26.4065 20.1121 26.2348C19.7131 26.0853 19.4428 25.699 19.4953 25.3651C19.5684 24.9136 19.888 24.6147 20.3554 24.5797C21.4588 24.4954 22.3761 24.0582 23.0868 23.1901C23.3571 22.861 23.7164 22.8404 24.09 22.9612C24.1155 22.9691 24.1425 22.9787 24.1695 22.9882C24.1727 23.0121 24.1759 23.0359 24.1807 23.0598C24.2013 23.0614 24.222 23.0629 24.2411 23.0629C24.2697 23.0661 24.2983 23.0677 24.3269 23.0693C24.3285 23.0963 24.3301 23.125 24.3333 23.152C24.6719 23.5844 24.6719 23.8992 24.3333 24.3317C24.3317 24.3603 24.3301 24.3873 24.3269 24.4159C24.2967 24.4318 24.2665 24.4477 24.2363 24.4636C24.2157 24.4748 24.1934 24.4859 24.1727 24.497C24.1727 24.4986 24.1727 24.4986 24.1727 24.5002C24.168 24.5209 24.1632 24.5447 24.1616 24.567C24.1648 24.8341 24.168 25.1012 24.1727 25.3683V25.3715V25.3731C24.1997 25.3746 24.2268 25.3746 24.2538 25.3746C24.2792 25.3746 24.3031 25.3762 24.3269 25.3762C24.3285 25.4017 24.3301 25.4287 24.3333 25.4541C25.0122 25.6497 25.5543 26.0647 26.0504 26.5432C26.3874 26.8707 26.3731 27.3477 26.052 27.7197Z" fill="#F06977"/>
<path d="M24.567 27.3572C24.7228 27.4796 24.8691 27.6132 25.036 27.7197C25.3699 27.9311 25.7721 27.8819 26.0011 27.6036C26.2634 27.2841 26.2554 26.9136 25.9613 26.6036C25.575 26.1998 25.1219 25.8865 24.6115 25.6544C24.5145 25.6099 24.4112 25.5733 24.3333 25.4986C24.3301 25.4954 24.3253 25.4907 24.3221 25.4875C24.3094 25.4732 24.2951 25.4589 24.284 25.4414C24.2713 25.4207 24.2617 25.3985 24.2538 25.3746C24.2267 25.3746 24.1997 25.3746 24.1727 25.373V25.3714H24.1711L24.1663 25.3667C23.9692 25.3094 23.772 25.2522 23.5463 25.1886C23.5542 25.2093 23.5256 25.1949 23.5272 25.1822C23.5113 25.1775 23.4954 25.1727 23.4779 25.1679C23.6957 24.9612 23.8468 24.7212 24.098 24.5956C24.1139 24.5574 24.1361 24.5256 24.1695 24.5002C24.1711 24.4986 24.1711 24.4986 24.1727 24.497C24.1934 24.4859 24.2156 24.4747 24.2363 24.4636C24.2395 24.4254 24.249 24.3889 24.2601 24.3539C24.2776 24.3285 24.2935 24.3046 24.3094 24.2792V24.2776C24.319 24.2633 24.3269 24.249 24.3333 24.2362C24.5177 23.904 24.4954 23.5748 24.3333 23.2457C24.3269 23.2314 24.319 23.2171 24.311 23.2044C24.2935 23.1694 24.2744 23.136 24.2538 23.1011C24.2283 23.1042 24.2045 23.0995 24.1806 23.0868C24.1775 23.0852 24.1743 23.0836 24.1711 23.0804C24.1584 23.0724 24.1457 23.0613 24.1329 23.0486C24.125 23.0359 24.117 23.0232 24.1107 23.0104C24.001 23.0438 23.8881 23.0184 23.7784 23.0136C23.5208 23.0057 23.3141 23.0979 23.1472 23.2918C22.4413 24.1154 21.543 24.5685 20.4651 24.6766C20.3728 24.6862 20.2806 24.6957 20.1916 24.7227C19.8641 24.8166 19.6685 25.0344 19.6256 25.3682C19.5811 25.7021 19.7671 25.9279 20.0406 26.0726C20.3585 26.2427 20.7099 26.3222 21.0645 26.3778C21.7704 26.4907 22.4779 26.602 23.1758 26.753C23.5049 26.8262 23.8674 26.8548 24.117 27.1298C24.1345 27.1489 24.152 27.1696 24.1679 27.1918L24.1743 27.2077C24.1759 27.2077 24.1759 27.2093 24.1775 27.2093C24.2093 27.1903 24.2426 27.1934 24.276 27.2221H24.2776C24.2951 27.2364 24.311 27.2554 24.3285 27.2793V27.2857C24.3317 27.2872 24.3333 27.2904 24.3364 27.292C24.4 27.257 24.4811 27.292 24.567 27.3572Z" fill="#C34761"/>
<path d="M24.3333 25.4541V25.4986C24.4112 25.5733 24.5145 25.6099 24.6115 25.6544C25.1218 25.8866 25.575 26.1998 25.9613 26.6036C26.2554 26.9136 26.2634 27.2841 26.001 27.6036C25.7721 27.8819 25.3699 27.9312 25.036 27.7197C24.869 27.6132 24.7228 27.4796 24.567 27.3572C24.4811 27.292 24.4 27.257 24.3364 27.292C24.5399 27.4558 24.7403 27.6211 24.9469 27.7801C25.2872 28.0377 25.8039 28.0059 26.0519 27.7197C26.3731 27.3477 26.3874 26.8707 26.0503 26.5432C25.5543 26.0646 25.0121 25.6497 24.3333 25.4541Z" fill="#C34761"/>
<path d="M24.3063 31.3463C24.3603 31.3924 24.4191 31.4162 24.4812 31.4289H24.4827C24.5718 31.448 24.6672 31.4433 24.7594 31.4464H24.823C24.939 31.4989 25.1044 31.3987 25.2077 31.4894C25.1934 31.4719 25.1775 31.4576 25.16 31.4464C25.1314 31.4289 25.098 31.4194 25.0646 31.4162H25.0313C24.9979 31.4115 24.9677 31.4146 24.9327 31.4146C24.8548 31.4146 24.7816 31.4067 24.7276 31.3367C24.594 31.332 24.4605 31.3288 24.3269 31.324C24.311 31.3177 24.2951 31.3097 24.2792 31.3033C24.2872 31.3177 24.2951 31.332 24.3063 31.3463Z" fill="#C66179"/>
<path d="M24.2792 31.3033C24.2951 31.3097 24.311 31.3176 24.3269 31.324C24.3062 31.2906 24.2824 31.2652 24.2538 31.2461H24.2522C24.2267 31.2286 24.1981 31.2175 24.1663 31.2127C24.1679 31.227 24.1711 31.2413 24.1727 31.2556C24.2077 31.2715 24.2426 31.2874 24.2792 31.3033Z" fill="#EB7E8D"/>
<path d="M24.319 27.2745C24.3221 27.2793 24.3253 27.2825 24.3285 27.2857V27.2793C24.3253 27.2777 24.3221 27.2761 24.319 27.2745Z" fill="#EB7E8D"/>
<path d="M24.2777 27.2221H24.2761C24.2427 27.1935 24.2093 27.1903 24.1775 27.2094C24.2236 27.2316 24.2713 27.2523 24.3174 27.2745H24.319C24.3222 27.2761 24.3253 27.2777 24.3285 27.2793C24.311 27.2555 24.2951 27.2364 24.2777 27.2221Z" fill="#C7667D"/>
<path d="M24.3221 25.4875C24.3253 25.4907 24.3301 25.4955 24.3333 25.4986V25.4541C24.3301 25.4287 24.3285 25.4017 24.3269 25.3762C24.3031 25.3762 24.2792 25.3746 24.2538 25.3746C24.2617 25.3985 24.2713 25.4207 24.284 25.4414C24.2951 25.4589 24.3094 25.4732 24.3221 25.4875Z" fill="#C7667D"/>
<path d="M24.3333 24.2363V24.3317C24.6719 23.8992 24.6719 23.5844 24.3333 23.152V23.2458C24.4954 23.5749 24.5177 23.904 24.3333 24.2363Z" fill="#C54962"/>
<path d="M24.2538 23.1011C24.2745 23.1361 24.2935 23.1695 24.311 23.2044C24.319 23.2172 24.3269 23.2315 24.3333 23.2458V23.152C24.3301 23.1249 24.3285 23.0963 24.3269 23.0693C24.2983 23.0677 24.2697 23.0661 24.2411 23.0629C24.222 23.0629 24.2013 23.0613 24.1807 23.0598V23.0868C24.2045 23.0995 24.2284 23.1043 24.2538 23.1011Z" fill="#C8687F"/>
<path d="M24.3094 24.2776V24.2792C24.2935 24.3046 24.2776 24.3285 24.2601 24.3539C24.249 24.3889 24.2394 24.4255 24.2363 24.4636C24.2665 24.4477 24.2967 24.4318 24.3269 24.4159C24.3301 24.3873 24.3317 24.3603 24.3333 24.3317V24.2363C24.3269 24.249 24.3189 24.2633 24.3094 24.2776Z" fill="#C8687F"/>
<path d="M1.55653 7.87948C1.55812 7.15767 1.55494 6.43586 1.55335 5.71405C1.55335 6.43586 1.55177 7.15767 1.55653 7.87948Z" fill="#75ABDC"/>
<path d="M1.55652 8.06866C1.55652 8.16565 1.55811 8.26263 1.55811 8.35961C1.56288 8.38823 1.56288 8.41526 1.55811 8.4407H1.65827C1.56924 8.33259 1.55811 8.20222 1.55652 8.06866Z" fill="#75ABDC"/>
<path d="M1.56763 3.53591C1.56763 3.55816 1.56604 3.58201 1.56604 3.60427C1.58194 3.54068 1.61215 3.48185 1.67415 3.43256C1.64394 3.43097 1.61692 3.43097 1.59466 3.43415C1.58194 3.46754 1.5724 3.50093 1.56763 3.53591Z" fill="#75ABDC"/>
<path d="M8.43276 8.5981C8.43117 8.53292 8.44707 8.47409 8.51067 8.4407C8.47887 8.2515 8.56631 8.048 8.47251 7.86675C8.46297 7.84608 8.45025 7.827 8.43435 7.80634C8.18951 7.96532 8.07345 8.24038 7.87153 8.43911C7.8604 8.46455 7.84927 8.48999 7.83814 8.51543C7.82543 8.54404 7.81271 8.57266 7.79999 8.60128H7.84132C8.03688 8.59969 8.23562 8.59969 8.43276 8.5981Z" fill="#DD8E70"/>
<path d="M12.8861 33.0077H12.8876C12.8845 33.0013 12.8813 32.9949 12.8797 32.9886V33.0029C12.8797 33.0029 12.8861 33.0061 12.8861 33.0077Z" fill="#F06977"/>
<path d="M22.2489 31.491H22.2108C22.2235 31.5053 22.2378 31.5196 22.2537 31.5323C22.2585 31.5355 22.2632 31.5387 22.268 31.5403C22.2648 31.5259 22.2648 31.5116 22.2648 31.4957L22.2489 31.491Z" fill="#F06977"/>
<path d="M24.1695 33.0045C24.1663 33.0077 24.1632 33.0109 24.16 33.0141C24.1647 33.0172 24.1679 33.0204 24.1727 33.022C24.1727 33.0204 24.1727 33.0204 24.1727 33.0188L24.1695 33.0045Z" fill="#F06977"/>
<path d="M24.1695 37.2972L24.1727 37.2925V37.2702C24.0932 37.1843 23.9803 37.1478 23.8611 37.1271C21.737 36.7455 19.7449 35.941 17.7384 35.1922C16.1994 34.6183 14.7335 33.879 13.2788 33.1174C13.158 33.0554 13.0276 32.925 12.8972 33.0141C14.2677 33.782 15.6716 34.4879 17.1327 35.0618C19.4269 35.9617 21.7227 36.8759 24.1695 37.2972Z" fill="#F06977"/>
<path d="M1.67419 31.3351C1.67578 31.3781 1.67578 31.421 1.67578 31.4639V31.4925C1.68691 31.4782 1.69645 31.4623 1.70122 31.4464C1.70122 31.4464 1.70122 31.4464 1.70122 31.4448C1.71394 31.4083 1.70917 31.3717 1.69327 31.3351H1.67578H1.67419Z" fill="#98C2E8"/>
<path d="M4.85395 31.3765V31.4146C4.90641 31.4671 4.95888 31.5196 5.01134 31.5736C5.04155 31.5641 5.07176 31.5561 5.10356 31.5482C5.08607 31.5323 5.06858 31.5164 5.05268 31.4989C5.04791 31.4925 5.04155 31.4878 5.03678 31.483C4.9875 31.4321 4.93185 31.3924 4.86508 31.3781C4.86666 31.3622 4.86507 31.3495 4.86031 31.3367H4.85236C4.85236 31.351 4.85236 31.3638 4.85395 31.3765Z" fill="#8DB5DF"/>
<path d="M28.7261 36.0587C28.75 36.0618 28.7722 36.0603 28.7945 36.0523C28.7897 36.0444 28.785 36.0332 28.7818 36.0237C28.7563 36.0237 28.7309 36.0221 28.7055 36.0189C28.7039 36.0316 28.7007 36.0444 28.6975 36.0555C28.707 36.0571 28.7166 36.0587 28.7261 36.0587Z" fill="#B8506A"/>
<path d="M28.7818 36.0237C28.785 36.0333 28.7897 36.0444 28.7945 36.0523C28.9026 36.2892 29.2476 36.3433 29.2572 36.6517C29.2763 36.6549 29.2937 36.6565 29.3096 36.6565C29.502 36.6581 29.5275 36.488 29.5752 36.3433C29.6976 36.1271 29.8232 35.9124 29.9472 35.6962C29.9599 35.6755 29.971 35.6533 29.9838 35.6326C29.5402 35.6342 29.06 35.5197 28.7818 36.0237Z" fill="#DE6B7D"/>
<path d="M10.4981 31.4973H10.5712C10.5188 31.4671 10.4679 31.4353 10.4154 31.4051C10.382 31.3971 10.3486 31.3923 10.3152 31.3907C10.3502 31.4241 10.3836 31.4575 10.4186 31.4909C10.444 31.4941 10.4711 31.4957 10.4981 31.4973Z" fill="#EA8291"/>
<path d="M12.7255 32.925L12.7827 32.9536C12.8145 32.9695 12.8479 32.9854 12.8797 33.0029V32.9886C12.8749 32.979 12.8702 32.9695 12.867 32.9584C12.8638 32.9552 12.8622 32.9536 12.859 32.9504C12.8272 32.9234 12.7922 32.9059 12.7509 32.917C12.7414 32.9091 12.7318 32.9011 12.7223 32.8948V32.925H12.7255Z" fill="#EA8291"/>
<path d="M12.7223 32.925V32.8948C12.7128 32.8869 12.7016 32.8773 12.6905 32.871C12.0498 32.3749 11.355 31.9632 10.6602 31.5498C10.6586 31.5498 10.6586 31.5498 10.657 31.5482H10.6554C10.6284 31.5307 10.5998 31.5148 10.5712 31.4973H10.498C11.204 32.0283 11.9576 32.4862 12.7223 32.925Z" fill="#F06977"/>
<path d="M6.61555 31.4146C6.63304 31.4432 6.64894 31.4718 6.66643 31.4989C6.69187 31.5036 6.71731 31.5068 6.74274 31.5084C6.72843 31.4877 6.71095 31.4687 6.69187 31.4528C6.70459 31.413 6.69346 31.3812 6.67279 31.3494H6.57581C6.58852 31.3717 6.60283 31.3924 6.61555 31.4146Z" fill="#D97587"/>
<path d="M10.4186 31.4909C10.3836 31.4576 10.3502 31.4242 10.3152 31.3908C10.2977 31.3749 10.2818 31.3574 10.2644 31.3415C10.2516 31.3606 10.2485 31.3749 10.2516 31.3876C10.2628 31.4417 10.3788 31.4496 10.4186 31.4909Z" fill="#D97587"/>
<path d="M24.3317 37.2988C25.3365 37.2924 26.3445 37.3433 27.3397 37.1541C27.3684 37.1493 27.3986 37.1446 27.4272 37.1382C27.0424 36.7376 26.6513 36.3433 26.2745 35.9363C25.815 35.4402 25.478 34.8758 25.4478 34.181C25.4096 33.3066 25.2029 33.0888 24.3348 33.0776V33.1126C24.3969 33.1571 24.4763 33.1667 24.5558 33.1794C25.1346 33.2716 25.3174 33.4481 25.3349 34.0189C25.3587 34.8313 25.7101 35.4847 26.2491 36.0571C26.575 36.4005 26.9184 36.7296 27.2523 37.0667C27.1855 37.0524 27.1172 37.0539 27.0472 37.0683C26.3015 37.2129 25.5479 37.1652 24.7959 37.1764C24.6338 37.1796 24.4652 37.17 24.3285 37.2829V37.294L24.3317 37.2988Z" fill="#F06977"/>
<path d="M24.1743 37.2925H24.1902C24.2331 37.294 24.2744 37.2941 24.3173 37.2941H24.3269H24.3285V37.2829C24.3269 37.2845 24.3253 37.2861 24.3237 37.2877C24.2856 37.2416 24.2681 37.1923 24.2601 37.1398C24.2458 37.1907 24.222 37.2368 24.1822 37.2813C24.179 37.2766 24.1758 37.2734 24.1727 37.2702V37.2925H24.1743Z" fill="#EB7887"/>
<path d="M24.3253 33.0093C24.303 33.0109 24.2808 33.0125 24.2585 33.014C24.2299 33.0156 24.2013 33.0172 24.1727 33.0188C24.1727 33.0204 24.1727 33.0204 24.1727 33.022C24.1743 33.0236 24.1759 33.0236 24.1774 33.0252C24.2235 33.0776 24.249 33.1365 24.2633 33.1969C24.2728 33.1603 24.2887 33.1269 24.3158 33.0967C24.3221 33.1031 24.3285 33.1079 24.3348 33.1126V33.0776C24.3317 33.0554 24.3285 33.0315 24.3253 33.0093Z" fill="#EB7887"/>
<path d="M1.22106 2.22584C1.2147 2.25764 1.20516 2.28944 1.19562 2.32124C1.24967 2.37211 1.30373 2.42458 1.35779 2.47705C1.37051 2.47705 1.38163 2.47705 1.39435 2.47864C1.40548 2.47864 1.41661 2.47864 1.42774 2.48023H1.4341C1.59468 2.56449 1.75367 2.58039 1.93015 2.51043C2.4405 2.30852 2.67263 1.88879 2.52477 1.41182C2.3928 0.98732 1.89994 0.759966 1.39594 0.880797C1.38322 0.883977 1.3721 0.887157 1.35938 0.890337C1.30532 0.942803 1.24967 0.995269 1.19562 1.04615C1.20516 1.07794 1.2147 1.10815 1.22106 1.13995C1.31804 1.50085 1.31804 1.86494 1.22106 2.22584Z" fill="#629CD4"/>
<path d="M1.19559 2.32123C1.20513 2.28944 1.21467 2.25764 1.22103 2.22584C1.31801 1.86494 1.31801 1.50085 1.22103 1.13995C1.21467 1.10815 1.20513 1.07794 1.19559 1.04614C0.737701 1.43885 0.737701 1.92853 1.19559 2.32123Z" fill="#609BD3"/>
<path d="M11.7302 8.43594C12.7271 8.4566 12.7271 8.44389 12.7239 7.44543C12.7239 7.38979 12.7223 7.33573 12.7223 7.28009V7.24988C12.2883 7.56627 11.9703 7.98282 11.6937 8.43594H11.7302Z" fill="#DD8765"/>
<path d="M13.0371 8.43434C12.8352 8.41367 12.8861 8.25627 12.8845 8.13703C12.8797 7.78885 12.8813 7.43907 12.8813 7.08929C12.8606 7.09883 12.84 7.10996 12.8193 7.12109C12.7875 7.13699 12.7557 7.15289 12.7255 7.16879C12.7239 7.19582 12.7239 7.22284 12.7223 7.24987V7.28008C12.7223 7.33573 12.7239 7.38978 12.7239 7.44543C12.7271 8.44388 12.7271 8.4566 11.7302 8.43593H11.6937L11.6873 8.44388C11.6873 8.44388 11.6873 8.44388 11.6889 8.44388C11.665 8.49158 11.6412 8.53927 11.6173 8.58538C11.6173 8.59015 11.6205 8.59333 11.6237 8.5981C11.6189 8.5981 11.6158 8.59651 11.611 8.59651L11.6126 8.5981C11.6126 8.5981 11.6126 8.5981 11.611 8.5981C11.0657 9.58383 11.0243 10.6586 11.0498 11.7477C11.0545 11.9257 11.1467 12.1833 10.9925 12.266C10.8208 12.3582 10.6396 12.1579 10.479 12.0498C9.24682 11.2294 8.55363 10.099 8.50911 8.59969C8.49321 8.5981 8.47891 8.59651 8.46301 8.59651C8.45347 8.59492 8.44234 8.59492 8.4328 8.59492C8.23565 8.59651 8.03692 8.59651 7.84136 8.5981H7.80002C7.77776 8.60287 7.7571 8.60446 7.73643 8.60605C7.72212 8.63149 7.7094 8.65693 7.69509 8.68236C7.20222 9.59973 6.81588 10.5489 6.82542 11.6173C6.81111 11.6586 6.80475 11.6936 6.80316 11.7254C6.81111 11.7079 6.81747 11.6873 6.82224 11.6634C6.82224 11.7079 6.83178 11.7413 6.84768 11.7668C6.92081 11.8971 7.15771 11.8176 7.24197 11.9353C7.84931 12.1626 8.25791 12.5744 8.4328 13.2072C8.4328 13.2072 8.4328 13.2072 8.4328 13.2088V13.2072C8.58225 13.3741 8.47891 13.5776 8.51388 13.7621C8.50911 13.7891 8.50593 13.8161 8.50116 13.8447C8.50116 13.8447 8.50116 13.8447 8.50275 13.8447C8.52819 14.2692 8.3072 14.6953 8.51229 15.1182C8.58384 15.0801 8.65538 15.0435 8.72693 15.0054C8.76032 14.9879 8.7937 14.9704 8.82709 14.9529C8.90818 14.875 8.98767 14.7987 9.06716 14.7208C9.69358 14.2629 10.3216 13.8082 11.0513 13.5236C11.0561 13.4997 11.0577 13.4775 11.0593 13.4536C11.0593 13.4536 11.0593 13.4536 11.0609 13.4536C11.0609 13.4536 11.0609 13.4536 11.0593 13.4536C11.0323 13.1945 11.0005 12.9369 10.9782 12.6778C10.9639 12.5092 11.0275 12.3455 11.2135 12.4377C11.6682 12.6603 12.1818 12.6158 12.6412 12.8002C12.6651 12.8018 12.6905 12.8034 12.7144 12.8049C12.7191 11.8812 12.7239 10.9575 12.7271 10.0338C12.7271 10.0322 12.7271 10.0322 12.7271 10.0306H12.7287H12.7303C12.9099 9.81914 12.6937 9.52342 12.8797 9.31514V9.92725C12.894 9.87796 12.894 9.81913 12.902 9.76826C12.9242 9.62994 12.9083 9.48685 12.9513 9.35012C13.0069 9.11163 12.9592 8.85566 13.0737 8.62672C13.0737 8.62354 13.0753 8.62195 13.0769 8.61877C13.0785 8.61082 13.08 8.60446 13.0816 8.5981C13.0896 8.55358 13.0864 8.51066 13.0657 8.47091C13.0594 8.46137 13.053 8.45183 13.0482 8.44229V8.4407H13.0467L13.0371 8.43434Z" fill="#DD8765"/>
<path d="M1.67578 31.3335V20.0485L1.67419 20.0469C1.36257 20.0326 1.43729 20.2647 1.43729 20.4332C1.43411 23.1392 1.4357 25.8468 1.4357 28.5528V30.9917C1.4357 31.1618 1.40232 31.3542 1.67419 31.3351H1.67578V31.3335Z" fill="#75ABDC"/>
<path d="M1.43568 8.59967V8.6108V19.5413C1.43568 19.7098 1.39753 19.907 1.67417 19.8879H1.67576V19.8863V8.59967H1.67417H1.43568Z" fill="#75ABDC"/>
<path d="M1.67419 19.8879V20.0469H1.67578H1.69327C1.71553 19.9929 1.71394 19.9404 1.69327 19.8879H1.67578H1.67419Z" fill="#9BC4E8"/>
<path d="M4.71243 20.0596C4.71402 20.0565 4.71561 20.0549 4.7172 20.0517H4.7029L4.69495 20.0724C4.69495 20.074 4.69654 20.0755 4.69654 20.0755C4.70131 20.0708 4.70767 20.066 4.71243 20.0612V20.0596Z" fill="#9BC4E8"/>
<path d="M24.1704 25.3707H24.1717V25.368C24.1704 25.368 24.1677 25.3667 24.1663 25.3667L24.1704 25.3707Z" fill="#C34761"/>
<path d="M24.098 24.5956C24.1186 24.586 24.1393 24.5765 24.1616 24.567C24.1631 24.5447 24.1679 24.5209 24.1727 24.5002C24.1727 24.4986 24.1727 24.4986 24.1727 24.497C24.1711 24.4986 24.1711 24.4986 24.1695 24.5002C24.1361 24.5256 24.1139 24.5574 24.098 24.5956Z" fill="#C34761"/>
<path d="M23.1758 26.753C22.4778 26.602 21.7703 26.4907 21.0644 26.3778C20.7099 26.3222 20.3585 26.2427 20.0405 26.0726C19.7671 25.9279 19.5811 25.7021 19.6256 25.3682C19.6685 25.0344 19.8641 24.8166 20.1916 24.7228C20.2806 24.6957 20.3728 24.6862 20.465 24.6766C21.543 24.5685 22.4413 24.1154 23.1472 23.2919C23.3141 23.0979 23.5208 23.0057 23.7784 23.0136C23.8881 23.0184 24.001 23.0438 24.1107 23.0104C24.117 23.0232 24.125 23.0359 24.1329 23.0486C24.1456 23.0613 24.1584 23.0724 24.1711 23.0804C24.1743 23.0836 24.1774 23.0852 24.1806 23.0868V23.0597C24.1758 23.0359 24.1727 23.012 24.1695 22.9882C24.1425 22.9786 24.1154 22.9691 24.09 22.9612C23.7164 22.8403 23.3571 22.861 23.0868 23.1901C22.3761 24.0582 21.4587 24.4954 20.3553 24.5797C19.8879 24.6146 19.5683 24.9135 19.4952 25.3651C19.4427 25.6989 19.713 26.0853 20.1121 26.2347C20.57 26.4064 21.0517 26.4796 21.5303 26.567C22.4127 26.7276 23.3205 26.788 24.1504 27.1839C24.1568 27.1871 24.1615 27.1887 24.1679 27.1919C24.152 27.1696 24.1345 27.1489 24.117 27.1298C23.8674 26.8548 23.5049 26.8262 23.1758 26.753Z" fill="#C34761"/>
<path d="M19.1598 19.8943C19.1598 19.9166 19.1614 19.9404 19.1614 19.9627C19.1614 19.9897 19.1614 20.0151 19.163 20.0422C19.19 20.0453 19.2186 20.0485 19.2472 20.0517C19.6431 20.7099 20.109 21.3173 20.6781 21.8356C20.9691 22.0995 21.3968 22.0979 21.6941 21.8451C22.0216 21.5685 22.2108 21.2632 21.9612 20.8546C21.8022 20.5923 21.6209 20.3474 21.4333 20.1058C21.419 20.0883 21.4063 20.0692 21.3904 20.0517V20.0501L21.3872 20.0422C21.3618 19.9929 21.3363 19.942 21.3109 19.8943C21.3109 19.8927 21.3093 19.8927 21.3093 19.8911C21.2823 19.8879 21.2553 19.8864 21.2266 19.8848H21.1694C20.5001 19.8879 19.8307 19.8911 19.1598 19.8943Z" fill="#D9596B"/>
<path d="M1.55809 8.44073H1.51516C1.48814 8.49479 1.4627 8.54726 1.43567 8.59972H1.67415V8.45822V8.44232V8.44073H1.65825H1.55809Z" fill="#8AB6E1"/>
<path d="M14.2295 6.29598C13.7478 6.47087 13.3487 6.79838 12.8892 7.0162C12.8877 7.04005 12.8845 7.0639 12.8813 7.08933C12.8813 7.43911 12.8797 7.78889 12.8845 8.13707C12.8861 8.25631 12.8352 8.41371 13.0371 8.43438C13.0387 8.43279 13.0387 8.42961 13.0403 8.42802C13.3678 7.59333 13.813 6.83654 14.5459 6.28485C14.5221 6.25782 14.4998 6.24192 14.4775 6.23397C14.3933 6.19741 14.3122 6.26736 14.2295 6.29598Z" fill="#D88464"/>
<path d="M17.8242 15.255C17.9069 16.8115 18.236 18.3203 19.0246 19.6971C19.0564 19.7528 19.066 19.8211 19.085 19.8831C19.1073 19.8863 19.128 19.8895 19.1486 19.8927C19.1534 19.8927 19.1566 19.8943 19.1598 19.8943C19.8307 19.8911 20.5 19.8879 21.1694 19.8847H21.2266C19.8752 18.2297 19.4014 16.3059 19.4777 14.2072C19.5016 13.5617 19.4809 12.9131 19.4793 12.266C19.4777 12.266 19.4777 12.2644 19.4761 12.2644C18.9531 12.01 18.3839 11.9273 17.8147 11.851C17.8147 12.9862 17.7638 14.123 17.8242 15.255Z" fill="#D9596B"/>
<path d="M19.7194 8.4391C19.721 8.44068 19.721 8.44068 19.7226 8.44227C19.721 8.44227 19.721 8.44227 19.7194 8.44227C19.7449 8.49474 19.7703 8.54562 19.7957 8.59649H19.8005C19.8259 8.59808 19.853 8.59967 19.8784 8.60126C19.8943 8.65055 19.8943 8.71415 19.9277 8.74753C20.7051 9.55679 21.8689 9.4916 22.578 8.60126C22.5987 8.59967 22.6194 8.59967 22.6416 8.59808H22.6607C22.6607 8.54721 22.6623 8.49633 22.6623 8.44545C22.6862 8.44227 22.71 8.43909 22.7323 8.43591H22.737C22.7768 8.25626 22.8149 8.07819 22.8547 7.89853C22.9835 7.30073 22.7768 6.79833 22.3634 6.3945C21.861 5.90322 21.2235 5.84121 20.597 6.06539C19.6733 6.39768 19.2377 7.35797 19.7115 8.42161C19.7146 8.42797 19.7162 8.43274 19.7194 8.4391Z" fill="#D5586B"/>
<path d="M17.6971 12.3359C17.6923 12.9449 17.7034 13.5538 17.6939 14.1627C17.678 15.2645 17.7479 16.3599 18.0262 17.4283C18.2504 18.2837 18.4936 19.1407 19.0294 19.8704C19.0358 19.8752 19.0405 19.88 19.0469 19.8831H19.085C19.066 19.8211 19.0564 19.7528 19.0246 19.6971C18.236 18.3203 17.9069 16.8115 17.8243 15.255C17.7638 14.123 17.8147 12.9862 17.8147 11.851C17.6732 11.9877 17.6987 12.1674 17.6971 12.3359Z" fill="#F06977"/>
<path d="M22.2346 30.9917C22.2092 30.6372 22.1663 30.2842 22.1456 29.9313C22.1138 29.3875 22.4318 28.9853 22.8626 28.9614C23.2903 28.9376 23.5956 29.2683 23.656 29.82C23.6655 29.9122 23.6655 30.0044 23.6655 30.0966C23.6687 30.2938 23.6369 30.4973 23.6878 30.6865C23.7514 30.917 23.7848 31.2 24.1155 31.1889C24.1202 31.1968 24.125 31.2048 24.1314 31.2111C24.1425 31.227 24.1568 31.2429 24.1727 31.2556C24.1711 31.2413 24.1679 31.227 24.1663 31.2127C24.1648 31.2048 24.1632 31.1952 24.1632 31.1873C24.1409 31.1777 24.1186 31.1682 24.098 31.1571C23.8674 31.0378 23.7768 30.828 23.7736 30.5688C23.7689 30.3049 23.7864 30.041 23.7673 29.7786C23.7085 28.9932 23.0391 28.5989 22.427 28.9948C22.082 29.219 21.9882 29.5974 22.0407 29.9678C22.1043 30.4178 22.0566 30.8788 22.1885 31.3208C22.1901 31.324 22.1901 31.3288 22.1917 31.332C22.2012 31.3208 22.2092 31.3097 22.214 31.297C22.268 31.2016 22.2426 31.0967 22.2346 30.9917Z" fill="#C34761"/>
<path d="M23.4779 25.1679C23.4954 25.1727 23.5113 25.1775 23.5272 25.1822C23.5336 25.1838 23.5399 25.1854 23.5463 25.187V25.1886C23.772 25.2522 23.9692 25.3094 24.1663 25.3667C24.1679 25.3667 24.1711 25.3683 24.1727 25.3683C24.1679 25.1012 24.1647 24.8341 24.1616 24.567C24.1393 24.5765 24.1186 24.586 24.098 24.5956C23.8468 24.7212 23.6957 24.9612 23.4779 25.1679Z" fill="#ED6776"/>
<path d="M1.67578 19.8863V19.8879H1.69327C1.69168 19.8847 1.69009 19.8815 1.6885 19.8784C1.6885 19.8768 1.68691 19.8752 1.68691 19.8736C1.70122 19.8593 1.71553 19.845 1.72825 19.8291C1.80615 19.6828 1.80138 19.5222 1.80138 19.3632C1.80297 15.9513 1.80297 12.5394 1.80138 9.12592C1.80138 8.96376 1.80933 8.79841 1.71871 8.65691C1.70599 8.63783 1.69168 8.61875 1.67578 8.59967V19.8863Z" fill="#89BCE5"/>
<path d="M1.67578 20.0485V31.3335V31.3351H1.69327C1.69327 31.3303 1.69168 31.3271 1.6885 31.3224C1.6885 31.3224 1.6885 31.3208 1.68691 31.3192C1.83477 31.1316 1.80138 30.9042 1.80138 30.6896C1.80297 27.3556 1.80297 24.0232 1.80138 20.6892C1.80138 20.4936 1.82205 20.2917 1.72825 20.1057C1.71394 20.0914 1.69963 20.0755 1.68691 20.0612C1.6885 20.0596 1.6885 20.0596 1.6885 20.058C1.69009 20.0548 1.69168 20.0501 1.69327 20.0469H1.67578V20.0485Z" fill="#89BCE5"/>
<path d="M4.69177 20.0803C4.69336 20.0787 4.69495 20.0771 4.69654 20.0755C4.69654 20.0739 4.69495 20.0723 4.69495 20.0723L4.69177 20.0803Z" fill="#75ABDC"/>
<path d="M4.19893 20.1614C4.10195 20.6209 3.78874 20.985 3.60431 21.4079C2.85547 23.1313 2.28152 24.8738 2.54068 26.7992C2.66946 27.742 2.9779 28.6149 3.41353 29.4464C3.75694 30.103 4.23073 30.669 4.69657 31.2398C4.72201 31.2716 4.74903 31.3034 4.77447 31.3352C4.8015 31.3352 4.82694 31.3367 4.85238 31.3367H4.86033C4.86033 31.3352 4.86033 31.3336 4.85874 31.332C4.85238 31.3161 4.83807 31.3002 4.81899 31.2875C4.80309 31.2779 4.78719 31.27 4.7697 31.2636C4.73949 31.0076 4.52486 30.8598 4.37859 30.6785C2.82845 28.7325 2.22588 26.5639 2.79029 24.1043C3.06375 22.9103 3.50574 21.7831 4.07651 20.702C4.16554 20.5319 4.32294 20.3681 4.2673 20.1598C4.34043 20.1598 4.41357 20.1598 4.48511 20.1503L4.2196 20.0485C4.21483 20.0867 4.20847 20.1248 4.19893 20.1614Z" fill="#75ABDC"/>
<path d="M27.7293 37.5309C27.6037 37.4164 27.486 37.294 27.362 37.1764L27.3398 37.1541C26.3445 37.3433 25.3365 37.2924 24.3317 37.2988L24.3269 37.294H24.3174C24.2744 37.294 24.2331 37.294 24.1902 37.2924H24.1743H24.1727L24.1695 37.2972C21.7227 36.8759 19.4269 35.9617 17.1327 35.0618C15.6716 34.4879 14.2677 33.782 12.8972 33.014C12.894 33.0156 12.8908 33.0172 12.8877 33.0204C12.8606 33.0411 12.8336 33.0713 12.8066 33.1126C12.805 33.1301 12.8034 33.1492 12.8018 33.1667V33.0697C12.8018 33.0299 12.7954 32.9918 12.7827 32.9536L12.7255 32.925H12.7223C11.9576 32.4862 11.204 32.0283 10.498 31.4973C10.471 31.4957 10.444 31.4941 10.4186 31.4909C10.3788 31.4496 10.2627 31.4416 10.2516 31.3876C10.2484 31.3749 10.2516 31.3606 10.2643 31.3415V31.3399C10.2627 31.3399 10.2627 31.3399 10.2612 31.3383C10.2325 31.3367 10.2055 31.3335 10.1769 31.3319C10.1403 31.3033 10.1053 31.2747 10.0688 31.2461C9.16254 30.5338 8.28969 29.7818 7.5027 28.936C6.7793 28.1601 6.19263 27.2904 5.71089 26.346C5.64412 26.2157 5.69817 26.1807 5.80946 26.1648C5.02406 25.9359 4.23865 25.7069 3.45325 25.4796C3.49617 26.7165 3.95724 27.8183 4.59797 28.8565C5.06381 29.6149 5.62981 30.2985 6.23714 30.9472C6.31187 31.0283 6.40249 31.0998 6.42952 31.2111C6.4963 31.2127 6.55671 31.2365 6.61077 31.2779C6.61713 31.2842 6.6219 31.2906 6.62826 31.2954C6.64416 31.3144 6.66006 31.3319 6.67277 31.3494C6.69344 31.3812 6.70457 31.413 6.69185 31.4528C6.71093 31.4687 6.72842 31.4877 6.74273 31.5084C6.74432 31.5084 6.74432 31.5084 6.74591 31.5084C6.74432 31.51 6.74432 31.5116 6.74432 31.5132C6.75704 31.5609 6.76817 31.6086 6.78089 31.6563C7.03209 31.7072 7.16723 31.9202 7.3453 32.0696C8.97017 33.4226 10.7238 34.5721 12.6365 35.4752C12.7175 35.4625 12.7621 35.4323 12.7843 35.3925C12.7986 35.472 12.8352 35.5451 12.8877 35.6103C15.0006 36.6883 17.1931 37.5659 19.4618 38.2527C20.9961 38.7186 22.5399 39.1288 24.1695 38.9618C24.2236 38.9602 24.2776 38.9586 24.3317 38.9571C25.7387 38.9364 27.0393 38.5882 28.1633 37.7026C27.9566 37.8028 27.8501 37.6406 27.7293 37.5309Z" fill="#D9596B"/>
<path d="M3.72513 27.292C4.27683 28.8231 5.23871 30.0791 6.37548 31.2127C6.39615 31.235 6.41841 31.2556 6.43908 31.2763C6.48518 31.3001 6.53129 31.3256 6.57581 31.3494H6.67279C6.66007 31.3319 6.64417 31.3144 6.62827 31.2954C6.62191 31.2906 6.61714 31.2842 6.61079 31.2779C6.55673 31.2365 6.49631 31.2127 6.42954 31.2111C6.40251 31.0998 6.31189 31.0283 6.23716 30.9472C5.62982 30.2985 5.06382 29.6149 4.59798 28.8565C3.95726 27.8183 3.49619 26.7165 3.45326 25.4796C3.41829 25.4684 3.38172 25.4573 3.34674 25.4478C3.34992 26.0885 3.5105 26.6974 3.72513 27.292Z" fill="#D9596B"/>
<path d="M5.71089 26.346C6.19263 27.2904 6.7793 28.1601 7.5027 28.936C8.28969 29.7818 9.16254 30.5338 10.0688 31.2461C10.1053 31.2747 10.1403 31.3033 10.1769 31.3319C10.2055 31.3335 10.2325 31.3367 10.2612 31.3383C10.2278 31.2985 10.188 31.2715 10.1403 31.254C9.96385 30.9217 9.61407 30.7675 9.3422 30.5402C8.18635 29.5656 7.12112 28.5115 6.31346 27.2237C6.10677 26.893 5.88101 26.5639 5.819 26.1664C5.81582 26.1664 5.81265 26.1648 5.80947 26.1648C5.69817 26.1807 5.64412 26.2157 5.71089 26.346Z" fill="#F06977"/>
<path d="M12.7144 26.637V26.6418C12.7318 26.6529 12.7509 26.672 12.77 26.7006V26.0487C12.7621 26.0344 12.7493 26.0201 12.7318 26.009C12.7255 26.2188 12.7207 26.4287 12.7144 26.637Z" fill="#EA8695"/>
<path d="M12.7938 29.7468C12.7859 29.7945 12.7716 29.839 12.7429 29.882C12.7366 29.8836 12.7318 29.8851 12.7271 29.8899V29.9042H12.8797V29.8915C12.8749 29.8883 12.8701 29.8851 12.8638 29.8836C12.8288 29.8406 12.8081 29.7945 12.7938 29.7468Z" fill="#EA8695"/>
<path d="M10.4774 12.0513C10.638 12.1594 10.8192 12.3598 10.9909 12.2675C11.1451 12.1849 11.0529 11.9257 11.0482 11.7492C11.0227 10.6602 11.0641 9.5854 11.6094 8.59967C11.6078 8.59967 11.6078 8.59967 11.6062 8.59967C10.5728 8.60126 9.54094 8.60126 8.50751 8.60285C8.55202 10.1021 9.24522 11.2309 10.4774 12.0513Z" fill="#F19C79"/>
<path d="M15.2677 19.8927V19.934V19.9674V20.0421C15.29 20.0183 15.3027 19.9929 15.3027 19.9674C15.3027 19.9563 15.2995 19.9452 15.2947 19.934C15.29 19.9197 15.2804 19.9054 15.2677 19.8927Z" fill="#EA8C9B"/>
<path d="M19.1598 19.8943C19.1566 19.8943 19.1534 19.8927 19.1487 19.8927C19.128 19.8895 19.1073 19.8864 19.0851 19.8832H19.0469C19.0548 19.8879 19.0612 19.8927 19.0692 19.8959C19.0469 19.9166 19.0246 19.9293 19.0008 19.9404H19.0246C19.0596 19.942 19.0962 19.9468 19.1312 19.9547C19.1328 19.9833 19.1439 20.012 19.163 20.0422C19.1614 20.0151 19.1614 19.9897 19.1614 19.9627C19.1614 19.9404 19.1598 19.9166 19.1598 19.8943Z" fill="#EA8C9B"/>
<path d="M12.7287 23.0661V23.082C12.7414 23.0899 12.7557 23.0947 12.77 23.0979C12.8034 23.1043 12.84 23.0931 12.8781 23.0661H12.77H12.7287Z" fill="#E98A99"/>
<path d="M12.77 26.0487C12.8432 26.1537 12.751 26.319 12.8797 26.4033C12.8145 26.3111 12.8575 26.2014 12.8368 26.1028C12.8257 26.0472 12.805 26.0058 12.77 26.001C12.7589 25.9979 12.7462 25.9995 12.7319 26.0074V26.009C12.7494 26.0201 12.7621 26.0344 12.77 26.0487Z" fill="#E98A99"/>
<path d="M6.95417 11.9337C7.04956 11.9353 7.14654 11.9369 7.24193 11.9385C7.15767 11.8208 6.92078 11.9003 6.84764 11.77C6.83174 11.7445 6.8222 11.7111 6.8222 11.6666C6.81743 11.6905 6.81108 11.7111 6.80313 11.7286C6.73794 11.8701 6.54874 11.8511 6.43109 11.9242C6.51377 11.9258 6.59485 11.9274 6.67752 11.929C6.76974 11.9305 6.86195 11.9321 6.95417 11.9337Z" fill="#DF808A"/>
<path d="M8.43199 15.7526L8.43121 15.7534C8.43199 15.7534 8.43199 15.7526 8.43199 15.7526Z" fill="#D9596B"/>
<path d="M12.6412 12.8002C12.115 13.018 11.5871 13.2358 11.0609 13.4536C11.0609 13.4536 11.0609 13.4536 11.0593 13.4536C11.0577 13.4775 11.0561 13.4997 11.0513 13.5236V13.549C11.0529 14.584 11.0641 15.619 11.0513 16.6541C11.037 17.7304 11.1483 18.8147 10.8971 19.88C10.8685 19.8847 10.8415 19.8895 10.8145 19.8927V20.0373C11.0323 20.0437 11.2485 20.0501 11.4663 20.0564H11.4679C11.5108 20.0564 11.5522 20.058 11.5951 20.0596H11.5967C11.6285 20.0548 11.6587 20.0501 11.6905 20.0453C11.6921 20.0437 11.6921 20.0437 11.6937 20.0421C11.7461 19.9928 11.7986 19.942 11.8511 19.8911C11.8765 19.8863 11.9019 19.88 11.9274 19.8736C11.9608 19.845 11.9942 19.8148 12.0244 19.7846C12.2946 19.5222 12.4838 19.2122 12.611 18.8656C12.6508 18.7591 12.6858 18.6478 12.7144 18.5349C12.7207 18.0579 12.7271 17.581 12.735 17.1056V17.0865C12.7335 15.9863 12.7335 14.8845 12.7335 13.7843V13.7652C12.7271 13.4552 12.7207 13.142 12.7144 12.8304V12.8034C12.6905 12.8034 12.6651 12.8018 12.6412 12.8002Z" fill="#C34761"/>
<path d="M12.6412 12.8002C12.1817 12.6157 11.6682 12.6603 11.2135 12.4377C11.0275 12.347 10.9639 12.5108 10.9782 12.6777C11.0005 12.9369 11.0323 13.196 11.0593 13.4536C11.0593 13.4536 11.0593 13.4536 11.0609 13.4536C11.5871 13.2358 12.1134 13.018 12.6412 12.8002Z" fill="#CB7452"/>
<path d="M8.51549 13.7637C8.48051 13.5792 8.58385 13.3757 8.4344 13.2088V13.2104C8.43122 13.3137 8.42804 13.4187 8.42645 13.522C8.42963 13.6285 8.4344 13.7351 8.43758 13.8416C8.43758 13.8448 8.43599 13.8479 8.43599 13.8511C8.43758 13.8511 8.43917 13.8527 8.44076 13.8527C8.44235 13.8479 8.44394 13.8448 8.44712 13.84C8.4662 13.8416 8.48528 13.8432 8.50277 13.8432C8.50595 13.8193 8.51072 13.7907 8.51549 13.7637Z" fill="#DF898A"/>
<path d="M10.8971 25.0487C10.6395 24.9756 10.5569 24.8961 10.7349 24.6353C10.913 24.3778 11.0465 24.0837 11.0545 23.753C11.064 23.3444 10.8558 23.0216 10.5123 22.9262C10.1403 22.8229 9.69672 22.985 9.50753 23.3046C9.42803 23.4413 9.37557 23.5924 9.3072 23.7355C9.00989 24.3619 8.52816 24.7005 7.82224 24.7435C6.85718 24.8023 5.97956 24.4811 5.0924 24.1806C4.56138 24.055 4.06534 23.78 3.5041 23.7784C3.4739 23.7768 3.4421 23.7784 3.41189 23.78C3.28788 24.3317 3.25131 24.8881 3.3467 25.4478C3.38168 25.4573 3.41825 25.4685 3.45323 25.4796C4.23863 25.7069 5.02404 25.9359 5.80944 26.1648C5.81262 26.1648 5.8158 26.1664 5.81898 26.1664C5.9573 26.1998 6.09562 26.23 6.23235 26.265C6.97801 26.4653 7.73798 26.6227 8.49 26.362C8.89542 26.2205 9.24361 26.2411 9.62995 26.3922C10.1832 26.6084 10.7651 26.7563 11.3121 26.9852C11.8844 27.2237 12.3344 27.1124 12.7127 26.6402C12.7127 26.6386 12.7127 26.6386 12.7143 26.637C12.7207 26.4287 12.7255 26.2189 12.7318 26.009V26.0074C12.7239 25.982 12.7191 25.9597 12.7175 25.9343C12.6921 25.9057 12.6666 25.8771 12.6396 25.85C12.1674 25.3619 11.5187 25.23 10.8971 25.0487Z" fill="#C34761"/>
<path d="M5.09244 24.1806C5.0829 24.1441 5.07495 24.1075 5.06859 24.0709C4.94935 23.5081 5.005 22.9405 5.04792 22.3745C5.10834 21.5955 5.3977 20.8705 5.62187 20.1296C5.63141 20.1026 5.63936 20.0771 5.64731 20.0501C5.33887 20.0501 5.03043 20.0517 4.722 20.0517H4.71723C4.71564 20.0549 4.71405 20.0565 4.71246 20.0596V20.0612C4.70928 20.0692 4.70451 20.0771 4.70133 20.0851C4.11466 21.2616 3.67426 22.4906 3.41193 23.78C3.44213 23.7784 3.47393 23.7768 3.50414 23.7784C4.06537 23.78 4.56142 24.055 5.09244 24.1806Z" fill="#D9596B"/>
<path d="M5.64731 20.0501C5.63936 20.0771 5.63141 20.1025 5.62187 20.1296C5.3977 20.8704 5.10834 21.5954 5.04792 22.3745C5.005 22.9405 4.94935 23.5081 5.06859 24.0709C5.07495 24.1075 5.0829 24.144 5.09244 24.1806C5.9796 24.4811 6.85722 24.8022 7.82228 24.7434C8.52819 24.7005 9.00993 24.3618 9.30724 23.7354C9.37561 23.5923 9.42807 23.4413 9.50757 23.3046C9.69676 22.985 10.1403 22.8228 10.5124 22.9262C10.8558 23.0216 11.0641 23.3443 11.0545 23.7529C11.0466 24.0836 10.913 24.3777 10.735 24.6353C10.5569 24.896 10.6396 24.9755 10.8971 25.0487C11.5188 25.2299 12.1675 25.3619 12.6396 25.85C12.6667 25.877 12.6921 25.9056 12.7176 25.9342C12.6937 25.877 12.6667 25.8245 12.6333 25.7753C12.522 25.6051 12.3614 25.4843 12.1754 25.381C11.824 25.1854 11.4329 25.1059 11.0561 24.9883C10.824 24.9151 10.7588 24.807 10.8844 24.5844C11.0084 24.3666 11.1086 24.1345 11.142 23.8817C11.2056 23.3968 10.9925 23.0041 10.5839 22.8578C10.1515 22.7036 9.65543 22.8801 9.40899 23.2775C9.33268 23.4016 9.27862 23.5367 9.21662 23.6687C8.91931 24.3046 8.42803 24.613 7.71576 24.6385C6.79998 24.6719 5.97324 24.3555 5.12742 24.09C5.13378 24.0582 5.13696 24.0248 5.13378 23.9898C5.05428 22.7656 5.2085 21.5748 5.65049 20.4253C5.69024 20.3235 5.73158 20.2122 5.6807 20.1041C5.70455 20.0898 5.72522 20.0739 5.74589 20.0548C5.74748 20.0501 5.74907 20.0469 5.75066 20.0421H5.72999C5.70296 20.0453 5.67593 20.0485 5.64731 20.0501Z" fill="#F06977"/>
<path d="M12.7191 23.0756C12.7223 23.0772 12.7255 23.0804 12.7287 23.082V23.0661C12.7255 23.0693 12.7223 23.0725 12.7191 23.0756Z" fill="#F06977"/>
<path d="M5.74429 19.8911C5.73952 19.8927 5.73475 19.8927 5.72998 19.8942V20.0421H5.75065C5.75383 20.0357 5.75542 20.0294 5.75542 20.023C5.77132 19.9801 5.76973 19.9404 5.75065 19.9022C5.78563 19.9117 5.81742 19.9054 5.84763 19.8815H5.8047C5.78404 19.8847 5.76496 19.8879 5.74429 19.8911Z" fill="#E98A99"/>
<path d="M12.0244 19.7862C11.9941 19.8164 11.9608 19.8466 11.9274 19.8752C11.9926 19.845 12.053 19.8132 12.107 19.7766C12.3725 19.6033 12.522 19.3601 12.6094 19.0818C12.6635 18.9117 12.6953 18.7273 12.7144 18.5365C12.6857 18.6494 12.6508 18.7607 12.611 18.8672C12.4838 19.2138 12.2946 19.5238 12.0244 19.7862Z" fill="#EE6977"/>
<path d="M6.2753 18.6701C6.05112 19.0326 5.95732 19.4761 5.80469 19.8816H5.84761C5.8492 19.8816 5.85079 19.88 5.85238 19.8784C5.86192 19.8625 5.87146 19.8482 5.881 19.8323C6.19262 19.3315 6.29914 18.7368 6.59645 18.2281C6.95577 17.6096 6.91761 16.9418 6.8095 16.2693C6.7936 16.263 6.7777 16.2582 6.76339 16.2502C6.81109 17.0977 6.74749 17.9117 6.2753 18.6701Z" fill="#F06977"/>
<path d="M8.50753 18.3744C8.38034 18.2567 8.4344 18.1025 8.43281 17.9642C8.42804 17.228 8.43122 16.4903 8.43122 15.7542C8.42168 15.7701 8.41214 15.7844 8.4026 15.7987C8.39624 16.6271 8.40101 17.4586 8.40101 18.2885C8.41373 18.9245 8.67447 19.4205 9.13395 19.8068H9.13554C9.16416 19.8307 9.19277 19.8545 9.22139 19.8752H9.30407C8.90182 19.4475 8.50912 19.0151 8.50753 18.3744Z" fill="#F06977"/>
<path d="M8.43435 13.8527C8.43435 13.8495 8.43594 13.8463 8.43594 13.8431C8.43276 13.7366 8.42799 13.6301 8.42481 13.5236C8.42799 13.4202 8.43117 13.3153 8.43276 13.2119C8.43276 13.2119 8.43276 13.2119 8.43276 13.2104C8.25787 12.5776 7.84927 12.1658 7.24194 11.9384C7.14654 11.9369 7.04956 11.9353 6.95417 11.9337C6.86195 11.9321 6.76974 11.9305 6.67752 11.9289C6.59485 11.9273 6.51377 11.9257 6.43109 11.9241C5.85873 12.0354 5.47716 12.382 5.22436 12.8892C5.21006 12.9289 5.19734 12.9655 5.1878 13.0053V13.0068C5.10989 13.2739 5.09399 13.549 5.09399 13.8256C5.09558 15.3869 5.08604 16.9466 5.09717 18.5079C5.10035 18.961 5.0924 19.4014 4.84915 19.802C4.82212 19.8291 4.79668 19.8545 4.76966 19.8815L4.70288 20.0517H4.71719H4.72196C5.0304 20.0517 5.33884 20.0501 5.64728 20.0501C5.67589 20.0485 5.70292 20.0453 5.72995 20.0421V19.8943C5.73472 19.8927 5.73949 19.8927 5.74426 19.8911C5.76493 19.8879 5.78401 19.8847 5.80467 19.8815C5.9573 19.4761 6.05111 19.0325 6.27528 18.67C6.74748 17.9117 6.81108 17.0976 6.76338 16.2502C6.74907 16.2455 6.73476 16.2391 6.72204 16.2343C6.73476 16.2343 6.74907 16.2327 6.76179 16.2327H6.76497C6.76497 16.2311 6.76497 16.2311 6.76497 16.2296C6.76497 15.9132 6.76338 15.5968 6.76338 15.282C6.76656 15.282 6.76974 15.2804 6.77292 15.2804C6.90329 15.2597 7.05115 15.3297 7.15767 15.1977C7.21173 15.1723 7.26578 15.1453 7.31984 15.1198C7.38821 15.1548 7.44226 15.1596 7.48519 15.1405C7.50109 15.1357 7.5154 15.1262 7.52812 15.1166C7.53288 15.1135 7.53606 15.1087 7.54083 15.1055C7.55037 15.0976 7.55832 15.088 7.56627 15.0785C7.57104 15.0721 7.57581 15.0642 7.58058 15.0578C7.58535 15.0514 7.58853 15.0451 7.5933 15.0387C7.59807 15.0308 7.60443 15.0212 7.6092 15.0133C7.6092 15.0117 7.61079 15.0117 7.61079 15.0101C7.62987 15.0371 7.6569 15.0562 7.69505 15.0658C8.08299 14.9243 8.25628 14.6524 8.34691 14.3296C8.34691 14.328 8.3485 14.3265 8.3485 14.3249C8.37712 14.177 8.41368 14.0291 8.43117 13.8813C8.43117 13.8797 8.43117 13.8781 8.43117 13.8765C8.43276 13.867 8.43435 13.8606 8.43435 13.8527ZM7.47565 13.0514H7.47883C7.641 13.3296 7.71413 13.6174 7.55673 13.9242C7.55673 13.9512 7.55673 13.9767 7.55673 14.0037C7.4518 14.0482 7.39933 14.1277 7.39774 14.2422C7.37072 14.2422 7.34528 14.2422 7.31825 14.2422C7.10043 14.3869 6.86036 14.4266 6.60439 14.4012C6.57736 14.4012 6.55033 14.4012 6.52489 14.4028C6.48992 14.3392 6.43109 14.3249 6.36591 14.3233C6.36591 14.2962 6.36591 14.2708 6.36432 14.2438C6.00818 14.1309 5.96207 13.8447 5.96366 13.5299C5.96525 13.5029 5.96684 13.4775 5.96684 13.4504C5.97479 13.0895 6.17989 12.851 6.50105 12.7636C6.86513 12.665 7.22604 12.7016 7.47565 13.0514Z" fill="#D9596B"/>
<path d="M5.96688 13.4489C5.96688 13.4759 5.96529 13.5013 5.9637 13.5284C5.96052 13.8432 6.00822 14.1293 6.36436 14.2422C6.36436 14.2692 6.36436 14.2947 6.36595 14.3217C6.43113 14.3249 6.48996 14.3376 6.52494 14.4012C6.55196 14.4012 6.57899 14.4012 6.60443 14.3996C6.8604 14.4266 7.10048 14.3853 7.31829 14.2406C7.34532 14.2406 7.37076 14.2406 7.39778 14.2406C7.39937 14.1262 7.45343 14.0467 7.55677 14.0021C7.55677 13.9751 7.55677 13.9497 7.55677 13.9226C7.71417 13.6158 7.64104 13.328 7.47887 13.0498H7.47569C7.22767 12.7 6.86517 12.6635 6.50268 12.762C6.18152 12.8495 5.97642 13.088 5.96688 13.4489Z" fill="#C34761"/>
<path d="M10.7397 20.0565C10.7604 20.0517 10.7811 20.0469 10.8001 20.0422C10.8049 20.0406 10.8097 20.0406 10.8144 20.039V19.8943C10.8415 19.8911 10.8685 19.8864 10.8971 19.8816C11.1483 18.8164 11.037 17.7321 11.0513 16.6557C11.0641 15.6207 11.0529 14.5857 11.0513 13.5506V13.5252C10.3216 13.8098 9.69357 14.2645 9.06715 14.7224C8.98766 14.8003 8.90817 14.8766 8.82708 14.9545C8.79369 14.972 8.76031 14.9895 8.72692 15.007C8.65537 15.0451 8.58383 15.0817 8.51228 15.1199V15.1326V15.3949V15.5173C8.51069 15.5698 8.5091 15.6239 8.50751 15.6763C8.50592 15.6779 8.50592 15.6795 8.50433 15.6811C8.50592 15.6795 8.50751 15.6779 8.50751 15.6779C8.50751 16.5778 8.50751 17.4761 8.50751 18.376C8.5091 19.0167 8.90181 19.4491 9.30405 19.8768C9.33108 19.8816 9.3581 19.8879 9.38354 19.8927C9.38513 19.9197 9.38513 19.9452 9.38513 19.9706V19.9754V20.0438C9.46463 20.0708 9.54412 20.0978 9.62521 20.1248C9.66654 20.1074 9.70788 20.093 9.74922 20.0803C10.0736 19.9897 10.409 20.0756 10.7397 20.0565Z" fill="#D9596B"/>
<path d="M10.7174 20.1169C10.7254 20.0962 10.7317 20.0771 10.7397 20.0564C10.409 20.0755 10.0735 19.9897 9.74919 20.0787C9.70786 20.0914 9.66652 20.1057 9.62518 20.1232C9.79689 20.2218 9.97337 20.3124 10.1832 20.287C10.339 20.2886 10.4964 20.2901 10.6523 20.2917C10.6586 20.2743 10.665 20.2568 10.6713 20.2393C10.6872 20.1979 10.7015 20.1566 10.7174 20.1169Z" fill="#D9596B"/>
<path d="M11.4663 20.058C11.2485 20.0517 11.0323 20.0453 10.8145 20.0389C10.8097 20.0405 10.8049 20.0405 10.8001 20.0421C10.7811 20.0469 10.7604 20.0517 10.7397 20.0564C10.7318 20.0771 10.7254 20.0962 10.7175 20.1168C10.7016 20.1566 10.6873 20.1979 10.6714 20.2393C10.665 20.2568 10.6586 20.2742 10.6523 20.2917C10.6523 20.2949 10.6539 20.2997 10.6539 20.3029C10.6571 20.3235 10.6586 20.3426 10.6602 20.3633C10.9607 20.2297 11.3312 20.3124 11.5951 20.0612C11.5522 20.0596 11.5108 20.058 11.4679 20.058H11.4663Z" fill="#C44861"/>
<path d="M4.7029 20.0501L4.76967 19.88C4.7967 19.8529 4.82214 19.8275 4.84917 19.8005C5.09242 19.3998 5.10037 18.9594 5.09719 18.5063C5.08606 16.945 5.0956 15.3853 5.09401 13.8241C5.09401 13.5474 5.10991 13.2724 5.18781 13.0053C5.19735 12.9655 5.21007 12.929 5.22438 12.8892C4.68541 13.1261 4.36266 13.5347 4.29589 14.1198C4.25137 14.5173 4.22434 14.9195 4.22116 15.3202C4.21321 16.8035 4.21957 18.2901 4.21957 19.7734V19.8863V20.0485L4.48508 20.1502L4.64089 20.2091L4.69177 20.0803L4.69495 20.0723L4.7029 20.0501Z" fill="#75ABDC"/>
</g>
<defs>
<clipPath id="clip0_158_9563">
<rect width="30.9488" height="39" fill="white"/>
</clipPath>
</defs>
</svg>
