<svg width="65" height="65" viewBox="0 0 65 65" fill="none" xmlns="http://www.w3.org/2000/svg">
<path d="M27.95 38.35L20.8813 31.2812C20.2854 30.6854 19.5542 30.3875 18.6875 30.3875C17.8208 30.3875 17.0625 30.7125 16.4125 31.3625C15.8167 31.9583 15.5188 32.7167 15.5188 33.6375C15.5188 34.5583 15.8167 35.3167 16.4125 35.9125L25.675 45.175C26.2708 45.7708 27.0292 46.0687 27.95 46.0687C28.8708 46.0687 29.6292 45.7708 30.225 45.175L48.6688 26.7313C49.2646 26.1354 49.5625 25.4042 49.5625 24.5375C49.5625 23.6708 49.2375 22.9125 48.5875 22.2625C47.9917 21.6667 47.2333 21.3687 46.3125 21.3687C45.3917 21.3687 44.6333 21.6667 44.0375 22.2625L27.95 38.35ZM32.5 65C28.0042 65 23.7792 64.1463 19.825 62.439C15.8708 60.7338 12.4313 58.4188 9.50625 55.4938C6.58125 52.5688 4.26617 49.1292 2.561 45.175C0.853667 41.2208 0 36.9958 0 32.5C0 28.0042 0.853667 23.7792 2.561 19.825C4.26617 15.8708 6.58125 12.4313 9.50625 9.50625C12.4313 6.58125 15.8708 4.26508 19.825 2.55775C23.7792 0.852583 28.0042 0 32.5 0C36.9958 0 41.2208 0.852583 45.175 2.55775C49.1292 4.26508 52.5688 6.58125 55.4938 9.50625C58.4188 12.4313 60.7338 15.8708 62.439 19.825C64.1463 23.7792 65 28.0042 65 32.5C65 36.9958 64.1463 41.2208 62.439 45.175C60.7338 49.1292 58.4188 52.5688 55.4938 55.4938C52.5688 58.4188 49.1292 60.7338 45.175 62.439C41.2208 64.1463 36.9958 65 32.5 65Z" fill="#22C55E"/>
</svg>
