<svg width="40" height="12" viewBox="0 0 40 12" fill="none" xmlns="http://www.w3.org/2000/svg">
<path d="M5.49862 11.6581C4.61017 11.6249 3.7232 11.3728 2.94442 10.9319C2.21412 10.5184 1.56546 9.93167 1.08 9.24533C0.461674 8.37111 0.114558 7.41303 0.0129483 6.30012C-0.00431464 6.11104 -0.00431655 5.55347 0.0129452 5.3634C0.0862151 4.55662 0.268526 3.89688 0.607396 3.21221C0.794138 2.83491 0.978592 2.53815 1.21672 2.23192C1.93682 1.30587 2.8346 0.665956 3.95194 0.282323C4.20654 0.194906 4.5773 0.106518 4.88321 0.0603088C5.41293 -0.0197068 6.03434 -0.0201222 6.55479 0.0591894C7.27325 0.168678 7.93335 0.398851 8.55385 0.756244C9.9948 1.58619 11.0274 3.04209 11.3463 4.69353C11.4614 5.28949 11.4837 5.91464 11.4123 6.54519C11.3683 6.93323 11.2659 7.37838 11.1304 7.77056C10.6714 9.0983 9.74077 10.225 8.53024 10.9185C7.77543 11.351 6.84532 11.6237 6.02144 11.6542C5.94356 11.6571 5.84063 11.6609 5.7927 11.6626C5.74478 11.6644 5.61244 11.6623 5.49862 11.6581ZM4.2472 8.0875C4.60553 8.03203 4.83386 7.96857 5.49862 7.7397C5.67235 7.67988 5.95084 7.58404 6.11749 7.52671C6.76208 7.30496 7.13696 7.22189 7.55723 7.20768C8.0496 7.19104 8.5026 7.30548 8.89109 7.54466C8.94063 7.57516 8.9755 7.58886 9.00563 7.58967C9.04662 7.59078 9.04971 7.58856 9.06298 7.54862C9.07424 7.51476 9.07644 7.17317 9.07412 5.82222L9.07123 4.13804L9.04725 4.08663C9.01517 4.01784 8.94818 3.94712 8.86034 3.8893C8.6036 3.72031 8.32417 3.60853 8.02014 3.55321C7.86733 3.5254 7.49713 3.51944 7.33939 3.54225C6.93978 3.60004 6.54024 3.72846 5.41693 4.16017C5.03437 4.30719 4.74898 4.40126 4.50744 4.45996C3.76382 4.64068 3.17929 4.55917 2.59587 4.19341C2.46746 4.1129 2.43283 4.10533 2.40279 4.15117C2.38455 4.17901 2.3833 4.27323 2.38026 5.84762C2.3767 7.6895 2.3736 7.60076 2.44456 7.68685C2.4623 7.70838 2.51799 7.75085 2.56831 7.78125C2.85254 7.95294 3.19893 8.07094 3.52715 8.1079C3.67333 8.12436 4.08433 8.11272 4.2472 8.0875ZM13.6239 8.78126C13.621 8.77352 13.6198 7.44869 13.6213 5.83721L13.6241 2.90723H14.7733C16.0164 2.90723 16.0246 2.90756 16.309 2.96883C17.2938 3.18096 18.1147 3.92009 18.4424 4.88959C18.641 5.47711 18.6491 6.13724 18.4649 6.73698C18.2856 7.32098 17.9067 7.8589 17.418 8.22343C17.0955 8.4639 16.7222 8.63575 16.3297 8.72436C16.0413 8.78945 16.089 8.78734 14.8085 8.7915C13.852 8.7946 13.6282 8.79267 13.6239 8.78126ZM15.7644 7.52002C16.1074 7.50267 16.3342 7.42998 16.6086 7.24953C16.7529 7.15463 16.9654 6.94364 17.0596 6.80167C17.4573 6.20257 17.4493 5.4494 17.0389 4.86781C16.9561 4.7505 16.7822 4.57329 16.6663 4.48819C16.5048 4.36961 16.2789 4.26493 16.086 4.21922C15.9259 4.18132 15.8464 4.17659 15.3573 4.17594L14.8715 4.17529L14.8687 5.84717L14.8658 7.51905L14.904 7.52316C14.9848 7.53187 15.5726 7.52972 15.7644 7.52002ZM20.7558 7.00003C20.7593 5.23002 20.7597 5.20352 20.7826 5.06362C20.8627 4.57343 21.0408 4.17054 21.3364 3.81127C21.8352 3.20482 22.5569 2.87675 23.329 2.90538C23.697 2.91902 24.0056 2.99664 24.3311 3.15736C24.9933 3.48438 25.4845 4.10559 25.6584 4.83582C25.7278 5.12707 25.7239 5.00843 25.7278 6.98905L25.7313 8.79442H25.1102H24.489V8.16267V7.53093H23.2474H22.0058L22.003 8.15995L22.0002 8.78897L21.3762 8.79178L20.7522 8.79459L20.7558 7.00003ZM24.4832 5.7773C24.4829 5.25156 24.4796 5.21458 24.4167 5.02574C24.2719 4.5914 23.8845 4.25833 23.4408 4.18681C23.3166 4.16678 23.0488 4.17829 22.9369 4.20848C22.5355 4.31679 22.2121 4.61931 22.0725 5.01723C22.011 5.19233 22.0057 5.25366 22.0057 5.78552V6.26754L23.2446 6.26477L24.4836 6.262L24.4832 5.7773ZM27.8951 7.05985C27.8966 5.92056 27.9015 5.27855 27.9093 5.18913C27.9538 4.67739 28.171 4.16416 28.5112 3.76717C29.0905 3.091 29.9786 2.77873 30.8461 2.94615C31.8137 3.13287 32.5866 3.89109 32.8047 4.86747C32.8718 5.1679 32.8688 5.07181 32.873 7.01628L32.8769 8.79442H32.2501H31.6234L31.6232 7.07074C31.6232 5.63021 31.6206 5.33006 31.6076 5.24354C31.5731 5.01488 31.4776 4.79858 31.336 4.62818C31.1475 4.4014 30.9029 4.2535 30.6156 4.19266C30.5146 4.17126 30.2683 4.17124 30.1556 4.19263C29.6312 4.29209 29.2174 4.73666 29.152 5.27081C29.1437 5.33845 29.1399 5.89991 29.1399 7.08163V8.79441L28.5163 8.79441L27.8928 8.79442L27.8951 7.05985ZM35.0217 7.10832C35.0217 6.04999 35.0259 5.36767 35.0329 5.27572C35.0635 4.87842 35.1631 4.5276 35.3344 4.21428C35.6594 3.61969 36.1921 3.18488 36.8189 3.00256C37.0407 2.93804 37.1926 2.91358 37.4234 2.90523C38.1123 2.88029 38.7609 3.13581 39.2531 3.62605C39.5774 3.94909 39.8238 4.38906 39.9277 4.83073C39.997 5.12564 39.9929 4.99551 39.9966 6.9836L40 8.79442H39.3788H38.7577V8.16267V7.53093H37.516H36.2743V8.16267V8.79442H35.648H35.0217L35.0217 7.10832ZM38.7555 5.83721C38.7589 5.3909 38.7518 5.27116 38.7127 5.11361C38.6264 4.76583 38.3694 4.45091 38.0443 4.29475C37.5768 4.07024 37.0219 4.16214 36.6558 4.52471C36.5063 4.67277 36.4017 4.84012 36.3355 5.03723C36.28 5.20241 36.2743 5.27225 36.2743 5.78967V6.26754L37.5133 6.26477L38.7522 6.262L38.7555 5.83721Z" fill="#0066FF"/>
</svg>
