<svg width="43" height="39" viewBox="0 0 43 39" fill="none" xmlns="http://www.w3.org/2000/svg">
<path d="M41.7133 33.1828C40.6457 33.6151 39.5955 34.0924 38.5105 34.4865C37.0332 35.0212 35.5455 35.5142 34.0126 35.8649L34.0092 35.8614C33.9519 35.8614 33.8946 35.8614 33.8373 35.8631C33.8373 35.8926 33.8356 35.9221 33.8356 35.9499C33.1481 36.0957 32.4607 36.2468 31.7698 36.3839C30.5581 36.6252 29.3377 36.7884 28.1086 36.9186C26.732 37.0644 25.3519 37.1217 23.9736 37.1408C23.1577 37.1512 22.3331 37.0766 21.512 37.0783C21.512 37.0488 21.5103 37.0193 21.5103 36.9898C21.453 36.9898 21.3957 36.9898 21.3401 36.9898L21.3349 36.9932C19.4636 36.9655 17.6321 36.62 15.8059 36.2572C13.4763 35.7954 11.2212 35.0785 9.01138 34.2122C8.95409 34.1827 8.8968 34.1532 8.83952 34.1254L8.83604 34.1272C7.81357 33.714 6.78935 33.3043 5.76861 32.8877C5.62453 32.8287 5.47002 32.7801 5.36413 32.6516C5.30684 32.6499 5.24956 32.6499 5.19401 32.6481C5.13672 32.5908 5.0777 32.5353 5.02041 32.478C4.9909 32.478 4.95965 32.4763 4.93014 32.4763C4.40241 32.0944 3.81913 31.7888 3.44416 31.216C3.08308 30.6657 2.83658 30.0911 2.85567 29.4227C2.33142 29.0287 1.8818 28.5808 1.80542 27.8812C0.857588 27.8708 0.114599 28.4141 0.0764076 29.2127C0.0243289 30.3063 -0.00865431 31.4069 0.343745 32.4711C0.364576 32.4728 0.383672 32.4763 0.404503 32.4815C0.407975 32.537 0.411447 32.5926 0.414919 32.6499C0.442694 32.6794 0.472206 32.7106 0.499981 32.7401C0.798566 33.4172 1.3072 33.8945 1.96513 34.1983C2.81401 34.5924 3.67678 34.9552 4.53955 35.3163C5.91964 35.8944 7.29972 36.4724 8.73189 36.9151C8.76661 36.9429 8.80133 36.9707 8.83604 36.9984C8.89159 36.9984 8.94888 37.0002 9.00443 37.0002C9.00964 37.0193 9.01311 37.0401 9.01485 37.0609C9.09817 37.08 9.18497 37.0922 9.26656 37.1182C11.2872 37.7588 13.3374 38.2744 15.4396 38.566C17.3978 38.8368 19.3629 38.9792 21.3401 38.9965L21.3297 38.9705C21.3922 38.9705 21.4547 38.9687 21.5172 38.9687L21.5068 38.9965C21.538 38.9878 21.5675 38.9792 21.5988 38.9705C22.2342 38.8142 22.8799 38.9219 23.5205 38.9045C25.6453 38.8056 27.7493 38.5278 29.8255 38.0713C31.1361 37.7831 32.4242 37.4012 33.7227 37.0627C33.7592 37.0332 33.7956 37.0054 33.8338 36.9759C33.8894 36.9741 33.9467 36.9724 34.0022 36.9724C34.0057 36.9516 34.0074 36.9307 34.0109 36.9099C36.4082 36.1686 38.7136 35.2052 40.9478 34.0716C41.3436 33.872 41.6908 33.5786 41.906 33.1672C41.8366 33.096 41.7758 33.1568 41.7133 33.1828Z" fill="#D8586B"/>
<path d="M40.9547 27.8656C40.7481 28.1295 40.7741 28.5131 40.4981 28.7405C40.2863 29.1207 39.9218 29.3203 39.5642 29.5304C39.3836 30.2317 38.7917 30.4782 38.2015 30.6119C37.4463 30.782 36.7623 30.539 36.2173 29.9592C36.12 29.8567 36.0836 29.7439 36.0871 29.6085C35.8753 29.9904 35.7242 30.414 35.3319 30.6674C35.1496 30.9417 34.858 31.0788 34.5993 31.2559C34.7608 31.3635 34.6393 31.4417 34.5716 31.5232C34.4153 31.709 34.2053 31.8253 34.0091 31.959C33.9518 31.9868 33.8928 32.0145 33.8355 32.044C33.8338 32.0718 33.8338 32.1013 33.8321 32.1291C33.865 32.3721 33.7904 32.5058 33.5144 32.4832C33.3043 32.4659 33.0925 32.478 32.8807 32.478C32.5058 32.4798 32.1291 32.4815 31.7541 32.4832C31.6673 32.4815 31.5805 32.4798 31.4937 32.478C31.0962 32.228 30.5841 32.1673 30.2629 31.801C29.9973 31.4989 29.723 31.3167 29.3151 31.4365C29.3134 31.4365 29.3116 31.4365 29.3099 31.4382C29.0634 31.7941 28.8013 32.1343 28.4662 32.4138C28.4089 32.4381 28.3516 32.4641 28.2944 32.4884C28.2544 32.5388 28.2145 32.5891 28.1746 32.6395C28.0513 32.6777 27.9367 32.7297 27.8499 32.8287C27.9246 32.8808 27.9298 32.9467 27.8743 33.011C27.2701 33.714 26.5133 34.1428 25.5984 34.306C23.9493 34.5994 22.6716 33.8859 21.5154 32.827C21.5137 32.7974 21.512 32.7697 21.5085 32.7402C21.4512 32.6534 21.3939 32.5666 21.3366 32.4815C21.3366 32.452 21.3366 32.4242 21.3366 32.3947C21.1214 32.2662 21.0502 32.0388 20.9964 31.8236C20.9217 31.5267 20.7742 31.3809 20.4617 31.4382C20.1788 31.7611 19.8941 32.084 19.6111 32.4068C19.5555 32.4346 19.5 32.4624 19.4444 32.4884C19.4045 32.5388 19.3646 32.5891 19.3247 32.6412C19.217 32.6534 19.1354 32.7089 19.0712 32.7922C18.9132 33.3686 18.4081 33.6185 17.9567 33.8512C16.1947 34.7539 14.3616 34.5108 12.919 33.0492C12.8044 32.9328 12.7246 32.8026 12.6586 32.6568C12.6291 32.6568 12.5996 32.6551 12.5701 32.6551C12.5701 32.5995 12.5683 32.5423 12.5683 32.4867C12.5405 32.485 12.511 32.4832 12.4833 32.4815C12.1413 31.8791 11.9295 31.2351 11.8583 30.5459C11.7507 30.6206 11.6431 30.6952 11.5354 30.7681C11.4139 30.9764 11.1605 31.0146 11.0042 31.1795C10.7282 31.7889 10.171 32.0475 9.60851 32.2992C9.4679 32.3617 9.30125 32.3635 9.18147 32.4798C9.12418 32.4798 9.06863 32.4798 9.01135 32.478C8.95232 32.478 8.8933 32.4798 8.83254 32.4798C8.51486 32.4798 8.19718 32.4798 7.88124 32.4798C7.1261 32.2003 6.45255 31.8079 6.02376 31.0927C5.6731 30.5077 5.44048 29.8793 5.36757 29.1953C5.36757 29.1953 5.36757 29.1953 5.36584 29.1936C4.57077 29.7387 3.73404 29.8272 2.85217 29.428C2.83308 30.0963 3.07958 30.6709 3.44066 31.2212C3.81563 31.7941 4.39891 32.0996 4.92664 32.4815C4.95615 32.4815 4.9874 32.4832 5.01691 32.4832C5.0742 32.5405 5.13322 32.5961 5.19051 32.6534C5.24779 32.6551 5.30508 32.6551 5.36063 32.6568C5.46652 32.7853 5.62102 32.8339 5.76511 32.8929C6.78585 33.3095 7.81006 33.7192 8.83254 34.1324L8.83601 34.1307C8.8933 34.1602 8.95059 34.1897 9.00787 34.2175C11.216 35.0854 13.4728 35.8006 15.8024 36.2624C17.6286 36.6252 19.4601 36.9689 21.3314 36.9985L21.3366 36.995C21.3939 36.995 21.4512 36.995 21.5068 36.995C21.5068 37.0245 21.5085 37.054 21.5085 37.0835C22.3296 37.0835 23.1542 37.1582 23.9701 37.146C25.3484 37.1269 26.7285 37.0714 28.1051 36.9238C29.3342 36.7936 30.5563 36.6304 31.7663 36.3891C32.4554 36.252 33.1429 36.101 33.8321 35.9551C33.8321 35.9256 33.8338 35.8961 33.8338 35.8683C33.8911 35.8683 33.9484 35.8683 34.0056 35.8666L34.0091 35.8701C35.542 35.5194 37.0297 35.0281 38.507 34.4917C39.592 34.0977 40.6422 33.6203 41.7098 33.188C41.7723 33.162 41.8331 33.1012 41.9043 33.1741C42.057 33.0735 42.1282 32.9207 42.1698 32.7488C42.2028 32.7176 42.2358 32.6863 42.2688 32.6568C42.2914 32.57 42.3122 32.4832 42.3348 32.3964C42.3643 32.3652 42.3938 32.3322 42.4233 32.301C42.6785 31.4104 42.5813 30.4956 42.6334 29.5894C42.6941 28.5843 41.8609 27.7736 40.9547 27.8656Z" fill="#EF6876"/>
<path d="M1.84876 12.8044C2.12825 11.9382 2.72195 11.3983 3.62812 11.2247C4.78774 11.1362 5.53246 11.5719 5.9734 12.6013C6.18345 12.9051 6.15741 13.2749 6.29108 13.7262C6.29802 13.7193 6.3067 13.7141 6.31191 13.7071C6.36051 12.735 6.59834 11.9469 7.18857 11.2941C6.89172 11.0754 6.52369 11.1692 6.19907 11.0667C4.48394 10.5251 3.31217 9.47139 2.93547 7.65211H2.93374C2.93374 7.59482 2.93547 7.5358 2.93547 7.47851L2.932 7.47677C2.83999 7.32054 2.84694 7.14868 2.84867 6.97682C2.85041 6.30327 2.85215 5.63145 2.84694 4.9579C2.8452 4.80687 2.90075 4.63848 2.75146 4.51697C2.41642 4.61245 2.11263 4.7791 1.82272 4.96137C0.89225 5.54639 0.236059 6.32236 0.150997 7.4733C0.130165 7.47677 0.109334 7.47851 0.0885025 7.48198C0.0815587 7.53753 0.0728789 7.59308 0.0659351 7.65037C0.0503115 7.6955 0.0589912 7.73022 0.0902385 7.75279C-0.0798853 8.97317 0.0485755 10.1953 0.0624632 11.4157C0.0728789 12.3357 0.550267 12.8808 1.46859 13.0509C1.51025 13.0648 1.54671 13.0718 1.58143 13.077C1.55018 13.0648 1.51372 13.0561 1.46859 13.0509C1.6335 13.0336 1.77412 13.0353 1.84876 12.8044Z" fill="#D8586B"/>
<path d="M21.5988 38.9722C22.2393 38.9705 22.8834 39.0312 23.5205 38.9062C22.8799 38.9236 22.2341 38.816 21.5988 38.9722Z" fill="#D96E80"/>
<path d="M4.96834 28.7162C5.08292 28.7457 5.19575 28.77 5.28081 28.6554C5.27908 28.1971 5.20964 27.7458 5.12631 27.2962C4.98223 26.5219 5.4249 25.6748 6.14532 25.3623C6.37968 24.8606 6.71472 24.4683 7.27369 24.3155C7.14523 24.1749 6.97684 24.2322 6.82582 24.2322C5.44747 24.2287 4.06738 24.2322 2.68903 24.227C2.538 24.227 2.36962 24.2843 2.24115 24.1437C2.16998 24.1437 2.10401 24.1576 2.06409 24.2253C2.25851 25.2946 2.25157 26.4247 2.93727 27.3535C3.44938 28.0496 4.12814 28.5079 4.96834 28.7162Z" fill="#ECEAF1"/>
<path d="M2.85563 29.4227C3.73749 29.8237 4.57423 29.7352 5.36929 29.1884C5.36929 29.1884 5.36929 29.1884 5.37103 29.1884L5.36061 29.1606C5.34325 28.9905 5.43005 28.8047 5.2825 28.6554C5.1957 28.7683 5.0846 28.744 4.97002 28.7162C4.12982 28.5062 3.45106 28.0496 2.94069 27.357C2.25499 26.4282 2.26193 25.2981 2.0675 24.2288C1.50158 24.4197 1.36271 24.5864 1.37659 25.1644C1.39743 26.088 1.6231 26.982 1.80711 27.8812C1.88176 28.5808 2.32963 29.0287 2.85563 29.4227Z" fill="#D9D6E4"/>
<path d="M7.62256 24.2322C7.85691 25.5967 7.88642 26.9976 8.31521 28.3256C8.44887 28.7405 8.63462 29.1415 8.99396 29.4245C8.99917 29.4227 9.00438 29.4192 9.01132 29.4158C9.01132 29.4227 9.01132 29.4314 9.01132 29.4383C9.30991 29.855 9.72827 30.1049 10.1762 30.3376C10.6101 30.5615 11.1032 30.5598 11.5371 30.7629C11.6448 30.6882 11.7524 30.6136 11.86 30.5407C11.8635 30.5164 11.8687 30.4921 11.8757 30.4695C11.7732 29.5998 11.6725 28.7283 11.5667 27.8604C11.4868 27.2059 11.5076 26.5671 11.8305 25.9682C11.9815 25.6887 12.1968 25.489 12.4832 25.3606C12.7436 25.0724 13.004 24.7825 13.2644 24.4943C13.4988 24.4475 13.7036 24.1801 13.9206 24.2669C14.1932 24.3763 13.9762 24.7009 14.0612 24.9127C14.0751 24.9474 14.1029 24.9752 14.1255 25.0064C14.1272 25.0064 14.1289 25.0064 14.1324 25.0064C14.1324 25.0099 14.1324 25.0117 14.1324 25.0151C14.115 25.8085 14.24 26.5931 14.3199 27.3778C14.4015 28.178 14.5282 28.9905 14.924 29.7005C15.9048 31.4607 17.4116 32.4068 19.441 32.4867C19.4965 32.4589 19.5521 32.4311 19.6076 32.4051C19.8906 32.0822 20.1753 31.7593 20.4582 31.4364C20.9634 30.3167 21.0797 29.1189 21.163 27.9159C21.1943 27.4715 21.2238 27.0271 21.255 26.5827C21.255 26.4681 21.255 26.3535 21.255 26.239C21.3106 25.9751 21.3661 25.7112 21.4217 25.4474C21.3956 25.4231 21.3696 25.3988 21.3401 25.3762C21.3384 25.371 21.3366 25.3658 21.3331 25.3606C21.0189 24.536 20.3645 24.0517 19.6232 24.0985C18.0574 24.1228 16.4881 24.1003 14.9205 24.1124C14.7591 24.1142 14.5872 24.0829 14.4345 24.1471C16.2138 24.1471 17.9932 24.1471 19.7725 24.1471C19.6441 24.2878 19.4739 24.2287 19.3229 24.2287C17.6512 24.2322 15.9777 24.2305 14.306 24.2305C14.2782 24.2027 14.2487 24.1732 14.2209 24.1454C14.2418 24.1454 14.2609 24.1454 14.2817 24.1454C14.24 24.0985 14.1862 24.069 14.1237 24.0499C12.4364 23.9666 10.749 23.9996 9.06167 24.0343C8.9766 24.0482 8.90369 24.0881 8.83773 24.1437C8.43325 24.1437 8.02877 24.1454 7.62256 24.1454C7.62256 24.1749 7.62256 24.2027 7.62256 24.2322Z" fill="#ECEAF1"/>
<path d="M2.69074 24.2287C4.06909 24.2339 5.44917 24.2287 6.82752 24.2339C6.97855 24.2339 7.14694 24.1766 7.2754 24.3172C7.38476 24.26 7.49586 24.2166 7.62259 24.2322C7.62259 24.2027 7.62259 24.1749 7.62259 24.1454C5.82934 24.1454 4.0361 24.1454 2.24286 24.1454C2.37132 24.286 2.53971 24.2287 2.69074 24.2287Z" fill="#E7E5EE"/>
<path d="M6.05847 15.3406C6.07062 15.4222 6.08798 15.5056 6.10361 15.5871C6.10187 15.509 6.09319 15.4326 6.07757 15.3545C6.07583 15.3458 6.06889 15.3406 6.05847 15.3406Z" fill="#D9D6E4"/>
<path d="M11.8618 16.8075C11.8566 16.7936 11.8531 16.7798 11.8479 16.7659C11.0684 16.7659 10.2907 16.7641 9.51128 16.7659C9.33942 16.7659 9.16583 16.7745 9.01133 16.6773C8.91585 16.6739 8.81343 16.693 8.75093 16.5905C7.88122 16.1531 7.54097 15.3979 7.68159 14.4327C7.81873 13.5005 7.8899 12.5579 7.96107 11.6188C7.98538 11.3045 8.11037 11.0008 8.05308 10.6813C7.72151 10.8237 7.46806 11.0771 7.18857 11.2941C6.59835 11.9451 6.36052 12.735 6.31192 13.7071C6.31018 13.7331 6.30844 13.7575 6.30671 13.7835C6.29976 13.7644 6.29629 13.7453 6.29109 13.7262C6.15742 13.2749 6.18346 12.9051 5.9734 12.6013C5.57066 13.1221 5.46303 13.7436 5.37103 14.3685C5.29985 14.8476 5.25125 15.3302 5.19222 15.8111C4.77559 15.8111 4.35723 15.8146 3.9406 15.8111C3.35385 15.8076 2.89208 15.4014 2.97888 14.8459C3.16983 13.6342 3.3226 12.4156 3.62813 11.2247C2.72196 11.3983 2.12826 11.9382 1.84877 12.8044C1.77413 13.0353 1.63351 13.0336 1.46513 13.0544C1.51026 13.0596 1.54672 13.0683 1.57796 13.0804C1.76024 13.1464 1.75329 13.3183 1.71337 13.504C1.55887 14.2036 1.44603 14.9119 1.35576 15.6236C1.2707 16.2937 1.62136 16.7572 2.29665 16.7641C3.23407 16.7728 4.17322 16.7607 5.11063 16.7572C5.09327 16.4291 5.17313 16.1184 5.28076 15.8128C5.53942 15.8354 5.81196 15.7486 6.055 15.9031C6.055 15.7156 6.055 15.5281 6.055 15.3406C6.05326 15.3406 6.05152 15.3389 6.04805 15.3406C6.01507 15.3476 6.03243 15.3302 6.055 15.332C6.055 15.3268 6.055 15.3215 6.055 15.3163C6.055 15.3215 6.05673 15.3268 6.05673 15.332C6.07062 15.3337 6.08798 15.3424 6.09145 15.3702C6.11055 15.457 6.11575 15.542 6.11228 15.6288C6.15742 15.8632 6.18519 16.0958 6.06367 16.3267C6.11923 16.4725 6.17478 16.6166 6.23033 16.7624C6.46642 17.1391 6.77542 17.4203 7.21461 17.5453C7.74582 17.6963 8.28743 17.7363 8.836 17.7258C8.89502 17.7258 8.95404 17.7258 9.01306 17.7258C9.94527 17.9758 10.8844 17.8769 11.8253 17.7814C11.8409 17.7484 11.8531 17.7154 11.867 17.6824C11.7455 17.3908 11.7524 17.0992 11.8618 16.8075Z" fill="#D9D6E4"/>
<path d="M6.05501 15.9031C5.81198 15.7486 5.53943 15.8354 5.28078 15.8128C5.17315 16.1183 5.09329 16.4291 5.11065 16.7572C5.48388 16.7589 5.85711 16.7589 6.23208 16.7607C6.17653 16.6148 6.12098 16.4707 6.06543 16.3249C6.06196 16.1843 6.05849 16.0437 6.05501 15.9031Z" fill="#C6C4D6"/>
<path d="M42.5865 7.68331C42.5969 7.67463 42.6073 7.66595 42.616 7.65727C42.6142 7.59825 42.6108 7.53923 42.609 7.47847C42.5778 7.41944 42.5465 7.36042 42.517 7.3014C42.5326 6.98893 42.4285 6.70423 42.3018 6.42821C41.9268 5.61752 41.2168 5.1818 40.4651 4.79121C39.3524 4.2114 38.1858 3.74963 37.0488 3.22017C36.9585 3.10559 36.8318 3.04483 36.6998 2.99449C36.6408 2.97713 36.58 2.97366 36.5193 2.98408C36.4915 2.99102 36.4655 3.00317 36.4394 3.01359C36.4377 3.00144 36.436 2.98755 36.4325 2.9754C36.3908 2.97192 36.3474 2.96845 36.3058 2.96498C36.2884 2.94415 36.278 2.91811 36.2745 2.88513C36.1756 2.7775 36.0575 2.72715 35.9117 2.77576C35.8857 2.78097 35.8596 2.78618 35.8336 2.78965C35.8058 2.76014 35.778 2.72889 35.7485 2.69938C35.6947 2.65424 35.6392 2.65251 35.5819 2.69591C35.5819 2.69591 35.5715 2.70459 35.568 2.70806C35.5767 2.69591 35.5836 2.68376 35.5923 2.6716C35.5853 2.65772 35.5784 2.64383 35.5715 2.62994C35.4552 2.60217 35.3406 2.57613 35.2243 2.54835C35.2 2.53446 35.1739 2.52926 35.1461 2.53099C35.016 2.4251 34.858 2.40427 34.7 2.37823C34.5056 2.29143 34.3112 2.20463 34.0959 2.18727C34.0282 2.09874 33.931 2.10221 33.8338 2.10395C33.7522 2.06749 33.6688 2.03104 33.5873 1.99284C33.5005 1.85744 33.372 1.82272 33.221 1.84702C33.0526 1.81057 32.8842 1.77238 32.7141 1.73592C32.6811 1.70988 32.6429 1.69773 32.5995 1.69773C32.5839 1.70468 32.57 1.71162 32.5544 1.71856C32.3704 1.64739 32.1863 1.57448 32.0023 1.5033C31.886 1.37137 31.7541 1.30714 31.5822 1.39568C31.3895 1.35748 31.1968 1.31929 31.0059 1.28284C30.9903 1.26548 30.966 1.25333 30.9451 1.24291C30.926 1.2377 30.9052 1.2325 30.8861 1.22729C30.4799 1.13702 30.0737 1.04675 29.6675 0.956479C29.6605 0.961686 29.6553 0.970366 29.6501 0.97731C29.4887 0.867945 29.2994 0.890512 29.1189 0.87836C29.1033 0.852321 29.0842 0.829754 29.0599 0.810658C28.9748 0.801978 28.8898 0.795035 28.8047 0.786355C28.796 0.795035 28.7873 0.801978 28.7787 0.810658C28.6259 0.765523 28.4749 0.694349 28.3082 0.727332C28.2995 0.718652 28.2909 0.709973 28.2822 0.701293C27.9055 0.663102 27.5409 0.524225 27.1538 0.552001V0.527697C26.6903 0.255152 26.1817 0.248208 25.6661 0.274248C25.6192 0.286399 25.5862 0.303759 25.5602 0.322854C25.4908 0.275984 25.4057 0.288135 25.3258 0.275984C25.0446 0.171826 24.753 0.171826 24.4596 0.194394C24.4058 0.199601 24.3502 0.204809 24.2964 0.208281C24.2825 0.180506 24.2565 0.150995 24.2131 0.123219C23.8885 0.0850283 23.5673 -0.060792 23.2375 0.0954441C23.208 0.107596 23.1785 0.118011 23.149 0.130163C22.6039 0.126691 22.057 0.123219 21.5119 0.121483C21.4512 0.111068 21.3922 0.100652 21.3314 0.0919721L21.3401 0.121483C19.1962 0.0537811 17.0714 0.241264 14.957 0.574568C12.9624 0.890512 11.0077 1.3679 9.09812 2.02756C9.06861 2.02062 9.04083 2.01368 9.01132 2.00673C8.89328 2.06749 8.7735 2.12651 8.65545 2.18727C8.28917 2.30705 7.91767 2.41642 7.55659 2.55009C5.93174 3.15073 4.31035 3.76178 2.75146 4.5256C2.90076 4.64539 2.84694 4.81551 2.84694 4.96654C2.85215 5.63835 2.85041 6.3119 2.84868 6.98546C2.84868 7.15732 2.84 7.32917 2.932 7.48541L2.93548 7.48715C2.93548 7.54443 2.93374 7.60346 2.93374 7.66074H2.93548C3.31218 9.48003 4.48395 10.5338 6.19907 11.0754C6.5237 11.1778 6.89172 11.0858 7.18857 11.3028C7.46806 11.0858 7.71977 10.8323 8.05308 10.69C8.21799 10.5233 8.4211 10.447 8.65025 10.4313C8.711 10.4001 8.7735 10.3688 8.83426 10.3393C8.89328 10.3445 8.9523 10.3497 9.00959 10.3549C9.09812 10.3289 9.18492 10.3011 9.27345 10.2751C9.27345 10.2734 9.27345 10.2734 9.27345 10.2716C9.27693 10.2716 9.2804 10.2716 9.28387 10.2716C10.2386 10.2612 11.058 10.6067 11.7715 11.2229C12.3339 11.2229 12.8964 11.2229 13.4571 11.2247C13.8529 10.8098 14.1654 10.2994 14.7261 10.065C15.1705 9.59981 15.7659 9.46614 16.3579 9.41059C17.9498 9.25782 19.2674 9.78555 20.2256 11.1084C20.2586 11.1535 20.3072 11.1882 20.3471 11.2281C20.6752 11.2247 21.0033 11.2229 21.3314 11.2195H21.3384C21.3384 11.2195 21.3384 11.2195 21.3384 11.2177C21.3384 11.2177 21.3401 11.2177 21.3401 11.2195C21.3956 11.2195 21.4495 11.2195 21.505 11.2195H21.5119C21.7706 11.2559 22.0449 11.1361 22.2897 11.3028C22.5223 11.0476 22.7566 10.7924 22.9892 10.5372C23.5882 9.78903 24.4179 9.49565 25.3258 9.40538C26.9767 9.24046 28.2735 9.87756 29.2335 11.2212C29.782 11.2698 30.341 11.1205 30.8826 11.3063C31.018 11.1969 31.1552 11.0858 31.2906 10.9764C31.2975 10.9695 31.3062 10.9643 31.3132 10.9573C31.8721 10.447 32.5439 10.289 33.2783 10.3202C33.4623 10.3289 33.648 10.3428 33.832 10.3549C33.8338 10.3775 33.8372 10.3983 33.839 10.4209C33.8963 10.4313 33.9535 10.4417 34.0108 10.4504L34.0022 10.4122C34.5733 10.5789 35.0524 10.8983 35.4812 11.3028C35.6548 11.1448 35.8683 11.216 36.061 11.2229C36.7623 11.2472 37.4671 11.1396 38.165 11.2819C38.5747 11.1865 38.9843 11.1847 39.394 11.2889C39.6041 11.1465 39.8402 11.2247 40.0641 11.2229C40.9113 11.2125 41.7584 11.2177 42.6038 11.2177C42.6229 11.1066 42.6576 10.9938 42.6611 10.8827C42.6958 9.80986 42.675 8.74572 42.5865 7.68331Z" fill="#EF6876"/>
<path d="M9.01132 16.6791C9.16582 16.7746 9.33941 16.7676 9.51127 16.7676C10.2907 16.7659 11.0684 16.7676 11.8479 16.7676C11.8566 16.7676 11.867 16.7676 11.8756 16.7676C11.9902 15.7313 12.1152 14.6949 12.2176 13.6585C12.2558 13.2801 12.4676 12.9537 12.4989 12.5788C12.4242 12.0354 12.0805 11.6361 11.7715 11.2178C11.0563 10.6015 10.2386 10.256 9.28386 10.2665C9.28039 10.2682 9.27692 10.2682 9.27345 10.2699C9.18491 10.296 9.09812 10.3238 9.00958 10.3498C9.01132 12.459 9.01132 14.5682 9.01132 16.6791Z" fill="#ECEAF1"/>
<path d="M8.83779 10.7074C8.83605 12.6065 8.83779 14.5056 8.83258 16.403C8.83258 16.4655 8.77876 16.528 8.75099 16.5923C8.81348 16.6947 8.9159 16.6756 9.01138 16.6791C9.01138 14.5681 9.01138 12.4589 9.01138 10.348C8.95236 10.3428 8.89334 10.3376 8.83605 10.3324C8.77529 10.3636 8.7128 10.3949 8.65204 10.4244C8.82563 10.4452 8.83779 10.5685 8.83779 10.7074Z" fill="#E8E7F0"/>
<path d="M33.8355 31.5285C33.4067 31.5059 32.9727 31.5805 32.5457 31.4868C31.2993 31.2108 30.5424 30.4313 30.2126 29.2144C30.164 29.0339 30.1327 28.8499 30.0945 28.6676C30.0424 28.7232 29.9904 28.7804 29.9383 28.836C29.8411 29.7283 29.6935 30.6084 29.3099 31.4312C29.3116 31.433 29.3116 31.433 29.3133 31.4347C29.723 31.3149 29.9956 31.4989 30.2612 31.7993C30.5823 32.1638 31.0944 32.2246 31.492 32.4763C31.5788 32.478 31.6656 32.4798 31.7524 32.4815C32.1273 32.4798 32.504 32.478 32.879 32.4763C33.2002 32.3704 33.4849 32.1673 33.8303 32.1274C33.8303 32.0996 33.832 32.0701 33.8338 32.0423C33.8355 31.8704 33.8355 31.6986 33.8355 31.5285Z" fill="#D8586B"/>
<path d="M33.8356 31.5284C33.8356 31.7003 33.8356 31.8704 33.8356 32.0423C33.8929 32.0145 33.9519 31.9867 34.0092 31.9572C34.2053 31.8235 34.4171 31.709 34.5716 31.5215C34.6393 31.4399 34.7608 31.3618 34.5994 31.2542C34.3459 31.3462 34.0908 31.4364 33.8356 31.5284Z" fill="#DA5F72"/>
<path d="M32.8807 32.4745C33.0925 32.4745 33.3043 32.4624 33.5144 32.4797C33.7904 32.5023 33.865 32.3686 33.832 32.1256C33.4866 32.1655 33.2002 32.3686 32.8807 32.4745Z" fill="#ED6675"/>
<path d="M40.2412 24.2288C39.2639 24.234 38.2848 24.2322 37.3074 24.2322C37.2554 24.7617 37.429 25.2651 37.5001 25.7807C37.58 26.3622 37.6807 26.9386 38.0313 27.449C38.632 28.3221 39.4184 28.803 40.4981 28.744C40.7741 28.5166 40.7481 28.1312 40.9547 27.8691C41.0745 27.0618 41.1856 26.2511 41.3192 25.4457C41.4303 24.7791 41.288 24.4631 40.6908 24.1506C40.5624 24.286 40.3922 24.227 40.2412 24.2288Z" fill="#ECEAF1"/>
<path d="M35.226 24.2305C35.9673 24.3607 36.5783 25.0655 36.6096 25.8744C36.6304 26.4299 36.6061 26.982 36.3856 27.5114C36.3318 27.6399 36.3648 27.8048 36.3648 27.9558C36.37 27.9576 36.3769 27.9593 36.3821 27.9611C36.4342 27.8934 36.3995 27.7701 36.5332 27.7336C36.6547 28.0044 36.6842 28.3082 36.8387 28.5704C37.3907 29.5078 38.2865 29.8272 39.5659 29.5321C39.9218 29.322 40.2881 29.1224 40.4998 28.7422C39.4201 28.8013 38.6337 28.3221 38.033 27.4472C37.6824 26.9368 37.5817 26.3622 37.5018 25.779C37.4307 25.2634 37.2571 24.7617 37.3091 24.2305C37.3091 24.2027 37.3091 24.1749 37.3074 24.1472C36.6148 24.1472 35.9221 24.1472 35.2277 24.1472C35.226 24.1749 35.2243 24.2027 35.226 24.2305Z" fill="#D9D6E4"/>
<path d="M37.3074 24.2304C38.2848 24.2304 39.2638 24.2322 40.2412 24.227C40.3922 24.227 40.5606 24.2843 40.6891 24.1454C39.5607 24.1454 38.4323 24.1454 37.304 24.1471C37.3074 24.1749 37.3074 24.2027 37.3074 24.2304Z" fill="#E6E4EC"/>
<path d="M40.7724 12.6569C40.5554 11.9851 40.1006 11.4938 39.3958 11.2837C38.9861 11.1796 38.5764 11.1813 38.1667 11.2768C38.1424 11.2924 38.1164 11.3046 38.0904 11.315C37.7848 11.9746 37.7293 12.6985 37.5765 13.3947C37.4671 13.8981 37.2953 14.3911 37.304 14.9171C37.3144 15.5056 37.6095 15.8094 38.2101 15.8111C39.0903 15.8146 39.9721 15.8094 40.8523 15.8146C41.0033 15.8163 41.1734 15.7573 41.3019 15.8996C41.3956 15.825 41.3869 15.7278 41.3696 15.6254C41.2585 14.9778 41.1769 14.3251 41.0293 13.6863C40.9443 13.32 40.9564 13.0891 41.3887 13.0527C41.0727 13.0926 40.887 13.0145 40.7724 12.6569Z" fill="#ECEAF1"/>
<path d="M36.4151 14.1428C36.3908 14.0022 36.3405 13.8668 36.3561 13.721C36.3457 12.8113 36.0992 11.9885 35.4829 11.2976C35.0542 10.8931 34.575 10.5737 34.0039 10.407L34.0126 10.4452C34.0108 12.5527 34.0091 14.6601 34.0074 16.7676C34.7886 16.7676 35.5715 16.7676 36.3527 16.7693C36.3804 16.7693 36.4099 16.7693 36.4377 16.7676C36.7901 15.8875 36.5627 15.0143 36.4151 14.1428Z" fill="#ECEAF1"/>
<path d="M34.0091 16.7659C33.9518 16.7659 33.8928 16.7659 33.8355 16.7659C33.5907 16.7659 33.3442 16.7676 33.0995 16.7676C31.3826 16.7676 30.6205 15.8597 30.8896 14.1862C31.0354 13.2818 31.1187 12.367 31.2333 11.4573C31.2541 11.2959 31.2854 11.1344 31.3114 10.9747C31.3045 10.9712 31.2993 10.9712 31.2923 10.9678C31.1569 11.0771 31.0198 11.1882 30.8844 11.2976C30.3584 11.9243 30.0633 12.6447 30.0147 13.4623C29.9557 14.4518 30.1379 15.4274 30.1917 16.41C30.216 16.8579 30.1761 17.2953 30.0199 17.7172C30.0147 17.7206 30.0095 17.7224 30.0043 17.7259C30.0164 17.7415 30.0303 17.7571 30.0477 17.771C30.1483 17.8317 30.2629 17.8526 30.3775 17.8543C31.3965 17.8665 32.4155 17.8647 33.4345 17.856C33.5803 17.8543 33.7209 17.83 33.8355 17.7259C33.8945 17.7259 33.9536 17.7259 34.0108 17.7259C34.3997 17.7658 34.7833 17.6807 35.1583 17.6182C35.6756 17.5314 36.1409 17.3092 36.3544 16.7676C35.5732 16.7659 34.792 16.7659 34.0091 16.7659Z" fill="#D9D6E4"/>
<path d="M40.854 15.8146C39.9739 15.8094 39.092 15.8146 38.2119 15.8111C37.6113 15.8094 37.3162 15.5039 37.3057 14.9171C37.2971 14.3911 37.4689 13.8981 37.5783 13.3947C37.731 12.6968 37.7849 11.9747 38.0921 11.315C37.1495 11.6327 36.6791 12.3236 36.5315 13.2766C36.5072 13.4363 36.5749 13.6342 36.3596 13.721C36.344 13.8669 36.3944 14.0023 36.4187 14.1429C36.5662 15.0143 36.7936 15.8875 36.4447 16.7642C37.7137 16.7642 38.9844 16.7676 40.2534 16.7659C40.7933 16.7659 41.3731 16.509 41.3054 15.8997C41.1752 15.7573 41.0051 15.8163 40.854 15.8146Z" fill="#D9D6E4"/>
<path d="M40.0658 11.216C39.8436 11.2195 39.6075 11.1413 39.3958 11.282C40.1006 11.4937 40.5554 11.9833 40.7724 12.6551C40.8887 13.0127 41.0727 13.0908 41.3886 13.0509C42.3226 12.7106 42.6385 12.2333 42.6055 11.2108C41.7584 11.2108 40.9112 11.2056 40.0658 11.216Z" fill="#D8586B"/>
<path d="M29.2474 24.3711C30.0754 24.878 30.2942 25.6505 30.1761 26.5601C30.0963 27.1695 30.0077 27.777 30.0147 28.3933C30.1223 28.461 30.1067 28.5634 30.0945 28.6659C30.1327 28.8481 30.164 29.0339 30.2126 29.2127C30.5424 30.4296 31.2993 31.209 32.5457 31.485C32.9727 31.5788 33.405 31.5041 33.8355 31.5267C34.0907 31.4364 34.3459 31.3444 34.6011 31.2542C34.8615 31.0771 35.1531 30.94 35.3336 30.6657C34.8736 30.6171 34.4171 30.5476 34.0091 30.3063C33.9379 30.3046 33.8737 30.289 33.8355 30.2195C32.9571 29.822 32.3947 29.1259 32.1586 28.2232C31.8773 27.1469 31.7593 26.0359 31.6656 24.9249C31.492 24.6818 31.6187 24.4041 31.5753 24.1472C31.5822 24.1472 31.5909 24.1472 31.5979 24.1472C31.5822 24.1263 31.5666 24.1055 31.544 24.0864C30.7698 23.9458 29.9938 23.9875 29.2179 24.0638C29.1797 24.0847 29.1519 24.1055 29.1276 24.1263C29.1345 24.1333 29.1432 24.1385 29.1519 24.1454C29.072 24.2704 29.1519 24.3121 29.2474 24.3711Z" fill="#D9D6E4"/>
<path d="M36.837 28.5687C36.6825 28.3065 36.6529 28.0027 36.5314 27.7319C36.3978 27.7684 36.4325 27.8916 36.3804 27.9593C36.3752 27.9663 36.37 27.9732 36.3648 27.9784C36.3873 28.5409 36.2259 29.0721 36.0905 29.6085C36.087 29.7422 36.1235 29.855 36.2207 29.9592C36.764 30.539 37.4498 30.7837 38.2049 30.6119C38.7951 30.4782 39.3853 30.2334 39.5676 29.5304C38.2847 29.8272 37.389 29.5061 36.837 28.5687Z" fill="#D8586B"/>
<path d="M3.62815 11.2247C3.32088 12.4155 3.16985 13.6359 2.9789 14.8459C2.89037 15.4014 3.35387 15.8076 3.94062 15.8111C4.35725 15.8145 4.77561 15.8111 5.19224 15.8111C5.25127 15.3302 5.29987 14.8476 5.37105 14.3685C5.46479 13.7435 5.57242 13.1221 5.97342 12.6013C5.53249 11.5719 4.78777 11.1344 3.62815 11.2247Z" fill="#ECEAF1"/>
<path d="M21.3401 26.8327C21.3401 26.8347 21.3401 26.8346 21.3401 26.8366C21.344 26.8346 21.3479 26.8346 21.3518 26.8346C21.3479 26.8327 21.344 26.8327 21.3401 26.8327Z" fill="#D9D6E4"/>
<path d="M21.4217 25.4456C21.3662 25.7095 21.3106 25.9734 21.2551 26.2372C21.3974 26.4143 21.4425 26.6174 21.4113 26.8379C21.4686 27.3899 21.5276 27.9419 21.5849 28.494C21.7134 29.381 21.6769 30.2959 22.1213 31.1222C22.3765 31.5961 22.7063 32.0041 23.0778 32.3842C23.1924 32.4728 23.3052 32.5613 23.4198 32.6498C24.8641 33.5473 26.3397 33.6289 27.85 32.8234C27.9385 32.7245 28.0531 32.6724 28.1746 32.6342C28.2145 32.5839 28.2544 32.5335 28.2944 32.4832C26.2216 32.4051 24.543 31.1916 23.8659 29.2665C23.6351 28.6103 23.5899 27.9159 23.524 27.2337C23.4233 26.206 23.2306 25.1835 23.2445 24.1454C23.2497 24.1402 23.2566 24.135 23.2618 24.1298C23.09 23.9961 22.9008 24.0464 22.7185 24.1037C22.1855 24.2704 21.7411 24.5568 21.4582 25.0568C21.4026 25.1523 21.3644 25.2529 21.3332 25.3588C21.3349 25.364 21.3367 25.3692 21.3401 25.3745C21.3696 25.397 21.3957 25.4213 21.4217 25.4456Z" fill="#D9D6E4"/>
<path d="M23.4181 32.6516C23.3035 32.5631 23.1907 32.4745 23.0761 32.386C22.7046 32.0058 22.3748 31.5979 22.1196 31.124C21.6752 30.2976 21.7116 29.3811 21.5832 28.4957C21.5259 27.9437 21.4669 27.3917 21.4096 26.8396C21.3905 26.8379 21.3696 26.8361 21.3488 26.8344C21.3453 26.8344 21.3419 26.8361 21.3384 26.8361C21.3367 28.6884 21.3349 30.5389 21.3332 32.3912C21.3332 32.4207 21.3332 32.4485 21.3332 32.478C21.3905 32.5648 21.4478 32.6516 21.5051 32.7367C21.5068 32.7662 21.5085 32.794 21.512 32.8235C22.6681 33.8824 23.9458 34.5959 25.595 34.3025C26.5098 34.1393 27.2667 33.7105 27.8708 33.0075C27.9264 32.9432 27.9211 32.8773 27.8465 32.8252C26.338 33.6289 24.8624 33.5491 23.4181 32.6516Z" fill="#D8586B"/>
<path d="M9.01306 31.5302C9.01306 31.8444 9.01306 32.1586 9.0148 32.4745C9.07208 32.4745 9.12763 32.4745 9.18492 32.4763C9.30297 32.3599 9.47135 32.3582 9.61197 32.2957C10.1744 32.044 10.7317 31.7853 11.0077 31.176C10.3706 31.4555 9.70397 31.5614 9.01306 31.5302Z" fill="#D9596B"/>
<path d="M9.01311 31.5302C8.92458 31.5041 8.83604 31.4764 8.74751 31.4503C7.19035 30.9972 6.47514 29.973 6.31891 28.2301C6.29634 27.9732 6.25815 27.7198 6.22864 27.4628C6.12795 27.8013 6.04983 28.1485 5.9179 28.4732C5.80506 28.7492 5.64709 29.013 5.36066 29.1606L5.37107 29.1884V29.1901C5.44398 29.8723 5.67834 30.5008 6.02726 31.0875C6.45431 31.8027 7.12786 32.195 7.88474 32.4745C8.20242 32.4745 8.5201 32.4745 8.83604 32.4745C8.89506 32.4745 8.95582 32.4728 9.01485 32.4728C9.01311 32.1586 9.01311 31.8444 9.01311 31.5302Z" fill="#D8586B"/>
<path d="M14.924 29.6987C14.5282 28.987 14.4015 28.1763 14.3199 27.376C14.2401 26.5914 14.1151 25.8067 14.1324 25.0134C14.1307 25.0099 14.1272 25.0082 14.1255 25.0047C14.1029 24.9735 14.0751 24.9457 14.0613 24.911C13.9762 24.6975 14.1932 24.3746 13.9206 24.2652C13.7037 24.1784 13.4988 24.4457 13.2645 24.4926C13.0041 24.7808 12.7437 25.0707 12.4833 25.3589C12.6117 25.5498 12.4763 25.7425 12.4729 25.9335C12.4607 26.8848 12.5978 27.8204 12.7385 28.7561C12.8339 30.1327 13.1638 31.4156 14.2158 32.4051C14.2991 32.4745 14.3807 32.5457 14.464 32.6151C14.4744 32.6238 14.4848 32.6325 14.4952 32.6412C15.0698 32.9762 15.6601 33.2505 16.3336 33.3564C17.3266 33.5126 18.2119 33.2331 19.0712 32.7887C19.1355 32.7054 19.2171 32.6499 19.3247 32.6377C19.3646 32.5874 19.4045 32.537 19.4445 32.485C17.4134 32.4051 15.9048 31.459 14.924 29.6987Z" fill="#D9D6E4"/>
<path d="M16.3318 33.3564C15.66 33.2505 15.0681 32.9762 14.4935 32.6412C14.4796 32.6412 14.4657 32.6412 14.4518 32.6412C14.457 32.6308 14.4587 32.6238 14.4622 32.6151C14.3789 32.5457 14.2973 32.4745 14.214 32.4051C13.162 31.4156 12.8321 30.1327 12.7367 28.7561C12.5995 28.7978 12.5891 28.9123 12.5718 29.0286C12.4867 29.5807 12.2367 30.0529 11.8739 30.4695C11.867 30.4921 11.8617 30.5164 11.8583 30.5407C11.9295 31.2298 12.1395 31.8739 12.4832 32.4763C12.511 32.478 12.5405 32.4797 12.5683 32.4815C12.5683 32.537 12.57 32.5943 12.57 32.6499C12.5995 32.6499 12.629 32.6516 12.6586 32.6516C12.7245 32.7957 12.8044 32.9276 12.9189 33.0439C14.3615 34.5056 16.1947 34.7504 17.9567 33.8459C18.408 33.615 18.9132 33.3633 19.0712 32.787C18.2101 33.2331 17.3248 33.5126 16.3318 33.3564Z" fill="#D8586B"/>
<path d="M10.1761 30.3376C9.72827 30.1067 9.3099 29.8567 9.01132 29.4384C9.00611 29.4331 9.0009 29.4279 8.99396 29.4245C8.63288 29.1415 8.44887 28.7405 8.3152 28.3256C7.88642 26.9959 7.85691 25.5949 7.62255 24.2322C7.49583 24.2166 7.38473 24.26 7.27536 24.3173C6.71638 24.47 6.38134 24.8624 6.14699 25.3641C5.9786 25.9595 6.09318 26.5688 6.06193 27.1712C6.05498 27.3083 6.19213 27.3552 6.22858 27.4628C6.25983 27.718 6.29628 27.9732 6.31885 28.2301C6.47509 29.973 7.1903 30.9955 8.74745 31.4503C8.83599 31.4764 8.92452 31.5041 9.01305 31.5302C9.70396 31.5632 10.3706 31.4555 11.0077 31.1743C11.1622 31.0094 11.4174 30.9712 11.5389 30.7629C11.1031 30.5615 10.6101 30.5615 10.1761 30.3376Z" fill="#D9D6E4"/>
<path d="M5.91613 28.4749C6.04806 28.1503 6.12618 27.8013 6.22687 27.4646C6.19215 27.3552 6.05327 27.3101 6.06022 27.1729C6.09146 26.5705 5.97689 25.9612 6.14528 25.3658C5.42312 25.6783 4.98219 26.5271 5.12627 27.2996C5.2096 27.7475 5.2773 28.2006 5.28077 28.6589C5.42833 28.8082 5.34153 28.9939 5.35889 29.1641C5.64532 29.013 5.80329 28.7492 5.91613 28.4749Z" fill="#C5C3D6"/>
<path d="M14.306 24.2305C15.9778 24.2305 17.6512 24.2322 19.3229 24.2287C19.474 24.2287 19.6441 24.286 19.7726 24.1472C17.9932 24.1472 16.2139 24.1472 14.4345 24.1472C14.3824 24.1472 14.3321 24.1472 14.28 24.1472C14.2592 24.1472 14.2401 24.1472 14.2192 24.1472C14.2487 24.1749 14.2783 24.2027 14.306 24.2305Z" fill="#E6E4EC"/>
<path d="M7.96283 11.6205C7.89165 12.5614 7.81874 13.5023 7.68334 14.4345C7.54272 15.3997 7.88297 16.1548 8.75269 16.5923C8.78046 16.5298 8.83428 16.4673 8.83428 16.4031C8.83948 14.5039 8.83775 12.6048 8.83948 10.7074C8.83948 10.5685 8.82733 10.4453 8.652 10.4244C8.42285 10.4401 8.21801 10.5164 8.05483 10.6831C8.11038 11.0042 7.98539 11.3063 7.96283 11.6205Z" fill="#ECEAF1"/>
<path d="M12.485 17.1981C12.485 17.0835 12.4833 16.969 12.4833 16.8544C12.294 16.7329 12.0823 16.7745 11.8757 16.7676C11.8705 16.7815 11.8653 16.7954 11.8601 16.8092C11.7524 17.1009 11.7455 17.3925 11.8635 17.6842C11.867 17.6946 11.8705 17.705 11.8757 17.7154C12.1361 17.7171 12.3947 17.7206 12.6551 17.7224C12.6812 17.5192 12.5544 17.3682 12.485 17.1981Z" fill="#C6C4D7"/>
<path d="M6.06542 16.3249C6.1852 16.0958 6.15742 15.8614 6.11402 15.6271C6.11055 15.6132 6.10881 15.5993 6.10708 15.5854C6.09145 15.5038 6.07409 15.4205 6.06194 15.3389C6.06194 15.3354 6.06021 15.332 6.06021 15.3285C6.06021 15.3233 6.05847 15.3181 6.05847 15.3129C6.05847 15.3181 6.05847 15.3233 6.05847 15.3285C6.05847 15.332 6.05847 15.3354 6.05847 15.3372C6.05847 15.5247 6.05847 15.7121 6.05847 15.8996C6.05847 16.0437 6.06194 16.1843 6.06542 16.3249Z" fill="#EEEDF3"/>
<path d="M21.3349 15.5264C21.3349 15.6514 21.3766 15.7885 21.2603 15.8909C21.2603 15.9482 21.2603 16.0072 21.262 16.0645C21.3123 16.0645 21.3627 16.0628 21.413 16.0628C21.4703 15.4552 21.5293 14.8459 21.5866 14.2383C21.6665 13.2193 21.7411 12.1985 22.2914 11.2924C22.0466 11.1257 21.7724 11.2455 21.5137 11.2091H21.5068C21.4512 11.2091 21.3974 11.2091 21.3418 11.2091H21.3401H21.3332C21.3349 12.6499 21.3366 14.089 21.3349 15.5264Z" fill="#D8596C"/>
<path d="M31.2333 11.4556C31.1187 12.3652 31.0354 13.2801 30.8896 14.1845C30.6205 15.858 31.3809 16.7659 33.0994 16.7659C33.3442 16.7659 33.5907 16.7659 33.8355 16.7641C33.8372 14.6463 33.8407 12.5284 33.8424 10.4105C33.8407 10.388 33.8372 10.3671 33.8355 10.3446C33.6515 10.3324 33.4657 10.3168 33.2817 10.3098C32.5492 10.2786 31.8756 10.4348 31.3166 10.9469C31.3149 10.9556 31.3132 10.9643 31.3114 10.9712C31.2854 11.1344 31.2541 11.2941 31.2333 11.4556Z" fill="#ECEAF1"/>
<path d="M33.8356 16.7659C33.8929 16.7659 33.9519 16.7659 34.0092 16.7659C34.0109 14.6584 34.0126 12.551 34.0144 10.4435C33.9571 10.4331 33.8998 10.4227 33.8425 10.414C33.8408 12.5301 33.8373 14.648 33.8356 16.7659Z" fill="#E8E7F0"/>
<path d="M36.3578 13.721C36.5731 13.6342 36.5054 13.4345 36.5297 13.2766C36.6755 12.3235 37.1477 11.6326 38.0903 11.3149C38.1164 11.3045 38.1424 11.2924 38.1667 11.2767C37.4688 11.1361 36.764 11.242 36.0627 11.2177C35.8718 11.2108 35.6582 11.1379 35.4829 11.2976C36.1009 11.9868 36.3474 12.8113 36.3578 13.721Z" fill="#D8586B"/>
<path d="M21.3349 16.5125C21.2082 16.3805 21.2637 16.2191 21.2602 16.0663C21.2602 16.009 21.2602 15.95 21.2585 15.8927C21.1596 14.8112 21.0901 13.7262 20.9079 12.6517C20.8193 12.1326 20.5832 11.6778 20.3489 11.2213C20.3072 11.1813 20.2603 11.1466 20.2274 11.1015C19.2691 9.78041 17.9515 9.25268 16.3596 9.40371C15.7677 9.461 15.1722 9.59293 14.7278 10.0582C14.6636 10.7213 14.6081 11.3862 14.5265 12.0476C14.5074 12.2021 14.4831 12.3566 14.4796 12.5128C14.4796 12.5423 14.4796 12.5718 14.4779 12.6013C14.398 12.9433 14.3754 13.2905 14.3911 13.6412C14.2591 13.8599 14.3164 14.1012 14.306 14.3356C14.1793 14.7609 14.1845 15.2035 14.1307 15.6375C14.1307 15.6948 14.1307 15.7538 14.1307 15.8111C14.155 16.943 15.0004 17.712 16.2503 17.7189C17.6807 17.7259 19.1111 17.7189 20.5416 17.7224C20.6926 17.7224 20.8627 17.6651 20.9912 17.8092C21.1787 17.6825 21.1301 17.4013 21.3349 17.2867C21.3627 17.2867 21.3922 17.2867 21.42 17.2867C21.4043 17.028 21.2932 16.7781 21.3349 16.5125Z" fill="#ECEAF1"/>
<path d="M20.5451 17.7224C19.1147 17.7189 17.6842 17.7258 16.2538 17.7189C15.0039 17.7119 14.1568 16.9429 14.1342 15.8111C14.1342 15.7538 14.1342 15.6948 14.1342 15.6375C14.188 15.2035 14.1811 14.7608 14.3095 14.3355C14.3199 14.1011 14.2644 13.8599 14.3946 13.6411C14.379 13.2905 14.4015 12.9433 14.4814 12.6013C14.4814 12.5718 14.4814 12.5423 14.4831 12.5127C14.4866 12.3565 14.5109 12.202 14.53 12.0475C14.6116 11.3861 14.6671 10.7212 14.7314 10.0581C14.1706 10.2942 13.8582 10.8028 13.4624 11.2177C13.1343 11.8566 12.834 12.5041 12.709 13.2262C12.6413 13.0092 12.5718 12.794 12.5041 12.577C12.4729 12.9519 12.2594 13.2783 12.2229 13.6567C12.1205 14.6948 11.9955 15.7295 11.8809 16.7658C12.0858 16.7728 12.2993 16.7311 12.4885 16.8526C12.4885 16.5141 12.4885 16.1739 12.4885 15.8354C12.5388 16.2902 12.6656 16.7467 12.4902 17.1964C12.5579 17.3665 12.6864 17.5175 12.6621 17.7189C12.8722 18.1442 13.2454 18.3299 13.6828 18.4254C14.1029 18.5174 14.5265 18.5869 14.9588 18.5869C16.4274 18.5869 17.8977 18.5747 19.3664 18.5938C20.0555 18.6025 20.5972 18.3681 20.9982 17.8074C20.8662 17.6668 20.6961 17.7241 20.5451 17.7224ZM12.4729 15.8701C12.4451 15.877 12.4538 15.8649 12.4729 15.8701V15.8701ZM12.5198 16.1044C12.5128 16.0315 12.5041 15.9586 12.492 15.8857C12.492 15.8822 12.4902 15.8805 12.4885 15.8788C12.5041 15.8909 12.5215 15.917 12.5284 15.9708C12.5232 16.0142 12.5198 16.0593 12.5198 16.1044Z" fill="#D9D6E4"/>
<path d="M20.9079 12.6516C21.0902 13.7245 21.1596 14.8094 21.2585 15.8927C21.3749 15.7902 21.3332 15.6514 21.3332 15.5281C21.3349 14.089 21.3332 12.6516 21.3315 11.2125C21.0034 11.216 20.6753 11.2177 20.3472 11.2212C20.585 11.6778 20.8193 12.1326 20.9079 12.6516Z" fill="#D8586B"/>
<path d="M12.5006 12.577C12.5683 12.794 12.6378 13.0092 12.7055 13.2262C12.8305 12.5041 13.1308 11.8548 13.4589 11.2177C12.8964 11.2177 12.334 11.2177 11.7733 11.216C12.0823 11.6344 12.4242 12.0354 12.5006 12.577Z" fill="#D8596B"/>
<path d="M23.524 27.2354C23.5917 27.9194 23.6351 28.6121 23.866 29.2682C24.543 31.1934 26.2216 32.4051 28.2944 32.485C28.3517 32.4607 28.4089 32.4346 28.4662 32.4103C28.8013 32.1326 29.0634 31.7906 29.3099 31.4347C29.3099 31.433 29.3116 31.4313 29.3116 31.4313C29.6953 30.6084 29.8428 29.7283 29.9401 28.836C29.8932 28.6763 30.006 28.5444 30.0164 28.3951C30.0095 27.7788 30.098 27.1712 30.1779 26.5619C30.2959 25.6522 30.0789 24.8797 29.2492 24.3728C29.1537 24.3138 29.0738 24.2722 29.1537 24.1489C29.1467 24.142 29.1381 24.135 29.1294 24.1298C28.9714 23.9909 28.7718 24.0083 28.5825 24.0083C26.9941 24.0031 25.4057 24.0031 23.8173 24.0083C23.6247 24.0083 23.4233 23.9892 23.2636 24.135C23.2584 24.1402 23.2514 24.1437 23.2462 24.1506C23.2289 25.1853 23.4215 26.206 23.524 27.2354Z" fill="#ECEAF1"/>
<path d="M30.0946 28.6659C30.1067 28.5634 30.1224 28.461 30.0147 28.3933C30.006 28.5426 29.8915 28.6745 29.9383 28.8342C29.9904 28.7787 30.0425 28.7231 30.0946 28.6659Z" fill="#DA8FA0"/>
<path d="M31.6656 24.9266C31.7611 26.0359 31.8774 27.1486 32.1586 28.2249C32.3947 29.1276 32.9554 29.8255 33.8355 30.2213C33.8737 30.2907 33.938 30.3063 34.0091 30.3081C34.4171 30.5511 34.8736 30.6188 35.3337 30.6674C35.726 30.414 35.877 29.9904 36.0888 29.6085C36.2242 29.0721 36.3874 28.5409 36.3631 27.9784C36.3631 27.9715 36.3631 27.9628 36.3631 27.9541C36.3631 27.8031 36.3318 27.6382 36.3839 27.5097C36.6044 26.9802 36.6304 26.4265 36.6079 25.8727C36.5766 25.0655 35.9656 24.3589 35.2243 24.2288C35.2243 24.201 35.2243 24.1732 35.226 24.1454C34.8198 24.1437 34.4154 24.142 34.0091 24.1402C33.9501 24.1402 33.8928 24.1402 33.8338 24.1402C33.1481 23.9163 32.4589 23.9475 31.768 24.1176C31.7628 24.1315 31.7611 24.142 31.7593 24.1524C31.7576 24.1489 31.7541 24.1472 31.7524 24.1437C31.7003 24.1437 31.65 24.1454 31.5979 24.1454C31.591 24.1454 31.5823 24.1454 31.5753 24.1454C31.6187 24.4058 31.492 24.6836 31.6656 24.9266Z" fill="#ECEAF1"/>
<path d="M30.1918 16.4082C30.1379 15.4257 29.9557 14.4501 30.0147 13.4606C29.8637 13.3773 29.8758 13.2141 29.855 13.0839C29.7543 12.4225 29.5547 11.7975 29.2335 11.2108C28.2735 9.86716 26.9785 9.23007 25.3259 9.39498C24.418 9.48525 23.5882 9.77863 22.9893 10.5268C22.965 11.6326 22.7653 12.7193 22.6508 13.8165C22.59 14.3997 22.5032 14.983 22.4685 15.568C22.3904 16.8631 23.2358 17.712 24.595 17.7172C26.1956 17.7241 27.7979 17.7172 29.3984 17.7206C29.5495 17.7206 29.7196 17.6651 29.8463 17.8074C29.8984 17.7797 29.9505 17.7501 30.0025 17.7224C30.0077 17.7189 30.013 17.7172 30.0182 17.7137C30.1761 17.2936 30.2161 16.8561 30.1918 16.4082Z" fill="#ECEAF1"/>
<path d="M29.855 13.0839C29.8741 13.2141 29.8619 13.3773 30.0147 13.4606C30.0633 12.643 30.3584 11.9226 30.8844 11.2959C30.3428 11.1101 29.7838 11.2594 29.2352 11.2108C29.5564 11.7976 29.7543 12.4243 29.855 13.0839Z" fill="#D8586B"/>
<path d="M21.3401 26.8327C21.3436 26.8327 21.3471 26.8327 21.3505 26.8344C21.3714 26.8362 21.3905 26.8379 21.4113 26.8397C21.4425 26.6175 21.3974 26.4161 21.2551 26.239C21.2551 26.3536 21.2551 26.4682 21.2551 26.5827C21.354 26.64 21.3314 26.7424 21.3401 26.8327Z" fill="#DF8E9D"/>
<path d="M12.7384 28.7561C12.5978 27.8204 12.4624 26.8847 12.4728 25.9334C12.4746 25.7425 12.6117 25.5515 12.4832 25.3588C12.1968 25.4873 11.9798 25.6869 11.8305 25.9664C11.5076 26.5653 11.4868 27.2041 11.5667 27.8586C11.6726 28.7283 11.7732 29.598 11.8757 30.4677C12.2385 30.0511 12.4885 29.5772 12.5735 29.0269C12.5909 28.9123 12.6013 28.796 12.7384 28.7561Z" fill="#C5C3D6"/>
<path d="M21.3401 26.8362C21.3401 26.8344 21.3401 26.8344 21.3401 26.8327C21.3297 26.7424 21.3523 26.6418 21.2551 26.581C21.2238 27.0254 21.1943 27.4698 21.1631 27.9142C21.0797 29.1172 20.9634 30.315 20.4583 31.4347C20.7707 31.3774 20.9183 31.5233 20.9929 31.8201C21.0467 32.0354 21.1179 32.2628 21.3332 32.3912C21.3384 30.539 21.3384 28.6867 21.3401 26.8362Z" fill="#D8596B"/>
<path d="M29.4002 17.7224C27.7996 17.7189 26.1974 17.7258 24.5968 17.7189C23.2375 17.7137 22.3921 16.8631 22.4703 15.5698C22.505 14.9848 22.5918 14.4015 22.6525 13.8182C22.7671 12.7228 22.9667 11.6344 22.991 10.5286C22.7584 10.7838 22.5241 11.0389 22.2914 11.2941C21.7412 12.2003 21.6665 13.221 21.5867 14.24C21.5294 14.8476 21.4703 15.4569 21.4131 16.0645C21.4148 16.219 21.4721 16.3822 21.3367 16.5124C21.295 16.778 21.4061 17.028 21.4235 17.2884C21.4808 17.4325 21.5398 17.5783 21.5971 17.7224C22.0293 18.3317 22.6022 18.6129 23.3677 18.6008C24.9978 18.573 26.6313 18.5747 28.2614 18.6008C28.9471 18.6112 29.454 18.3473 29.8481 17.8126C29.7213 17.6668 29.5512 17.7241 29.4002 17.7224Z" fill="#D9D6E4"/>
<path d="M12.485 17.1981C12.6603 16.7467 12.5319 16.2919 12.4833 15.8371C12.4833 16.1756 12.4833 16.5159 12.4833 16.8544C12.4833 16.9689 12.485 17.0835 12.485 17.1981Z" fill="#E0DEE9"/>
<path d="M21.2603 16.0663C21.262 16.2191 21.2082 16.3805 21.3349 16.5125C21.4703 16.3823 21.413 16.2191 21.4113 16.0646C21.3609 16.0646 21.3106 16.0663 21.2603 16.0663Z" fill="#E0A5B3"/>
</svg>
