<svg width="34" height="39" viewBox="0 0 34 39" fill="none" xmlns="http://www.w3.org/2000/svg">
<g clip-path="url(#clip0_162_10255)">
<path d="M10.514 0.00795561C18.1769 0.00636449 25.8397 0.00795561 33.501 0C33.8001 0 33.9099 0.0636449 33.9147 0.393007C34.0642 11.83 33.9465 23.2686 33.9751 34.7072C33.9767 35.1543 33.8797 35.5998 33.9019 36.0501C33.8112 36.3317 33.8908 36.626 33.8287 36.9124C33.7476 37.2768 33.6108 37.4137 33.24 37.4232C32.602 37.4391 32.1978 37.0859 32.1342 36.4287C31.9799 34.8615 31.6505 33.342 31.0045 31.8972C30.4317 30.618 29.7077 29.4358 28.7626 28.3968C27.3704 26.8677 25.757 25.6441 23.819 24.8756C22.4538 24.3346 21.052 23.9734 19.5771 23.9003C16.1991 23.7316 12.818 23.8684 9.44001 23.8239C8.79243 23.8159 8.21803 23.66 7.76615 23.1476C7.21244 22.5192 7.06924 21.6981 7.41929 20.9296C7.62295 20.4825 7.90617 20.0784 8.10347 19.6265C8.44874 18.8357 8.55853 18.0497 8.07801 17.2669C7.61659 16.5174 6.90854 16.1833 6.06683 16.1929C3.91723 16.2199 2.57114 13.8603 3.75493 11.9016C5.65632 8.76072 7.55612 5.61666 9.4241 2.45669C9.88075 1.68341 10.3024 0.894211 10.514 0.00795561Z" fill="#FEDDC9"/>
<path d="M10.514 0.00793457C10.5697 0.580739 10.3231 1.07558 10.0558 1.54178C8.5808 4.12258 7.04695 6.66837 5.4972 9.20462C4.9053 10.1736 4.28158 11.1283 3.75015 12.1307C2.91004 13.7155 3.64036 15.5723 5.4972 16.0576C5.84088 16.1467 6.20207 16.0639 6.56007 16.1387C8.03663 16.4442 8.81628 17.7362 8.38191 19.173C8.19893 19.7776 7.87752 20.3107 7.56566 20.8453C6.86716 22.0386 7.73909 23.7316 9.32544 23.7204C12.1879 23.7029 15.0519 23.7125 17.9143 23.7172C19.4211 23.7188 20.9184 23.8302 22.3726 24.263C24.1881 24.8024 25.854 25.6202 27.3115 26.8581C28.7721 28.0992 29.9766 29.536 30.8231 31.2544C31.5343 32.6975 32.0101 34.2139 32.1533 35.8257C32.1755 36.0739 32.201 36.3237 32.2408 36.5703C32.3267 37.1081 33.0093 37.525 33.4787 37.2991C33.7746 37.1575 33.7714 36.8233 33.8224 36.5417C33.851 36.3778 33.7603 36.1948 33.9003 36.0484C33.9019 36.9236 33.8971 37.7987 33.9099 38.6738C33.9131 38.9125 33.8399 38.9984 33.5932 38.9968C32.1087 38.9872 30.6226 38.9857 29.1381 38.9984C28.8644 39 28.8135 38.8918 28.8071 38.6467C28.7387 35.5775 27.714 32.8439 25.7936 30.47C24.2072 28.5065 22.2088 27.0841 19.8093 26.2439C18.285 25.7109 16.7273 25.442 15.1092 25.4563C12.3915 25.4786 9.6739 25.4627 6.95467 25.4659C6.39778 25.4659 5.85202 25.3768 5.2999 25.3259C4.55526 25.2575 3.80425 24.01 3.93154 23.2558C4.05087 22.551 4.51866 22.0211 4.76051 21.3815C5.03896 20.6496 5.30945 19.924 5.10897 19.1125C5.00554 18.6973 4.78915 18.3615 4.52025 18.0481C4.37546 17.8794 4.1893 17.8158 3.95699 17.819C3.29668 17.8285 2.63477 17.8683 1.98241 17.7044C0.330826 17.2907 -0.515651 15.3623 0.327644 13.8937C2.342 10.3964 4.44865 6.95318 6.52666 3.49408C7.19175 2.38666 7.37154 1.26333 6.79874 0.00793457C8.06527 0.00793457 9.29044 0.00793457 10.514 0.00793457Z" fill="#F5CCB2"/>
<path d="M5.97614 28.8836C6.11138 28.7564 6.27845 28.812 6.4312 28.8105C9.56889 28.8057 12.7066 28.7818 15.8427 28.82C17.0901 28.8343 18.2803 29.2066 19.4211 29.719C21.8714 30.8232 23.6042 32.6323 24.6639 35.0858C24.9821 35.8209 25.243 36.5863 25.3067 37.3993C25.0998 37.4821 24.8866 37.428 24.6782 37.428C23.1157 37.4327 21.5516 37.428 19.9891 37.4312C18.6065 37.4343 17.3336 37.1272 16.3009 36.1392C15.8554 35.7127 15.2826 35.7111 14.7353 35.6921C14.0368 35.6666 13.3351 35.6889 12.6334 35.7366C10.8704 35.8575 9.36841 35.3038 8.29281 33.8352C7.86161 33.2465 7.63886 32.5655 7.5593 31.8431C7.52589 31.5424 7.42247 31.2862 7.25699 31.038C6.88307 30.4795 6.45347 29.9417 6.41528 29.2257C6.39778 28.9521 6.09229 29.0364 5.97614 28.8836Z" fill="#FEDDC9"/>
<path d="M5.97615 28.8837C6.36439 28.8343 6.59987 28.9107 6.54896 29.396C6.51554 29.7158 6.69216 30.0293 6.88469 30.2711C7.40976 30.9267 7.66434 31.6649 7.8139 32.486C8.10508 34.0898 9.88713 35.4805 11.5355 35.5966C12.5061 35.665 13.4576 35.4964 14.4202 35.5568C14.8292 35.5823 15.2333 35.6332 15.6406 35.6634C16.0909 35.6969 16.3869 36.0485 16.6987 36.3206C17.3447 36.8838 18.1037 37.1527 18.9311 37.2339C20.885 37.4264 22.8468 37.2721 24.8039 37.3182C24.9742 37.323 25.1508 37.2943 25.3051 37.3994C25.3974 37.829 25.364 38.2681 25.4069 38.7009C25.4324 38.9571 25.3322 39.0048 25.1253 38.9952C25.0855 38.9937 25.0458 38.9952 25.006 38.9952C21.6137 38.9952 18.223 38.9937 14.8308 38.9984C14.5809 38.9984 14.4298 38.9698 14.3598 38.6723C14.1545 37.8035 13.5372 37.3278 12.6414 37.3198C11.5689 37.3103 10.4949 37.3198 9.42253 37.3166C7.43044 37.3118 5.76772 36.0485 5.22355 34.1296C5.20287 34.0548 5.18378 33.9753 5.18059 33.8973C5.15354 33.342 4.97375 32.8519 4.62211 32.4112C4.36594 32.0914 4.2291 31.6952 4.03817 31.334C3.48287 30.2823 4.67462 28.7548 5.77249 28.8853C5.8425 28.8964 5.90933 28.8853 5.97615 28.8837Z" fill="#F5CCB2"/>
</g>
<defs>
<clipPath id="clip0_162_10255">
<rect width="33.9927" height="39" fill="white"/>
</clipPath>
</defs>
</svg>
