<?xml version="1.0" encoding="UTF-8"?>
<svg version="1.1" xmlns="http://www.w3.org/2000/svg" width="512" height="512">
<path d="M0 0 C0.84356049 0.09221832 1.68712097 0.18443665 2.5562439 0.27944946 C8.43854579 0.93644128 14.31064067 1.66075083 20.18066406 2.41918945 C23.2570377 2.81340182 26.33534681 3.18902982 29.4140625 3.56445312 C45.71823293 5.61915353 60.55138248 8.40574652 71.44140625 21.8359375 C76.04477882 28.22758764 78.30231649 34.58062059 79.94238281 42.26391602 C80.11404087 43.05330094 80.28569893 43.84268587 80.46255875 44.65599155 C82.22701178 52.87335621 83.75382949 61.12995199 85.234375 69.40234375 C85.51987949 70.98373202 85.80563106 72.5650757 86.09161377 74.14637756 C86.6820271 77.41545403 87.26997241 80.68496084 87.85595703 83.95483398 C88.60703054 88.14512573 89.36380635 92.33436429 90.12228012 96.52332211 C90.70931349 99.76824191 91.29376642 103.01362217 91.877388 106.25915718 C92.15577053 107.80586169 92.4348726 109.35243688 92.71471405 110.8988781 C93.1024268 113.04402992 93.48674619 115.18976196 93.87011719 117.33569336 C94.08899597 118.5538121 94.30787476 119.77193085 94.53338623 121.02696228 C95 124 95 124 95 127 C96.27875 127.061875 97.5575 127.12375 98.875 127.1875 C106.97343782 128.08164929 114.9382378 132.35275856 120.30078125 138.48828125 C126.74016827 146.75121149 128.07979308 155.70515465 127 166 C125.32723002 173.6369915 122.09779616 180.0059268 116 185 C106.79903536 190.75380658 97.80717364 193.56879861 87 193 C86.34 192.67 85.68 192.34 85 192 C84.98598145 193.01030273 84.98598145 193.01030273 84.97167969 194.04101562 C84.42293866 225.60976398 76.40024529 252.54730666 53.09375 275.16015625 C46.70561158 280.7736137 39.48611691 285.03284008 32 289 C31.24668534 296.94328462 32.82524514 301.79782599 37 308.5 C37.9406038 310.07106256 38.87826288 311.64389315 39.8125 313.21875 C40.23144531 313.89873047 40.65039062 314.57871094 41.08203125 315.27929688 C42 317 42 317 42 319 C42.61379013 319.17523193 43.22758026 319.35046387 43.85997009 319.53100586 C49.80708537 321.26633951 55.56234653 323.2729958 61.31640625 325.5625 C62.18988708 325.90606033 63.06336792 326.24962067 63.96331787 326.60359192 C65.84688512 327.34488417 67.72974972 328.08796387 69.61196899 328.83267212 C74.73294856 330.85870141 79.85911218 332.87155553 84.984375 334.88671875 C86.05033401 335.30628342 87.11629303 335.72584808 88.21455383 336.15812683 C98.862045 340.3464211 109.53047522 344.47995034 120.20159912 348.60757446 C123.29720167 349.8065746 126.39127783 351.00942898 129.48486328 352.21362305 C137.93400003 355.50085961 146.38230129 358.78485769 154.87757874 361.95137024 C158.01536912 363.12282359 161.14702535 364.31011552 164.27792358 365.49984741 C165.69980023 366.03490222 167.12475989 366.56184574 168.55288696 367.07998657 C170.47896478 367.77906649 172.3941885 368.50784232 174.30859375 369.23828125 C175.89885376 369.826698 175.89885376 369.826698 177.52124023 370.42700195 C180.90866386 372.57662969 180.94394902 374.12672668 182 378 C182.76712662 381.56327281 183.41936487 385.14380085 184.06298828 388.73120117 C184.35603348 390.33462624 184.35603348 390.33462624 184.65499878 391.97044373 C185.2977601 395.49384737 185.93417219 399.01836418 186.5703125 402.54296875 C187.01555066 404.99348967 187.46110151 407.4439538 187.9069519 409.8943634 C188.95863455 415.68048181 190.00602576 421.46736536 191.05168998 427.25457412 C192.12332133 433.18317555 193.20168098 439.11054207 194.28059578 445.03782177 C195.20054883 450.09449893 196.11783281 455.15165724 197.03423691 460.20897865 C197.4745351 462.63766156 197.91552553 465.06621908 198.35721207 467.49464989 C198.97270006 470.88162545 199.58474571 474.2692047 200.19580078 477.65698242 C200.37967346 478.66535156 200.56354614 479.6737207 200.75299072 480.71264648 C201.00107986 482.09416145 201.00107986 482.09416145 201.25418091 483.50358582 C201.47151477 484.70451512 201.47151477 484.70451512 201.69323921 485.92970562 C202 488 202 488 202 491 C60.76 491 -80.48 491 -226 491 C-224.80212049 482.6148434 -223.5938774 474.26839958 -222.15576172 465.92724609 C-221.98300217 464.91725555 -221.81024261 463.90726501 -221.63224792 462.8666687 C-220.058305 453.69829954 -218.4448906 444.53683291 -216.81835747 435.37766075 C-215.72959745 429.2437615 -214.654801 423.10808848 -213.61132812 416.96630859 C-212.59598663 410.99223671 -211.54653037 405.02510652 -210.47259903 399.06129837 C-210.07054441 396.79481285 -209.68071529 394.52612299 -209.30343246 392.25538254 C-208.7751466 389.08969775 -208.20341292 385.93484297 -207.62060547 382.77880859 C-207.47484573 381.84270752 -207.329086 380.90660645 -207.1789093 379.94213867 C-205.97575828 373.77984433 -205.97575828 373.77984433 -203.21945477 371.57695484 C-201.17640145 370.53050129 -199.17434018 369.72959692 -197 369 C-196.16493423 368.64542221 -195.32986847 368.29084442 -194.46949768 367.92552185 C-193.38546913 367.51850792 -193.38546913 367.51850792 -192.27954102 367.10327148 C-191.43540146 366.78378036 -190.5912619 366.46428925 -189.72154236 366.13511658 C-188.82472244 365.80048904 -187.92790253 365.46586151 -187.00390625 365.12109375 C-186.03840347 364.75661636 -185.0729007 364.39213898 -184.07814026 364.01661682 C-181.99523885 363.23059735 -179.91165336 362.44638869 -177.82745361 361.66381836 C-172.21332067 359.55514696 -166.60487641 357.43144667 -160.99609375 355.30859375 C-159.8397644 354.87122894 -158.68343506 354.43386414 -157.49206543 353.98324585 C-145.34577205 349.38384352 -133.23194798 344.7018298 -121.125 340 C-120.10098083 339.60257599 -119.07696167 339.20515198 -118.02191162 338.79568481 C-108.28897725 335.01737298 -98.56021064 331.2288697 -88.84765625 327.3984375 C-88.17261047 327.1323468 -87.4975647 326.8662561 -86.80206299 326.59210205 C-83.80334696 325.4093952 -80.8060878 324.22320732 -77.81103516 323.03125 C-76.81507324 322.63679688 -75.81911133 322.24234375 -74.79296875 321.8359375 C-73.9527417 321.50126465 -73.11251465 321.1665918 -72.24682617 320.82177734 C-70 320 -70 320 -67.76245117 319.55029297 C-67.18084229 319.36869629 -66.5992334 319.18709961 -66 319 C-65.25848723 317.02652508 -64.60578253 315.01927511 -64 313 C-63.01047563 311.32297476 -62.01874228 309.6464875 -60.9753418 308.00244141 C-56.02549575 300.18947928 -56.02549575 300.18947928 -54.8984375 291.23046875 C-57.26074941 286.44720598 -62.71230902 284.4338903 -67.24267578 282.00634766 C-86.67695119 270.87713354 -99.99873651 248.69254892 -105.96484375 227.63671875 C-108.80718703 216.16320257 -109.15280476 203.7798582 -109 192 C-110.09957031 192.04640625 -111.19914062 192.0928125 -112.33203125 192.140625 C-122.9902105 192.45701328 -132.24219496 192.08124403 -140.9375 185.125 C-148.31422187 178.06517787 -151.11897969 170.16388158 -151.4375 160.125 C-151.18775431 150.46816658 -148.67226346 142.74667286 -141.91796875 135.71875 C-135.1321663 129.6377865 -128.18647322 126.82547287 -119 127 C-118.8892514 126.18306671 -118.77850281 125.36613342 -118.66439819 124.52444458 C-117.35273526 115.07608134 -115.77943956 105.69368288 -114.1015625 96.3046875 C-113.96496593 95.53815983 -113.82836937 94.77163216 -113.68763351 93.98187637 C-112.96614378 89.93450779 -112.24165852 85.88768907 -111.51464844 81.84130859 C-110.77180915 77.70328734 -110.03966047 73.56344846 -109.30986977 69.42310905 C-108.73931019 66.19780594 -108.1606991 62.97398318 -107.57999802 59.7504921 C-107.30675138 58.22585181 -107.03643893 56.70068218 -106.7693367 55.17495346 C-103.90293412 38.83493517 -100.33937751 25.4671177 -87.83203125 13.921875 C-79.90698043 8.54377155 -71.77890169 6.16454826 -62.375 4.9375 C-60.72890747 4.706073 -60.72890747 4.706073 -59.04956055 4.4699707 C-56.65813539 4.13954037 -54.26539451 3.81852581 -51.87158203 3.50585938 C-49.18586979 3.15494528 -46.50258379 2.79578303 -43.81982422 2.42382812 C-40.1988171 1.92236104 -36.57581129 1.43876456 -32.95074463 0.96755981 C-31.5504091 0.78414876 -30.15059527 0.59669857 -28.75140381 0.40475464 C-18.97226291 -0.92403106 -9.79867542 -1.08002567 0 0 Z " fill="#C6C3D8" transform="translate(268,11)"/>
<path d="M0 0 C0.84356049 0.09221832 1.68712097 0.18443665 2.5562439 0.27944946 C8.43854579 0.93644128 14.31064067 1.66075083 20.18066406 2.41918945 C23.2570377 2.81340182 26.33534681 3.18902982 29.4140625 3.56445312 C45.71823293 5.61915353 60.55138248 8.40574652 71.44140625 21.8359375 C76.04477882 28.22758764 78.30231649 34.58062059 79.94238281 42.26391602 C80.11404087 43.05330094 80.28569893 43.84268587 80.46255875 44.65599155 C82.22701178 52.87335621 83.75382949 61.12995199 85.234375 69.40234375 C85.51987949 70.98373202 85.80563106 72.5650757 86.09161377 74.14637756 C86.6820271 77.41545403 87.26997241 80.68496084 87.85595703 83.95483398 C88.60703054 88.14512573 89.36380635 92.33436429 90.12228012 96.52332211 C90.70931349 99.76824191 91.29376642 103.01362217 91.877388 106.25915718 C92.15577053 107.80586169 92.4348726 109.35243688 92.71471405 110.8988781 C93.1024268 113.04402992 93.48674619 115.18976196 93.87011719 117.33569336 C94.08899597 118.5538121 94.30787476 119.77193085 94.53338623 121.02696228 C95 124 95 124 95 127 C96.27875 127.061875 97.5575 127.12375 98.875 127.1875 C106.97343782 128.08164929 114.9382378 132.35275856 120.30078125 138.48828125 C126.74016827 146.75121149 128.07979308 155.70515465 127 166 C125.32723002 173.6369915 122.09779616 180.0059268 116 185 C106.79903536 190.75380658 97.80717364 193.56879861 87 193 C86.34 192.67 85.68 192.34 85 192 C84.98541748 192.68924561 84.97083496 193.37849121 84.95581055 194.08862305 C84.26115543 223.47768914 84.26115543 223.47768914 80 232 C75.82827769 231.32688908 72.22379233 229.95643063 68.3125 228.375 C50.20641435 221.38460762 31.28325073 217.00162684 12 215 C11.14269287 214.9071875 10.28538574 214.814375 9.40209961 214.71875 C-27.97544676 210.95376646 -64.23917808 217.14820398 -98.85302734 231.26904297 C-101 232 -101 232 -104 232 C-106.68441391 225.17538156 -107.66792956 218.72578631 -108.1875 211.4375 C-108.26935547 210.44814453 -108.35121094 209.45878906 -108.43554688 208.43945312 C-108.86961202 202.94251043 -109.08522107 197.51314786 -109 192 C-110.09957031 192.04640625 -111.19914062 192.0928125 -112.33203125 192.140625 C-122.9902105 192.45701328 -132.24219496 192.08124403 -140.9375 185.125 C-148.31422187 178.06517787 -151.11897969 170.16388158 -151.4375 160.125 C-151.18775431 150.46816658 -148.67226346 142.74667286 -141.91796875 135.71875 C-135.1321663 129.6377865 -128.18647322 126.82547287 -119 127 C-118.83387711 125.77460007 -118.83387711 125.77460007 -118.66439819 124.52444458 C-117.35273526 115.07608134 -115.77943956 105.69368288 -114.1015625 96.3046875 C-113.96496593 95.53815983 -113.82836937 94.77163216 -113.68763351 93.98187637 C-112.96614378 89.93450779 -112.24165852 85.88768907 -111.51464844 81.84130859 C-110.77180915 77.70328734 -110.03966047 73.56344846 -109.30986977 69.42310905 C-108.73931019 66.19780594 -108.1606991 62.97398318 -107.57999802 59.7504921 C-107.30675138 58.22585181 -107.03643893 56.70068218 -106.7693367 55.17495346 C-103.90293412 38.83493517 -100.33937751 25.4671177 -87.83203125 13.921875 C-79.90698043 8.54377155 -71.77890169 6.16454826 -62.375 4.9375 C-61.27760498 4.78321533 -60.18020996 4.62893066 -59.04956055 4.4699707 C-56.65813539 4.13954037 -54.26539451 3.81852581 -51.87158203 3.50585938 C-49.18586979 3.15494528 -46.50258379 2.79578303 -43.81982422 2.42382812 C-40.1988171 1.92236104 -36.57581129 1.43876456 -32.95074463 0.96755981 C-31.5504091 0.78414876 -30.15059527 0.59669857 -28.75140381 0.40475464 C-18.97226291 -0.92403106 -9.79867542 -1.08002567 0 0 Z " fill="#ECEAF1" transform="translate(268,11)"/>
<path d="M0 0 C0.91041192 -0.00382555 1.82082383 -0.00765109 2.75882399 -0.01159257 C5.79245154 -0.02186528 8.8258878 -0.01794133 11.85952759 -0.01396179 C14.04150059 -0.01831144 16.22347207 -0.02349543 18.40544128 -0.02944946 C24.32075685 -0.04282355 30.23600846 -0.04341989 36.15133619 -0.04088616 C41.09411813 -0.03981537 46.03688718 -0.0447026 50.97966635 -0.04949158 C63.30934306 -0.06121494 75.6389844 -0.06036483 87.96866353 -0.05393478 C99.3241905 -0.04844607 110.67960578 -0.06243133 122.03511465 -0.08254749 C132.3665645 -0.10017486 142.69797714 -0.10616304 153.02944148 -0.10290974 C159.19560785 -0.10109856 165.36169075 -0.10371677 171.52784348 -0.11762428 C177.32764432 -0.1302164 183.12726298 -0.12824527 188.92706108 -0.11521339 C191.05144373 -0.11285109 193.17583926 -0.11556984 195.30020714 -0.12383652 C198.20856721 -0.13433494 201.11631945 -0.12617839 204.0246582 -0.11352539 C204.8577543 -0.12089968 205.6908504 -0.12827396 206.54919183 -0.13587171 C216.3913978 -0.04629025 225.10085315 2.8775563 232.63931274 9.26069641 C239.17846365 16.02828927 241.73524864 23.32532009 242.07681274 32.63569641 C241.8199573 41.80757635 239.23694106 49.76837884 232.81900024 56.47554016 C223.85858955 63.8140844 213.03456607 66.86044659 201.63931274 66.26069641 C200.97931274 65.93069641 200.31931274 65.60069641 199.63931274 65.26069641 C199.62473022 65.94994202 199.61014771 66.63918762 199.59512329 67.34931946 C198.90046818 96.73838555 198.90046818 96.73838555 194.63931274 105.26069641 C190.46759044 104.58758549 186.86310507 103.21712704 182.95181274 101.63569641 C164.84572709 94.64530403 145.92256348 90.26232325 126.63931274 88.26069641 C125.78200562 88.16788391 124.92469849 88.07507141 124.04141235 87.97944641 C86.66386598 84.21446288 50.40013466 90.40890039 15.7862854 104.52973938 C13.63931274 105.26069641 13.63931274 105.26069641 10.63931274 105.26069641 C7.95489883 98.43607797 6.97138319 91.98648272 6.45181274 84.69819641 C6.32902954 83.21416321 6.32902954 83.21416321 6.20376587 81.70014954 C5.76970072 76.20320684 5.55409167 70.77384427 5.63931274 65.26069641 C4.53974243 65.30710266 3.44017212 65.35350891 2.30728149 65.40132141 C-8.35089776 65.71770969 -17.60288221 65.34194044 -26.29818726 58.38569641 C-33.67490913 51.32587429 -36.47966694 43.42457799 -36.79818726 33.38569641 C-36.54844156 23.72886299 -34.03295072 16.00736927 -27.27865601 8.97944641 C-19.15971079 1.70381322 -10.64342401 -0.04802648 0 0 Z " fill="#FEDDC6" transform="translate(153.36068725585938,137.7393035888672)"/>
<path d="M0 0 C18.28482106 6.612355 36.39800494 13.63521686 54.49487305 20.74267578 C56.5004719 21.53031516 58.50608732 22.31791233 60.51171875 23.10546875 C61.52054611 23.50163391 62.52937347 23.89779907 63.56877136 24.30596924 C78.5440415 30.1815873 93.55093403 35.97616666 108.55596924 41.7752533 C110.44612994 42.5078825 112.3351285 43.24351848 114.22283936 43.98243713 C118.3526301 45.59882146 122.48379851 47.18584492 126.66455078 48.66601562 C127.36781998 48.92332458 128.07108917 49.18063354 128.79566956 49.44573975 C130.63051508 50.1154331 132.47327701 50.76332996 134.31665039 51.40917969 C137.92964676 53.55113987 137.91121149 54.95479507 139 59 C139.76596552 62.56353295 140.41936146 66.14378184 141.06298828 69.73120117 C141.35603348 71.33462624 141.35603348 71.33462624 141.65499878 72.97044373 C142.2977601 76.49384737 142.93417219 80.01836418 143.5703125 83.54296875 C144.01555066 85.99348967 144.46110151 88.4439538 144.9069519 90.8943634 C145.95863455 96.68048181 147.00602576 102.46736536 148.05168998 108.25457412 C149.12332133 114.18317555 150.20168098 120.11054207 151.28059578 126.03782177 C152.20054883 131.09449893 153.11783281 136.15165724 154.03423691 141.20897865 C154.4745351 143.63766156 154.91552553 146.06621908 155.35721207 148.49464989 C155.97270006 151.88162545 156.58474571 155.2692047 157.19580078 158.65698242 C157.37967346 159.66535156 157.56354614 160.6737207 157.75299072 161.71264648 C157.91838348 162.63365646 158.08377625 163.55466644 158.25418091 164.50358582 C158.47151477 165.70451512 158.47151477 165.70451512 158.69323921 166.92970562 C159 169 159 169 159 172 C120.06 172 81.12 172 41 172 C39.35 168.7 37.7 165.4 36 162 C34.39560059 161.9906543 32.79120117 161.98130859 31.13818359 161.97167969 C25.17794163 161.93176723 19.21821512 161.86600351 13.25830078 161.79248047 C10.68024321 161.76427841 8.10209929 161.74306013 5.52392578 161.72900391 C1.81498025 161.70756491 -1.89292793 161.66090604 -5.6015625 161.609375 C-6.75177887 161.60814636 -7.90199524 161.60691772 -9.08706665 161.60565186 C-15.29468717 161.49238319 -19.3809683 161.34743685 -24 157 C-26.4412295 153.45672727 -26.24965361 150.66086366 -25.66455078 146.52978516 C-24.36906174 141.59816965 -21.60914731 137.48414387 -18.9375 133.1875 C-17.66758247 131.08174645 -16.39942926 128.97492813 -15.1328125 126.8671875 C-14.46282227 125.76084961 -13.79283203 124.65451172 -13.10253906 123.51464844 C-9.39165365 117.34723079 -5.86649313 111.07107524 -2.3125 104.8125 C-0.97638852 102.46419821 0.36126807 100.11678661 1.69921875 97.76953125 C2.26471436 96.77542236 2.83020996 95.78131348 3.4128418 94.75708008 C5 92 5 92 6.56997681 89.75088501 C8.32327309 86.378131 8.41186463 84.02161112 8.4675293 80.22875977 C8.48746193 79.2372718 8.48746193 79.2372718 8.50779724 78.22575378 C8.54637362 76.0475141 8.56207787 73.8699444 8.57421875 71.69140625 C8.58895954 70.16267263 8.60383918 68.63394034 8.61885071 67.10520935 C8.64582092 63.89830318 8.65938239 60.69162818 8.66577148 57.48461914 C8.67657673 53.41245491 8.73808202 49.34280788 8.8124876 45.27137852 C8.8613463 42.10961638 8.87331474 38.9484363 8.87583351 35.78632927 C8.88298024 34.28779843 8.90313075 32.78926195 8.93753624 31.29110909 C9.15145363 21.19651638 7.32541453 14.19970747 1.71882629 5.7752533 C0 3 0 3 0 0 Z " fill="#ECEAF1" transform="translate(311,330)"/>
<path d="M0 0 C-4.54941099 13.98450088 -11.05052958 26.10296097 -21 37 C-21.65871094 37.72832031 -22.31742188 38.45664062 -22.99609375 39.20703125 C-39.82593582 56.91730772 -65.82668868 65.61181662 -89.80493164 66.32958984 C-100.75262933 66.50205294 -110.56074302 65.23848477 -121 62 C-122.21042969 61.63777344 -123.42085937 61.27554688 -124.66796875 60.90234375 C-149.45454846 52.78687092 -167.44733658 35.73517165 -179.3125 12.75 C-181.42797509 8.55382476 -182.8018165 4.52272084 -184 0 C-122.85823937 -24.16415308 -61.08308235 -25.00141001 0 0 Z " fill="#82BBF3" transform="translate(348,243)"/>
<path d="M0 0 C0.495 0.99 0.495 0.99 1 2 C0.21826172 3.97338867 0.21826172 3.97338867 -1.0703125 6.41796875 C-1.54750732 7.3298999 -2.02470215 8.24183105 -2.51635742 9.18139648 C-3.04720947 10.17341064 -3.57806152 11.1654248 -4.125 12.1875 C-4.67196533 13.22269775 -5.21893066 14.25789551 -5.7824707 15.32446289 C-9.97357204 23.20569191 -14.34759369 30.97484424 -18.78076172 38.72167969 C-23.99973604 47.88918968 -28.92934071 57.20206182 -33.85455322 66.52926636 C-39.08819047 76.43875263 -44.39644596 86.29355881 -50 96 C-44.19316781 103.11905227 -37.63714556 109.47374812 -31.125 115.9375 C-29.94768362 117.10979204 -28.77059826 118.28231614 -27.59375 119.45507812 C-24.73182511 122.30606982 -21.86678543 125.15389615 -19 128 C-20.33651162 132.29475375 -21.98697486 136.22012041 -24.00390625 140.23828125 C-24.57947266 141.38748047 -25.15503906 142.53667969 -25.74804688 143.72070312 C-26.04573975 144.30988525 -26.34343262 144.89906738 -26.65014648 145.50610352 C-27.56766336 147.3227231 -28.47861177 149.14252584 -29.38867188 150.96289062 C-33.85961416 159.85961416 -33.85961416 159.85961416 -35 161 C-54.08330953 161.86550408 -73.47447059 154.04446072 -88 142 C-89.27617188 140.96746094 -89.27617188 140.96746094 -90.578125 139.9140625 C-105.83732998 126.948419 -116.54697877 107.99443721 -119 88 C-119.58933394 75.74185403 -119.8850045 63.48772493 -116.65625 51.57421875 C-115.83531281 48.79675351 -115.83531281 48.79675351 -116 45 C-115.02619385 44.63052246 -114.0523877 44.26104492 -113.04907227 43.88037109 C-91.24282003 35.60327181 -69.45692752 27.27342355 -47.69332886 18.88482666 C-45.21312404 17.92885797 -42.73253359 16.97391094 -40.2517395 16.01947021 C-26.76967855 10.83125164 -13.31918531 5.59492599 0 0 Z " fill="#ECEAF1" transform="translate(200,330)"/>
<path d="M0 0 C0.91041192 -0.00382555 1.82082383 -0.00765109 2.75882399 -0.01159257 C5.79245154 -0.02186528 8.8258878 -0.01794133 11.85952759 -0.01396179 C14.04150059 -0.01831144 16.22347207 -0.02349543 18.40544128 -0.02944946 C24.32075685 -0.04282355 30.23600846 -0.04341989 36.15133619 -0.04088616 C41.09411813 -0.03981537 46.03688718 -0.0447026 50.97966635 -0.04949158 C63.30934306 -0.06121494 75.6389844 -0.06036483 87.96866353 -0.05393478 C99.3241905 -0.04844607 110.67960578 -0.06243133 122.03511465 -0.08254749 C132.3665645 -0.10017486 142.69797714 -0.10616304 153.02944148 -0.10290974 C159.19560785 -0.10109856 165.36169075 -0.10371677 171.52784348 -0.11762428 C177.32764432 -0.1302164 183.12726298 -0.12824527 188.92706108 -0.11521339 C191.05144373 -0.11285109 193.17583926 -0.11556984 195.30020714 -0.12383652 C198.20856721 -0.13433494 201.11631945 -0.12617839 204.0246582 -0.11352539 C204.8577543 -0.12089968 205.6908504 -0.12827396 206.54919183 -0.13587171 C216.3913978 -0.04629025 225.10085315 2.8775563 232.63931274 9.26069641 C239.17846365 16.02828927 241.73524864 23.32532009 242.07681274 32.63569641 C241.8199573 41.80757635 239.23694106 49.76837884 232.81900024 56.47554016 C223.85858955 63.8140844 213.03456607 66.86044659 201.63931274 66.26069641 C200.97931274 65.93069641 200.31931274 65.60069641 199.63931274 65.26069641 C199.62473022 65.94994202 199.61014771 66.63918762 199.59512329 67.34931946 C198.90046818 96.73838555 198.90046818 96.73838555 194.63931274 105.26069641 C190.46759044 104.58758549 186.86310507 103.21712704 182.95181274 101.63569641 C164.84572709 94.64530403 145.92256348 90.26232325 126.63931274 88.26069641 C125.78200562 88.16788391 124.92469849 88.07507141 124.04141235 87.97944641 C86.66386598 84.21446288 50.40013466 90.40890039 15.7862854 104.52973938 C13.63931274 105.26069641 13.63931274 105.26069641 10.63931274 105.26069641 C7.95489883 98.43607797 6.97138319 91.98648272 6.45181274 84.69819641 C6.32902954 83.21416321 6.32902954 83.21416321 6.20376587 81.70014954 C5.76970072 76.20320684 5.55409167 70.77384427 5.63931274 65.26069641 C4.53974243 65.30710266 3.44017212 65.35350891 2.30728149 65.40132141 C-8.35089776 65.71770969 -17.60288221 65.34194044 -26.29818726 58.38569641 C-33.67490913 51.32587429 -36.47966694 43.42457799 -36.79818726 33.38569641 C-36.54844156 23.72886299 -34.03295072 16.00736927 -27.27865601 8.97944641 C-19.15971079 1.70381322 -10.64342401 -0.04802648 0 0 Z M17.63931274 11.26069641 C12.96773638 45.09123759 12.96773638 45.09123759 23.35025024 78.28413391 C29.44479294 83.23416155 34.7401209 84.89293282 42.63931274 84.26069641 C47.42295495 83.43343065 52.1518849 82.38052837 56.88931274 81.32319641 C71.87212576 77.98421378 86.09705588 77.05312825 101.39028931 77.02046204 C104.10642814 77.01081323 106.82178965 76.97972007 109.53775024 76.94819641 C126.8592054 76.84110358 143.17871586 79.18733766 159.82681274 83.94819641 C173.7379871 88.01578915 173.7379871 88.01578915 187.71743774 85.43257141 C194.2879647 81.42615254 196.56059464 76.53620978 198.63931274 69.26069641 C198.63931274 50.12069641 198.63931274 30.98069641 198.63931274 11.26069641 C138.90931274 11.26069641 79.17931274 11.26069641 17.63931274 11.26069641 Z " fill="#F5CCAF" transform="translate(153.36068725585938,137.7393035888672)"/>
<path d="M0 0 C0.33 0 0.66 0 1 0 C1.35122783 12.04958338 1.61588588 24.09790424 1.77718258 36.15160847 C1.85469503 41.75211151 1.95936508 47.34905534 2.1315918 52.94750977 C3.52666252 99.52704465 3.52666252 99.52704465 -12.01889038 120.25564575 C-15.52362122 125.11061333 -18.36484446 130.35824062 -21.3125 135.5625 C-22.45775516 137.52009441 -23.60574907 139.47609207 -24.7578125 141.4296875 C-28.62017795 148.03161116 -32.32910804 154.71463608 -36.01171875 161.41796875 C-36.67417947 162.61214547 -37.33691287 163.80617099 -38 165 C-38.54269531 165.98613281 -39.08539063 166.97226562 -39.64453125 167.98828125 C-40.09183594 168.65214844 -40.53914063 169.31601562 -41 170 C-41.66 170 -42.32 170 -43 170 C-43.3810791 169.30777344 -43.7621582 168.61554688 -44.15478516 167.90234375 C-51.50087213 154.57535238 -58.89697096 141.29005044 -66.63916016 128.1875 C-67.74093794 126.3179003 -68.81150215 124.42974314 -69.85961914 122.52954102 C-71.45344449 119.74671361 -73.3079858 117.31166972 -75.29467773 114.79663086 C-89.08505663 95.99426961 -86.51423843 74.46079242 -85.89263916 52.23657227 C-85.75789946 46.89993613 -85.69991273 41.56246824 -85.63476562 36.22460938 C-85.4967455 25.81425842 -85.27589519 15.40754829 -85 5 C-83.45389953 8.01441726 -82.30934199 10.9676579 -81.25 14.1875 C-77.17567659 25.35471489 -71.10513726 32.12976755 -60.30859375 37.28515625 C-48.52800321 42.18349419 -37.0674188 42.26479058 -25 38 C-15.78378062 33.83869689 -8.06844497 26.73794682 -3.80859375 17.4609375 C-1.9476323 11.79714178 -1.00808201 5.86520441 0 0 Z " fill="#82BBF3" transform="translate(298,331)"/>
<path d="M0 0 C-0.19577637 1.00075562 -0.19577637 1.00075562 -0.39550781 2.02172852 C-1.95451406 10.00992911 -3.48605265 18.003141 -5 26 C-5.2077002 27.09280273 -5.41540039 28.18560547 -5.62939453 29.31152344 C-6.20204312 32.35150975 -6.75979963 35.39383099 -7.3125 38.4375 C-7.48362305 39.33992432 -7.65474609 40.24234863 -7.83105469 41.17211914 C-10.26521059 54.83451499 -9.34334731 67.09991187 -1.375 78.875 C5.61141447 87.73047369 14.12690314 92.37365389 25 95 C29.89860832 95.53691669 34.74820993 95.56476984 39.67285156 95.54589844 C41.10318616 95.55465501 42.533511 95.56514796 43.96382141 95.57722473 C47.808109 95.60485095 51.65207328 95.60849466 55.49644566 95.60750484 C59.52836232 95.61065428 63.56013763 95.6363143 67.59197998 95.65948486 C75.20955314 95.699894 82.82704103 95.72034989 90.44470477 95.73345876 C99.12445867 95.7493802 107.80406849 95.78781722 116.48373842 95.82805204 C134.3224466 95.91024426 152.16114088 95.96446521 170 96 C172.35304797 103.05914391 172.90056035 109.30392243 174 117 C103.38 117 32.76 117 -40 117 C-37.7477719 101.23440329 -37.7477719 101.23440329 -36.64306641 94.99169922 C-36.52240311 94.30667328 -36.40173981 93.62164734 -36.27742004 92.91586304 C-35.88821803 90.71163939 -35.4953273 88.50810033 -35.1015625 86.3046875 C-34.96496593 85.53815983 -34.82836937 84.77163216 -34.68763351 83.98187637 C-33.96614378 79.93450779 -33.24165852 75.88768907 -32.51464844 71.84130859 C-31.77180915 67.70328734 -31.03966047 63.56344846 -30.30986977 59.42310905 C-29.73931019 56.19780594 -29.1606991 52.97398318 -28.57999802 49.7504921 C-28.30675138 48.22585181 -28.03643893 46.70068218 -27.7693367 45.17495346 C-24.68661162 27.60178192 -20.77757929 13.20409193 -6 2 C-2.485623 0 -2.485623 0 0 0 Z " fill="#DAD7E5" transform="translate(189,21)"/>
<path d="M0 0 C-0.30904171 2.27130656 -0.62234907 4.54203305 -0.9375 6.8125 C-1.11152344 8.07707031 -1.28554687 9.34164063 -1.46484375 10.64453125 C-2 14 -2 14 -3 17 C-4.04282642 31.03140933 -3.62885412 44.6597942 1 58 C1.54333984 59.59134766 1.54333984 59.59134766 2.09765625 61.21484375 C9.87147843 81.69030082 25.93696887 97.91534083 45.75 106.875 C56.6413119 111.53582903 68.2854093 113.65440512 80 115 C78.35 118.63 76.7 122.26 75 126 C36.06 126 -2.88 126 -43 126 C-41.80212049 117.6148434 -40.5938774 109.26839958 -39.15576172 100.92724609 C-38.98300217 99.91725555 -38.81024261 98.90726501 -38.63224792 97.8666687 C-37.058305 88.69829954 -35.4448906 79.53683291 -33.81835747 70.37766075 C-32.72959745 64.2437615 -31.654801 58.10808848 -30.61132812 51.96630859 C-29.59598663 45.99223671 -28.54653037 40.02510652 -27.47259903 34.06129837 C-27.07054441 31.79481285 -26.68071529 29.52612299 -26.30343246 27.25538254 C-25.7751466 24.08969775 -25.20341292 20.93484297 -24.62060547 17.77880859 C-24.47484573 16.84270752 -24.329086 15.90660645 -24.1789093 14.94213867 C-22.9728383 8.76488879 -22.9728383 8.76488879 -20.16185379 6.55476761 C-18.13218526 5.52058431 -16.15820999 4.72145296 -14 4 C-12.98292969 3.58234375 -11.96585938 3.1646875 -10.91796875 2.734375 C-10.01691406 2.40953125 -9.11585937 2.0846875 -8.1875 1.75 C-7.27355469 1.41484375 -6.35960937 1.0796875 -5.41796875 0.734375 C-3 0 -3 0 0 0 Z " fill="#DAD7E5" transform="translate(85,376)"/>
<path d="M0 0 C0.87567627 0.30236572 0.87567627 0.30236572 1.76904297 0.61083984 C4.46880799 1.5388341 7.17183958 2.45694552 9.875 3.375 C11.25171875 3.85066406 11.25171875 3.85066406 12.65625 4.3359375 C22.36239393 7.61688756 31.36585371 9.37655675 41.625 9.3125 C42.5843042 9.30686035 43.5436084 9.3012207 44.53198242 9.29541016 C59.31366414 9.04619058 72.30097958 5.23885806 86 0 C86.07552747 4.28260115 86.12923302 8.56482478 86.16479492 12.84790039 C86.17965701 14.29751354 86.19995267 15.74708365 86.22631836 17.1965332 C86.54410297 35.14824806 84.29163205 50.10978468 71.58984375 63.69921875 C62.80956251 71.49949876 51.49858314 74.58271776 39.953125 74.30859375 C28.10352761 73.07034217 16.69466552 67.90999117 9.0625 58.625 C-0.14993624 45.57772188 -0.29572229 31.6920016 -0.125 16.3125 C-0.11494496 14.72461505 -0.1058236 13.1367239 -0.09765625 11.54882812 C-0.07585443 7.69906275 -0.04146559 3.84960173 0 0 Z " fill="#ECB996" transform="translate(213,299)"/>
<path d="M0 0 C2.44747646 3.01518226 4.6108431 5.84557565 6.375 9.30859375 C6.79628174 10.12610107 7.21756348 10.9436084 7.65161133 11.78588867 C8.31906372 13.09843628 8.31906372 13.09843628 9 14.4375 C9.98146688 16.33937133 10.96459242 18.24038745 11.94921875 20.140625 C12.45372559 21.11451172 12.95823242 22.08839844 13.47802734 23.09179688 C15.86607506 27.65490633 18.33538819 32.17228437 20.8125 36.6875 C25.4490438 45.14938466 30.0500613 53.62969528 34.625 62.125 C35.22932861 63.24608154 35.83365723 64.36716309 36.45629883 65.5222168 C37.01986084 66.56933838 37.58342285 67.61645996 38.1640625 68.6953125 C38.66373535 69.62359863 39.1634082 70.55188477 39.67822266 71.50830078 C40.81731321 73.65561481 41.91294114 75.82588228 43 78 C27.655 93.345 27.655 93.345 12 109 C13.47861459 113.43584378 14.94876285 117.12357525 17.0390625 121.23828125 C17.61914062 122.38748047 18.19921875 123.53667969 18.796875 124.72070312 C19.40597504 125.91810866 20.01535333 127.11537269 20.625 128.3125 C21.82805984 130.68232589 23.02783872 133.05375306 24.2265625 135.42578125 C24.75846191 136.47161377 25.29036133 137.51744629 25.83837891 138.5949707 C27 141 27 141 27 142 C19.41955012 142.10152851 11.839276 142.17151993 4.25830078 142.21972656 C1.68010912 142.23982563 -0.89803704 142.26710941 -3.47607422 142.30175781 C-7.18468461 142.35034847 -10.89269156 142.37298658 -14.6015625 142.390625 C-16.32688705 142.42159271 -16.32688705 142.42159271 -18.08706665 142.45318604 C-24.32711536 142.45493058 -28.36575299 142.38871761 -33 138 C-35.4412295 134.45672727 -35.24965361 131.66086366 -34.66455078 127.52978516 C-33.36906174 122.59816965 -30.60914731 118.48414387 -27.9375 114.1875 C-26.66758247 112.08174645 -25.39942926 109.97492813 -24.1328125 107.8671875 C-23.46282227 106.76084961 -22.79283203 105.65451172 -22.10253906 104.51464844 C-18.39165365 98.34723079 -14.86649313 92.07107524 -11.3125 85.8125 C-9.97638852 83.46419821 -8.63873193 81.11678661 -7.30078125 78.76953125 C-6.73528564 77.77542236 -6.16979004 76.78131348 -5.5871582 75.75708008 C-4 73 -4 73 -2.42782593 70.7532959 C-0.66968496 67.36304908 -0.60297509 65.00071468 -0.56762695 61.19018555 C-0.5574353 60.52621262 -0.54724365 59.86223969 -0.53674316 59.17814636 C-0.50670435 56.99758365 -0.49736171 54.81746086 -0.48828125 52.63671875 C-0.47142771 51.11927338 -0.45327655 49.60184192 -0.43388367 48.08442688 C-0.38645048 44.10114893 -0.35659816 40.11792737 -0.33044434 36.13446045 C-0.30060491 32.06543851 -0.25408625 27.9966107 -0.20898438 23.92773438 C-0.12302737 15.95191845 -0.05564855 7.97608471 0 0 Z " fill="#D9D6E4" transform="translate(320,349)"/>
<path d="M0 0 C0.33 0 0.66 0 1 0 C0.98143951 1.04695541 0.96287903 2.09391083 0.9437561 3.17259216 C0.77621991 13.15716404 0.68563256 23.14003579 0.66578102 33.12602139 C0.65323071 38.25741817 0.61582834 43.38584671 0.51660156 48.51635742 C-0.12821397 81.62672027 -0.12821397 81.62672027 14.32470703 110.72286987 C16.57082865 113.77589481 18.35483482 116.95113228 20.18359375 120.26953125 C21.26586713 122.11857207 22.35032877 123.9663347 23.4375 125.8125 C26.74609375 131.45703125 26.74609375 131.45703125 28.33544922 134.17431641 C29.53420349 136.20928003 30.74574411 138.23673091 31.96533203 140.25927734 C32.60712402 141.33258301 33.24891602 142.40588867 33.91015625 143.51171875 C34.50062744 144.48971436 35.09109863 145.46770996 35.69946289 146.4753418 C37 149 37 149 37 152 C29.56196775 152.10153917 22.1241147 152.17152433 14.68554688 152.21972656 C12.15585653 152.23982405 9.62621254 152.26710668 7.09667969 152.30175781 C3.45756583 152.35035556 -0.180933 152.37298812 -3.8203125 152.390625 C-4.94865509 152.41127014 -6.07699768 152.43191528 -7.23953247 152.45318604 C-13.46550516 152.4549595 -17.32218835 152.28066631 -22 148 C-24.50844519 144.23733221 -24.72015904 141.35254832 -24 137 C-22.65355809 133.57269333 -20.89664552 130.43786002 -19.0625 127.25 C-18.13307107 125.59057944 -17.20714768 123.9291894 -16.28515625 122.265625 C-15.87144775 121.54149414 -15.45773926 120.81736328 -15.03149414 120.07128906 C-12.90551177 115.80221582 -12.36951472 111.72863958 -13 107 C-14.28510104 105.09837931 -14.28510104 105.09837931 -16.015625 103.27734375 C-16.65113281 102.57947754 -17.28664062 101.88161133 -17.94140625 101.16259766 C-21.98631591 96.9133318 -26.17987332 92.82029623 -30.390625 88.73632812 C-38.77043394 80.49142141 -38.77043394 80.49142141 -39.25366211 75.24707031 C-38.95053597 71.36682237 -37.81538337 69.07286843 -35.95703125 65.66015625 C-35.63716751 65.0651532 -35.31730377 64.47015015 -34.98774719 63.8571167 C-33.94142471 61.91873209 -32.87737793 59.99074342 -31.8125 58.0625 C-31.07901261 56.712974 -30.34643693 55.36295208 -29.61474609 54.01245117 C-24.69637965 44.96376736 -19.65058216 35.98635057 -14.54345703 27.04296875 C-9.47175673 18.14468738 -4.70270532 9.0975586 0 0 Z " fill="#D9D6E4" transform="translate(212,339)"/>
<path d="M0 0 C0.33 0 0.66 0 1 0 C1.35122783 12.04958338 1.61588588 24.09790424 1.77718258 36.15160847 C1.85469503 41.75211151 1.95936508 47.34905534 2.1315918 52.94750977 C3.52666252 99.52704465 3.52666252 99.52704465 -12.01889038 120.25564575 C-15.52362122 125.11061333 -18.36484446 130.35824062 -21.3125 135.5625 C-22.45775516 137.52009441 -23.60574907 139.47609207 -24.7578125 141.4296875 C-28.62017795 148.03161116 -32.32910804 154.71463608 -36.01171875 161.41796875 C-36.67417947 162.61214547 -37.33691287 163.80617099 -38 165 C-38.54269531 165.98613281 -39.08539063 166.97226562 -39.64453125 167.98828125 C-40.09183594 168.65214844 -40.53914063 169.31601562 -41 170 C-41.66 170 -42.32 170 -43 170 C-43.3810791 169.30777344 -43.7621582 168.61554688 -44.15478516 167.90234375 C-51.50087213 154.57535238 -58.89697096 141.29005044 -66.63916016 128.1875 C-67.74093794 126.3179003 -68.81150215 124.42974314 -69.85961914 122.52954102 C-71.45344449 119.74671361 -73.3079858 117.31166972 -75.29467773 114.79663086 C-89.08505663 95.99426961 -86.51423843 74.46079242 -85.89263916 52.23657227 C-85.75789946 46.89993613 -85.69991273 41.56246824 -85.63476562 36.22460938 C-85.4967455 25.81425842 -85.27589519 15.40754829 -85 5 C-83.45389953 8.01441726 -82.30934199 10.9676579 -81.25 14.1875 C-78.34942997 22.13760253 -75.35563278 27.82987719 -67.81323242 31.98999023 C-63.25124426 35.12206968 -63.25124426 35.12206968 -62.23843384 38.66116333 C-62.12804997 41.95984098 -62.31994165 45.1225949 -62.61328125 48.41015625 C-62.72656354 50.93233315 -62.83305454 53.45482206 -62.93359375 55.97753906 C-62.99919718 57.31127024 -63.06544932 58.64496966 -63.13232422 59.9786377 C-64.63043951 91.97848594 -57.22077514 116.11066235 -39 143 C-38.67 143.33 -38.34 143.66 -38 144 C-37.46596558 143.03682861 -37.46596558 143.03682861 -36.92114258 142.05419922 C-35.22133397 138.99274958 -33.51689732 135.9338972 -31.8125 132.875 C-31.25369141 131.86695313 -30.69488281 130.85890625 -30.11914062 129.8203125 C-29.52939453 128.76328125 -28.93964844 127.70625 -28.33203125 126.6171875 C-28.02228867 126.0409111 -27.71254608 125.4646347 -27.39341736 124.87089539 C-25.37568777 121.18791191 -23.16601949 117.82303241 -20.65258789 114.45629883 C-9.15582053 98.36297195 -9.27922095 83.2150092 -9.76037598 64.25860596 C-9.86527899 59.58722827 -9.88326357 54.91480194 -9.90924358 50.24243259 C-9.93018085 46.61723535 -9.96491667 42.99426311 -10.04560852 39.36985779 C-10.07874397 37.4348214 -10.07874397 37.4348214 -10.11254883 35.46069336 C-10.13843582 34.33014023 -10.16432281 33.1995871 -10.19099426 32.03477478 C-9.89351915 27.30808842 -8.07749313 24.02676504 -5.5625 20.125 C-1.99257865 13.90404238 -1.13259721 6.98895351 0 0 Z " fill="#70ABE5" transform="translate(298,331)"/>
<path d="M0 0 C1.2265625 1.8359375 1.2265625 1.8359375 2.625 4.375 C14.45906296 24.71120528 34.54586292 40.7846873 57.4284668 46.92456055 C84.51712897 53.63207725 111.68968404 49.71875729 136 36 C147.35263408 28.89679225 156.59606784 19.10589824 164 8 C165 10 165 10 164.44604492 11.76489258 C154.38547158 33.95411667 140.30544964 53.42357887 117 63 C93.09414302 71.95771007 69.82613714 75.70160818 45 68 C43.78957031 67.63777344 42.57914063 67.27554688 41.33203125 66.90234375 C16.54545154 58.78687092 -1.44733658 41.73517165 -13.3125 18.75 C-15.42797509 14.55382476 -16.8018165 10.52272084 -18 6 C-15.37646482 4.99600476 -12.75132205 3.99665555 -10.125 3 C-9.37863281 2.71382812 -8.63226563 2.42765625 -7.86328125 2.1328125 C-2.2265625 0 -2.2265625 0 0 0 Z " fill="#6FABE6" transform="translate(182,237)"/>
<path d="M0 0 C0.33 0 0.66 0 1 0 C1 6.27 1 12.54 1 19 C3.31 19 5.62 19 8 19 C8.99 19.33 9.98 19.66 11 20 C12.50694102 20.09227946 14.01758146 20.13067511 15.52734375 20.1328125 C16.40197266 20.13410156 17.27660156 20.13539063 18.17773438 20.13671875 C19.08845703 20.13285156 19.99917969 20.12898438 20.9375 20.125 C21.84435547 20.12886719 22.75121094 20.13273437 23.68554688 20.13671875 C24.99942383 20.13478516 24.99942383 20.13478516 26.33984375 20.1328125 C27.53661743 20.13112061 27.53661743 20.13112061 28.75756836 20.12939453 C30.9679543 20.00184913 32.86968364 19.57904198 35 19 C42.39189488 18.28991246 48.73428447 18.77565695 55 23 C60.57004282 28.00558341 63.5723226 32.75803695 64.3359375 40.33203125 C64.50408574 55.31403907 64.50408574 55.31403907 60 60 C49.61606137 64.92958802 37.78188171 63.91091825 27.2109375 60.3203125 C16.30145076 55.83441649 8.87415113 49.22545486 3.6875 38.625 C0.13010163 29.60515402 -0.28496412 20.40419462 -0.125 10.8125 C-0.11597656 9.76513672 -0.10695312 8.71777344 -0.09765625 7.63867188 C-0.07440075 5.09219486 -0.04172569 2.54622969 0 0 Z " fill="#F5CBAF" transform="translate(213,310)"/>
<path d="M0 0 C3.52787301 1.95657197 5.70285021 4.10855063 7 8 C7.06937062 10.22818441 7.08457084 12.45834524 7.0625 14.6875 C7.05347656 15.86699219 7.04445313 17.04648437 7.03515625 18.26171875 C7.02355469 19.16535156 7.01195312 20.06898437 7 21 C7.88042969 20.96519531 8.76085937 20.93039063 9.66796875 20.89453125 C10.82941406 20.86746094 11.99085938 20.84039062 13.1875 20.8125 C14.33605469 20.77769531 15.48460937 20.74289063 16.66796875 20.70703125 C21.10748104 21.09737524 23.57098921 22.76152398 26.875 25.625 C28.67771141 29.43072409 28.10121322 33.00626671 27 37 C25.09936318 39.45243461 23.74145145 40.62927427 21 42 C18.62597499 42.07116382 16.24999323 42.08409085 13.875 42.0625 C12.59367187 42.05347656 11.31234375 42.04445312 9.9921875 42.03515625 C8.51105469 42.01775391 8.51105469 42.01775391 7 42 C7.05220703 43.30324219 7.05220703 43.30324219 7.10546875 44.6328125 C7.38109573 56.3666466 7.38109573 56.3666466 4 61 C-0.22994616 63.8199641 -4.03220448 63.79231188 -9 63 C-12.34625024 60.47323961 -13.67977847 58.96066458 -15 55 C-15.06937062 52.77181559 -15.08457084 50.54165476 -15.0625 48.3125 C-15.05347656 47.13300781 -15.04445312 45.95351562 -15.03515625 44.73828125 C-15.02355469 43.83464844 -15.01195312 42.93101563 -15 42 C-16.02480469 42.05800781 -17.04960937 42.11601563 -18.10546875 42.17578125 C-19.46610011 42.22269957 -20.82678096 42.26819752 -22.1875 42.3125 C-23.19780273 42.3753418 -23.19780273 42.3753418 -24.22851562 42.43945312 C-28.10828304 42.5340816 -29.81120383 42.14507229 -32.91796875 39.7578125 C-35.83253146 35.89724727 -36.59845553 32.79607322 -36 28 C-34.34246674 24.87343725 -32.20643764 22.60321882 -29 21 C-26.62597499 20.92883618 -24.24999323 20.91590915 -21.875 20.9375 C-20.59367188 20.94652344 -19.31234375 20.95554687 -17.9921875 20.96484375 C-17.00476563 20.97644531 -16.01734375 20.98804687 -15 21 C-15.05800781 20.05898438 -15.11601562 19.11796875 -15.17578125 18.1484375 C-15.59024382 6.70927052 -15.59024382 6.70927052 -12.625 3.1875 C-8.60234361 -0.16471366 -5.17323289 -0.87340296 0 0 Z " fill="#DB586B" transform="translate(260,43)"/>
<path d="M0 0 C28.25094439 -0.07011116 56.50187573 -0.12299856 84.75288963 -0.15543652 C97.87060837 -0.17089899 110.98827301 -0.19197677 124.10595703 -0.22631836 C135.54061533 -0.25623956 146.97523446 -0.2755795 158.40993083 -0.28226548 C164.46333264 -0.2861731 170.51662239 -0.29534387 176.56998825 -0.31719017 C182.27116996 -0.33759817 187.97219374 -0.34382502 193.67340851 -0.33932304 C195.76231622 -0.34014631 197.85122938 -0.34608611 199.94010544 -0.35761642 C202.80070589 -0.372628 205.66071657 -0.36892207 208.52133179 -0.36076355 C209.3404301 -0.36950207 210.15952842 -0.3782406 211.00344789 -0.38724393 C220.80462869 -0.31211936 229.49843945 2.6481039 237 9 C243.53915091 15.76759286 246.0959359 23.06462368 246.4375 32.375 C246.22259556 38.69615467 245.78570897 44.7400486 242 50 C233.63570716 55.53033835 223.62328849 54 214 54 C214 36.51 214 19.02 214 1 C143.38 1 72.76 1 0 1 C0 0.67 0 0.34 0 0 Z " fill="#FBDCC7" transform="translate(149,138)"/>
<path d="M0 0 C39.93 0 79.86 0 121 0 C123 8 123 8 123 11 C84.06 11 45.12 11 5 11 C3.35 7.37 1.7 3.74 0 0 Z " fill="#DAD7E4" transform="translate(347,491)"/>
<path d="M0 0 C5.67476113 1.96434039 9.31400331 5.62800662 12 11 C12.54360446 15.95482094 12.56437074 19.87125852 10.3125 24.375 C7.14745126 27.96775803 3.78798338 31.69412413 -1.171875 32.23828125 C-7.01846537 32.40659218 -10.43192863 32.02425335 -15 28 C-19.39893104 23.00661882 -20.35676337 20.08984773 -20.28125 13.5390625 C-19.73016315 8.56397287 -16.99302299 5.87480597 -13.375 2.6875 C-8.92314854 -0.47565762 -5.3540278 -0.48837416 0 0 Z " fill="#3B526A" transform="translate(308,160)"/>
<path d="M0 0 C5.67476113 1.96434039 9.31400331 5.62800662 12 11 C12.54360446 15.95482094 12.56437074 19.87125852 10.3125 24.375 C7.14745126 27.96775803 3.78798338 31.69412413 -1.171875 32.23828125 C-7.01846537 32.40659218 -10.43192863 32.02425335 -15 28 C-19.39893104 23.00661882 -20.35676337 20.08984773 -20.28125 13.5390625 C-19.73016315 8.56397287 -16.99302299 5.87480597 -13.375 2.6875 C-8.92314854 -0.47565762 -5.3540278 -0.48837416 0 0 Z " fill="#3B526A" transform="translate(212,160)"/>
<path d="M0 0 C1.28003906 -0.02900391 2.56007813 -0.05800781 3.87890625 -0.08789062 C5.11253906 -0.09626953 6.34617187 -0.10464844 7.6171875 -0.11328125 C8.74495605 -0.12786377 9.87272461 -0.14244629 11.03466797 -0.1574707 C15.41936569 0.50934421 17.85958769 2.6444565 20.5 6.125 C21.46120615 9.48922152 20.95344946 11.93952719 20.125 15.3125 C18.30160948 18.01817626 17.05042564 19.84978718 14.125 21.3125 C10.05761238 21.57017704 5.98847546 21.58353377 1.91357422 21.60766602 C-0.10389084 21.62482051 -2.11969093 21.66869871 -4.13671875 21.71289062 C-6.05677734 21.72545898 -6.05677734 21.72545898 -8.015625 21.73828125 C-9.18641602 21.75286377 -10.35720703 21.76744629 -11.56347656 21.7824707 C-15.57234526 21.21353291 -17.73240232 19.81626595 -20.875 17.3125 C-22.61265543 13.83718913 -22.47085352 10.1036999 -21.875 6.3125 C-16.04426147 -1.25170133 -8.78999332 0.06599094 0 0 Z " fill="#39516A" transform="translate(405.875,447.6875)"/>
<path d="M0 0 C5 6.62087912 5 6.62087912 5 10.625 C3.54409686 15.53867308 1.06168936 19.89067687 -2 24 C-2.66 24 -3.32 24 -4 24 C-8.04945055 17.74175824 -8.04945055 17.74175824 -7.84375 14.65625 C-6.79295437 11.34818969 -5.23177568 8.65621068 -3.4375 5.6875 C-2.79683594 4.61886719 -2.15617187 3.55023438 -1.49609375 2.44921875 C-1.00238281 1.64097656 -0.50867188 0.83273437 0 0 Z " fill="#5C9AD8" transform="translate(259,477)"/>
</svg>
