<svg width="43" height="39" viewBox="0 0 43 39" fill="none" xmlns="http://www.w3.org/2000/svg">
<g clip-path="url(#clip0_158_9344)">
<path d="M25.7555 39C25.7275 36.4614 25.8115 33.9298 26.0566 31.4035C26.0829 31.3054 26.1074 31.2074 26.0374 31.1233C26.0426 31.0743 26.0496 31.027 26.0549 30.978C26.0741 30.9728 26.0952 30.9675 26.1144 30.964C26.2002 29.7052 26.398 28.4587 26.6099 27.2156C26.8812 25.6172 27.2927 24.0468 27.6901 22.4763C26.904 22.8545 26.1197 23.2326 25.3353 23.6108C25.3073 23.6423 25.2793 23.6721 25.2513 23.7036C25.0937 24.509 24.9291 25.3143 24.7838 26.1232C24.5405 27.4712 24.2936 28.8193 24.1991 30.1902C24.1798 30.4388 24.0853 30.6786 24.108 30.9343C24.108 30.9448 24.108 30.9535 24.1098 30.964L24.1133 30.9728H24.1325C24.1518 31.0078 24.1588 31.0428 24.1483 31.0796C24.1413 31.1006 24.129 31.1198 24.1133 31.1408L24.1098 31.1513C23.9662 31.6135 23.968 32.1055 23.961 32.5712C23.9417 33.7477 23.8157 34.9207 23.8437 36.1008C23.8699 37.2913 22.9753 38.2664 21.783 38.4118" fill="#F06977"/>
<path d="M15.6676 31.1496C15.6326 31.1741 15.5958 31.1969 15.559 31.2196C15.601 31.2021 15.6361 31.1776 15.6676 31.1496Z" fill="#B7D991"/>
<path d="M16.9177 28.063C16.8004 27.8512 16.7076 27.6201 16.4449 27.543C14.0306 28.5305 11.5621 29.3691 9.08649 30.1832C8.9902 30.2147 8.89216 30.241 8.79586 30.2707C8.7556 30.339 8.68907 30.3548 8.61554 30.3583C8.59453 30.3758 8.57527 30.388 8.55426 30.3933C8.5385 30.3968 8.5245 30.3968 8.50874 30.3933C8.50699 30.3985 8.50349 30.4055 8.50174 30.4108C8.48423 30.4283 8.46497 30.4458 8.44746 30.4616C8.44571 30.4616 8.44396 30.4633 8.44396 30.4651C8.28114 30.5964 8.07805 30.6454 7.88197 30.7032C7.5073 30.9202 7.44953 31.0463 7.45478 31.1058C7.45653 31.1076 7.45828 31.1111 7.46003 31.1128C7.46879 31.1251 7.47754 31.1373 7.48629 31.1479L7.48979 31.1496C7.48454 31.1496 7.47929 31.1479 7.47404 31.1479C7.60359 31.6538 8.05004 31.8079 8.44571 32.0162C8.44571 32.0022 8.44396 31.9865 8.44221 31.9725C8.44396 31.9725 8.44571 31.9742 8.44571 31.976C8.45622 31.983 8.46497 31.99 8.47372 31.9987C8.49298 31.99 8.51224 31.9882 8.53325 31.9917C8.5385 31.9952 8.54375 31.997 8.54901 32.0022C8.55601 32.0057 8.56301 32.011 8.57002 32.0162C8.59102 32.0337 8.60678 32.0565 8.61554 32.0863C8.70482 32.0145 8.81512 32.0215 8.92367 32.0407C10.9055 32.3874 12.7701 31.9917 14.5804 31.2511C14.6644 31.2179 14.7502 31.1829 14.8342 31.1461C14.864 31.1338 14.8955 31.1198 14.9253 31.1076C14.9393 31.1023 14.9445 31.0988 14.9463 31.1006C14.9463 31.0988 14.948 31.0988 14.948 31.0988H14.9498C14.9515 31.0988 14.9515 31.0988 14.9533 31.0988C14.955 31.0988 14.955 31.0988 14.955 31.0988C14.9585 31.0971 14.9621 31.0953 14.9673 31.0936C15.0111 31.0831 15.0513 31.0813 15.0916 31.0918C15.4488 30.8415 16.9107 29.8173 16.9754 29.6825C17.0034 29.6264 16.9457 29.7525 16.8074 29.9643C16.9999 29.742 17.0787 29.4689 17.147 29.1905C17.1277 29.1712 17.1085 29.1537 17.0892 29.1362C17.0402 28.7791 17.1032 28.4009 16.9177 28.063Z" fill="#B7D991"/>
<path d="M17.1873 28.7265C17.1592 28.0805 16.8809 27.627 16.4274 27.4905C16.4344 27.508 16.4397 27.5272 16.4449 27.5448C16.7076 27.6218 16.8003 27.8529 16.9176 28.0647C17.1032 28.4026 17.0402 28.779 17.091 29.1379C17.1102 29.1555 17.1295 29.173 17.1487 29.1922C17.1557 29.166 17.161 29.1397 17.168 29.1134C17.168 28.9821 17.1925 28.8561 17.1873 28.7265Z" fill="#D9596B"/>
<path d="M20.1285 37.0812C20.139 36.9324 20.1513 36.7853 20.1636 36.6365C20.1408 36.7835 20.132 36.9341 20.1285 37.0812Z" fill="#D9596B"/>
<path d="M8.32841 28.597L8.2934 28.5952C8.31265 28.604 8.33016 28.6092 8.34942 28.611C8.34242 28.6075 8.33541 28.6005 8.32841 28.597Z" fill="#9ECA70"/>
<path d="M19.4492 31.0638C19.3424 31.0428 19.2356 31.0095 19.1306 30.9658C19.1848 31.0568 19.2391 31.1478 19.2934 31.2389C19.3074 31.1111 19.3722 31.0726 19.4492 31.0638Z" fill="#D97588"/>
<path d="M24.0555 31.1514H24.1098L24.1133 31.1409V31.1006C24.0922 31.1128 24.073 31.1286 24.0555 31.1514Z" fill="#D97588"/>
<path d="M20.1671 37.9828C20.2003 37.5381 20.1671 37.0864 20.1636 36.6382C20.1513 36.7871 20.139 36.9341 20.1285 37.0829" fill="#F06977"/>
<path d="M8.40369 30.4423C8.18309 30.5421 8.01151 30.6296 7.88196 30.7049C8.07979 30.6471 8.28288 30.5981 8.44395 30.4668C8.4422 30.4563 8.44045 30.4475 8.4387 30.437C8.42645 30.437 8.41594 30.4405 8.40369 30.4423Z" fill="#B7D991"/>
<path d="M41.3565 5.66897C41.3618 5.65497 41.367 5.64096 41.3723 5.62695C41.318 5.63396 41.2707 5.65672 41.2305 5.70049C41.2165 5.71974 41.2042 5.739 41.192 5.75826H41.2707C41.2988 5.72675 41.3285 5.69698 41.3565 5.66897Z" fill="#E86EA3"/>
<path d="M30.7626 5.76071C30.7626 5.75873 30.7646 5.75873 30.7646 5.75674L30.7626 5.75476V5.76071Z" fill="#E86EA3"/>
<path d="M42.4455 1.93458C42.4437 1.94508 42.4402 1.95384 42.4385 1.96434C42.3737 2.26197 42.3159 2.5561 42.2546 2.85023C42.0551 3.80615 41.7364 4.72355 41.3723 5.62519C41.367 5.63919 41.3618 5.6532 41.3565 5.66721C41.3793 5.65495 41.402 5.63919 41.4213 5.62344C41.5543 5.51839 41.6104 5.35907 41.6699 5.20676C41.9203 4.55372 42.1391 3.89018 42.3002 3.20738C42.3562 2.97103 42.3965 2.73293 42.4192 2.49307C42.4017 2.88875 42.2459 3.29842 42.5085 3.67309V1.65796C42.4857 1.7525 42.4647 1.84354 42.4455 1.93458Z" fill="#D74F8C"/>
<path d="M11.5078 5.93159H11.5568C11.5708 5.91583 11.5795 5.90008 11.5883 5.88257H11.5323C11.5253 5.89657 11.5165 5.91408 11.5078 5.93159Z" fill="#EA88B4"/>
<path d="M2.04491 24.8819C2.55088 25.5647 3.1724 26.1161 4.06704 26.2422C4.24387 26.265 4.43821 26.1722 4.59402 26.3262H4.85489C4.97919 26.1844 5.14376 26.2597 5.29258 26.2404C6.30452 26.0514 7.28845 25.7537 8.26888 25.4509C8.28463 25.4228 8.30564 25.4036 8.3284 25.3896C8.17434 25.3633 8.03603 25.4246 7.89246 25.4614C7.03109 25.6785 6.18197 25.9376 5.32059 26.1529C5.17003 26.2089 5.01421 26.2159 4.85664 26.2107C4.76735 26.2107 4.67981 26.2107 4.59052 26.2124C4.41895 26.2142 4.24737 26.2247 4.08105 26.1669C3.8552 26.1161 3.6311 26.0689 3.42627 25.9516C2.50361 25.4263 1.85758 24.6875 1.60022 23.6406" fill="#EF71A6"/>
<path d="M8.33014 25.3913C8.30563 25.4053 8.28462 25.4246 8.26886 25.4526C8.30212 25.4316 8.34239 25.4193 8.38091 25.4053C8.41067 25.3948 8.43868 25.3825 8.46319 25.3633H8.44219C8.40192 25.365 8.3634 25.3703 8.33014 25.3913Z" fill="#DC6A9F"/>
<path d="M8.40015 28.604C8.41241 28.5987 8.42466 28.5917 8.43692 28.5812C8.45793 28.5637 8.47543 28.5427 8.48944 28.5217C8.54721 28.5374 8.59098 28.5129 8.626 28.4744V28.4517C8.58748 28.4604 8.55072 28.4709 8.5122 28.4797C8.48769 28.4867 8.46318 28.4919 8.43867 28.4989C8.4019 28.5322 8.36514 28.5655 8.32837 28.5987C8.33537 28.6022 8.34238 28.6075 8.34938 28.6127C8.36689 28.6127 8.38439 28.6092 8.40015 28.604Z" fill="#ABCE88"/>
<path d="M8.58398 30.36H8.6155C8.68903 30.3565 8.75556 30.3407 8.79583 30.2724C8.78182 30.2707 8.77132 30.2672 8.75906 30.2637C8.72229 30.2899 8.66277 30.3214 8.58398 30.36Z" fill="#ABCE88"/>
<path d="M4.06702 26.2439C4.22283 26.3997 4.41717 26.3034 4.594 26.328C4.43818 26.1721 4.24384 26.2667 4.06702 26.2439Z" fill="#DD6B95"/>
<path d="M4.85486 26.328C5.00192 26.3087 5.17 26.3875 5.29255 26.2422C5.14373 26.2597 4.97916 26.1862 4.85486 26.328Z" fill="#DD6B95"/>
<path d="M33.9613 13.8695C36.12 12.2921 38.1246 10.5518 39.723 8.38615C40.2903 7.61756 40.8225 6.82447 41.1849 5.93158H41.1044C40.2833 7.60356 39.1838 9.0812 37.8795 10.3978C36.703 11.583 35.4547 12.6948 34.0751 13.6489C33.9928 13.7067 33.9053 13.761 33.837 13.8345V13.9046C33.8772 13.8941 33.928 13.8923 33.9613 13.8695Z" fill="#EF71A6"/>
<path d="M33.7267 14.0359C33.7617 14.0184 33.795 14.0026 33.83 13.9851C33.8318 13.9588 33.8335 13.9308 33.837 13.9046V13.8345C33.8265 13.8468 33.816 13.8573 33.8055 13.8713C33.7792 13.9028 33.7582 13.9396 33.7425 13.9798C33.7092 13.9833 33.6812 13.9974 33.6567 14.0184V14.0709C33.6794 14.0586 33.7039 14.0464 33.7267 14.0359Z" fill="#EB84B2"/>
<path d="M35.6683 5.76001C35.6823 5.78802 35.6981 5.81778 35.7121 5.8458C35.7174 5.85805 35.7244 5.87031 35.7296 5.88256C35.7384 5.90007 35.7471 5.91583 35.7559 5.93333C35.7664 5.91408 35.7716 5.89657 35.7716 5.88256C35.7734 5.86856 35.7699 5.8563 35.7629 5.8458C35.7454 5.80728 35.6981 5.78977 35.6683 5.76001Z" fill="#EC7EAE"/>
<path d="M41.2707 5.75824H41.1919C41.1779 5.781 41.1657 5.80376 41.1552 5.82827C41.1237 5.84403 41.0904 5.85453 41.0571 5.86153C41.0799 5.87029 41.1026 5.87904 41.1254 5.8913C41.1184 5.90355 41.1132 5.91756 41.1062 5.93157L41.1044 5.93332H41.1849C41.2532 5.89305 41.2707 5.83002 41.2707 5.75824Z" fill="#EC7EAE"/>
<path d="M21.783 38.4117C22.9753 38.2664 23.8699 37.2912 23.8437 36.1007C23.8157 34.9207 23.9417 33.7477 23.961 32.5712C23.968 32.1055 23.9662 31.6135 24.1098 31.1513H24.0555C24.0538 31.1531 24.052 31.1548 24.0503 31.1566C24.0363 31.1741 24.024 31.1933 24.0118 31.2126V31.2143C23.9312 31.3474 23.9155 31.498 23.905 31.6503C23.8104 33.0824 23.7281 34.5163 23.7246 35.9537C23.7211 37.216 23.0051 38.0651 21.7673 38.2962" fill="#D9596B"/>
<path d="M24.1133 31.1391C24.129 31.1181 24.1413 31.0988 24.1483 31.0778C24.1588 31.041 24.1518 31.006 24.1325 30.971H24.1133V31.0988V31.1391Z" fill="#EA8190"/>
<path d="M7.47397 31.1496H7.48623C7.47747 31.1391 7.46872 31.1268 7.45996 31.1145C7.45821 31.1128 7.45646 31.1093 7.45471 31.1075C7.45646 31.1356 7.47397 31.1496 7.47397 31.1496Z" fill="#BDDDA2"/>
<path d="M8.49643 32.0215H8.53145C8.53845 32.0162 8.5437 32.011 8.54895 32.004C8.5437 31.9987 8.53845 31.997 8.5332 31.9935C8.51219 31.99 8.49293 31.9917 8.47367 32.0005C8.46492 31.9917 8.45616 31.9847 8.44566 31.9777V32.018L8.44391 32.0197C8.46142 32.0215 8.47892 32.0215 8.49643 32.0215Z" fill="#BDDDA2"/>
<path d="M8.43866 30.4353C8.44041 30.4458 8.44216 30.4545 8.44391 30.465C8.44391 30.4633 8.44566 30.4615 8.44741 30.4615C8.46492 30.4458 8.48418 30.4283 8.50169 30.4108C8.50344 30.4055 8.50694 30.3985 8.50869 30.3932C8.48418 30.4038 8.46317 30.4143 8.44041 30.4248C8.44041 30.4283 8.43866 30.4318 8.43866 30.4353Z" fill="#BDDDA2"/>
<path d="M8.50873 30.3932C8.52448 30.3967 8.53849 30.3967 8.55425 30.3932C8.57526 30.388 8.59452 30.3757 8.61552 30.3582H8.58401C8.56125 30.3705 8.53674 30.381 8.50873 30.3932Z" fill="#BDDDA2"/>
<path d="M15.0916 31.0918C15.0513 31.0831 15.0093 31.0831 14.9673 31.0936C14.962 31.0953 14.9585 31.0971 14.955 31.0988C14.955 31.0988 14.955 31.0988 14.9533 31.0988C14.9515 31.0988 14.9515 31.0988 14.9498 31.0988H14.948C14.948 31.0988 14.9463 31.0988 14.9463 31.1006C14.9445 31.0988 14.9393 31.1023 14.9253 31.1076C14.8955 31.1198 14.864 31.1338 14.8342 31.1461H15.0128C15.0128 31.1478 15.0408 31.1268 15.0916 31.0918Z" fill="#BDDDA2"/>
<path d="M13.9273 26.925C14.801 26.8847 15.6396 26.9915 16.4029 27.4537C16.4082 27.4572 16.4152 27.4607 16.4204 27.4642C17.2223 27.4117 17.8981 26.988 18.6159 26.6991C18.8907 26.5888 19.2671 26.5993 19.3932 26.2282C19.3915 26.2247 19.3897 26.2212 19.3862 26.2177C19.0833 25.6697 18.6089 25.3248 18.0644 25.0639V24.8486L14.9533 25.8202L13.3986 26.7131L13.3741 26.7867L13.3461 26.869C13.5264 27.0248 13.7365 26.9337 13.9273 26.925Z" fill="#C34761"/>
<path d="M21.2193 29.6562V29.6019C21.207 29.5914 21.1912 29.5809 21.1737 29.5739C21.1405 29.5617 21.102 29.5582 21.0547 29.5687C21.0932 29.5897 21.1335 29.6107 21.1737 29.6317C21.1895 29.6387 21.2035 29.6474 21.2193 29.6562Z" fill="#D97A8C"/>
<path d="M21.1737 34.1101C21.1807 34.0909 21.1912 34.0734 21.2035 34.0559C21.2087 34.0524 21.2157 34.0506 21.221 34.0454V34.0296H21.1737H21.0529C21.0949 34.0594 21.1352 34.0716 21.1737 34.0646V34.1101Z" fill="#DA6F82"/>
<path d="M8.60678 32.0932C8.61203 32.0967 8.61553 32.1002 8.62078 32.1055C9.21254 32.263 9.81655 32.2928 10.4276 32.2893C10.8653 32.2876 11.2977 32.2543 11.7249 32.1878C12.8734 32.0127 13.9886 31.7203 15.0128 31.1461H14.8342C14.7502 31.1828 14.6644 31.2178 14.5804 31.2511C12.7701 31.9917 10.9055 32.3873 8.92367 32.0407C8.81512 32.0214 8.70482 32.0144 8.61553 32.0862C8.60678 32.0565 8.59102 32.0337 8.57001 32.0162C8.56301 32.0109 8.55601 32.0057 8.549 32.0022C8.54375 32.0092 8.5385 32.0144 8.53149 32.0197C8.556 32.0442 8.58227 32.0705 8.60678 32.0932Z" fill="#B7D991"/>
<path d="M8.44568 8.9219C8.45093 8.92541 8.45618 8.92716 8.46319 8.93066C8.5017 8.97793 8.52621 9.0287 8.54022 9.08297C8.55072 9.03045 8.56998 8.97793 8.60325 8.92891C8.60675 8.92716 8.612 8.92541 8.61725 8.9219V8.9079H8.44568V8.9219Z" fill="#EA88B4"/>
<path d="M8.61903 25.3511C8.57876 25.3248 8.53674 25.3213 8.49297 25.3353C8.47721 25.3406 8.45971 25.3511 8.4422 25.3616H8.46321C8.51573 25.3633 8.5665 25.3633 8.61728 25.3651C8.62078 25.3616 8.62428 25.3598 8.62603 25.3563C8.65229 25.3336 8.67505 25.3056 8.68906 25.274C8.6698 25.2775 8.64879 25.2811 8.62778 25.2828C8.62603 25.3056 8.62428 25.3283 8.61903 25.3511Z" fill="#EA88B4"/>
<path d="M7.49018 31.1514L7.48659 31.1496H7.474C7.47939 31.1496 7.48479 31.1514 7.49018 31.1514Z" fill="#B7D991"/>
<path d="M8.4422 31.9724C8.44395 31.9864 8.4457 32.0022 8.4457 32.0162V31.9759C8.4457 31.9759 8.44395 31.9724 8.4422 31.9724Z" fill="#B7D991"/>
<path d="M21.7672 38.2945C23.005 38.0634 23.7211 37.2142 23.7246 35.9519C23.7281 34.5146 23.8104 33.0807 23.9049 31.6486C23.9154 31.4962 23.9312 31.3457 24.0117 31.2126V31.2109C24.024 31.1916 24.0362 31.1723 24.0502 31.1548C24.052 31.1531 24.0537 31.1513 24.0555 31.1496C24.073 31.1286 24.0923 31.1128 24.1133 31.0988V30.971L24.1098 30.9623C24.108 30.9518 24.108 30.943 24.108 30.9325C24.0853 30.6769 24.1798 30.437 24.1991 30.1884C24.2936 28.8176 24.5404 27.4695 24.7838 26.1214C24.9291 25.3125 25.0937 24.5072 25.2513 23.7018C25.218 23.7176 25.1865 23.7351 25.1532 23.7509C24.4424 24.1098 23.7298 24.4687 22.984 24.7505C22.97 24.7383 22.956 24.7243 22.9455 24.7103C22.7669 24.8766 22.7127 25.1077 22.6636 25.3266C22.4956 26.0706 22.0754 26.5731 21.3348 26.7902C21.2805 26.8235 21.242 26.869 21.2298 26.9303C21.1755 26.89 21.1125 26.8935 21.0442 26.9232C20.9584 26.8497 20.8393 26.8375 20.7238 26.8252C20.3631 26.7884 20.0567 26.6326 19.7766 26.412C19.6646 26.3227 19.5613 26.2107 19.4002 26.2107C19.395 26.2124 19.3915 26.2159 19.3862 26.2177C19.3897 26.2212 19.3915 26.2247 19.3932 26.2282C19.2672 26.5994 18.8907 26.5889 18.6159 26.6991C17.8981 26.988 17.2223 27.4117 16.4204 27.4642C16.4239 27.473 16.4257 27.48 16.4274 27.4887C16.8809 27.6253 17.1592 28.0788 17.1872 28.7248C17.1925 28.8543 17.168 28.9821 17.168 29.1117C17.161 29.138 17.1557 29.1642 17.1487 29.1905C17.3571 29.3726 17.5969 29.5161 17.8245 29.6667C18.3182 29.9906 18.5791 30.5316 19.0343 30.8835C19.0658 30.9115 19.0991 30.9377 19.1306 30.964C19.2356 31.0078 19.3424 31.041 19.4492 31.0621C19.3722 31.0726 19.3074 31.1093 19.2934 31.2371C19.563 31.8166 19.7854 32.4101 19.9097 33.0387C20.146 34.2274 20.1408 35.4337 20.1635 36.6365C20.167 37.0847 20.2003 37.5364 20.167 37.9811" fill="#D9596B"/>
<path d="M21.1737 29.5721C21.1912 29.5791 21.207 29.5896 21.2193 29.6001V29.6544C21.2035 29.6457 21.1895 29.6387 21.1737 29.6299C21.1335 29.6089 21.0932 29.5879 21.0547 29.5669C21.102 29.5581 21.1405 29.5599 21.1737 29.5721Z" fill="#D9596B"/>
<path d="M21.1737 34.0314H21.221V34.0471C21.2157 34.0524 21.2087 34.0541 21.2035 34.0576C21.1912 34.0751 21.1807 34.0926 21.1737 34.1119V34.0664C21.1352 34.0734 21.0949 34.0611 21.0529 34.0314H21.1737Z" fill="#D9596B"/>
<path d="M30.7976 15.9582C31.3299 15.6256 31.7185 15.3752 32.1125 15.1353C32.6009 14.836 33.0351 14.4578 33.5516 14.2092C33.5866 14.1917 33.6199 14.1759 33.6549 14.1602C33.6549 14.1304 33.6549 14.1006 33.6566 14.0726V14.0201C33.6479 14.0271 33.6409 14.0341 33.6339 14.0429C33.6111 14.0674 33.5936 14.0971 33.5761 14.1287C33.4028 14.0814 33.275 14.2162 33.1437 14.2985C32.5537 14.6731 31.9882 15.0863 31.3842 15.4382C31.2774 15.5013 31.1706 15.6571 31.0428 15.5695C30.9237 15.4872 31.0042 15.3262 31.0147 15.2001C31.0953 14.1129 31.2178 13.0292 31.2458 11.9367C31.2861 10.3925 31.1758 8.8536 31.0428 7.31818C31.0042 6.88049 31.097 6.39903 30.8204 5.99986C30.8187 5.99811 30.8187 5.99811 30.8187 5.99811C30.8029 5.97535 30.7854 5.95259 30.7679 5.93158C30.7696 5.94033 30.7696 5.95084 30.7714 5.95959C31.1846 9.24928 31.2563 12.5442 30.7976 15.9582Z" fill="#EF71A6"/>
<path d="M33.7337 5.62872C33.7284 5.66199 33.7197 5.6935 33.7057 5.72501C33.6882 5.73027 33.6707 5.74077 33.6549 5.75653H33.6882H33.795H33.83C33.8107 5.73902 33.7915 5.72852 33.7722 5.72151C33.7547 5.6935 33.7424 5.66199 33.7337 5.62872Z" fill="#E67EAD"/>
<path d="M34.1417 1.03296C34.1277 1.05047 34.1137 1.06797 34.0979 1.08898C34.1189 1.07498 34.1347 1.05572 34.1417 1.03296Z" fill="#C975A7"/>
<path d="M28.8438 5.75298H28.8876C28.8753 5.73722 28.8578 5.72146 28.8403 5.70746C28.8403 5.72322 28.8403 5.73897 28.8421 5.75473L28.8438 5.75298Z" fill="#D74D8B"/>
<path d="M30.0921 2.37582C30.2829 3.31948 30.4247 4.2719 30.5508 5.22606C30.5771 5.41865 30.5876 5.61648 30.7294 5.75304H30.7626L30.7644 5.75479C30.6769 5.15428 30.6173 4.55027 30.4965 3.95676C30.3897 3.43153 30.3425 2.89405 30.2409 2.36707V2.36882L30.0921 2.37582Z" fill="#D74D8B"/>
<path d="M28.1085 1.98887C28.3711 3.0971 28.5269 4.22459 28.7037 5.34858C28.7212 5.46238 28.73 5.57968 28.786 5.67948C28.8018 5.70574 28.8193 5.73025 28.842 5.75476C28.8403 5.739 28.8403 5.72325 28.8403 5.70749C28.828 5.5079 28.821 5.31007 28.7948 5.11048C28.6757 4.21059 28.5077 3.3212 28.3326 2.43181C28.2713 2.11667 28.189 1.80679 28.084 1.50391C28.0805 1.50741 28.0787 1.51091 28.0752 1.51441C28.0349 1.67723 28.0717 1.8348 28.1085 1.98887Z" fill="#E86EA3"/>
<path d="M26.384 18.3445C26.377 18.3498 26.3718 18.3568 26.3665 18.362H26.4733C26.5328 18.3323 26.5924 18.3043 26.6519 18.2745C26.5468 18.2342 26.4646 18.2867 26.384 18.3445Z" fill="#EF71A6"/>
<path d="M28.8876 5.97887H28.8858C28.7931 6.13294 28.8193 6.30101 28.8403 6.47259C28.8893 6.89102 28.9349 7.31295 28.9681 7.73314C29.0942 9.31933 29.0574 10.909 29.0609 12.497C29.0627 13.9151 28.8771 15.3157 28.674 16.7163C28.6302 17.0157 28.4884 17.2205 28.2101 17.3536C27.8161 17.5409 27.4415 17.7668 27.0405 17.9471C26.8882 18.0154 26.6886 18.0714 26.6536 18.2727C26.9705 18.1292 27.2856 17.9821 27.6043 17.8403C28.3466 17.5112 28.8561 17.1137 28.9051 16.1438C28.9594 15.1109 29.1555 14.0709 29.18 13.0309C29.236 10.6657 29.2202 8.29863 28.9244 5.94386C28.9244 5.93861 28.9226 5.93335 28.9226 5.9281H28.9209C28.9069 5.94561 28.8964 5.96137 28.8876 5.97887Z" fill="#EF71A6"/>
<path d="M21.0512 6.90854C21.0565 6.91204 21.0635 6.91379 21.0687 6.91554C21.1055 6.96456 21.13 7.01533 21.1457 7.06961C21.1563 7.01533 21.1755 6.96456 21.2105 6.91379C21.214 6.91204 21.2175 6.91029 21.2228 6.90679V6.89453H21.0512V6.90854Z" fill="#EA8DB8"/>
<path d="M5.35031 18.4863C5.35556 18.5021 5.36606 18.5178 5.38007 18.5353V18.4863V18.4496V18.3638C5.35556 18.3935 5.34155 18.4215 5.34155 18.4496C5.34155 18.4636 5.34505 18.4758 5.35031 18.4863Z" fill="#EB83B1"/>
<path d="M25.7432 21.6569C25.815 21.7655 25.7152 21.8775 25.6907 21.9861C25.5699 22.4973 25.379 22.9945 25.3388 23.525C25.3388 23.553 25.337 23.5828 25.3353 23.6108C26.1196 23.2326 26.9039 22.8544 27.69 22.4763C27.7408 22.3415 27.8091 22.2119 27.8389 22.0719C27.9737 21.4346 28.3256 20.8638 28.3938 20.209C27.4519 20.5942 26.5748 21.1089 25.6854 21.5974C25.7117 21.6149 25.7309 21.6359 25.7432 21.6569Z" fill="#D9596B"/>
<path d="M22.9455 24.712C22.956 24.726 22.97 24.74 22.984 24.7523C23.7299 24.4704 24.4424 24.1115 25.1532 23.7526C25.1865 23.7368 25.218 23.7193 25.2513 23.7036C25.2793 23.6721 25.3073 23.6423 25.3353 23.6108C25.3371 23.5828 25.3388 23.553 25.3388 23.525C25.3791 22.9945 25.5699 22.4973 25.6907 21.9861C25.7152 21.8775 25.815 21.7655 25.7432 21.6569C25.731 21.6359 25.7117 21.6167 25.6855 21.5974C24.9466 21.9563 24.157 22.2224 23.5023 22.7424C23.476 22.7827 23.4515 22.8247 23.427 22.8667C23.1311 23.3919 23.0436 23.9855 22.907 24.5615C22.893 24.614 22.9105 24.6665 22.9455 24.712Z" fill="#C34761"/>
<path d="M21.0529 13.1132C21.0809 13.1395 21.1089 13.1517 21.137 13.1517C21.1492 13.1517 21.1615 13.15 21.1737 13.1447V13.1132H21.137H21.0529Z" fill="#E995BD"/>
<path d="M21.0547 20.7991C21.0512 20.7973 21.0459 20.7973 21.0424 20.7973V20.8166H21.0477C21.0547 20.8166 21.0634 20.8148 21.0704 20.8148C21.0652 20.8096 21.0599 20.8061 21.0547 20.7991Z" fill="#E995BD"/>
<path d="M21.1563 20.7833C21.1545 20.7938 21.1528 20.8043 21.151 20.8148C21.1738 20.8131 21.1965 20.8113 21.2193 20.8113C21.2245 20.7833 21.2298 20.7571 21.2333 20.729V20.6713C21.2018 20.6993 21.1755 20.7378 21.1563 20.7833Z" fill="#E995BD"/>
<path d="M26.3209 18.4198H26.3192C26.2562 18.4408 26.1949 18.4548 26.1301 18.4635H26.1249C26.0969 18.4635 26.0688 18.467 26.0391 18.474C26.0373 18.474 26.0373 18.4758 26.0356 18.4758H26.0338C25.9848 18.5003 25.934 18.5231 25.885 18.5458H26.0391C26.1249 18.5406 26.2107 18.5353 26.2947 18.5301C26.2964 18.5301 26.2964 18.5301 26.2982 18.5301C26.3577 18.474 26.4155 18.418 26.4733 18.362H26.3665C26.3472 18.3813 26.3315 18.4005 26.3209 18.4198Z" fill="#E995BD"/>
<path d="M9.40686 18.4863V18.5353H9.41912C9.43137 18.5196 9.43837 18.5038 9.44188 18.4863C9.44888 18.4478 9.43662 18.4075 9.40686 18.3638V18.4863Z" fill="#EA8DB8"/>
<path d="M15.5205 18.5336H15.5363V18.4863V18.3655C15.5065 18.4076 15.496 18.4478 15.5012 18.4863C15.503 18.5021 15.51 18.5196 15.5205 18.5336Z" fill="#EA8DB8"/>
<path d="M9.41422 18.5427C9.4179 18.5409 9.41974 18.5372 9.41974 18.5353H9.40686C9.4087 18.539 9.41238 18.5409 9.41422 18.5427Z" fill="#EF71A6"/>
<path d="M15.5259 18.5426C15.5295 18.5408 15.5331 18.5372 15.5367 18.5336H15.5205C15.5205 18.5372 15.5223 18.5408 15.5259 18.5426Z" fill="#EF71A6"/>
<path d="M21.0284 20.7956C20.8533 20.7641 20.7028 20.8498 20.5504 20.9094C18.8207 21.6044 17.0822 22.275 15.3332 22.9262C13.5456 23.5898 11.7529 24.2393 9.93732 24.8293C9.52939 24.9606 9.08995 25.0167 8.71003 25.2338C8.68202 25.2495 8.65401 25.267 8.62775 25.2845C8.64876 25.2828 8.66977 25.2793 8.68902 25.2758C9.39283 25.1917 10.0511 24.9256 10.7129 24.7015C12.5757 24.066 14.4298 23.4007 16.2733 22.7092C17.8735 22.1069 19.4527 21.4504 21.0424 20.8183V20.7991C21.0372 20.7956 21.0319 20.7956 21.0284 20.7956Z" fill="#EF71A6"/>
<path d="M21.0704 20.8166C21.0634 20.8166 21.0547 20.8183 21.0477 20.8183C21.0634 20.8288 21.0774 20.8394 21.0914 20.8446H21.0932C21.1124 20.8691 21.1265 20.8971 21.137 20.9269C21.137 20.9391 21.1387 20.9514 21.1387 20.9637V20.9269C21.1405 20.9006 21.1422 20.8761 21.144 20.8516C21.1685 20.8499 21.1947 20.8359 21.2192 20.8113C21.1965 20.8113 21.1737 20.8131 21.151 20.8148C21.123 20.8148 21.0967 20.8148 21.0704 20.8166Z" fill="#DA7BAB"/>
<path d="M21.3138 23.6739C21.3033 23.6704 21.291 23.6668 21.2805 23.6616C21.1948 23.6108 21.158 23.5443 21.1457 23.4708C21.1405 23.5548 21.1335 23.6371 21.1265 23.7211C21.1212 23.7351 21.1142 23.7474 21.1055 23.7579C21.1457 23.7491 21.186 23.7386 21.2245 23.7281C21.2543 23.7106 21.284 23.6931 21.3138 23.6739Z" fill="#DA7BAB"/>
<path d="M1.60022 23.6406C1.85758 24.6875 2.50361 25.4263 3.42627 25.9516C3.6311 26.0689 3.8552 26.1161 4.08105 26.1669C4.24737 26.2247 4.41895 26.2142 4.59052 26.2124C4.67981 26.2107 4.76735 26.2107 4.85664 26.2107C5.01421 26.2159 5.17003 26.2089 5.32059 26.1529C6.18197 25.9376 7.03109 25.6784 7.89246 25.4613C8.03603 25.4246 8.17434 25.3633 8.3284 25.3896H8.33015C8.36342 25.3703 8.40194 25.3633 8.4422 25.3616C8.45971 25.351 8.47722 25.3405 8.49297 25.3353C8.53674 25.3213 8.57876 25.3248 8.61903 25.351C8.62428 25.3283 8.62603 25.3055 8.62778 25.2828C8.65404 25.2653 8.68206 25.2478 8.71007 25.232C9.08998 25.0149 9.52943 24.9589 9.93735 24.8276C11.7529 24.2376 13.5457 23.588 15.3332 22.9245C17.0822 22.2732 18.8207 21.6027 20.5505 20.9076C20.7028 20.8481 20.8534 20.7623 21.0284 20.7938C21.0319 20.7938 21.0372 20.7956 21.0424 20.7973C21.0459 20.7973 21.0512 20.7973 21.0547 20.7991C21.06 20.8043 21.0652 20.8096 21.0705 20.8148C21.0967 20.8131 21.123 20.8131 21.151 20.8131C21.1527 20.8026 21.1545 20.7921 21.1562 20.7816C21.1755 20.736 21.2018 20.6993 21.2333 20.6695C21.2543 20.6467 21.277 20.6292 21.3016 20.6135C21.3593 20.575 21.4276 20.547 21.4924 20.5207C22.9123 19.9289 24.3059 19.2794 25.6995 18.6316C25.6995 18.6316 25.6995 18.6316 25.7012 18.6316C25.7625 18.6019 25.8238 18.5738 25.8851 18.5458C25.9341 18.5231 25.9848 18.5003 26.0339 18.4758H26.0356C26.0374 18.4758 26.0374 18.4741 26.0391 18.4741C26.0689 18.467 26.0969 18.4635 26.1249 18.4635H26.1302C26.1949 18.4548 26.2562 18.4408 26.3192 18.4198H26.321C26.3315 18.4005 26.3473 18.3813 26.3665 18.362C26.3718 18.3568 26.377 18.3497 26.384 18.3445C26.4646 18.285 26.5468 18.2342 26.6519 18.2745L26.6536 18.2727C26.6887 18.0714 26.8882 18.0154 27.0406 17.9471C27.4415 17.7667 27.8161 17.5409 28.2101 17.3536C28.4884 17.2205 28.6303 17.0157 28.674 16.7163C28.8771 15.3157 29.0627 13.9151 29.0609 12.4969C29.0574 10.909 29.0942 9.31931 28.9682 7.73312C28.9349 7.31294 28.8894 6.891 28.8403 6.47257C28.8193 6.301 28.7931 6.13292 28.8859 5.97886H28.8876C28.8964 5.96135 28.9069 5.94559 28.9209 5.92808H28.9226H28.9244C28.8981 5.87031 28.8701 5.81253 28.8438 5.75301L28.8421 5.75476C28.8193 5.73025 28.8018 5.70574 28.7861 5.67948C28.73 5.57968 28.7213 5.46238 28.7038 5.34858C28.527 4.22459 28.3711 3.0971 28.1085 1.98887C28.0718 1.8348 28.035 1.67548 28.0753 1.51441C28.0788 1.51091 28.0805 1.50741 28.084 1.50391C27.9615 1.152 27.8109 0.812354 27.6323 0.484961L27.3627 0H11.6619C11.6619 0 4.7691 0.48321 1.85583 5.91408" fill="#EF71A6"/>
<path d="M5.38007 18.4513V18.4881V18.5371C5.36606 18.5196 5.35556 18.5038 5.35031 18.4881C5.34505 18.4758 5.34155 18.4636 5.34155 18.4513C5.34155 18.4233 5.35556 18.3953 5.38007 18.3655V18.4513Z" fill="#EF71A6"/>
<path d="M8.61725 8.9219C8.612 8.92541 8.60675 8.92716 8.60325 8.92891C8.56998 8.97793 8.55072 9.03045 8.54022 9.08297C8.52621 9.0287 8.5017 8.97793 8.46319 8.93066C8.45618 8.92716 8.45093 8.92541 8.44568 8.9219V8.9079H8.61725V8.9219Z" fill="#EF71A6"/>
<path d="M9.41912 18.5371C9.41912 18.5389 9.41737 18.5424 9.41386 18.5441C9.41211 18.5424 9.40861 18.5389 9.40686 18.5371V18.4881V18.3655C9.43662 18.4093 9.44888 18.4496 9.44188 18.4881C9.43837 18.5056 9.43137 18.5196 9.41912 18.5371Z" fill="#EF71A6"/>
<path d="M11.5568 5.93159H11.5078C11.5165 5.91583 11.5253 5.89833 11.5323 5.88257H11.5883C11.5795 5.90008 11.5708 5.91408 11.5568 5.93159Z" fill="#EF71A6"/>
<path d="M15.5363 18.4863V18.5336C15.5327 18.5371 15.5292 18.5406 15.5257 18.5424C15.5222 18.5389 15.5205 18.5354 15.5205 18.5336C15.51 18.5179 15.503 18.5021 15.5012 18.4863C15.496 18.4478 15.5065 18.4076 15.5363 18.3655V18.4863Z" fill="#EF71A6"/>
<path d="M21.1737 13.1447C21.1615 13.15 21.1492 13.1517 21.137 13.1517C21.1089 13.1517 21.0809 13.1395 21.0529 13.1132H21.137H21.1737V13.1447Z" fill="#EF71A6"/>
<path d="M21.2228 6.9085C21.2175 6.912 21.214 6.91375 21.2105 6.9155C21.1755 6.96627 21.1563 7.01704 21.1457 7.07132C21.13 7.01704 21.1055 6.96627 21.0687 6.91725C21.0635 6.9155 21.0565 6.91375 21.0512 6.91025V6.89624H21.2228V6.9085Z" fill="#EF71A6"/>
<path d="M25.7012 18.6316C25.6995 18.6316 25.6995 18.6316 25.6995 18.6316C24.3059 19.2794 22.9123 19.9289 21.4924 20.5207C21.4276 20.547 21.3593 20.575 21.3016 20.6135C21.277 20.6292 21.2543 20.6468 21.2333 20.6695V20.7273C21.8723 20.4612 22.5183 20.2108 23.1486 19.9237C24.1203 19.4807 25.1147 19.0868 26.0391 18.5458H25.8851C25.8238 18.5738 25.7625 18.6036 25.7012 18.6316Z" fill="#EF71A6"/>
<path d="M16.9754 29.6842C16.9089 29.819 15.4488 30.8432 15.0916 31.0936C15.0408 31.1286 15.0128 31.1478 15.0128 31.1478C13.9886 31.7221 12.8734 32.0145 11.7249 32.1895C11.2977 32.2561 10.8653 32.2893 10.4276 32.2911C9.81655 32.2946 9.21253 32.2648 8.62077 32.1073C8.61552 32.102 8.61202 32.0985 8.60677 32.095C8.58226 32.0705 8.556 32.046 8.53149 32.0215H8.49647C8.47896 32.0215 8.46145 32.0215 8.44395 32.0197L8.4457 32.018C8.05003 31.8096 7.60358 31.6556 7.47402 31.1496C7.47402 31.1496 7.45827 31.1356 7.45477 31.1076C7.44951 31.048 7.50554 30.922 7.88195 30.7049C8.01326 30.6296 8.18483 30.5421 8.40368 30.4423C8.41594 30.4405 8.42644 30.4388 8.4387 30.437C8.4387 30.4335 8.44045 30.43 8.44045 30.4265C8.46321 30.416 8.48421 30.4055 8.50873 30.395C8.53674 30.3828 8.56125 30.3705 8.58401 30.36C8.66279 30.3232 8.72232 30.29 8.75908 30.2637C8.77134 30.2672 8.78184 30.2707 8.79585 30.2725C8.89214 30.2427 8.99019 30.2164 9.08648 30.1849C11.5621 29.3708 14.0306 28.5322 16.4449 27.5448C16.4397 27.5273 16.4344 27.508 16.4274 27.4905C16.4257 27.4817 16.4239 27.4747 16.4204 27.466C16.4152 27.4625 16.4082 27.459 16.4029 27.4555C15.6396 26.9933 14.801 26.8865 13.9273 26.9267C13.7365 26.9337 13.5264 27.0265 13.3461 26.8707L13.3741 26.7884C13.1955 26.7639 13.0309 26.8182 12.8681 26.8795C11.6163 27.3487 10.3383 27.7426 9.07072 28.1715C8.94291 28.2153 8.81511 28.2573 8.71006 28.3361C8.6768 28.3606 8.64704 28.3886 8.61902 28.4219L8.62603 28.4517V28.4744C8.59101 28.5129 8.54724 28.5374 8.48947 28.5217C8.47546 28.5427 8.45795 28.5637 8.43694 28.5812C8.42469 28.5917 8.41243 28.5987 8.40018 28.604C8.38442 28.611 8.36691 28.6145 8.34941 28.6127C8.33015 28.611 8.31264 28.6057 8.29338 28.597C8.06228 28.8193 7.75765 28.9506 7.56156 29.215C7.1834 29.5564 6.83325 29.9135 6.61615 30.3582C6.6074 30.36 6.60039 30.36 6.60039 30.36C6.60039 30.36 6.21873 31.2091 6.33078 31.6293C6.33253 31.6328 6.33428 31.6363 6.33428 31.6398C6.37455 32.0075 6.54612 32.3278 6.87001 32.5887C7.27619 32.9161 7.73839 33.1157 8.26012 33.163C8.37042 33.254 8.49822 33.2365 8.62428 33.226C11.1524 33.3643 13.4581 32.7253 15.5223 31.2441C15.5345 31.2371 15.5485 31.2284 15.5608 31.2214C15.5976 31.1986 15.6326 31.1741 15.6693 31.1513C16.2226 30.7767 16.606 30.2795 16.8108 29.9661C16.9474 29.7542 17.0034 29.6264 16.9754 29.6842Z" fill="#9ECA70"/>
<path d="M0 28.3764C0.810603 29.7787 2.35303 30.3705 3.99174 29.8925C5.42912 29.4723 6.85949 29.0294 8.29337 28.597L8.32838 28.5987C8.36515 28.5655 8.40191 28.5322 8.43868 28.4989C8.46319 28.4919 8.4877 28.4867 8.51221 28.4797C8.55073 28.4709 8.58749 28.4604 8.62601 28.4517L8.61901 28.4219C8.64702 28.3886 8.67678 28.3606 8.71005 28.3361C8.81509 28.2573 8.9429 28.2153 9.0707 28.1715C10.3383 27.7426 11.6163 27.3487 12.8681 26.8795C13.0309 26.8182 13.1955 26.7639 13.3741 26.7884L13.3986 26.7149L14.9533 25.822L18.0644 24.8503V25.0657C19.022 24.6648 19.9815 24.2656 20.9409 23.8647C21.0127 23.8524 21.0704 23.8191 21.1055 23.7596C21.1142 23.7491 21.1212 23.7368 21.1265 23.7228C21.1335 23.6388 21.1405 23.5565 21.1457 23.4725C21.158 23.546 21.1947 23.6125 21.2805 23.6633C21.291 23.6686 21.3033 23.6721 21.3138 23.6756C21.4959 23.7368 21.6552 23.6493 21.8163 23.5793C22.3537 23.3464 22.8982 23.1223 23.427 22.8667C23.4515 22.8247 23.476 22.7827 23.5022 22.7424C24.157 22.2224 24.9466 21.9563 25.6854 21.5974C26.5748 21.109 27.452 20.5942 28.3939 20.2091C29.2553 19.6996 30.1271 19.2076 30.9412 18.6264C31.0218 18.5949 31.1023 18.5616 31.1828 18.5283C31.2266 18.4793 31.2686 18.4285 31.3124 18.3778C31.3929 18.3445 31.4752 18.313 31.5558 18.2815C32.2858 17.9366 32.9546 17.5024 33.5446 16.9491C33.5849 16.9019 33.6234 16.8528 33.6637 16.8056C33.7144 16.7898 33.767 16.7741 33.8195 16.7583C33.8563 16.7128 33.893 16.669 33.9298 16.6235C36.078 15.1038 38.0616 13.4056 39.6845 11.3187C40.9136 9.73599 41.7715 7.97122 42.2407 6.02087C42.2424 5.93334 42.2424 5.84755 42.2442 5.76001C42.4367 5.07896 42.4718 4.37691 42.5085 3.67485C42.2459 3.30019 42.4017 2.89051 42.4192 2.49484C42.3965 2.73469 42.3562 2.9728 42.3002 3.20915C42.1391 3.89195 41.9203 4.55549 41.6699 5.20852C41.6104 5.36084 41.5544 5.52016 41.4213 5.6252C41.402 5.64096 41.3793 5.65672 41.3565 5.66897C41.3285 5.69873 41.2988 5.7285 41.2707 5.75826C41.2707 5.83179 41.2532 5.89482 41.185 5.93334C40.8225 6.82623 40.2903 7.61932 39.7231 8.38791C38.1246 10.5536 36.12 12.2939 33.9613 13.8713C33.928 13.8941 33.8773 13.8958 33.837 13.9063C33.8335 13.9326 33.8317 13.9606 33.83 13.9868C33.795 14.0044 33.7617 14.0201 33.7267 14.0376C33.7039 14.0481 33.6794 14.0604 33.6567 14.0726C33.6549 14.1006 33.6549 14.1304 33.6549 14.1602C33.6199 14.1759 33.5866 14.1917 33.5516 14.2092C33.0352 14.4578 32.601 14.836 32.1125 15.1353C31.7186 15.3752 31.3299 15.6256 30.7977 15.9582C31.2564 12.5442 31.1846 9.24928 30.7714 5.9596C30.7697 5.95084 30.7697 5.94034 30.7679 5.93159L30.7662 5.93334C30.7644 5.88432 30.7644 5.83354 30.7627 5.78452V5.76001V5.75476H30.7294C30.5876 5.6182 30.5771 5.42036 30.5508 5.22778C30.4248 4.27186 30.2847 3.3212 30.0921 2.37754L30.2392 2.37053V2.36878L29.777 0H27.3644L27.6323 0.486712C27.8126 0.814105 27.9632 1.15375 28.084 1.50566C28.189 1.80854 28.2731 2.11842 28.3326 2.43356C28.5077 3.32295 28.6758 4.21234 28.7948 5.11223C28.8211 5.31182 28.8281 5.50965 28.8403 5.70924C28.8578 5.72325 28.8753 5.739 28.8876 5.75476H28.8438C28.8701 5.81428 28.8981 5.87206 28.9244 5.92983H28.9226C28.9226 5.93509 28.9244 5.94034 28.9244 5.94559C29.2202 8.30037 29.236 10.6674 29.18 13.0327C29.1555 14.0726 28.9594 15.1126 28.9051 16.1455C28.8561 17.1155 28.3466 17.5129 27.6043 17.842C27.2856 17.9838 26.9705 18.1309 26.6536 18.2745C26.6536 18.2745 26.6536 18.2762 26.6536 18.278L26.6519 18.2762C26.5923 18.306 26.5328 18.334 26.4733 18.3638C26.4155 18.4198 26.3577 18.4758 26.2982 18.5318C26.2965 18.5318 26.2965 18.5318 26.2947 18.5318C26.2107 18.5371 26.1249 18.5423 26.0391 18.5476C25.1147 19.0886 24.1203 19.4825 23.1486 19.9254C22.5183 20.2126 21.8723 20.4629 21.2333 20.729C21.2298 20.757 21.2245 20.7833 21.2192 20.8113C21.1947 20.8358 21.1685 20.8498 21.144 20.8516C21.1422 20.8761 21.1405 20.9006 21.1387 20.9269V20.9636C21.1387 20.9514 21.137 20.9391 21.137 20.9269C21.1265 20.8971 21.1125 20.8691 21.0932 20.8446H21.0914C21.0774 20.8393 21.0634 20.8288 21.0477 20.8183H21.0424C19.4527 21.4504 17.8735 22.1069 16.2733 22.7092C14.4298 23.4007 12.5757 24.066 10.7129 24.7015C10.0511 24.9256 9.39285 25.1917 8.68904 25.2758C8.67503 25.3073 8.65227 25.3353 8.62601 25.3581C8.62426 25.3616 8.62076 25.3633 8.61726 25.3668C8.56648 25.3651 8.51571 25.3651 8.46319 25.3633C8.43868 25.3826 8.41067 25.3948 8.3809 25.4053C8.34239 25.4193 8.30212 25.4316 8.26885 25.4526C7.28843 25.7555 6.3045 26.0531 5.29256 26.2422C5.17 26.3875 5.00193 26.3087 4.85487 26.328H4.594C4.41718 26.3035 4.22284 26.3998 4.06702 26.2439C3.17238 26.1179 2.55086 25.5664 2.04489 24.8836" fill="#DC4F8D"/>
<path d="M42.5716 0H29.7753L30.2392 2.36703C30.3425 2.89401 30.3898 3.4315 30.4948 3.95672C30.6156 4.55023 30.6752 5.15425 30.7627 5.75476C30.7627 5.75651 30.7609 5.75651 30.7609 5.75826V5.78277C30.7627 5.83179 30.7627 5.88256 30.7644 5.93159L30.7662 5.92983C30.7837 5.95084 30.8012 5.9736 30.817 5.99636C30.817 5.99636 30.817 5.99636 30.8187 5.99811C31.0953 6.39729 31.0026 6.87875 31.0411 7.31644C31.1741 8.85186 31.2844 10.3908 31.2442 11.935C31.2161 13.0274 31.0936 14.1112 31.0131 15.1984C31.0026 15.3244 30.922 15.4855 31.0411 15.5678C31.1689 15.6553 31.2757 15.4995 31.3825 15.4365C31.9865 15.0846 32.552 14.6714 33.142 14.2967C33.2733 14.2144 33.4011 14.0796 33.5744 14.1269C33.5919 14.0954 33.6094 14.0656 33.6322 14.0411C33.6392 14.0324 33.6462 14.0254 33.655 14.0184C33.6795 13.9974 33.7075 13.9833 33.7407 13.9798C33.7565 13.9396 33.7775 13.9028 33.8038 13.8713C33.8143 13.8573 33.8248 13.8468 33.8353 13.8345C33.9036 13.761 33.9911 13.7067 34.0734 13.6489C35.453 12.6948 36.7013 11.583 37.8778 10.3978C39.1821 9.08121 40.2816 7.60356 41.1027 5.93159L41.1045 5.92983C41.1115 5.91583 41.1167 5.90182 41.1237 5.88957C41.101 5.87731 41.0782 5.86856 41.0554 5.8598C41.0887 5.8528 41.122 5.8423 41.1535 5.82654C41.164 5.80203 41.1762 5.77927 41.1902 5.75651C41.2025 5.73725 41.2148 5.71799 41.2288 5.69873C41.269 5.65496 41.3163 5.63221 41.3706 5.6252C41.7347 4.72356 42.0534 3.80616 42.253 2.85024C42.3142 2.55611 42.372 2.26199 42.4368 1.96436C42.435 1.90658 42.4333 1.84706 42.4298 1.78753C42.428 1.76827 42.4228 1.76127 42.4158 1.76302C42.3615 1.78403 42.456 1.70699 42.456 1.65622C42.4543 1.75952 42.449 1.85056 42.4438 1.93459C42.463 1.8418 42.4841 1.75076 42.5068 1.65797V3.6731C42.5944 3.52604 42.5663 3.36322 42.5663 3.2074C42.5681 2.45107 42.5646 1.69474 42.5628 0.938409H42.5698V0H42.5716ZM33.795 5.75826H33.6882H33.655C33.6707 5.7425 33.6882 5.732 33.7057 5.72675C33.7197 5.69523 33.7285 5.66372 33.7337 5.63045C33.7425 5.66197 33.7548 5.69348 33.7723 5.72324C33.7915 5.73025 33.8108 5.74075 33.83 5.75826H33.795ZM34.0979 1.08897C34.1137 1.06797 34.1277 1.05046 34.1417 1.03295C34.1347 1.05571 34.1189 1.07497 34.0979 1.08897ZM35.7559 5.93334C35.7471 5.91583 35.7384 5.90007 35.7296 5.88256C35.7244 5.87031 35.7174 5.85805 35.7121 5.8458C35.6981 5.81779 35.6823 5.78802 35.6683 5.76001C35.6981 5.78977 35.7454 5.80903 35.7629 5.8458C35.7699 5.8563 35.7734 5.86856 35.7716 5.88256C35.7716 5.89482 35.7664 5.91408 35.7559 5.93334Z" fill="#EF71A6"/>
</g>
<defs>
<clipPath id="clip0_158_9344">
<rect width="42.5716" height="39" fill="white"/>
</clipPath>
</defs>
</svg>
