<svg width="42" height="43" viewBox="0 0 42 43" fill="none" xmlns="http://www.w3.org/2000/svg">
<g clip-path="url(#clip0_158_9177)">
<path d="M21.1545 38.3623C21.1509 38.3641 21.1474 38.3676 21.1457 38.3711C21.1509 38.3763 21.1545 38.3798 21.158 38.3851V38.3623C21.1562 38.3623 21.1562 38.3623 21.1545 38.3623Z" fill="#D9596B"/>
<path d="M3.55057 30.1794C2.91373 30.544 2.35736 31.0114 1.87631 31.578C2.0184 31.4342 2.70659 30.746 3.55057 30.1794Z" fill="#D9596B"/>
<path d="M6.29989 29.2943C6.19889 29.3063 6.09788 29.3217 6.00031 29.3371C6.45225 29.296 6.89393 29.2566 7.28424 29.2258C6.95555 29.2344 6.62858 29.2532 6.29989 29.2943Z" fill="#D9596B"/>
<path d="M41.7811 17.9341C41.5277 16.3591 41.2196 14.7978 40.3465 13.418C38.9325 11.1823 36.897 10.0678 34.2538 10.0541C34.2795 10.2869 34.1442 10.3811 33.9405 10.4068C33.7282 10.4341 33.5964 10.3451 33.5673 10.1243V10.1174C33.569 10.0952 33.5707 10.0746 33.5725 10.0541C33.5434 10.0438 33.5125 10.0353 33.4834 10.0267C33.4269 10.0284 33.3687 10.0284 33.3122 10.0301C33.189 9.97878 33.0657 9.93085 33.052 10.1226C33.0503 10.1226 33.0503 10.1226 33.0486 10.1226C32.8569 9.95652 32.6429 10.0301 32.4409 10.0815C31.9016 10.2133 31.3761 10.3965 30.8591 10.5951C29.594 11.0847 27.9796 10.6978 27.2503 9.62099C27.1802 9.51656 27.0997 9.41214 26.9679 9.37447C26.9354 9.34195 26.9028 9.30942 26.8703 9.27518L26.7214 9.01326C26.5194 8.38499 26.4543 7.73959 26.4612 7.08051C26.4714 6.15607 26.456 5.22993 26.4509 4.30378C26.4594 4.24729 26.4697 4.19079 26.4783 4.1343V1.90881C26.4697 1.85232 26.4594 1.79582 26.4509 1.73933C26.456 1.25314 26.4543 0.768673 26.4663 0.284201C26.4714 0.0941779 26.4235 -0.00168939 26.2078 2.25275e-05C24.4685 0.0154298 22.7275 0.0205655 20.9882 0.030837C20.9916 1.65373 20.9967 3.27663 21.0001 4.89953C21.0498 4.90295 21.1011 4.90466 21.1508 4.90809C21.1525 4.29693 21.1611 3.68749 21.1542 3.07634C21.1508 2.799 21.2449 2.72539 21.5154 2.80928C21.8133 2.90001 22.0239 3.11057 22.267 3.27492C22.2687 3.27663 22.2687 3.27834 22.2687 3.28005C22.4416 3.59333 22.6128 3.90661 22.784 4.21818V4.21989C22.7857 4.21989 22.7857 4.22161 22.7857 4.22161V8.97388V9.09714V9.27176C22.7857 9.31284 22.784 9.35564 22.7857 9.39673C22.7771 10.2921 22.7994 11.1754 23.2068 12.016C23.7426 13.127 25.5555 14.1952 27.1836 13.4933C28.3682 12.9815 29.6077 12.6939 30.9087 12.7829C31.7013 12.8377 32.4734 13.0106 33.2266 13.2674C33.254 13.2759 33.2814 13.2845 33.3088 13.2948C33.3105 13.3222 33.314 13.3495 33.3174 13.3769C33.3465 13.3769 33.3739 13.3769 33.4013 13.3786C33.4269 13.3769 33.4543 13.3786 33.48 13.3786C33.4817 13.406 33.4834 13.4351 33.4851 13.4642C34.2127 13.6149 34.7468 14.0925 35.2878 14.5462C36.8782 15.8815 37.5766 17.6858 37.931 19.6614C38.0354 20.2451 38.1056 20.8358 38.1912 21.4229V21.4264V21.4281C38.2237 21.4606 38.2631 21.488 38.3127 21.5137C38.3949 21.5188 38.4754 21.5239 38.5576 21.5257C38.4565 21.5291 38.3573 21.5342 38.258 21.5393C38.2306 21.5565 38.2083 21.5753 38.1912 21.5941L38.1929 21.5958C38.27 22.5391 38.436 23.4772 38.2956 24.4308C38.2203 24.9495 38.2528 25.4768 38.2117 26.0023C38.1176 27.1698 37.8659 28.3014 37.5578 29.4193C37.188 30.7632 36.6744 32.0591 36.0547 33.3105C35.9794 33.4628 35.8818 33.6032 35.7945 33.7487L35.7962 33.7539C35.7945 33.7556 35.7945 33.759 35.7928 33.7607C35.8202 33.7932 35.8561 33.8172 35.8972 33.8326C35.9229 33.8343 35.9469 33.836 35.9726 33.8378C35.9315 33.8378 35.8921 33.8395 35.851 33.8395C35.8134 33.8412 35.7774 33.8463 35.7432 33.8583C35.7312 33.8788 35.7209 33.8994 35.7106 33.9199L35.7072 33.9233C35.0721 35.0789 34.3445 36.1711 33.4851 37.1726C33.4834 37.2017 33.4817 37.2308 33.4817 37.2616C33.4595 37.2719 33.4389 37.2838 33.4167 37.2958C33.4115 37.2975 33.4081 37.301 33.403 37.3027H33.4013C33.3739 37.3181 33.3448 37.3318 33.3174 37.3472C33.3157 37.3746 33.314 37.4037 33.3122 37.4311V37.5338C33.3105 37.6947 33.3105 37.8556 33.3088 38.0165C33.3893 37.9909 33.4492 37.9429 33.4851 37.8642C35.019 36.7805 36.3663 35.5017 37.5047 34.0072C37.4927 33.8977 37.4448 33.8532 37.3866 33.8395C37.4893 33.8189 37.592 33.7932 37.6947 33.759C38.626 32.6514 39.3348 31.4034 39.9562 30.1075C41.2435 27.4181 41.9266 24.5848 41.9471 21.5976C41.8975 21.5513 41.8444 21.5274 41.7828 21.5188C41.8444 21.5017 41.9009 21.4709 41.9506 21.4229C42.0122 20.2537 41.9677 19.0879 41.7811 17.9341Z" fill="#F06977"/>
<path d="M21.1508 4.92008V4.9081C21.1011 4.90467 21.0498 4.90296 21.0001 4.89954C21.0515 4.94405 21.1011 4.94747 21.1508 4.92008Z" fill="#D9596B"/>
<path d="M8.73423 38.1346C8.72395 38.1877 8.7017 38.2391 8.66061 38.287C8.74621 38.3127 8.83181 38.3367 8.9174 38.3606C8.81126 38.3024 8.75991 38.2237 8.73423 38.1346Z" fill="#DA6D80"/>
<path d="M38.258 21.5393C38.3573 21.5342 38.4566 21.529 38.5576 21.5256C38.4754 21.5239 38.3949 21.5188 38.3128 21.5136C38.2631 21.488 38.2237 21.4606 38.1912 21.428V21.5941C38.2083 21.5753 38.2306 21.5564 38.258 21.5393Z" fill="#EB7A89"/>
<path d="M41.9471 21.5975C41.9471 21.5393 41.9488 21.4811 41.9505 21.4229C41.9009 21.4708 41.8444 21.5017 41.7828 21.5188C41.8444 21.5273 41.8975 21.5513 41.9471 21.5975Z" fill="#EB7A89"/>
<path d="M0.607772 33.6546C0.529024 33.7231 0.518752 33.8172 0.510193 33.9131C0.571822 33.8652 0.638587 33.8378 0.707063 33.8224C0.65913 33.7984 0.621467 33.7488 0.607772 33.6546Z" fill="#DA697C"/>
<path d="M33.3122 37.4311C32.8552 37.919 32.3998 38.4052 31.9444 38.8914C32.4375 38.6585 32.8689 38.3316 33.3088 38.0166C33.3105 37.8556 33.3105 37.6947 33.3122 37.5338V37.4311Z" fill="#EF6A78"/>
<path d="M35.851 33.8394C35.8921 33.8394 35.9315 33.8377 35.9726 33.8377C35.9469 33.836 35.9229 33.8343 35.8972 33.8326C35.8562 33.8172 35.8202 33.7932 35.7928 33.7607C35.7757 33.7932 35.7586 33.8257 35.7432 33.8583C35.7774 33.8463 35.8134 33.8411 35.851 33.8394Z" fill="#EB7A88"/>
<path d="M37.5047 34.0072C37.5681 33.9233 37.6314 33.8411 37.6947 33.759C37.592 33.7932 37.4893 33.8189 37.3866 33.8394C37.4448 33.8531 37.4927 33.8976 37.5047 34.0072Z" fill="#EB7A88"/>
<path d="M33.5673 10.1243C33.5964 10.3451 33.7282 10.4341 33.9405 10.4067C34.1442 10.3811 34.2795 10.2869 34.2538 10.0541H33.5725C33.5707 10.0746 33.569 10.0952 33.5673 10.1174V10.1243Z" fill="#F06977"/>
<path d="M33.7488 13.6406C35.4042 14.5136 36.6008 15.8044 37.2496 17.566C37.6297 18.5983 37.8488 19.6751 38.0063 20.7638C38.0371 20.9898 38.0097 21.2517 38.1878 21.4264H38.1895H38.1912V21.4229C38.1056 20.8357 38.0354 20.2451 37.931 19.6614C37.5766 17.6858 36.8782 15.8815 35.2878 14.5462C34.7468 14.0925 34.2127 13.6149 33.4851 13.4642V13.5002C33.5622 13.5652 33.6598 13.5943 33.7488 13.6406Z" fill="#D9596B"/>
<path d="M33.4167 13.4129C33.4184 13.4215 33.4218 13.43 33.4269 13.4369C33.4389 13.454 33.4509 13.4694 33.4663 13.4831C33.4715 13.4899 33.4783 13.4951 33.4852 13.5002V13.4643C33.4834 13.4352 33.4817 13.4061 33.48 13.3787C33.4543 13.3787 33.4269 13.377 33.4013 13.3787C33.3739 13.377 33.3465 13.377 33.3174 13.377V13.3958C33.3499 13.4146 33.3824 13.4198 33.4167 13.4129Z" fill="#D97487"/>
<path d="M20.9814 35.6288C20.9833 35.627 20.9852 35.6251 20.987 35.6232H20.9796L20.9814 35.6288Z" fill="#F19C79"/>
<path d="M20.5636 38.2596C20.1356 38.2682 19.7145 38.2134 19.2899 38.1723C17.3041 37.9772 15.4176 37.4293 13.6047 36.6076C12.6802 36.1882 12.0793 35.5445 11.992 34.4883C11.9766 34.2965 11.9886 34.0723 11.838 33.9216L11.8225 33.9233C11.8157 35.2638 12.3413 36.2584 13.6474 36.7549C13.9128 36.8559 14.1696 36.9791 14.4315 37.0853C16.532 37.9446 18.7181 38.3692 20.9864 38.3846V38.3623C20.9864 38.3606 20.9864 38.3606 20.9864 38.3589C20.8717 38.2528 20.7142 38.2562 20.5636 38.2596Z" fill="#F19C79"/>
<path d="M8.71032 34.4951V34.4575C8.69491 34.478 8.6795 34.502 8.66238 34.5191C8.67779 34.5105 8.69491 34.5037 8.71032 34.4951Z" fill="#DA7083"/>
<path d="M8.67267 31.3589C8.71204 31.3846 8.74799 31.3897 8.78223 31.3794C8.79935 31.376 8.81647 31.3675 8.83188 31.3538L8.78223 31.3555L8.67267 31.3589Z" fill="#DA7083"/>
<path d="M11.8488 33.9221C11.8488 33.9151 11.8471 33.9098 11.8471 33.9028C11.8418 33.9063 11.8366 33.9116 11.8313 33.9151L11.8225 33.9239L11.8383 33.9221H11.8488Z" fill="#DA7083"/>
<path d="M4.24047 33.8001C4.23362 33.7847 4.22335 33.7693 4.20966 33.7521V33.8001V33.836V33.9199C4.23533 33.8908 4.24732 33.8634 4.24732 33.836C4.24732 33.824 4.24561 33.8121 4.24047 33.8001Z" fill="#DA6D80"/>
<path d="M7.93823 33.836C7.93823 33.8634 7.95193 33.8908 7.97589 33.9199V33.836V33.8001V33.7538C7.9622 33.7693 7.95193 33.7847 7.94679 33.8001C7.94166 33.8121 7.93823 33.824 7.93823 33.836Z" fill="#DA6D80"/>
<path d="M25.2628 37.7066C24.0097 37.9463 22.7669 38.2664 21.4744 38.2579C21.3597 38.2579 21.2415 38.275 21.1577 38.3589C21.1577 38.3606 21.1577 38.3606 21.1577 38.3623V38.3846C22.5871 38.3965 23.9789 38.15 25.3518 37.7768C25.4477 37.722 25.5436 37.669 25.6395 37.6159C25.5145 37.6484 25.3895 37.6792 25.2628 37.7066Z" fill="#F19C79"/>
<path d="M30.6571 33.9182C30.6331 33.9216 30.6057 33.9233 30.58 33.9268C30.5783 33.9268 30.5783 33.9268 30.5766 33.9268C29.6162 35.0412 28.4573 35.9194 27.2247 36.7018C26.7111 37.0288 26.1718 37.3181 25.6394 37.6159C25.5436 37.669 25.4477 37.7221 25.3518 37.7769C25.4785 37.7563 25.6069 37.7478 25.7285 37.7152C27.1579 37.3164 28.5172 36.7412 29.7857 35.9742C30.7683 35.3802 31.7493 34.7742 32.5453 33.9268H32.4477C31.8503 33.9233 31.2545 33.9216 30.6571 33.9182Z" fill="#DD8765"/>
<path d="M33.4269 37.1862C33.4235 37.1931 33.4184 37.1982 33.415 37.2051C33.4115 37.2188 33.4098 37.2342 33.4081 37.2479C33.367 37.2599 33.3465 37.3129 33.3174 37.3472C33.3448 37.3318 33.3739 37.3181 33.4013 37.3027H33.403C33.4081 37.3009 33.4115 37.2975 33.4167 37.2958C33.4389 37.2838 33.4595 37.2718 33.4817 37.2616C33.4817 37.2308 33.4834 37.2017 33.4852 37.1725V37.0989C33.4646 37.128 33.4458 37.1571 33.4269 37.1862Z" fill="#D96E81"/>
<path d="M35.7894 33.7573C35.7278 33.7812 35.6867 33.8172 35.7004 33.8822C35.685 33.8959 35.6713 33.9096 35.6576 33.9233H35.7072L35.7106 33.9199C35.7209 33.8994 35.7312 33.8788 35.7432 33.8583C35.7586 33.8258 35.7757 33.7932 35.7928 33.7607C35.7945 33.759 35.7945 33.7556 35.7962 33.7539L35.7945 33.7487H35.7825C35.7842 33.7521 35.786 33.7556 35.7894 33.7573Z" fill="#D96E81"/>
<path d="M30.8334 33.7487C30.8026 33.7504 30.7735 33.7504 30.7444 33.7521C30.7289 33.7812 30.7135 33.8103 30.6981 33.8394C30.6844 33.8651 30.6707 33.8925 30.657 33.9182C31.2545 33.9216 31.8502 33.9233 32.4477 33.9268H32.5453C32.571 33.9233 32.5984 33.9216 32.6257 33.9199C32.6446 33.8857 32.6634 33.8514 32.6822 33.8189C32.6942 33.7967 32.7062 33.7761 32.7182 33.7539H32.66C32.0505 33.7521 31.4428 33.7504 30.8334 33.7487Z" fill="#DD8765"/>
<path d="M38.1433 21.9639C38.1313 22.8849 38.222 23.8008 38.1826 24.7303C38.0662 27.4831 37.39 30.0732 36.2602 32.5675C36.0873 32.951 35.851 33.3122 35.7791 33.7367C35.7774 33.7384 35.7774 33.7419 35.7774 33.7436C35.7791 33.7453 35.7808 33.747 35.7825 33.7487H35.7945C35.8818 33.6032 35.9794 33.4628 36.0547 33.3105C36.6744 32.0591 37.188 30.7631 37.5578 29.4193C37.8659 28.3014 38.1176 27.1698 38.2117 26.0023C38.2528 25.4767 38.2203 24.9495 38.2956 24.4308C38.436 23.4772 38.27 22.5391 38.1929 21.5958L38.1912 21.5941C38.1022 21.6985 38.145 21.8355 38.1433 21.9639Z" fill="#D9596B"/>
<path d="M21.1593 4.91666C21.1679 4.91153 21.1781 4.90468 21.1867 4.89783C21.2809 4.75917 21.2706 4.60167 21.2723 4.4476C21.2774 4.06755 21.2672 3.68579 21.2774 3.30575C21.2877 2.91372 21.3921 2.86236 21.7431 3.04554C21.9143 3.13627 22.0444 3.31089 22.2652 3.29719C22.2652 3.29377 22.2669 3.29205 22.2669 3.28863C22.2772 3.68751 22.5032 3.96997 22.7839 4.21991V4.2182C22.6127 3.90663 22.4415 3.59335 22.2686 3.28007C22.2686 3.27836 22.2686 3.27665 22.2669 3.27493C22.0238 3.11059 21.8133 2.90003 21.5154 2.80929C21.2449 2.72541 21.1508 2.79902 21.1542 3.07635C21.161 3.68751 21.1525 4.29695 21.1508 4.9081V4.92009C21.1542 4.92009 21.1559 4.91837 21.1593 4.91666Z" fill="#D5596B"/>
<path d="M22.695 4.33797C22.6778 4.39104 22.6624 4.44582 22.6607 4.50231C22.635 5.90266 22.6487 7.30301 22.6539 8.70336C22.6539 8.7958 22.6659 8.88824 22.7018 8.97042H22.7035C22.7223 9.01493 22.7497 9.05772 22.7857 9.0971V8.97384V4.22156C22.7857 4.22156 22.7857 4.21985 22.784 4.21985C22.7532 4.23697 22.7223 4.27292 22.695 4.33797Z" fill="#D5596B"/>
<path d="M35.6165 33.9678C35.3665 34.24 35.2227 34.5859 35.0276 34.8957C34.5739 35.6164 34.0364 36.2755 33.5639 36.9808C33.5365 37.0202 33.5108 37.0596 33.4851 37.0989V37.1726C34.3445 36.1711 35.0721 35.0789 35.7072 33.9233H35.6576C35.6439 33.9387 35.6302 33.9524 35.6165 33.9678Z" fill="#D9596B"/>
<path d="M22.7377 10.8639C22.9414 13.0517 25.3655 14.4212 27.3068 13.5738C29.1249 12.7812 30.9994 12.6648 32.8997 13.2931C33.0144 13.3307 33.1342 13.3804 33.2523 13.3256C33.2574 13.3393 33.266 13.353 33.2746 13.365C33.2848 13.3753 33.2951 13.3838 33.3071 13.3907C33.3105 13.3924 33.3139 13.3941 33.3174 13.3958V13.377C33.3139 13.3496 33.3105 13.3222 33.3088 13.2948C33.2814 13.2845 33.254 13.276 33.2266 13.2674C32.4734 13.0106 31.7013 12.8377 30.9087 12.7829C29.6076 12.6939 28.3682 12.9815 27.1836 13.4934C25.5555 14.1953 23.7426 13.127 23.2068 12.016C22.7994 11.1754 22.7771 10.2921 22.7857 9.39676C22.7839 9.35567 22.7857 9.31288 22.7857 9.27179C22.7668 9.31459 22.7497 9.35567 22.7377 9.39847C22.5734 9.88123 22.6915 10.3726 22.7377 10.8639Z" fill="#D9596B"/>
<path d="M37.4311 21.5993C37.4397 21.5822 37.4516 21.5634 37.4653 21.5445C37.4739 21.5428 37.4842 21.5411 37.4927 21.5411C37.4294 21.536 37.3678 21.5308 37.3061 21.5291C37.3369 21.5531 37.366 21.577 37.3969 21.5993H37.4311Z" fill="#DA7284"/>
<path d="M38.1878 21.4263C38.1861 21.4298 38.1861 21.4298 38.1844 21.4298C38.1193 21.4726 38.0526 21.4999 37.9841 21.5188C38.0543 21.5308 38.1228 21.5547 38.1912 21.5941V21.428V21.4263H38.1895H38.1878Z" fill="#DA7284"/>
<path d="M21.072 35.7448C21.0738 35.7705 21.0772 35.7961 21.0772 35.8218C21.0772 35.7961 21.0789 35.7687 21.0789 35.7431C21.0823 35.702 21.0909 35.6643 21.108 35.6301C21.0738 35.6284 21.0378 35.6267 21.0019 35.6249C21.0327 35.6575 21.0566 35.6968 21.072 35.7448Z" fill="#ECA890"/>
<path d="M21.1576 38.3623C21.1576 38.3606 21.1576 38.3606 21.1576 38.3589C21.1559 38.3589 21.1559 38.3589 21.1559 38.3606C21.1131 38.311 21.0909 38.2562 21.0806 38.1997C21.0635 38.2596 21.0344 38.3127 20.9882 38.3606L20.9865 38.3589C20.9865 38.3606 20.9865 38.3606 20.9865 38.3623C20.9882 38.3623 20.9882 38.3623 20.9899 38.3623H21.0036H21.1388H21.1542C21.1559 38.3623 21.1559 38.3623 21.1576 38.3623Z" fill="#ECA890"/>
<path d="M27.7554 21.6866C27.7057 21.7705 27.6544 21.856 27.6047 21.9399H33.2266C33.2266 21.9399 33.2266 21.9399 33.2284 21.9416V21.9399C34.2332 22.0906 34.9831 22.5733 35.2861 23.5868C35.4692 24.1997 35.3734 24.8194 35.245 25.434C35.0789 26.2249 34.8358 26.9935 34.5962 27.7639C35.3922 27.6646 36.1352 27.3787 36.885 27.1185C36.974 27.0877 37.0648 27.0586 37.1538 27.0295C37.1846 27.0209 37.2154 27.0106 37.2462 27.0004C37.6759 26.141 37.818 25.2011 38.0491 24.2818C38.3025 23.2667 38.1107 22.3936 37.4191 21.6267C37.4123 21.6181 37.4054 21.6095 37.3969 21.601C37.366 21.5787 37.3369 21.5548 37.3061 21.5308C37.2599 21.4965 37.212 21.4606 37.1658 21.4246C36.4878 20.9607 35.7123 20.9915 34.9437 20.983H33.5776H30.1674H30.1401C29.4039 21.0086 28.6695 21.0429 28.0104 21.4298L27.9077 21.5325C27.8581 21.5839 27.8067 21.6352 27.7554 21.6866Z" fill="#DBD7E5"/>
<path d="M11.8602 33.8891C11.8722 33.8377 11.8636 33.7915 11.8345 33.7521H11.8277C11.8345 33.8018 11.8397 33.8531 11.8465 33.9028C11.8465 33.9096 11.8482 33.9148 11.8482 33.9216C11.8533 33.9096 11.8568 33.8994 11.8602 33.8891Z" fill="#EBAA92"/>
<path d="M20.9796 35.601C20.983 35.1884 20.9624 34.7759 20.9933 34.365C21.0155 34.0774 20.9385 33.9285 20.7176 33.9096C20.6697 33.9045 20.6166 33.9062 20.555 33.9148C20.5276 33.9165 20.4985 33.9199 20.4711 33.9233C19.7658 34.6663 19.9712 35.3528 20.9813 35.6284L20.9796 35.6233V35.601Z" fill="#CB7452"/>
<path d="M16.354 27.7211C15.1248 28.6883 13.7913 29.4895 12.3704 30.1486C11.232 30.6776 10.0319 31.008 8.83356 31.3538C9.12972 31.4394 9.39335 31.3007 9.66212 31.2271C11.0385 30.8539 12.355 30.3301 13.6115 29.647C14.981 28.9006 16.2393 28.007 17.4103 26.9833C17.5318 26.8771 17.6893 26.7727 17.6482 26.5638C17.2853 27.0243 16.8077 27.3633 16.354 27.7211Z" fill="#D9596B"/>
<path d="M11.8469 33.7544C11.8487 33.7474 11.8487 33.7386 11.8522 33.7316C11.8452 33.7369 11.8382 33.7439 11.8312 33.7492C11.8294 33.7509 11.8294 33.7509 11.8277 33.7527H11.8347L11.8469 33.7544Z" fill="#D9596B"/>
<path d="M25.4939 33.9216C24.9238 33.9233 24.352 33.9251 23.782 33.9268H23.734L23.7289 33.9251C23.948 34.4797 24.2202 34.704 24.6585 34.692C25.119 34.6783 25.3432 34.4797 25.5264 33.9199L25.5213 33.9216H25.4939Z" fill="#CB7452"/>
<path d="M21.5017 33.9233C21.4726 33.9199 21.4452 33.9165 21.4178 33.9148C21.3836 33.8942 21.3511 33.872 21.3168 33.8514C21.274 33.824 21.2312 33.7984 21.1884 33.771C21.1782 33.7641 21.1679 33.7573 21.1576 33.7521C21.1011 33.7521 21.0429 33.7504 20.9847 33.7504C20.9282 33.7504 20.8734 33.7504 20.8169 33.7521C20.8135 33.7539 20.8084 33.7573 20.805 33.7607C20.7211 33.8103 20.6389 33.8617 20.555 33.9148C20.6167 33.9062 20.6697 33.9045 20.7177 33.9096C20.9385 33.9285 21.0155 34.0774 20.9933 34.365C20.9625 34.7759 20.983 35.1884 20.9796 35.601V35.6233H20.9864C20.9916 35.6233 20.9967 35.625 21.0018 35.625C21.0378 35.6267 21.0737 35.6284 21.108 35.6301C21.1251 35.6318 21.1405 35.6318 21.1559 35.6335C21.1833 35.6079 21.2124 35.5822 21.2398 35.5548C22.0341 35.1936 22.1317 34.5893 21.5017 33.9233Z" fill="#CB7452"/>
<path d="M25.5387 33.7557C25.5352 33.7522 25.5317 33.7505 25.5265 33.7487L25.5247 33.7505L25.5387 33.7557Z" fill="#EBA991"/>
<path d="M25.5263 33.9198C25.5246 33.9182 25.523 33.9165 25.5213 33.9165V33.9215L25.5263 33.9198Z" fill="#EBA991"/>
<path d="M30.6502 33.8617C30.6228 33.8788 30.5989 33.8994 30.5783 33.925L30.5766 33.9267C30.5783 33.9267 30.5783 33.9267 30.58 33.9267C30.6057 33.9233 30.6331 33.9216 30.6571 33.9182C30.6708 33.8925 30.6845 33.8651 30.6981 33.8394C30.7136 33.8103 30.729 33.7812 30.7444 33.7521H30.693C30.6673 33.783 30.6502 33.8172 30.6502 33.8617Z" fill="#EBA991"/>
<path d="M21.5018 33.9233C21.4607 33.8823 21.411 33.8583 21.3562 33.8497C21.3425 33.8497 21.3288 33.8497 21.3169 33.8514C21.3511 33.872 21.3836 33.8942 21.4179 33.9148C21.4453 33.9165 21.4726 33.9199 21.5018 33.9233Z" fill="#EAAA92"/>
<path d="M23.726 33.747C23.7224 33.7506 23.7189 33.7524 23.7153 33.7542L23.7278 33.7488C23.7278 33.7488 23.7278 33.7488 23.726 33.747Z" fill="#EAAA92"/>
<path d="M23.7345 33.9199C23.7327 33.9218 23.7308 33.9237 23.7289 33.9255L23.7345 33.9274V33.9199Z" fill="#EAAA92"/>
<path d="M33.2352 33.3704C33.2592 33.3533 33.2831 33.3344 33.3054 33.3156C33.3054 33.2865 33.3088 33.2591 33.3122 33.2317V33.1838C33.3122 32.273 33.3105 31.3623 33.3105 30.4516C33.3054 30.4464 33.3002 30.443 33.2951 30.4379C32.761 31.1911 32.3005 31.9974 31.6979 32.7027C31.4325 33.0126 31.1758 33.331 30.919 33.646H30.9173C30.8899 33.6802 30.8608 33.7145 30.8334 33.7487C31.4428 33.7504 32.0505 33.7521 32.66 33.7538H32.7182C32.7456 33.7521 32.773 33.7487 32.8004 33.747C32.8158 33.7179 32.8329 33.6922 32.8517 33.6683C32.9527 33.5381 33.1017 33.4645 33.2352 33.3704Z" fill="#DD8765"/>
<path d="M33.3054 33.3156C33.2831 33.3344 33.2591 33.3533 33.2352 33.3704C33.1017 33.4645 32.9527 33.5382 32.8517 33.6683C32.8329 33.6922 32.8158 33.7179 32.8004 33.747C33.1205 33.7795 33.4047 33.7727 33.3054 33.3156Z" fill="#DA5C6C"/>
<path d="M33.314 30.3232C33.3688 30.2667 33.4235 30.2102 33.4783 30.1537C33.4783 30.152 33.4783 30.152 33.4783 30.1503C33.48 30.0955 33.4835 30.039 33.4852 29.9859V29.9842C33.4835 29.3268 33.4817 28.6677 33.48 28.0104C33.48 28.0104 33.48 28.0104 33.48 28.0087C33.3653 28.0069 33.2523 28.0069 33.1376 28.0069C33.1359 28.0052 33.1359 28.0052 33.1342 28.0069C33.1325 28.0052 33.1325 28.0052 33.1308 28.0069C33.1291 28.0052 33.1291 28.0052 33.1274 28.0069C33.1034 28.0052 33.0777 28.0052 33.0538 28.0069C33.052 28.0052 33.052 28.0052 33.0503 28.0069C33.0486 28.0052 33.0486 28.0052 33.0469 28.0069C33.0452 28.0052 33.0452 28.0052 33.0435 28.0069C32.9904 28.0052 32.9391 28.0052 32.886 28.0052H32.8843C32.5419 28.0069 32.1995 28.0087 31.8571 28.0104C31.1279 27.9059 30.479 27.6064 29.8302 27.2623C28.4093 26.509 26.8755 26.1803 25.2645 26.2266C25.0934 26.23 24.9222 26.2248 24.751 26.2248C23.6879 27.3992 22.4912 28.4212 21.1628 29.2857L21.1542 29.3097C21.1286 29.332 21.108 29.3713 21.0789 29.3885C21.0738 29.4227 21.0704 29.4586 21.0669 29.4946C21.0652 29.5305 21.0635 29.5665 21.0635 29.6025C21.0532 29.5528 21.0327 29.5117 20.9916 29.4706C20.9865 29.4758 20.9796 29.4792 20.9745 29.4843C20.4575 29.8952 19.8549 30.1588 19.2609 30.4344C17.8947 31.0627 16.4413 31.4051 14.9811 31.7184C14.5069 31.8211 14.0412 31.9495 13.5756 32.0813C12.8309 32.2902 12.2762 32.7096 12.0229 33.4662C11.9955 33.5501 11.9527 33.6237 11.8996 33.6905C11.8825 33.7128 11.8654 33.7333 11.8465 33.7538L11.8346 33.7521C11.8637 33.7915 11.8722 33.8377 11.8602 33.8891C11.8568 33.8994 11.8534 33.9096 11.8483 33.9216H11.838C11.9886 34.0723 11.9767 34.2965 11.9921 34.4883C12.0794 35.5445 12.6803 36.1882 13.6047 36.6076C15.4176 37.4293 17.3041 37.9771 19.29 38.1723C19.7145 38.2134 20.1356 38.2682 20.5636 38.2596C20.7143 38.2562 20.8718 38.2528 20.9865 38.3589L20.9882 38.3606C21.0344 38.3127 21.0635 38.2596 21.0806 38.1997C21.0909 38.2562 21.1131 38.311 21.1559 38.3606C21.1559 38.3589 21.1559 38.3589 21.1577 38.3589C21.2415 38.275 21.3597 38.2579 21.4744 38.2579C22.7669 38.2665 24.0097 37.9463 25.2628 37.7067C25.3895 37.6793 25.5145 37.6485 25.6395 37.6159C26.1719 37.3181 26.7111 37.0287 27.2247 36.7018C28.4573 35.9194 29.6162 35.0412 30.5766 33.9267L30.5783 33.925C30.5989 33.8994 30.6228 33.8788 30.6502 33.8617C30.6502 33.8172 30.6674 33.7829 30.693 33.7521H30.7444C30.7735 33.7504 30.8026 33.7504 30.8334 33.7487C30.8608 33.7145 30.8899 33.6802 30.9173 33.646H30.919C31.1758 33.331 31.4326 33.0126 31.6979 32.7027C32.3005 31.9974 32.761 31.1911 33.2951 30.4379C33.3003 30.431 33.3054 30.4225 33.3105 30.4156C33.3123 30.3848 33.3123 30.354 33.314 30.3232ZM21.2398 35.5548C21.2124 35.5822 21.1833 35.6079 21.1559 35.6335C21.1405 35.6318 21.1251 35.6318 21.108 35.6301C21.0909 35.6643 21.0823 35.702 21.0789 35.7431C21.0789 35.7688 21.0772 35.7962 21.0772 35.8218C21.0772 35.7962 21.0738 35.7705 21.0721 35.7448C21.0567 35.6969 21.0327 35.6575 21.0019 35.625C20.9967 35.625 20.9916 35.6233 20.9865 35.6233C20.9848 35.625 20.983 35.6267 20.9813 35.6284C19.9713 35.3528 19.7659 34.6663 20.4712 33.9233C20.4986 33.9199 20.5277 33.9165 20.5551 33.9148C20.6389 33.8617 20.7211 33.8103 20.805 33.7607C20.805 33.759 20.8016 33.7556 20.7999 33.7521H20.817C20.8512 33.7042 20.9009 33.6854 20.9574 33.6768H20.9848C21.0002 33.6768 21.0156 33.6785 21.031 33.6819C21.0464 33.6494 21.0567 33.6135 21.0618 33.5792C21.0806 33.6409 21.1114 33.6991 21.1559 33.7504H21.1577H21.2005C21.1953 33.759 21.1919 33.7658 21.1885 33.771C21.2313 33.7984 21.2741 33.824 21.3169 33.8514C21.3288 33.8497 21.3425 33.8497 21.3562 33.8497C21.411 33.8583 21.4607 33.8822 21.5018 33.9233V33.925C22.1317 34.5893 22.0342 35.1936 21.2398 35.5548ZM25.5265 33.9199C25.3433 34.4797 25.119 34.6783 24.6585 34.692C24.2203 34.704 23.9481 34.4797 23.729 33.925C23.7307 33.9233 23.7324 33.9216 23.7341 33.9199C23.7324 33.9079 23.7307 33.8959 23.729 33.884C23.7255 33.8412 23.7204 33.7984 23.7153 33.7538C23.7187 33.7521 23.7221 33.7504 23.7255 33.747C23.729 33.7453 23.7324 33.7436 23.7358 33.7402H23.7375C23.8214 33.1598 24.1638 32.8671 24.7287 32.8928C25.2012 32.915 25.4854 33.2214 25.5196 33.7436C25.523 33.7436 25.5248 33.7453 25.5265 33.7487C25.5316 33.7504 25.535 33.7521 25.5385 33.7556C25.5333 33.8018 25.5282 33.848 25.5248 33.8942C25.523 33.9011 25.523 33.9096 25.5213 33.9165C25.523 33.9165 25.5248 33.9182 25.5265 33.9199ZM25.5162 31.0148C24.9872 31.0096 24.6637 30.669 24.6637 30.1212C24.6637 29.5802 25.0283 29.2138 25.5658 29.2138C26.0486 29.2156 26.4595 29.623 26.4646 30.1058C26.4697 30.6484 26.0811 31.0199 25.5162 31.0148ZM29.2054 32.8859C28.7551 32.8876 28.2655 32.3929 28.2724 31.9444C28.2775 31.489 28.7723 31.0062 29.2208 31.0199C29.6402 31.0319 30.1264 31.5215 30.1349 31.9409C30.1452 32.3877 29.6573 32.8842 29.2054 32.8859Z" fill="#F19C79"/>
<path d="M36.885 27.1168C36.1352 27.377 35.3922 27.6629 34.5962 27.7622C34.5654 27.7861 34.5346 27.8101 34.5055 27.8324C34.2367 28.5839 33.9114 29.308 33.4869 29.9842C33.4852 30.0373 33.4817 30.0938 33.48 30.1486C33.48 30.1503 33.48 30.1503 33.48 30.152C33.4252 30.2085 33.3705 30.265 33.3157 30.3215C33.314 30.3523 33.314 30.3831 33.3123 30.4139V30.4499C33.3123 31.3606 33.314 32.2714 33.314 33.1821V33.23C33.3688 33.2009 33.4252 33.1718 33.48 33.1427C33.48 33.141 33.48 33.141 33.48 33.1393C33.4852 33.0897 33.4886 33.0383 33.4937 32.9887C33.8207 32.7336 34.0741 32.41 34.3343 32.0916C35.5874 30.5543 36.6043 28.8818 37.248 26.9969C37.2171 27.0072 37.1863 27.0175 37.1555 27.0261C37.0648 27.0569 36.974 27.086 36.885 27.1168Z" fill="#DD8765"/>
<path d="M21.1628 29.2858V29.2087C21.1302 29.2464 21.1045 29.2892 21.0891 29.3388C21.1114 29.3286 21.1319 29.32 21.1542 29.3097L21.1628 29.2858Z" fill="#D97F91"/>
<path d="M33.3174 37.3471C33.3465 37.3129 33.367 37.2598 33.4081 37.2478C33.4098 37.2341 33.4115 37.2187 33.4149 37.205C33.4184 37.1982 33.4235 37.1931 33.4269 37.1862C33.4457 37.1571 33.4646 37.128 33.4851 37.0989C33.5108 37.0595 33.5365 37.0202 33.5639 36.9808C34.0364 36.2755 34.5739 35.6164 35.0276 34.8957C35.2227 34.5858 35.3665 34.24 35.6165 33.9678C35.6302 33.9524 35.6438 33.9387 35.6575 33.9233C35.6712 33.9096 35.6849 33.8959 35.7003 33.8822C35.6866 33.8172 35.7277 33.7812 35.7894 33.7572C35.7859 33.7555 35.7842 33.7521 35.7825 33.7487C35.7808 33.747 35.7791 33.7453 35.7774 33.7436C35.7774 33.7418 35.7774 33.7384 35.7791 33.7367C35.851 33.3122 36.0872 32.9509 36.2601 32.5675C37.39 30.0732 38.0662 27.4831 38.1826 24.7303C38.222 23.8007 38.1313 22.8849 38.1432 21.9639C38.145 21.8355 38.1022 21.6985 38.1912 21.5941C38.1227 21.5547 38.0542 21.5307 37.984 21.5188C38.0525 21.4999 38.1193 21.4725 38.1843 21.4297C38.186 21.4297 38.186 21.4297 38.1878 21.4263C38.0097 21.2517 38.0371 20.9898 38.0063 20.7638C37.8488 19.675 37.6297 18.5982 37.2496 17.5659C36.6008 15.8044 35.4042 14.5136 33.7488 13.6405C33.6597 13.5943 33.5622 13.5652 33.4851 13.5001C33.4783 13.495 33.4714 13.4899 33.4663 13.483C33.4509 13.4693 33.4389 13.4539 33.4269 13.4368C33.4218 13.43 33.4184 13.4214 33.4166 13.4128C33.3824 13.4197 33.3499 13.4146 33.3174 13.3957C33.3139 13.394 33.3105 13.3923 33.3071 13.3906C33.2951 13.3837 33.2848 13.3752 33.2746 13.3649C33.266 13.3529 33.2574 13.3392 33.2523 13.3255C33.1342 13.3803 33.0143 13.3307 32.8996 13.293C30.9994 12.6647 29.1249 12.7811 27.3068 13.5738C25.3655 14.4212 22.9414 13.0516 22.7377 10.8638C22.6915 10.3725 22.5734 9.88116 22.7377 9.3984C22.7497 9.3556 22.7668 9.31451 22.7857 9.27172V9.0971C22.7497 9.05773 22.7223 9.01493 22.7035 8.97042H22.7018C22.6658 8.88825 22.6538 8.7958 22.6538 8.70336C22.6487 7.30301 22.635 5.90267 22.6607 4.50232C22.6624 4.44583 22.6778 4.39104 22.6949 4.33797C22.7223 4.27292 22.7531 4.23697 22.7839 4.21985C22.5032 3.96991 22.2772 3.68745 22.2669 3.28857C22.2669 3.29199 22.2652 3.29371 22.2652 3.29713C22.0444 3.31083 21.9143 3.13621 21.7431 3.04548C21.3921 2.8623 21.2877 2.91366 21.2775 3.30569C21.2672 3.68573 21.2775 4.06749 21.2723 4.44754C21.2706 4.60161 21.2809 4.75911 21.1867 4.89777C21.1782 4.90462 21.1679 4.91147 21.1593 4.9166C21.1559 4.91831 21.1542 4.92003 21.1508 4.92003C21.1011 4.94742 21.0515 4.94399 21.0001 4.89948C20.9898 6.29983 20.9796 7.69847 20.9693 9.09881V9.27L20.8888 13.1595C21.0001 13.2879 20.8666 13.5857 21.1388 13.6029V13.6559C21.1662 13.7929 21.1953 13.9316 21.2227 14.0685C21.3185 14.7293 21.7225 15.1967 22.1968 15.6178C22.9243 16.2649 23.8162 16.4686 24.7526 16.5713C25.5316 16.6552 25.9527 17.3691 25.6788 18.1086C25.6 18.3209 25.4956 18.5246 25.3912 18.7283C24.9906 19.5192 24.4873 20.2451 23.9652 20.959C23.8796 21.0754 23.7306 21.1952 23.7803 21.3527V21.3544C23.794 21.3921 23.8179 21.4315 23.8573 21.4743C23.883 21.4897 23.9104 21.5016 23.9378 21.5102C23.8265 21.5085 23.7152 21.5085 23.6159 21.5787C23.568 21.6146 23.5184 21.6489 23.4704 21.6848C23.378 21.6951 23.3198 21.755 23.265 21.8201C22.7497 22.4432 22.1385 22.9722 21.5822 23.5525C21.4384 23.7032 21.2244 23.7922 21.1679 24.0182C21.1696 24.0404 21.1662 24.0592 21.1593 24.0798C21.1011 24.1055 21.0429 24.1294 20.983 24.1551C20.9779 24.1774 20.9762 24.2013 20.9796 24.2253C19.9079 25.059 18.8089 25.855 17.6482 26.5638C17.6893 26.7726 17.5318 26.8771 17.4102 26.9832C16.2393 28.0069 14.981 28.9005 13.6115 29.6469C12.3549 30.33 11.0385 30.8538 9.6621 31.227C9.39333 31.3006 9.1297 31.4393 8.83354 31.3537V31.3554C8.83182 31.3554 8.83182 31.3537 8.83182 31.3537C8.81642 31.3674 8.7993 31.376 8.78218 31.3794C8.74794 31.3897 8.71199 31.3845 8.67262 31.3589L8.66234 31.3606L1.85234 31.6054H1.85063C1.35931 32.1874 0.946739 32.8722 0.60778 33.6545C0.621475 33.7487 0.659137 33.7983 0.707071 33.8223C0.638594 33.8377 0.571829 33.8651 0.5102 33.913C0.174665 34.5567 0.0359998 35.2586 0.0240164 35.9639C-0.00851004 37.8539 0.0154568 39.7455 4.95401e-05 41.6355C-0.00337429 41.9299 0.102764 41.9864 0.368111 41.983C1.24804 41.9676 2.12967 41.9744 3.01131 41.9727C3.09519 41.8597 3.17908 41.7468 3.26296 41.6338C3.33657 41.8392 3.11574 41.87 3.01131 41.9727C3.99908 41.9916 4.98857 42.0155 5.97806 42.0275C6.23313 42.0309 6.49677 42.007 6.34783 41.6252C6.35297 41.1407 6.34955 40.658 6.36153 40.1735C6.3855 39.3501 6.84258 38.6841 7.56501 38.4256C7.91766 38.299 8.29086 38.2955 8.66063 38.287C8.70172 38.239 8.72397 38.1877 8.73424 38.1346C8.75992 38.2236 8.81128 38.3024 8.91742 38.3606C9.29918 38.4838 9.65697 38.6499 9.99764 38.8639C11.5281 39.8174 13.1613 40.5536 14.8852 41.0791C16.8727 41.6834 18.9013 42.019 20.9847 41.959C21.0292 41.9111 21.0669 41.8563 21.0823 41.7947C21.0891 41.8546 21.1182 41.9094 21.1593 41.9573C21.6438 41.9864 22.1248 41.9402 22.6076 41.9025C25.9578 41.6321 29.0632 40.6135 31.9444 38.8913C32.3998 38.4051 32.8551 37.9189 33.3122 37.431C33.3139 37.4036 33.3156 37.3745 33.3174 37.3471ZM3.35198 41.6235C3.32459 41.6252 3.29549 41.6252 3.2681 41.6269C3.26638 41.6286 3.26467 41.6303 3.26296 41.6321C3.26296 41.6303 3.26296 41.6286 3.26125 41.6269H3.2681C3.29378 41.5944 3.32459 41.5704 3.36225 41.555C3.37595 41.5533 3.39135 41.5516 3.40505 41.5499C3.43586 41.5465 3.46497 41.543 3.49578 41.5379C3.44614 41.5636 3.3982 41.5927 3.35198 41.6235ZM4.20965 33.836V33.8V33.7521C4.22335 33.7692 4.23362 33.7846 4.24046 33.8C4.2456 33.812 4.24731 33.824 4.24731 33.836C4.24731 33.8634 4.23533 33.8908 4.20965 33.9199V33.836ZM4.29696 41.1151C4.27984 41.1202 4.26443 41.1236 4.24731 41.1288C4.25587 41.1202 4.26272 41.1099 4.26957 41.0997C4.30894 41.0808 4.3466 41.0842 4.38084 41.1099C4.35345 41.1116 4.32606 41.1133 4.29696 41.1151ZM7.97587 33.8V33.836V33.9199C7.9519 33.8908 7.9382 33.8634 7.9382 33.836C7.9382 33.824 7.94163 33.812 7.94676 33.8C7.9519 33.7846 7.96217 33.7692 7.97587 33.7538V33.8ZM8.71028 34.4951C8.69487 34.5036 8.67775 34.5105 8.66234 34.5191C8.67946 34.5019 8.69487 34.478 8.71028 34.4574V34.4951ZM32.8004 33.747C32.773 33.7487 32.7456 33.7521 32.7182 33.7538C32.7062 33.7761 32.6942 33.7966 32.6822 33.8189C32.6634 33.8514 32.6446 33.8856 32.6257 33.9199C32.5984 33.9216 32.571 33.9233 32.5453 33.9267C31.7492 34.7741 30.7683 35.3801 29.7857 35.9742C28.5171 36.7411 27.1579 37.3163 25.7284 37.7152C25.6069 37.7477 25.4785 37.7563 25.3518 37.7768C23.9789 38.15 22.5871 38.3965 21.1576 38.3846C21.1542 38.3794 21.1508 38.376 21.1456 38.3709C21.1439 38.3674 21.1422 38.3657 21.1388 38.3623H21.0035C21.0018 38.3657 21.0001 38.3674 20.9967 38.3709C20.995 38.3674 20.9933 38.364 20.9898 38.3623C20.9881 38.3623 20.9881 38.3623 20.9864 38.3623V38.3846C18.7181 38.3691 16.532 37.9446 14.4315 37.0852C14.1696 36.9791 13.9128 36.8558 13.6474 36.7548C12.3412 36.2584 11.8157 35.2637 11.8225 33.9233L11.8311 33.9147C11.8362 33.9113 11.8414 33.9062 11.8465 33.9028C11.8397 33.8531 11.8345 33.8018 11.8277 33.7521C11.8294 33.7504 11.8294 33.7504 11.8311 33.7487C11.8379 33.7436 11.8448 33.7367 11.8516 33.7316C12.016 32.7318 12.6682 32.1977 13.6012 31.958C14.5873 31.7047 15.5836 31.4907 16.5714 31.239C17.8536 30.9138 19.0913 30.4652 20.2469 29.8061C20.4797 29.6726 20.7313 29.5716 20.9744 29.4552C20.9779 29.4295 20.983 29.4056 20.9898 29.3816C21.0224 29.3679 21.0532 29.3542 21.0857 29.3405V29.3388C21.0874 29.3388 21.0874 29.3388 21.0891 29.3388C21.1045 29.2891 21.1302 29.2463 21.1628 29.2087C21.1833 29.183 21.2073 29.1608 21.2347 29.1402V29.1385C21.2415 29.1334 21.2501 29.1282 21.2586 29.1214C22.445 28.2688 23.5903 27.3701 24.5643 26.271C24.6311 26.1957 24.7184 26.1461 24.8194 26.1255C24.8263 26.1255 24.8314 26.1238 24.8382 26.1238C25.9424 24.8604 26.8497 23.4669 27.5927 21.9639C27.5242 21.8902 27.579 21.7944 27.6458 21.6951C27.6612 21.6728 27.6783 21.6523 27.6971 21.6335C27.7074 21.6232 27.7177 21.6146 27.7279 21.6061C27.7108 21.5718 27.692 21.5513 27.6663 21.5342C27.7194 21.5359 27.7725 21.5342 27.8272 21.5325C27.8872 21.4965 27.9505 21.464 28.0104 21.428C28.6695 21.0411 29.4039 21.0069 30.14 20.9812C30.1503 20.9709 30.1623 20.9624 30.1743 20.9573C30.1709 20.9641 30.1691 20.9727 30.1674 20.9812H33.5776H34.9437C35.7123 20.9898 36.4878 20.959 37.1657 21.4229C37.212 21.4588 37.2599 21.4948 37.3061 21.529C37.3677 21.5307 37.4294 21.5359 37.4927 21.541C37.4842 21.541 37.4739 21.5427 37.4653 21.5444C37.4516 21.5633 37.4396 21.5821 37.4311 21.5992C37.426 21.6078 37.4225 21.6163 37.4191 21.6249C38.1107 22.3918 38.3025 23.2649 38.0491 24.2801C37.818 25.1994 37.6759 26.1392 37.2462 26.9986C36.6025 28.8834 35.5856 30.556 34.3325 32.0933C34.0723 32.4117 33.8189 32.7352 33.492 32.9903C33.4868 33.04 33.4834 33.0913 33.4783 33.141C33.4783 33.1427 33.4783 33.1427 33.4783 33.1444C33.4235 33.1735 33.367 33.2026 33.3122 33.2317C33.3088 33.2591 33.3054 33.2865 33.3054 33.3156C33.4047 33.7727 33.1205 33.7795 32.8004 33.747Z" fill="#D9596B"/>
<path d="M27.7554 21.6866C27.7365 21.6643 27.7177 21.6472 27.6972 21.6335C27.6783 21.6523 27.6612 21.6729 27.6458 21.6951C27.5791 21.7944 27.5243 21.8903 27.5927 21.9639C27.5962 21.9553 27.6013 21.9485 27.6047 21.9399C27.6544 21.856 27.7057 21.7704 27.7554 21.6866Z" fill="#D9596B"/>
<path d="M24.751 26.2249C24.7801 26.1907 24.8092 26.1581 24.8383 26.1239C24.8314 26.1239 24.8263 26.1256 24.8194 26.1256C24.7184 26.1462 24.6311 26.1958 24.5644 26.2711C23.5903 27.3702 22.445 28.2689 21.2586 29.1215C21.2501 29.1283 21.2415 29.1334 21.2347 29.1386V29.1403C21.2073 29.1608 21.1833 29.1831 21.1628 29.2088V29.2858C22.4912 28.4213 23.6879 27.3993 24.751 26.2249Z" fill="#D9596B"/>
<path d="M23.8573 21.4743C23.818 21.4315 23.794 21.3922 23.7803 21.3545C23.7426 21.3802 23.705 21.4093 23.669 21.4367C23.6519 21.4829 23.6331 21.5308 23.616 21.5788C23.7153 21.5086 23.8265 21.5086 23.9378 21.5103C23.9104 21.5017 23.883 21.4897 23.8573 21.4743Z" fill="#D98092"/>
<path d="M27.9077 21.5308L28.0104 21.428C27.9505 21.464 27.8872 21.4965 27.8273 21.5325C27.7725 21.5342 27.7194 21.5359 27.6664 21.5342C27.692 21.5513 27.7109 21.5718 27.728 21.6061C27.7177 21.6146 27.7074 21.6232 27.6972 21.6335C27.7177 21.6472 27.7365 21.6643 27.7554 21.6865C27.8067 21.6352 27.8581 21.5838 27.9077 21.5308Z" fill="#D98092"/>
<path d="M25.2645 26.2266C26.8754 26.1804 28.4093 26.509 29.8302 27.2623C30.479 27.6064 31.1278 27.906 31.8571 28.0104C32.1995 28.0087 32.5419 28.007 32.8843 28.0053C32.8997 27.9659 32.9185 27.894 32.9305 27.894C33.3876 27.9248 33.3139 27.6064 33.3139 27.3273C33.3105 25.7113 33.3122 24.0935 33.3122 22.4775C33.3122 22.2943 33.3328 22.1077 33.2284 21.9417C33.2284 21.9417 33.2284 21.9417 33.2266 21.9399H27.6047C27.6013 21.9485 27.5961 21.9553 27.5927 21.9639C26.8498 23.467 25.9424 24.8605 24.8383 26.1239C24.8092 26.1581 24.78 26.1906 24.7509 26.2249C24.9221 26.2249 25.0933 26.23 25.2645 26.2266Z" fill="#EDEBF1"/>
<path d="M33.0469 28.007C33.0486 28.0053 33.0486 28.0053 33.0503 28.007C33.052 28.0053 33.052 28.0053 33.0538 28.007C33.0777 28.0053 33.1034 28.0053 33.1274 28.007C33.1291 28.0053 33.1291 28.0053 33.1308 28.007C33.1325 28.0053 33.1325 28.0053 33.1342 28.007C33.1359 28.0053 33.1359 28.0053 33.1376 28.007C33.2523 28.007 33.3653 28.007 33.48 28.0087C33.48 28.0087 33.48 28.0087 33.48 28.0104V28.0087C33.8139 27.9077 34.1579 27.8666 34.5038 27.8341C34.5346 27.8101 34.5654 27.7861 34.5945 27.7639C34.8342 26.9935 35.0772 26.2249 35.2433 25.434C35.3717 24.8211 35.4676 24.1997 35.2844 23.5868C34.9814 22.5751 34.2316 22.0906 33.2267 21.9399V21.9417C33.3311 22.1077 33.3105 22.2943 33.3105 22.4775C33.3105 24.0935 33.3088 25.7113 33.3123 27.3273C33.3123 27.6064 33.3876 27.9248 32.9288 27.894C32.9151 27.8923 32.898 27.9659 32.8826 28.0053H32.8843C32.9373 28.0053 32.9887 28.0053 33.0418 28.007C33.0452 28.0053 33.0452 28.0053 33.0469 28.007Z" fill="#EDEBF1"/>
<path d="M11.8996 33.6905C11.9527 33.6237 11.9955 33.5501 12.0229 33.4662C12.2762 32.7096 12.8309 32.2901 13.5756 32.0813C14.0412 31.9495 14.5068 31.8211 14.981 31.7184C16.4413 31.4051 17.8947 31.0627 19.2608 30.4344C19.8549 30.1588 20.4575 29.8952 20.9745 29.4843V29.4552C20.7314 29.5716 20.4797 29.6726 20.2469 29.8061C19.0914 30.4652 17.8536 30.9138 16.5714 31.239C15.5836 31.4907 14.5873 31.7047 13.6012 31.958C12.6682 32.1977 12.016 32.7318 11.8517 33.7316C11.8482 33.7384 11.8482 33.747 11.8465 33.7538C11.8654 33.7333 11.8825 33.7127 11.8996 33.6905Z" fill="#F19C79"/>
<path d="M20.9848 33.6768H20.9574C20.9009 33.6854 20.8512 33.7042 20.817 33.7521C20.8735 33.7504 20.9283 33.7504 20.9848 33.7504V33.6768Z" fill="#F19C79"/>
<path d="M20.9916 29.4707C21.0327 29.5118 21.0532 29.5528 21.0635 29.6025C21.0635 29.5665 21.0652 29.5306 21.0669 29.4946C21.0703 29.4587 21.0737 29.4227 21.0789 29.3885C21.108 29.3714 21.1285 29.332 21.1542 29.3098C21.132 29.32 21.1114 29.3286 21.0892 29.3389C21.0874 29.3389 21.0874 29.3389 21.0857 29.3389V29.3406C21.0532 29.3543 21.0224 29.368 20.9899 29.3817C20.983 29.4056 20.9779 29.4296 20.9745 29.4553V29.4844C20.9796 29.4792 20.9864 29.4758 20.9916 29.4707Z" fill="#EAAB96"/>
<path d="M21.1576 33.7522V33.7505H21.1559C21.1114 33.6991 21.0806 33.6409 21.0618 33.5793C21.0566 33.6135 21.0464 33.6495 21.031 33.682C21.0156 33.6786 21.0001 33.6769 20.9847 33.6769V33.7505C21.0429 33.7505 21.1012 33.7522 21.1576 33.7522Z" fill="#EAAB96"/>
<path d="M25.5385 33.7556L25.5248 33.7505L25.5196 33.7487V33.7436C25.4854 33.2215 25.2012 32.915 24.7287 32.8928C24.1638 32.8671 23.8214 33.1598 23.7375 33.7402H23.7358V33.7453L23.7273 33.7487L23.7153 33.7539C23.7204 33.7984 23.7255 33.8412 23.729 33.884C23.7307 33.896 23.7324 33.908 23.7341 33.9199V33.9268H23.782C24.3521 33.9251 24.9239 33.9234 25.494 33.9217H25.5213V33.9165C25.5231 33.9097 25.5231 33.9011 25.5248 33.8943C25.5282 33.848 25.5333 33.8018 25.5385 33.7556Z" fill="#CB7452"/>
<path d="M25.5658 29.2139C25.0283 29.2139 24.6637 29.5802 24.6637 30.1212C24.6637 30.669 24.9872 31.0097 25.5162 31.0148C26.0811 31.0199 26.4697 30.6485 26.4646 30.1058C26.4595 29.623 26.0486 29.2156 25.5658 29.2139Z" fill="#CB7452"/>
<path d="M29.2208 31.0199C28.7722 31.0062 28.2775 31.489 28.2723 31.9444C28.2655 32.3929 28.7551 32.8876 29.2053 32.8859C29.6573 32.8842 30.1452 32.3878 30.1349 31.9409C30.1264 31.5215 29.6402 31.0319 29.2208 31.0199Z" fill="#CB7452"/>
<path d="M33.48 28.0087C33.4817 28.6677 33.4834 29.3268 33.4851 29.9842V29.9859C33.9114 29.3097 34.235 28.5839 34.5037 27.834C34.1596 27.8666 33.8138 27.9077 33.48 28.0087Z" fill="#F09C79"/>
<path d="M8.6726 31.3589L8.78216 31.3555L8.83181 31.3538H8.83352C10.0319 31.008 11.2319 30.6776 12.3703 30.1486C13.7912 29.4895 15.1248 28.6883 16.354 27.7211C16.8076 27.3633 17.2852 27.0244 17.6482 26.5639C17.4924 26.5467 17.3845 26.6529 17.263 26.7196C14.8269 28.0429 12.2351 28.8202 9.49774 29.0924V29.0906L8.83694 29.1129L8.66061 29.118C8.66061 29.118 8.08028 29.1591 7.28423 29.2259C6.89392 29.2567 6.45224 29.2961 6.0003 29.3372C5.79316 29.3577 5.5843 29.3782 5.37716 29.3988C4.7797 29.4587 4.12917 29.7908 3.55055 30.1794C2.70657 30.7461 2.01838 31.4343 1.87629 31.5781C1.86773 31.5883 1.86089 31.5952 1.85575 31.6003C1.85404 31.6003 1.85404 31.602 1.85233 31.6054L8.66233 31.3606L8.6726 31.3589Z" fill="#F06977"/>
</g>
<defs>
<clipPath id="clip0_158_9177">
<rect width="41.9762" height="42.0275" fill="white"/>
</clipPath>
</defs>
</svg>
