<svg width="32" height="39" viewBox="0 0 32 39" fill="none" xmlns="http://www.w3.org/2000/svg">
<g clip-path="url(#clip0_158_8989)">
<path d="M5.49929 8.18793C5.29515 7.87868 5.07844 7.47745 4.87744 6.96838C4.99365 7.42353 5.19308 7.83428 5.49929 8.18793Z" fill="#D9596B"/>
<path d="M4.36237 5.1272C4.32311 4.91945 4.29013 4.70218 4.25873 4.47382C4.28385 4.69425 4.3184 4.91152 4.36237 5.1272Z" fill="#D9596B"/>
<path d="M19.0826 37.2508C18.6838 36.7735 18.4309 36.2454 18.4325 35.6078C18.4341 34.9005 18.4765 34.1901 18.2033 33.5097C17.8468 32.6264 17.2171 32.0142 16.3848 31.5987C16.3628 31.5876 16.3393 31.5797 16.3142 31.5749C16.3142 31.5749 16.2199 31.5369 16.0786 31.4909C16.0645 31.4861 16.0519 31.4814 16.0378 31.4782C16.0189 31.4719 15.9985 31.4655 15.9781 31.4608C15.9467 31.4512 15.9137 31.4417 15.8807 31.4322C15.8132 31.4132 15.741 31.3973 15.6672 31.3815C15.5447 31.3561 15.4191 31.3402 15.3013 31.3386C15.2997 31.3355 15.2966 31.3355 15.295 31.3323V31.3307H15.2934C15.2887 31.326 15.284 31.3244 15.2809 31.3196C12.9223 31.3196 10.5621 31.318 8.20029 31.318H7.20628C7.07437 31.3164 6.94403 31.3164 6.81213 31.3148C6.60327 31.2911 6.39913 31.2546 6.1997 31.2054C5.8291 31.115 5.47421 30.9802 5.13659 30.782C5.03452 30.7217 4.93559 30.6615 4.86022 30.5758C4.82724 30.5394 4.79897 30.4965 4.77542 30.4474L4.76914 30.4426C4.75029 30.4331 4.72988 30.4236 4.71103 30.4125C4.67963 30.3966 4.64979 30.3808 4.61839 30.3649C4.61524 30.3395 4.61367 30.3142 4.61053 30.2888C3.35585 29.3912 2.62879 28.1431 2.53457 26.6238C2.46704 25.528 2.85648 24.5114 3.75942 23.774C4.02637 23.5567 4.30275 23.3696 4.6121 23.2269C4.61524 23.2015 4.61681 23.1761 4.61996 23.1507C4.64508 23.1507 4.67021 23.1507 4.6969 23.1491C4.72203 23.1491 4.74715 23.1476 4.77228 23.1476L4.77542 23.146H4.77699L4.77856 23.1444C5.20883 22.9921 5.64538 22.9017 6.11019 22.9049C9.37803 22.916 12.6459 22.9113 15.9121 22.9097H15.9279H15.9357H16.0723H16.077C16.077 22.9128 16.0786 22.916 16.0786 22.9192C16.0817 22.916 16.0849 22.9128 16.088 22.9097C19.5349 22.9097 22.9833 22.9097 26.4302 22.9128C26.6783 22.9144 26.9154 22.8875 27.1415 22.7923C27.1698 22.7796 27.1981 22.7669 27.2263 22.7527C27.2279 22.7273 27.231 22.7019 27.2342 22.6766C27.2562 22.6766 27.2766 22.675 27.2986 22.675C27.3268 22.675 27.3551 22.675 27.3818 22.6734C27.3834 22.648 27.3849 22.621 27.3865 22.5941V22.5148C27.3865 22.1992 27.3865 21.882 27.3881 21.5664V21.4951C27.3849 21.4681 27.3834 21.4412 27.3818 21.4142C27.3551 21.4142 27.3268 21.4142 27.3001 21.4126C27.2782 21.4142 27.2562 21.4126 27.2342 21.4126C27.231 21.3872 27.2279 21.3619 27.2263 21.3365C27.2232 21.3301 27.2185 21.3254 27.2153 21.3206C27.1918 21.3079 27.1682 21.2968 27.1431 21.2873C26.9295 21.1969 26.7066 21.1636 26.4694 21.1636C23.01 21.1684 19.549 21.1684 16.088 21.1684C16.0849 21.1652 16.0833 21.1636 16.0802 21.1604C16.0786 21.162 16.0755 21.1636 16.0739 21.1652C16.0739 21.1652 16.0739 21.1636 16.0723 21.1636V21.1684C16.0708 21.1684 16.0708 21.1684 16.0692 21.1684H15.9404H15.9279H15.9121C13.0557 21.1668 10.1993 21.1636 7.3429 21.1684C6.42426 21.17 5.59042 20.9051 4.82567 20.4087C4.80839 20.3992 4.79269 20.3881 4.77542 20.377L4.77071 20.3739C4.74872 20.3628 4.72517 20.3517 4.70318 20.339C4.67492 20.3247 4.64665 20.3088 4.61839 20.2946C4.61524 20.2692 4.6121 20.2438 4.60896 20.2184C4.50061 20.2137 4.42367 20.1598 4.3797 20.0598C4.353 20.0583 4.32788 20.0567 4.30118 20.0535C4.28705 20.0265 4.27448 19.998 4.25878 19.971C4.23209 19.9679 4.20539 19.9695 4.17712 19.9726C4.13473 19.9726 4.09076 19.9742 4.04836 19.9726C4.09076 19.9473 4.12059 19.9203 4.13944 19.8949C3.4956 19.2098 2.94285 18.466 2.72772 17.5288C2.44192 16.2918 2.42464 15.0786 3.18939 13.9764C3.54585 13.4626 4.04208 13.1406 4.6121 12.9202L4.61996 12.9218H4.65293C4.69219 12.9218 4.73145 12.9218 4.76914 12.9202C4.77071 12.8948 4.77228 12.8679 4.77385 12.8409C4.80211 12.814 4.83195 12.7902 4.86336 12.7711C5.05651 12.6411 5.28734 12.6379 5.5119 12.6379C8.82999 12.6316 12.1481 12.6332 15.4662 12.6363C15.5965 12.6363 15.7269 12.6395 15.8525 12.6887C15.876 12.6982 15.8964 12.7109 15.9153 12.7283C15.9184 12.7299 15.92 12.7315 15.9231 12.7347C15.9326 12.7426 15.942 12.7521 15.9514 12.7632H16.0723L16.0833 12.7616C16.0974 12.7489 16.1116 12.7378 16.1273 12.7283C16.3189 12.5951 16.545 12.6363 16.7601 12.6363C19.3574 12.6332 21.9548 12.6268 24.5505 12.6395C25.2838 12.6427 26.0093 12.5634 26.738 12.5285C26.8887 12.5222 27.0395 12.4825 27.1745 12.565C27.1776 12.5586 27.1824 12.5523 27.1855 12.5459C27.1981 12.5317 27.2122 12.519 27.2263 12.5126C27.0175 12.094 27.0976 11.661 27.1792 11.2281C27.1902 11.217 27.2012 11.2059 27.2122 11.1948C27.2075 11.19 27.2028 11.1853 27.1996 11.1789C26.8447 11.2392 26.4946 11.1361 26.1381 11.1377C23.021 11.1488 19.9039 11.144 16.7868 11.1424C16.567 11.1424 16.3424 11.1726 16.132 11.0711C16.1179 11.0584 16.1037 11.0441 16.0896 11.0314V11.0298C16.088 11.0283 16.0865 11.0283 16.0849 11.0267C16.0833 11.0235 16.0802 11.0219 16.0786 11.0203C16.0441 11.0441 16.0017 11.0536 15.9514 11.0457C15.942 11.0409 15.9341 11.0346 15.9263 11.0298V11.0283C15.9247 11.0283 15.9231 11.0283 15.9231 11.0267C15.92 11.0251 15.9184 11.0235 15.9169 11.0203H15.9153C14.6025 11.0647 13.307 10.9886 12.0743 10.47C11.0834 10.0529 10.1428 9.55497 9.41101 8.73824C9.37332 8.73507 9.33564 8.72555 9.29952 8.71128C9.26968 8.69701 9.24299 8.67956 9.22257 8.66053C9.21315 8.6526 9.2053 8.64467 9.19902 8.63516C9.18174 8.61613 9.17075 8.59393 9.16604 8.56697C9.15348 8.56379 9.14092 8.55904 9.12835 8.55586C9.1048 8.54001 9.08124 8.52256 9.05926 8.50353C9.0467 8.49719 9.0357 8.48767 9.02314 8.47657C8.41072 8.00874 8.02285 7.35377 7.65696 6.68928C6.93304 5.36983 6.58443 3.95522 6.62526 2.44229C6.64096 1.85076 6.62526 1.86186 6.04581 1.84441C5.63124 1.83173 5.21197 1.92371 4.80368 1.77939C4.79426 1.77622 4.78327 1.77146 4.77385 1.76829C4.77071 1.7667 4.76914 1.76671 4.766 1.76512C4.76128 1.76036 4.75657 1.7556 4.75343 1.75085C4.7236 1.77146 4.69376 1.77781 4.66235 1.76829C4.64665 1.76353 4.63095 1.75402 4.61524 1.73975V1.73816C4.49904 1.73975 4.38127 1.74133 4.26506 1.74292L6.32847 9.10775C7.71506 10.6413 9.45498 11.5453 11.5325 11.8672C11.3928 11.8894 11.2561 11.8862 11.1211 11.8894C9.01372 11.9338 6.90792 11.7657 4.80211 11.9037C4.79269 11.8941 4.78484 11.883 4.77542 11.8735C4.72046 11.8751 4.66707 11.8751 4.61367 11.8751C4.50375 11.9005 4.3797 11.8688 4.28705 11.9608C3.79868 11.9845 3.33229 12.1082 2.89888 12.3271C1.20136 13.1819 0.259168 14.5743 0.056596 16.4742C-0.0768815 17.7207 0.169659 18.8784 0.895149 19.9139C0.973665 19.9568 1.05532 19.9932 1.14326 20.0028C1.10714 20.0281 1.08045 20.0725 1.06945 20.1502C1.51386 20.7957 2.12157 21.2318 2.82194 21.5585C3.29617 21.7805 3.81281 21.8598 4.29804 22.0422C4.34829 22.0533 4.39383 22.0581 4.43466 22.0581C4.39226 22.066 4.34358 22.0834 4.29019 22.112C3.17212 22.2103 2.2472 22.7384 1.48088 23.5202C0.278012 24.7477 -0.197796 26.2543 0.0738696 27.9607C0.301566 29.3928 1.04119 30.5187 2.24406 31.3244C2.35555 31.3957 2.46704 31.4687 2.57854 31.54C3.08889 31.8382 3.62751 32.0523 4.21952 32.111C4.39226 32.2347 4.58541 32.1839 4.77385 32.1744C7.07437 32.1792 9.37489 32.1823 11.6754 32.1903C12.1057 32.1903 12.5328 32.1982 12.9647 32.2489C14.4125 32.417 15.5997 33.543 15.854 35.0369C15.9169 35.0179 15.9561 34.9893 15.9781 34.9544C15.9922 36.1676 16.0095 37.3808 15.9954 38.594C15.9922 38.8906 16.0959 38.9762 16.3832 38.9731C17.8091 38.9604 19.235 38.9667 20.6608 38.9667C20.7503 38.9667 20.8445 38.9889 20.9246 38.9239C20.9278 38.6638 20.9309 38.4069 20.9325 38.1468C20.9293 38.1421 20.9246 38.1389 20.9215 38.1341C20.2164 38.0374 19.5679 37.8281 19.0826 37.2508Z" fill="#D9596B"/>
<path d="M16.3141 31.5749C16.3392 31.5797 16.3628 31.5876 16.3848 31.5987C17.217 32.0142 17.8467 32.6264 18.2032 33.5097C18.4764 34.19 18.434 34.9005 18.4325 35.6078C18.4309 36.2453 18.6837 36.7734 19.0826 37.2508C19.5662 37.8281 20.2164 38.0374 20.9214 38.1341C20.8209 38.0025 20.6702 37.9835 20.521 37.9549C19.3637 37.7361 18.5455 36.7433 18.5377 35.5523C18.5377 35.5491 18.5377 35.5444 18.5377 35.5412C18.5361 35.3271 18.5424 35.113 18.5408 34.8989C18.5408 34.8276 18.5377 34.7546 18.5345 34.6832C18.4592 33.2528 17.7651 32.2251 16.5182 31.5702C16.4491 31.5337 16.3753 31.5004 16.3047 31.4877H16.3031C16.2639 31.4798 16.2262 31.4798 16.19 31.4877H16.0786C16.0786 31.4893 16.0786 31.4893 16.0786 31.4909C16.2199 31.5369 16.3141 31.5749 16.3141 31.5749Z" fill="#F06977"/>
<path d="M27.3818 17.8348H27.3865L27.3818 17.8301V17.8348Z" fill="#F06977"/>
<path d="M16.0786 31.4908C16.0786 31.4893 16.0786 31.4893 16.0786 31.4877C16.077 31.4861 16.077 31.4861 16.0755 31.4845C16.0708 31.4813 16.066 31.4797 16.0613 31.4766C16.0535 31.4766 16.0456 31.4766 16.0378 31.4766C16.0519 31.4813 16.066 31.4861 16.0786 31.4908Z" fill="#D97486"/>
<path d="M20.6608 38.9667C19.2349 38.9667 17.8091 38.9603 16.3832 38.973C16.0958 38.9762 15.9922 38.8906 15.9953 38.594C16.0095 37.3808 15.9922 36.1676 15.9781 34.9544C15.9561 34.9893 15.9168 35.0178 15.854 35.0369C15.876 35.3636 15.9121 35.6903 15.9152 36.0169C15.9247 36.8733 15.9294 37.7313 15.9121 38.5877C15.9058 38.8811 15.9655 39.0032 16.2921 39C17.74 38.9825 19.1894 38.9921 20.6388 38.9889C20.7346 38.9889 20.8508 39.0365 20.9246 38.9239C20.8445 38.9889 20.7503 38.9667 20.6608 38.9667Z" fill="#D97486"/>
<path d="M27.4242 26.3019C27.4101 26.294 27.3975 26.286 27.3865 26.2749C27.3802 26.2717 27.3755 26.267 27.3708 26.2622C27.363 26.2559 27.3567 26.248 27.352 26.24C27.3159 26.24 27.2782 26.2416 27.2421 26.2416C27.2358 26.2448 27.2311 26.2464 27.2248 26.2495V26.2511H27.2232C27.2185 26.248 27.2138 26.2448 27.2106 26.2416H16.0818L16.0739 26.24H16.0692C16.0347 26.2067 16.0001 26.1988 15.9656 26.2147C15.964 26.2147 15.964 26.2147 15.964 26.2147C15.9514 26.221 15.9389 26.2289 15.9279 26.24L15.9153 26.2416V26.2749C15.9028 26.2876 15.887 26.2987 15.8698 26.3066C15.6562 26.3923 15.4317 26.3669 15.2102 26.3685C12.6098 26.3701 10.0093 26.3685 7.40887 26.3701C6.80744 26.3701 6.20758 26.359 5.60771 26.4319C5.35018 26.4636 5.07223 26.5112 4.82726 26.359C4.81156 26.3828 4.79428 26.4018 4.7723 26.4161C4.77073 26.4161 4.76759 26.4177 4.76602 26.4192C4.74089 26.4319 4.70949 26.4383 4.67337 26.4335C4.65924 26.424 4.6451 26.4161 4.63097 26.4097H4.61841L4.61684 26.4113C4.57287 26.4541 4.51477 26.4811 4.45038 26.5001C4.2007 26.5731 3.97301 26.6793 3.97144 26.9886C3.97144 27.2962 4.10177 27.5484 4.35459 27.726C4.43468 27.7831 4.53675 27.8085 4.61213 27.8751C4.61527 27.8767 4.61841 27.8782 4.61998 27.8814C4.64039 27.8989 4.65767 27.9211 4.67337 27.9464C4.67494 27.9512 4.67808 27.956 4.67808 27.9607C4.71106 27.956 4.74089 27.9639 4.76916 27.9845C4.77073 27.9829 4.77387 27.9813 4.77544 27.9797C4.77701 27.9782 4.77701 27.9782 4.77701 27.9782C4.79428 27.9623 4.80999 27.948 4.82569 27.9338C5.00942 27.8386 5.20885 27.8592 5.40357 27.8592C8.69497 27.8576 11.9864 27.8576 15.2762 27.8608C15.405 27.8608 15.5369 27.8465 15.6625 27.8687L15.518 27.9004L15.9137 27.9845C15.9169 27.9845 16.1744 27.9988 16.4414 28.0971C16.3676 28.059 16.2875 28.0178 16.2105 27.9766C16.0771 27.9068 15.9609 27.8449 15.92 27.8243C15.9106 27.8196 15.9043 27.8164 15.9043 27.8164C15.1631 27.439 14.3607 27.2724 13.5504 27.1012H15.9137H16.0802C16.98 27.1075 17.8798 27.117 18.7796 27.117C21.5842 27.1123 24.3903 27.2487 27.1949 27.0996C27.2028 27.1091 27.2122 27.1202 27.2216 27.1297C27.275 27.1281 27.3284 27.1265 27.3818 27.1265C27.4399 27.0996 27.4996 27.0742 27.5577 27.0472C28.2753 27.0044 28.9254 26.7697 29.5002 26.332C29.4986 26.3304 29.497 26.3288 29.497 26.3273C28.8077 26.3606 28.1152 26.4129 27.4242 26.3019Z" fill="#D9596B"/>
<path d="M27.4242 26.3018C28.1151 26.4129 28.8076 26.3605 29.497 26.3272C29.3981 26.2146 29.2646 26.2558 29.1452 26.2543C28.5595 26.2511 27.9722 26.2527 27.3865 26.2543V26.2749C27.3975 26.286 27.41 26.2939 27.4242 26.3018Z" fill="#D95A6C"/>
<path d="M27.7477 17.7191C27.6173 17.7191 27.4854 17.7302 27.3818 17.8222V17.8301L27.3865 17.8349C27.7885 17.8349 28.1905 17.8507 28.5925 17.8317C28.8956 17.8174 29.2096 17.9189 29.5017 17.7603C28.9191 17.6747 28.3334 17.7223 27.7477 17.7191Z" fill="#DA5A6C"/>
<path d="M27.7288 16.2077C28.3161 16.2062 28.905 16.2506 29.4907 16.1697C29.3902 16.0666 29.2568 16.1062 29.1358 16.1062C28.5533 16.1015 27.9707 16.1047 27.3865 16.1047H27.3834V16.1078C27.4823 16.1919 27.6063 16.2077 27.7288 16.2077Z" fill="#DA5A6C"/>
<path d="M4.22577 1.7429V1.72863C4.2242 1.26079 4.22577 0.794541 4.22263 0.326706C4.22106 0.177633 4.25247 0.0697935 4.43462 0.0793088C4.60265 0.0872382 4.61364 0.19825 4.61364 0.323535V1.73814V1.73973H4.63877H4.64034C4.67488 1.73973 4.70629 1.73814 4.74084 1.73814H4.7691L4.77224 1.74131C5.28103 1.74131 5.79138 1.76034 6.2986 1.7318C6.63936 1.71277 6.76027 1.81109 6.73986 2.1695C6.6739 3.26852 6.82152 4.34216 7.19211 5.38408C7.57998 6.47358 8.13588 7.45842 8.93988 8.29259C8.99484 8.34809 9.03724 8.4147 9.08592 8.47655C9.11262 8.47814 9.14088 8.47972 9.16758 8.48131C9.18485 8.51461 9.20056 8.54633 9.21626 8.57805C9.22725 8.59708 9.23667 8.61611 9.2461 8.63514C9.27122 8.63831 9.29792 8.64148 9.32304 8.64148C11.3959 8.64148 13.4703 8.64466 15.5431 8.63197C15.8258 8.63038 15.9372 8.69858 15.9262 9.00465C15.9043 9.67548 15.9168 10.3479 15.9153 11.0203L15.9215 11.0187C15.9718 11.0187 16.022 11.0171 16.0739 11.0171C16.0739 10.3463 16.0911 9.67548 16.0707 9.00465C16.0613 8.70016 16.1697 8.63038 16.4523 8.63197C18.0807 8.64307 19.7092 8.63673 21.3376 8.63514C21.3125 8.58439 21.2858 8.53364 21.2606 8.48289C21.2606 8.48289 21.2606 8.48289 21.2591 8.48289C19.6652 8.48131 18.0697 8.47338 16.4759 8.48607C16.1791 8.48765 16.0472 8.42422 16.0707 8.09277C16.099 7.67251 16.0786 7.24908 16.0801 6.82723H15.9137L15.9231 6.80503C14.8129 6.80662 13.7027 6.81931 12.5925 6.8082C12.3098 6.80503 12.0177 6.75904 11.7461 6.68133C10.1804 6.23094 9.25081 4.97175 9.24452 3.32244C9.23981 2.24087 9.23039 1.15929 9.22411 0.0777229C9.21312 0.0713794 9.20213 0.0650358 9.19113 0.0586923C9.15816 0.0380759 9.12675 0.0142876 9.09377 0.0142876C7.52502 0.00794411 5.95627 0.0111159 4.38751 1.47032e-05C4.1504 -0.00157118 4.14725 0.125299 4.14883 0.299746C4.1504 0.780268 4.14411 1.26238 4.14725 1.7429H4.22577Z" fill="#F06977"/>
<path d="M1.14325 20.0027C1.05531 19.9932 0.973658 19.9568 0.895142 19.9139C0.953244 19.9916 1.01135 20.0709 1.06945 20.1502C1.08044 20.0725 1.10714 20.0281 1.14325 20.0027Z" fill="#DA7386"/>
<path d="M4.04675 19.9726C4.08915 19.9742 4.13312 19.9726 4.17552 19.9726C4.20379 19.9694 4.23048 19.9678 4.25718 19.971C4.24618 19.9472 4.23362 19.9234 4.22106 19.8997C4.19907 19.8981 4.17709 19.8965 4.15668 19.8965C4.15196 19.8997 4.14568 19.9012 4.1394 19.9044C4.14097 19.9012 4.14254 19.8981 4.14411 19.8949C4.14254 19.8949 4.1394 19.8949 4.13783 19.8949C4.11899 19.9203 4.08915 19.9472 4.04675 19.9726Z" fill="#DA7386"/>
<path d="M4.29801 22.0422C4.29958 22.066 4.29644 22.0897 4.29016 22.112C4.34355 22.0834 4.39223 22.066 4.43463 22.058C4.3938 22.058 4.34826 22.0533 4.29801 22.0422Z" fill="#D97588"/>
<path d="M4.7743 20.3707C4.77257 20.3724 4.77084 20.3724 4.7691 20.3742L4.7743 20.3776V20.3707Z" fill="#D97588"/>
<path d="M4.77474 23.148V23.1459L4.77069 23.148L4.77271 23.15C4.77271 23.15 4.77474 23.15 4.77474 23.148Z" fill="#D97588"/>
<path d="M27.3708 26.2622C27.3755 26.267 27.3802 26.2717 27.3865 26.2749V26.2543L27.3786 26.2511C27.3723 26.2463 27.3645 26.2432 27.3582 26.24H27.3519C27.3566 26.2479 27.3629 26.2558 27.3708 26.2622Z" fill="#DB7586"/>
<path d="M27.2248 16.8818C27.2248 16.8835 27.2231 16.8835 27.2231 16.8851L27.2364 16.8868C27.233 16.8851 27.2314 16.8818 27.2281 16.8801C27.2264 16.8801 27.2264 16.8818 27.2248 16.8818Z" fill="#E88D9A"/>
<path d="M27.2281 17.0485C27.2314 17.0469 27.233 17.0452 27.2364 17.0419L27.2231 17.0435C27.2231 17.0452 27.2248 17.0452 27.2248 17.0469C27.2264 17.0469 27.2264 17.0485 27.2281 17.0485Z" fill="#E88D9A"/>
<path d="M16.0707 8.09279C16.0472 8.42424 16.1791 8.48767 16.4759 8.48609C18.0697 8.4734 19.6652 8.48133 21.2591 8.48292C21.2591 8.48292 21.2591 8.48292 21.2606 8.48292C21.2858 8.53366 21.3125 8.58441 21.3376 8.63516C19.7092 8.63675 18.0807 8.64309 16.4523 8.63199C16.1697 8.6304 16.0613 8.70018 16.0707 9.00467C16.0911 9.6755 16.0739 10.3463 16.0739 11.0172L16.0786 11.0187H16.0833C19.5584 11.0187 23.032 11.0203 26.5071 11.0156C26.7489 11.014 26.9703 11.0584 27.1839 11.1583C27.1965 11.1631 27.2106 11.1694 27.2232 11.1757V11.1805C27.2247 11.1789 27.2279 11.1757 27.2294 11.1742C27.2483 11.1837 27.2687 11.1948 27.2875 11.2043C27.319 11.2217 27.3504 11.2376 27.3818 11.2535C27.3818 10.8776 27.3849 10.5033 27.3849 10.1275C27.3865 9.75479 27.3849 9.38211 27.3786 9.00784C27.3786 9.00626 27.3786 9.00467 27.3786 9.00308C27.3786 9.0015 27.3786 8.99833 27.3786 8.99674C27.3723 8.72556 27.4509 8.62723 27.7304 8.63199C28.7103 8.64785 29.6901 8.63992 30.67 8.6415C30.6213 8.53684 30.5507 8.4512 30.4517 8.39252C29.6587 7.55042 28.7118 7.0128 27.5561 6.88435C27.4995 6.85739 27.4414 6.83043 27.3849 6.80347C27.3394 6.80981 27.2938 6.81615 27.2483 6.82408C27.242 6.81774 27.2373 6.8114 27.231 6.80347C26.1491 6.80664 25.0671 6.8114 23.9836 6.81298C21.3486 6.81774 18.7152 6.82091 16.0801 6.82567C16.0786 7.2491 16.099 7.67253 16.0707 8.09279Z" fill="#F06977"/>
<path d="M9.21626 8.57805C9.20056 8.54633 9.18486 8.51461 9.16759 8.48131C9.14089 8.47972 9.11262 8.47814 9.08593 8.47655C9.03725 8.4147 8.99485 8.34809 8.93989 8.29259C8.13588 7.45842 7.57999 6.47358 7.19212 5.38408C6.82152 4.34216 6.67391 3.26852 6.73987 2.1695C6.76028 1.81109 6.63936 1.71277 6.2986 1.7318C5.79139 1.76034 5.28103 1.74131 4.77225 1.74131L4.76911 1.73814H4.74084C4.7063 1.73814 4.67489 1.73973 4.64034 1.73973H4.63877H4.61365C4.62935 1.754 4.64505 1.76351 4.66076 1.76827C4.69216 1.77779 4.722 1.77144 4.75184 1.75083C4.75498 1.75559 4.75969 1.76034 4.7644 1.7651C4.76754 1.76669 4.76911 1.76669 4.77225 1.76827C4.78167 1.77144 4.79266 1.7762 4.80209 1.77937C5.21037 1.92369 5.62965 1.83171 6.04421 1.84439C6.62366 1.86184 6.63936 1.85074 6.62366 2.44227C6.58283 3.9552 6.93144 5.36981 7.65536 6.68926C8.02125 7.35375 8.40912 8.00872 9.02154 8.47655C9.03411 8.48765 9.0451 8.49717 9.05766 8.50351C9.07965 8.52254 9.1032 8.53999 9.12676 8.55585C9.13932 8.55902 9.15188 8.56377 9.16444 8.56695C9.16916 8.59391 9.18015 8.61611 9.19742 8.63514H9.2461C9.23668 8.61611 9.22726 8.59708 9.21626 8.57805Z" fill="#D9596B"/>
<path d="M27.3849 12.4444C27.5545 12.3477 27.6393 12.1637 27.6409 11.9591C27.6393 11.753 27.5545 11.5262 27.3849 11.3454V12.4444Z" fill="#DA5A6C"/>
<path d="M27.2876 11.2043C27.2687 11.1947 27.2483 11.1836 27.2295 11.1741C27.2279 11.1757 27.2248 11.1789 27.2232 11.1805V11.1757C27.2106 11.1694 27.1965 11.163 27.1839 11.1583C26.9704 11.0584 26.7489 11.014 26.5071 11.0155C23.032 11.0203 19.5584 11.0187 16.0833 11.0187H16.0786L16.0739 11.0171C16.0221 11.0171 15.9718 11.0187 15.9216 11.0187V11.0266C15.9216 11.0282 15.9231 11.0282 15.9247 11.0282V11.0298C15.9326 11.0346 15.9404 11.0409 15.9498 11.0457C16.0001 11.0536 16.0425 11.0441 16.077 11.0203C16.0786 11.0219 16.0817 11.0235 16.0833 11.0266C16.0849 11.0282 16.0865 11.0282 16.088 11.0298V11.0314C16.1022 11.0441 16.1163 11.0584 16.1304 11.071C16.3408 11.1725 16.5654 11.1424 16.7852 11.1424C19.9023 11.144 23.0194 11.1488 26.1365 11.1377C26.493 11.1361 26.8432 11.2392 27.1981 11.1789C27.2012 11.1852 27.2059 11.19 27.2106 11.1947C27.1996 11.2058 27.1886 11.217 27.1776 11.2281C27.096 11.661 27.0159 12.0939 27.2248 12.5126C27.2106 12.519 27.1965 12.5316 27.1839 12.5459C27.1808 12.5523 27.1761 12.5586 27.1729 12.565C27.0379 12.4825 26.8871 12.5221 26.7364 12.5285C26.0078 12.5634 25.2823 12.6427 24.5489 12.6395C21.9532 12.6268 19.3559 12.6331 16.7586 12.6363C16.5434 12.6363 16.3173 12.5951 16.1257 12.7283C16.11 12.7378 16.0959 12.7489 16.0817 12.7616H16.099C19.783 12.6902 23.4717 12.9281 27.1525 12.6078C27.1761 12.6062 27.1996 12.603 27.2232 12.6014C27.2248 12.5761 27.2279 12.5507 27.231 12.5253H27.3033H27.3802C27.3818 12.4983 27.3834 12.4714 27.3849 12.4444V11.3454C27.3834 11.3184 27.3834 11.2915 27.3818 11.2645C27.3818 11.2614 27.3818 11.2582 27.3818 11.2534C27.3504 11.2376 27.319 11.2217 27.2876 11.2043Z" fill="#D9596B"/>
<path d="M27.3582 26.24C27.3504 26.2353 27.3425 26.2305 27.3347 26.2274C27.3017 26.2163 27.2718 26.2242 27.242 26.2416C27.2781 26.2416 27.3158 26.24 27.3519 26.24H27.3582Z" fill="#EA8190"/>
<path d="M27.3849 22.5148V22.5941C27.5513 22.4165 27.6361 22.2309 27.6377 22.0438C27.6361 21.8582 27.5529 21.6727 27.3865 21.4951V21.5664C27.3849 21.882 27.3849 22.1992 27.3849 22.5148Z" fill="#DA5A6C"/>
<path d="M4.04048 23.6725C4.22107 23.5314 4.45976 23.4695 4.61051 23.2919V23.2269C4.30116 23.3696 4.02478 23.5567 3.75783 23.774C2.85489 24.5114 2.46545 25.528 2.53297 26.6238C2.62719 28.1431 3.35425 29.3912 4.60894 30.2888V30.2158C4.55869 30.154 4.49588 30.1048 4.43463 30.0541C3.69344 29.434 3.16895 28.6585 2.84704 27.745C2.71356 27.3644 2.6429 26.9806 2.6319 26.6032C2.59736 25.4804 3.09672 24.4147 4.04048 23.6725Z" fill="#F06977"/>
<path d="M4.64037 23.2554C4.65764 23.2332 4.67178 23.2078 4.68591 23.1808C4.68591 23.1792 4.68748 23.1777 4.68748 23.1761C4.71889 23.1777 4.74558 23.1681 4.77228 23.1491L4.77071 23.1475C4.74558 23.1475 4.72046 23.1491 4.69533 23.1491C4.66864 23.1507 4.64351 23.1507 4.61839 23.1507C4.61525 23.1761 4.61368 23.2014 4.61053 23.2268V23.2918C4.62153 23.2807 4.63095 23.268 4.64037 23.2554Z" fill="#EA8190"/>
<path d="M4.6168 30.3649C4.64821 30.3808 4.67804 30.3966 4.70945 30.4125C4.72829 30.4236 4.74871 30.4331 4.76755 30.4426V30.4061C4.74557 30.3887 4.72201 30.376 4.69532 30.3697C4.69375 30.3633 4.69217 30.3554 4.68903 30.349C4.67804 30.3173 4.66234 30.2888 4.64507 30.2618C4.63407 30.246 4.62151 30.2301 4.60895 30.2158V30.2888C4.61209 30.3141 4.61366 30.3395 4.6168 30.3649Z" fill="#EB7E8D"/>
<path d="M2.66804 15.9666C2.71672 14.6948 3.22236 13.7337 4.35457 13.139C4.45036 13.0899 4.54929 13.0423 4.61838 12.9646V12.9249C4.61838 12.9233 4.61838 12.9233 4.61838 12.9218L4.61053 12.9202C4.0405 13.1406 3.54428 13.4625 3.18782 13.9764C2.42307 15.0786 2.44034 16.2917 2.72614 17.5287C2.94127 18.466 3.49403 19.2098 4.13786 19.8949C4.13943 19.8949 4.14257 19.8949 4.14414 19.8949C4.14571 19.8933 4.14571 19.8917 4.14728 19.8885C4.14414 19.8901 4.14257 19.8901 4.13943 19.8917C4.16142 19.8632 4.1677 19.8346 4.16613 19.8092C4.15513 19.722 4.05306 19.6475 3.99653 19.584C3.11401 18.6278 2.67118 17.5208 2.66333 16.2299C2.66333 16.1443 2.6649 16.0555 2.66804 15.9666Z" fill="#F06977"/>
<path d="M4.25247 19.9028C4.24619 19.8981 4.2399 19.8917 4.23362 19.887C4.20379 19.8775 4.18023 19.8822 4.15668 19.8965C4.17866 19.8981 4.19908 19.8997 4.22106 19.8997C4.23205 19.9012 4.24305 19.9012 4.25247 19.9028Z" fill="#F06977"/>
<path d="M15.8148 31.4021C15.7661 31.391 15.7159 31.3846 15.6672 31.3799C15.741 31.3942 15.8132 31.4116 15.8807 31.4306C15.8603 31.4195 15.8383 31.41 15.8148 31.4021Z" fill="#EA8391"/>
<path d="M16.0629 31.4766C16.0346 31.4591 16.0064 31.4528 15.9797 31.4591C16.0001 31.4655 16.0205 31.4718 16.0393 31.4766C16.0456 31.4766 16.0551 31.4766 16.0629 31.4766Z" fill="#EA8391"/>
<path d="M4.60738 20.2184C4.60738 20.2042 4.60581 20.1915 4.60424 20.1772V20.1756C4.59011 20.1011 4.54143 20.0773 4.48175 20.0725C4.47547 20.0678 4.46762 20.0646 4.45977 20.0598C4.43307 20.0583 4.40638 20.0583 4.37811 20.0598C4.42208 20.1598 4.49903 20.2137 4.60738 20.2184Z" fill="#EC6775"/>
<path d="M4.6136 0.323545C4.6136 0.19826 4.60261 0.0872486 4.43458 0.0793192C4.25242 0.0698039 4.22102 0.177644 4.22259 0.326717C4.22573 0.794552 4.22416 1.2608 4.22573 1.72864V1.74291H4.26342C4.37962 1.74132 4.4974 1.73974 4.6136 1.73815V0.323545Z" fill="#F06B79"/>
<path d="M27.3818 17.8221C27.3802 17.8237 27.3786 17.8237 27.3786 17.8269C27.3771 17.8269 27.3755 17.8285 27.3739 17.8301C27.319 17.7968 27.2703 17.8015 27.2263 17.8332V17.8348L27.2295 17.8364C27.2766 17.8364 27.3237 17.8364 27.3692 17.8348H27.3818V17.8301V17.8221Z" fill="#D97588"/>
<path d="M27.3456 17.0688C27.3582 17.0641 27.3708 17.0561 27.3833 17.0435H27.3582C27.3535 17.0514 27.3504 17.0609 27.3456 17.0688Z" fill="#D97588"/>
<path d="M27.7288 16.2077C27.6063 16.2077 27.4823 16.1919 27.3834 16.1078V16.1047H27.3661C27.3205 16.1047 27.275 16.1031 27.2295 16.1031L27.2279 16.1047H27.2263L27.2216 16.1063V16.0999C27.22 16.1015 27.2169 16.1047 27.2153 16.1063H27.2075C27.0599 16.23 26.8777 16.2188 26.7018 16.2188C23.3366 16.222 19.9714 16.222 16.6062 16.2188C16.4256 16.2188 16.2388 16.23 16.0786 16.111C16.077 16.1094 16.0739 16.1063 16.0739 16.1047V16.1031V16.092H16.0629H15.9373H15.9231V16.1047V16.1063C15.843 16.176 15.7457 16.2046 15.6452 16.2046C14.2869 16.2109 12.9301 16.2585 11.5749 16.1824C11.5105 16.1602 11.4728 16.1332 11.4493 16.1031C11.4477 16.1031 11.4461 16.1031 11.4446 16.1031C11.443 16.1015 11.4399 16.0999 11.4383 16.0999C11.4336 16.0967 11.4289 16.0952 11.4242 16.092C11.4037 16.092 11.3833 16.0936 11.3645 16.0936C10.7631 16.3235 10.1616 16.3616 9.56019 16.0936C9.51465 16.0936 9.46597 16.092 9.42043 16.092C9.41572 16.0952 9.411 16.0983 9.40472 16.1031C9.40315 16.1031 9.40315 16.1031 9.40158 16.1031C9.38117 16.1269 9.3529 16.1491 9.31207 16.1697C9.01685 16.2474 8.71692 16.2125 8.41856 16.2141C7.22354 16.2188 6.02696 16.2109 4.83037 16.2236C4.8131 16.2173 4.79582 16.2109 4.78169 16.1982C4.77855 16.1982 4.77541 16.1966 4.77384 16.1935C4.76913 16.1903 4.76599 16.1871 4.76285 16.1855C4.76128 16.1855 4.76128 16.1871 4.75971 16.1871C4.74243 16.2315 4.70789 16.2601 4.65921 16.2696C4.64664 16.2648 4.63565 16.2617 4.62152 16.2553C4.61995 16.2569 4.61995 16.2585 4.61838 16.2601C4.61681 16.2601 4.61681 16.2617 4.61524 16.2617L4.61053 16.2633L4.60896 16.2648C4.28861 16.7327 4.27762 17.2021 4.61524 17.6747V17.6763C4.63722 17.6731 4.66078 17.6715 4.68276 17.6683C4.71888 17.681 4.75029 17.7001 4.77541 17.7254C4.77855 17.727 4.78169 17.7302 4.78326 17.7334V17.735C4.78797 17.7365 4.78954 17.7397 4.78954 17.7413C4.80368 17.7334 4.81781 17.7239 4.83194 17.7143C5.1303 17.6652 5.43024 17.7128 5.73017 17.7128C8.90222 17.708 12.0727 17.708 15.2448 17.7112C15.474 17.7112 15.7159 17.6699 15.9231 17.8238V17.8364H15.9294H16.0598H16.0739V17.8238C16.2388 17.6921 16.4351 17.7096 16.6266 17.7096C19.9714 17.7064 23.3162 17.7064 26.661 17.7096C26.8557 17.7096 27.0583 17.6874 27.2216 17.8333V17.8285C27.2106 17.8174 27.1965 17.8031 27.1839 17.7905C27.0976 17.5557 27.0944 17.3195 27.1871 17.0847C27.1981 17.0752 27.209 17.0641 27.2216 17.0546V17.0435H27.2232L27.2357 17.0419C27.2326 17.0451 27.231 17.0467 27.2279 17.0483C27.2263 17.0514 27.2232 17.053 27.2216 17.0546V17.8285C27.2232 17.8301 27.2248 17.8317 27.2263 17.8333C27.2703 17.8016 27.319 17.7968 27.3739 17.8301C27.3755 17.8285 27.3771 17.8269 27.3786 17.8269C27.3786 17.8238 27.3802 17.8238 27.3818 17.8222C27.4854 17.7302 27.6173 17.7191 27.7477 17.7191C28.3334 17.7223 28.9191 17.6747 29.5017 17.7603C28.938 17.3543 28.3098 17.1212 27.6236 17.0388V16.8897C28.3067 16.8072 28.9333 16.5757 29.4954 16.1729C29.4939 16.1713 29.4923 16.1713 29.4923 16.1697C28.9066 16.2522 28.3161 16.2062 27.7288 16.2077ZM27.2232 16.8849H27.2216V16.8738C27.2232 16.8754 27.2263 16.877 27.2279 16.8802C27.231 16.8817 27.2326 16.8849 27.2357 16.8865L27.2232 16.8849ZM27.3457 17.0689C27.3504 17.061 27.3535 17.0514 27.3582 17.0435H27.3834C27.3708 17.0562 27.3582 17.0641 27.3457 17.0689Z" fill="#D9596B"/>
<path d="M4.7738 30.4474C4.79107 30.46 4.80835 30.4712 4.82562 30.4823C4.81777 30.4664 4.80992 30.4505 4.79735 30.4331C4.79107 30.4267 4.78479 30.4204 4.77694 30.4156V30.4141C4.7738 30.4125 4.77066 30.4093 4.76752 30.4061V30.4426L4.7738 30.4474Z" fill="#F06977"/>
<path d="M7.20468 31.318H8.1987C10.5589 31.318 12.9191 31.3196 15.2793 31.3196C15.1348 31.1848 14.9511 31.2023 14.7752 31.2007C12.4244 31.1975 10.0737 31.1975 7.72132 31.2007C7.57371 31.2023 7.41825 31.188 7.28634 31.2673C7.26121 31.2609 7.23766 31.2546 7.21253 31.2467C7.07749 31.2213 6.94087 31.2102 6.80268 31.2134C6.70218 31.2165 6.60168 31.2181 6.50275 31.2181C6.60482 31.2514 6.70846 31.2831 6.81053 31.3149C6.94244 31.3165 7.07277 31.3164 7.20468 31.318Z" fill="#F06977"/>
<path d="M4.85866 30.5758C4.93404 30.6614 5.03297 30.7217 5.13504 30.7819C5.47266 30.9802 5.82755 31.115 6.19815 31.2054C6.39758 31.2545 6.60172 31.291 6.81057 31.3148C6.7085 31.2815 6.60486 31.2498 6.50279 31.2181C6.4918 31.2181 6.48081 31.2181 6.46981 31.2181C5.89979 31.0389 5.33604 30.8438 4.83511 30.4997C4.83197 30.4933 4.82726 30.487 4.82569 30.4822C4.80841 30.4711 4.79114 30.46 4.77386 30.4473C4.79742 30.4965 4.82569 30.5393 4.85866 30.5758Z" fill="#D9596C"/>
<path d="M15.9263 21.1684C15.9263 21.1636 15.9247 21.1605 15.9247 21.1557C15.9247 21.1589 15.9247 21.162 15.9247 21.1636C15.9247 21.1636 15.9247 21.1652 15.9231 21.1652C15.9216 21.1636 15.9184 21.162 15.9169 21.162C15.9153 21.1636 15.9137 21.1668 15.9106 21.1684H15.9263Z" fill="#D9596B"/>
<path d="M15.9263 22.9239V22.9097H15.9106C15.9153 22.9144 15.92 22.9208 15.9247 22.9255L15.9263 22.9239Z" fill="#D9596B"/>
<path d="M9.24613 8.63513H9.19745C9.20373 8.64465 9.21158 8.65258 9.221 8.66051C9.24142 8.67954 9.26811 8.69698 9.29795 8.71125C9.33407 8.72553 9.37175 8.73504 9.40944 8.73821C9.37961 8.7065 9.35134 8.67478 9.32307 8.64148C9.29795 8.64148 9.27125 8.6383 9.24613 8.63513Z" fill="#D9596B"/>
<path d="M6.91414 12.7632C9.91503 12.7584 12.9143 12.7616 15.9137 12.7616V12.7283C15.8948 12.7109 15.8744 12.6982 15.8508 12.6887C15.7252 12.6395 15.5949 12.6363 15.4645 12.6363C12.1465 12.6331 8.82836 12.6316 5.51027 12.6379C5.28571 12.6379 5.05487 12.6411 4.86173 12.7711C4.83032 12.7902 4.80048 12.8139 4.77222 12.8409C4.79734 12.8361 4.82247 12.8314 4.84759 12.8282C5.53382 12.714 6.22477 12.7648 6.91414 12.7632Z" fill="#D9596B"/>
<path d="M15.9153 11.0204C15.9169 11.0236 15.9185 11.0252 15.9217 11.0268V11.0187L15.9153 11.0204Z" fill="#D9596B"/>
<path d="M4.61841 12.9646C4.62469 12.9582 4.6294 12.9519 4.63568 12.944C4.66866 12.9868 4.68907 13.0344 4.70164 13.0851C4.70321 13.0344 4.72205 12.9884 4.75032 12.9471C4.7566 12.9471 4.76131 12.944 4.76759 12.9408C4.78957 12.9297 4.80999 12.9107 4.82569 12.8837C4.83511 12.8647 4.84139 12.8472 4.84768 12.8282C4.82255 12.8314 4.79742 12.8361 4.7723 12.8409C4.77073 12.8678 4.76916 12.8948 4.76759 12.9202C4.7299 12.9218 4.69064 12.9218 4.65139 12.9218H4.61841C4.61841 12.9233 4.61841 12.9233 4.61841 12.9249V12.9646Z" fill="#F06977"/>
<path d="M16.0739 26.24L16.0817 26.2416L16.077 26.2368C16.0754 26.2384 16.0739 26.2384 16.0739 26.24Z" fill="#D9596B"/>
<path d="M15.9263 9.00467C15.9373 8.69859 15.8258 8.6304 15.5431 8.63198C13.4703 8.64467 11.3959 8.6415 9.32306 8.6415C9.35132 8.6748 9.37959 8.70652 9.40943 8.73824C10.1412 9.55497 11.0818 10.0529 12.0727 10.47C13.3054 10.9886 14.6009 11.0647 15.9137 11.0203H15.9153C15.9168 10.3479 15.9043 9.67549 15.9263 9.00467Z" fill="#F06977"/>
<path d="M15.9263 12.7632H15.9498C15.9404 12.7521 15.931 12.7425 15.9215 12.7346C15.9184 12.7314 15.9168 12.7299 15.9137 12.7283V12.7616L15.9263 12.7632Z" fill="#D9596B"/>
<path d="M16.0759 16.103H16.0739V16.1051L16.0759 16.103Z" fill="#F06977"/>
<path d="M16.0997 12.7616H16.082L16.0707 12.7632V12.781C16.0804 12.7762 16.0901 12.7697 16.0997 12.7616Z" fill="#F06977"/>
<path d="M16.0739 17.8371L16.0838 17.8337C16.0805 17.8304 16.0772 17.8271 16.0739 17.8237V17.8371Z" fill="#F06977"/>
<path d="M26.4678 21.1636C26.7049 21.1636 26.9279 21.1969 27.1415 21.2873C27.1666 21.2968 27.1886 21.3079 27.2137 21.3206C27.187 21.2794 27.1588 21.2445 27.1258 21.2143C26.9436 21.0415 26.6924 21.0542 26.4552 21.0542C23.1686 21.0478 19.8803 21.0494 16.5936 21.0526C16.4162 21.0526 16.2324 21.0415 16.0786 21.1604C16.0817 21.1636 16.0833 21.1652 16.0864 21.1683C19.5474 21.1683 23.0084 21.1683 26.4678 21.1636Z" fill="#F06977"/>
<path d="M16.5811 28.1558C16.4601 28.0923 16.3377 28.0337 16.212 27.9766C16.289 28.0162 16.3691 28.0574 16.4429 28.0971C16.49 28.1145 16.5355 28.1336 16.5811 28.1558Z" fill="#F06977"/>
<path d="M31.4395 20.0757C31.3736 20.017 31.3013 19.9869 31.2259 19.9726C31.2291 19.971 31.2338 19.9662 31.2369 19.9647C31.3076 19.9805 31.3767 20.0091 31.4395 20.0646C31.3971 19.9821 31.3547 19.8996 31.3107 19.8172C31.3107 19.8203 31.3092 19.8219 31.3092 19.8235C30.9307 18.937 30.3104 18.2693 29.5017 17.7714C29.2096 17.93 28.8956 17.8285 28.5925 17.8427C28.1905 17.8618 27.7885 17.8459 27.3865 17.8459H27.3692C27.3237 17.8475 27.2766 17.8475 27.2295 17.8475L27.2263 17.8459L27.2216 17.8443H16.0833L16.0739 17.8475H16.0598C16.0032 17.9205 15.9828 18.0013 15.9734 18.0854C15.9734 18.0838 15.9734 18.0806 15.9734 18.079C15.9734 18.0822 15.9734 18.0854 15.9734 18.0886C15.9624 18.0077 15.9467 17.9284 15.9294 17.8475H15.9231L15.9137 17.8443C12.3664 17.8459 8.81899 17.8443 5.27163 17.8507C5.10832 17.8507 4.96071 17.811 4.80839 17.7746C4.7974 17.7714 4.7864 17.7698 4.77541 17.7666L4.76599 17.7682C4.71731 17.7413 4.66706 17.7175 4.61838 17.6905C4.61681 17.6905 4.61681 17.6889 4.61524 17.6889L4.6121 17.6873C4.34357 17.5034 4.2101 17.2369 4.21167 16.9689C4.2101 16.7025 4.342 16.4345 4.61053 16.2521L4.61524 16.2505C4.61681 16.2505 4.61681 16.2489 4.61838 16.2489C4.66392 16.2251 4.70789 16.2014 4.755 16.1776C4.75971 16.176 4.76285 16.1728 4.76756 16.1712L4.77384 16.1728C4.97327 16.1078 5.17742 16.0888 5.38784 16.0903C6.72575 16.0951 8.06524 16.0919 9.40473 16.0919H9.41258C9.40944 16.0951 9.40473 16.0999 9.40158 16.103C9.40315 16.103 9.40315 16.103 9.40473 16.103C9.40944 16.0983 9.41415 16.0951 9.42043 16.0919C9.46754 16.0919 9.51465 16.0935 9.56019 16.0935H9.78003H11.1242H11.3645C11.3833 16.0935 11.4037 16.0919 11.4242 16.0919C11.4289 16.0951 11.4336 16.0967 11.4383 16.0999C11.4399 16.0999 11.443 16.1014 11.4446 16.103C11.4461 16.103 11.4477 16.103 11.4493 16.103C11.4461 16.0999 11.443 16.0951 11.4414 16.0919C11.443 16.0919 11.443 16.0919 11.4446 16.0919C12.9348 16.0935 14.4235 16.0935 15.9137 16.0951C15.9169 16.0983 15.92 16.1014 15.9231 16.1046V16.0919H15.9373H16.0629H16.0739V16.103H16.0755L16.0833 16.0951H27.2216C27.2169 16.0999 27.2122 16.1014 27.2075 16.1062H27.2153C27.2169 16.1046 27.22 16.1014 27.2216 16.0999V16.1062L27.2263 16.1046H27.2279L27.2295 16.103C27.275 16.103 27.3205 16.1046 27.3661 16.1046H27.3834H27.3865C27.9707 16.1046 28.5532 16.1014 29.1358 16.1062C29.2568 16.1062 29.3902 16.0666 29.4907 16.1696C29.4923 16.1712 29.4939 16.1712 29.4939 16.1728C29.4954 16.176 29.4986 16.176 29.5002 16.1792C29.6823 16.1237 29.8126 15.9873 29.9493 15.8699C31.3374 14.6916 31.964 13.1993 31.8007 11.3597C31.7112 10.3653 31.3029 9.51845 30.7611 8.71441C30.7297 8.6938 30.6999 8.67318 30.6685 8.65256C29.6886 8.65098 28.7087 8.65891 27.7288 8.64305C27.4509 8.63829 27.3724 8.73661 27.3771 9.00304C27.3771 9.00463 27.3771 9.00621 27.3771 9.0078C27.3834 9.38207 27.3849 9.75475 27.3834 10.1274C27.3818 10.5033 27.3802 10.8791 27.3802 11.2534C27.3802 11.2566 27.3802 11.2598 27.3802 11.2645C27.3818 11.2915 27.3818 11.3184 27.3834 11.3454C27.553 11.5262 27.6377 11.753 27.6393 11.9591C27.6409 12.1685 27.5561 12.3572 27.3834 12.4555C27.3818 12.4825 27.3802 12.5094 27.3786 12.5364H27.2295C27.2263 12.5618 27.2232 12.5871 27.2216 12.6125C27.1981 12.6141 27.1745 12.6173 27.1509 12.6189C23.4701 12.9392 19.7814 12.7013 16.0974 12.7727C16.088 12.7806 16.0786 12.787 16.0692 12.7917C16.0629 12.7949 16.0582 12.7981 16.0519 12.7996H16.0503C16.0283 12.8377 16.0158 12.8774 16.0079 12.9186C15.9985 12.8789 15.9844 12.8393 15.9671 12.7996L15.9655 12.7981C15.9514 12.7917 15.9388 12.7854 15.9247 12.7743L15.9121 12.7727C12.9128 12.7727 9.91351 12.7695 6.91262 12.7743C6.22325 12.7759 5.53231 12.7251 4.84608 12.8393C4.8398 12.8583 4.83351 12.8758 4.82409 12.8948C4.80839 12.9218 4.78798 12.9408 4.76599 12.9519C4.75971 12.9551 4.755 12.9582 4.74872 12.9582C4.72045 12.9995 4.70161 13.0455 4.70004 13.0962C4.68747 13.0455 4.66706 12.9979 4.63408 12.9551C4.6278 12.963 4.62309 12.9693 4.61681 12.9757C4.54772 13.0534 4.44879 13.101 4.353 13.1501C3.22079 13.7448 2.71515 14.7059 2.66647 15.9777C2.66333 16.0634 2.66176 16.1474 2.66176 16.2315C2.66804 17.5224 3.11244 18.6309 3.99496 19.5856C4.05149 19.6475 4.15513 19.7236 4.16456 19.8108C4.1677 19.8362 4.16142 19.8632 4.14414 19.8901C4.14257 19.8917 4.14257 19.8933 4.141 19.8965C4.13943 19.8996 4.13786 19.9028 4.13629 19.906C4.141 19.9012 4.14728 19.9012 4.15356 19.898C4.17712 19.8838 4.20224 19.879 4.23051 19.8885C4.23679 19.8933 4.24307 19.8996 4.24935 19.9044C4.23836 19.9028 4.22894 19.9028 4.21795 19.9012C4.23051 19.925 4.24307 19.9488 4.25407 19.9726C4.26977 19.9995 4.28233 20.0281 4.29646 20.055C4.32316 20.0582 4.34828 20.0598 4.37498 20.0614C4.40325 20.0598 4.42994 20.0598 4.45664 20.0614C4.46449 20.0662 4.47077 20.0693 4.47862 20.0741C4.53829 20.0788 4.58697 20.1026 4.60111 20.1772V20.1787C4.60268 20.1914 4.60425 20.2041 4.60425 20.22C4.60739 20.2454 4.61053 20.2707 4.61367 20.2961C4.64193 20.3104 4.6702 20.3262 4.69847 20.3405C4.72045 20.3532 4.74401 20.3643 4.76599 20.3754C4.76756 20.3738 4.76913 20.3738 4.7707 20.3722C4.76756 20.3611 4.76756 20.35 4.76599 20.3389C4.77384 20.3453 4.78169 20.3532 4.78797 20.3627H4.78955C4.79112 20.3659 4.79426 20.3706 4.7974 20.3738C4.97013 20.3405 5.10518 20.4468 5.24337 20.5213C5.94059 20.8908 6.68178 21.051 7.46695 21.0478C10.0627 21.0415 12.6584 21.0446 15.2542 21.0478C15.4803 21.0478 15.7174 21.005 15.92 21.1557C15.9184 21.1588 15.9153 21.1604 15.9137 21.1636C15.9153 21.1652 15.9184 21.1652 15.92 21.1668C15.9216 21.1668 15.9216 21.1652 15.9216 21.1652C15.9216 21.162 15.9216 21.1588 15.9216 21.1572C15.9169 21.1208 15.9153 21.0843 15.9153 21.0462C15.9153 21.0827 15.9169 21.1192 15.9216 21.1541C15.9216 21.1557 15.9216 21.1572 15.9216 21.1572C15.9216 21.162 15.9231 21.1652 15.9231 21.1699H15.9357H16.0645C16.066 21.1699 16.066 21.1699 16.0676 21.1699V21.1652C16.0692 21.1652 16.0692 21.1668 16.0692 21.1668C16.0707 21.1652 16.0739 21.1636 16.0755 21.162C16.2294 21.0415 16.4115 21.0542 16.5905 21.0542C19.8772 21.051 23.1655 21.0494 26.4522 21.0557C26.6893 21.0557 26.9405 21.0431 27.1227 21.2159C27.1541 21.2445 27.1839 21.2809 27.2106 21.3222C27.2138 21.3285 27.2185 21.3333 27.2216 21.338C27.2232 21.3634 27.2263 21.3888 27.2295 21.4142C27.2514 21.4142 27.2734 21.4157 27.2954 21.4142C27.3221 21.4157 27.3504 21.4157 27.3771 21.4157C27.3786 21.4427 27.3802 21.4697 27.3834 21.4966C27.5498 21.6742 27.633 21.8598 27.6346 22.0453C27.6362 22.2341 27.553 22.4244 27.3818 22.6067C27.3802 22.6337 27.3786 22.6607 27.3771 22.686C27.3504 22.6876 27.3221 22.6876 27.2938 22.6876C27.2719 22.6876 27.2514 22.6892 27.2295 22.6892C27.2263 22.7146 27.2232 22.7399 27.2216 22.7653C27.1933 22.8161 27.1604 22.8573 27.1243 22.8906C26.9955 23.008 26.8212 23.0286 26.6469 23.0413C26.3077 23.0635 25.9669 23.0508 25.6277 23.0508C22.6724 23.0524 19.7186 23.0524 16.7633 23.0492C16.5309 23.0492 16.289 23.0888 16.077 22.9445C16.0755 22.9398 16.0755 22.9366 16.0739 22.9318C16.0707 22.9334 16.0692 22.935 16.0676 22.9382C16.0535 22.9493 16.0409 22.962 16.0283 22.9762C15.9938 23.0349 15.9781 23.0999 15.9687 23.1634C15.9671 23.1015 15.9624 23.0397 15.9593 22.9778C15.9467 22.9651 15.9357 22.9525 15.9231 22.9398C15.9231 22.9398 15.9231 22.9398 15.9216 22.9382C15.7159 23.0888 15.4772 23.0476 15.2463 23.0492C12.3224 23.0524 9.39844 23.0508 6.47293 23.0508C6.01597 23.0508 5.559 23.027 5.1146 23.1729C5.00311 23.211 4.88533 23.2189 4.77227 23.1586L4.7707 23.1602C4.7707 23.1618 4.7707 23.1618 4.7707 23.1634C4.76913 23.1634 4.76913 23.1618 4.76913 23.1618C4.74244 23.1808 4.71574 23.1903 4.68433 23.1888C4.68433 23.1903 4.68276 23.1919 4.68276 23.1935C4.66863 23.2205 4.6545 23.2458 4.63722 23.268C4.6278 23.2807 4.61838 23.2934 4.60739 23.3045C4.45664 23.4821 4.21795 23.544 4.03736 23.6851C3.09517 24.4257 2.59737 25.4867 2.62878 26.6047C2.63977 26.9822 2.70887 27.366 2.84391 27.7466C3.16583 28.66 3.69032 29.4355 4.43151 30.0556C4.49275 30.1064 4.55557 30.1555 4.60582 30.2174C4.61838 30.2317 4.63094 30.2475 4.64193 30.2634C4.65921 30.2903 4.67491 30.3189 4.6859 30.3506C4.68904 30.3569 4.69061 30.3649 4.69219 30.3712C4.71888 30.3776 4.74244 30.3902 4.76442 30.4077C4.76756 30.4109 4.7707 30.414 4.77384 30.4156V30.4172C4.78169 30.422 4.78798 30.4283 4.79426 30.4346C4.80525 30.4505 4.8131 30.4664 4.82252 30.4838C4.82566 30.4902 4.83037 30.4949 4.83194 30.5013C5.33288 30.8454 5.89662 31.0405 6.46665 31.2197C6.47764 31.2197 6.48864 31.2197 6.49963 31.2197C6.59856 31.2197 6.69906 31.2181 6.79956 31.2149C6.93775 31.2117 7.07437 31.2228 7.20941 31.2482C7.23454 31.2561 7.25809 31.2625 7.28322 31.2688C7.41513 31.1895 7.57059 31.2038 7.7182 31.2022C10.0705 31.199 12.4213 31.199 14.7721 31.2022C14.948 31.2038 15.1317 31.1864 15.2762 31.3212C15.2809 31.3259 15.2856 31.3275 15.2887 31.3323H15.2903V31.3338C15.2919 31.337 15.295 31.337 15.2966 31.3402C15.4144 31.3402 15.54 31.3576 15.6625 31.383C15.7127 31.3878 15.7614 31.3941 15.8101 31.4052C15.8336 31.4131 15.8556 31.4227 15.876 31.4338C15.9106 31.4433 15.942 31.4528 15.9734 31.4623C16.0017 31.456 16.0283 31.4623 16.0566 31.4797C16.0613 31.4829 16.066 31.4845 16.0707 31.4877C16.0723 31.4893 16.0723 31.4893 16.0739 31.4908H16.1854C16.2215 31.4829 16.2592 31.4829 16.2984 31.4908H16.3C16.3707 31.5035 16.4445 31.5368 16.5136 31.5733C17.7604 32.2283 18.4545 33.2559 18.5299 34.6864C18.533 34.7578 18.5346 34.8307 18.5362 34.9021C18.5377 35.1162 18.5314 35.3303 18.533 35.5444C18.533 35.5475 18.533 35.5523 18.533 35.5555C18.5409 36.7465 19.359 37.7392 20.5163 37.9581C20.6671 37.9866 20.8163 38.0056 20.9168 38.1373C20.9199 38.142 20.9246 38.1452 20.9278 38.15C20.9325 37.6488 20.9419 37.1477 20.9387 36.645C20.9356 35.7362 20.9733 34.8291 20.7911 33.9268C20.6263 33.1069 20.3263 32.3409 19.9887 31.586C19.973 31.513 19.9369 31.4591 19.8725 31.4274C19.8615 31.3957 19.8505 31.364 19.838 31.3323C19.8128 31.3021 19.783 31.2783 19.7484 31.2625C19.582 30.8835 19.3245 30.5631 19.0669 30.2507C18.3917 29.4308 17.6159 28.7378 16.7004 28.2303C16.7099 28.2398 16.589 28.1779 16.4382 28.1002C16.1728 28.0019 15.9153 27.9876 15.9106 27.9876C15.9106 27.9908 15.9106 27.9956 15.9106 27.9987H15.8195C12.1355 27.9971 8.45311 27.9971 4.7707 27.9971L4.76442 27.9987V28.0003H4.61053C4.60896 27.9734 4.60896 27.9464 4.60739 27.9194C4.18497 27.8481 3.83479 27.4326 3.83636 27.0313C3.83636 27.0028 3.83636 26.9743 3.8395 26.9473C3.8819 26.5873 4.08761 26.4414 4.60896 26.4017H4.6121H4.62466H4.76128C4.76442 26.3764 4.76756 26.351 4.76913 26.3256C4.79269 26.324 4.81781 26.324 4.84137 26.3225C8.53006 26.1655 12.2203 26.2781 15.9106 26.2447L15.9231 26.2432C15.9341 26.2321 15.9467 26.2241 15.9593 26.2178C15.9593 26.2178 15.9593 26.2178 15.9608 26.2178C15.9954 26.2019 16.0299 26.2099 16.0645 26.2432C16.0645 26.2432 16.0692 26.2416 16.0739 26.2368C16.077 26.2305 16.0802 26.2225 16.0849 26.2162C16.2608 26.0988 16.4602 26.1179 16.6549 26.1179C19.9777 26.1147 23.2989 26.1147 26.6217 26.1179C26.8275 26.1179 27.0426 26.0893 27.2185 26.2432H27.22V26.2447C27.2185 26.2447 27.2185 26.2447 27.2169 26.2447H27.2059C27.2106 26.2479 27.2153 26.2511 27.2185 26.2543H27.22V26.2527C27.2263 26.2479 27.231 26.2479 27.2373 26.2447C27.2672 26.2273 27.297 26.2194 27.33 26.2305C27.3378 26.2336 27.3457 26.2384 27.3535 26.2432C27.3598 26.2463 27.3677 26.2495 27.3739 26.2543L27.3818 26.2574C27.9675 26.2558 28.5548 26.2543 29.1406 26.2574C29.2599 26.259 29.3949 26.2194 29.4923 26.3304C29.4939 26.332 29.4954 26.3336 29.4954 26.3351C29.497 26.3383 29.5002 26.3399 29.5017 26.3415C31.5824 25.0204 32.3927 22.3974 31.4395 20.0757ZM15.9655 18.7435C15.9655 18.8926 15.9655 19.0417 15.9671 19.1892C15.9671 19.3922 15.9671 19.5444 15.9797 19.6586C15.9907 19.3319 16.0142 19.0052 16.0126 18.6785C16.0142 19.0084 15.9907 19.3398 15.9797 19.6697C15.9671 19.5555 15.9671 19.4033 15.9671 19.2003C15.9671 19.048 15.9655 18.8958 15.9655 18.7435Z" fill="#F06977"/>
<path d="M4.62006 26.4082C4.62006 26.4099 4.61841 26.4099 4.61841 26.4099H4.63162C4.62831 26.4082 4.62501 26.4066 4.62336 26.4049C4.62336 26.4066 4.62171 26.4082 4.62006 26.4082Z" fill="#F06977"/>
<path d="M4.7597 16.188C4.76173 16.188 4.76173 16.186 4.76375 16.186C4.76375 16.186 4.76173 16.186 4.76173 16.184C4.76173 16.186 4.7597 16.186 4.7597 16.188Z" fill="#F06977"/>
<path d="M4.61555 16.2537C4.61225 16.2571 4.6106 16.2621 4.60895 16.2654L4.6106 16.2637L4.61555 16.2621C4.6172 16.2621 4.6172 16.2604 4.61885 16.2604C4.6205 16.2587 4.6205 16.2571 4.62215 16.2554C4.6205 16.2554 4.61885 16.2537 4.6172 16.2537C4.6172 16.2537 4.6172 16.2537 4.61555 16.2537Z" fill="#F06977"/>
<path d="M16.7664 23.0366C19.7217 23.0397 22.6755 23.0397 25.6309 23.0381C25.9701 23.0381 26.3108 23.0508 26.65 23.0286C26.8243 23.0159 26.9986 22.9953 27.1274 22.878C27.1635 22.8447 27.1965 22.8034 27.2248 22.7527C27.1965 22.767 27.1682 22.7796 27.14 22.7923C26.9138 22.8875 26.6767 22.9144 26.4286 22.9129C22.9817 22.9097 19.5333 22.9097 16.0864 22.9097C16.0833 22.9129 16.0802 22.916 16.077 22.9192C16.0786 22.924 16.0786 22.9271 16.0802 22.9319C16.2922 23.0762 16.534 23.0366 16.7664 23.0366Z" fill="#F06977"/>
<path d="M16.0817 26.2416H27.2106H27.2216C27.2232 26.2416 27.2232 26.2416 27.2248 26.2416V26.24H27.2232C27.0473 26.0862 26.8322 26.1147 26.6265 26.1147C23.3037 26.1116 19.9824 26.1116 16.6596 26.1147C16.4649 26.1147 16.2655 26.0957 16.0896 26.2131C16.0849 26.2194 16.0817 26.2273 16.0786 26.2337C16.0786 26.2353 16.077 26.2353 16.077 26.2369L16.0817 26.2416Z" fill="#F06977"/>
<path d="M4.6121 27.9052V27.8751C4.53672 27.8085 4.43465 27.7831 4.35457 27.726C4.10174 27.5484 3.97141 27.2962 3.97141 26.9886C3.97298 26.6793 4.20067 26.5731 4.45036 26.5001C4.51474 26.4811 4.57284 26.4541 4.61681 26.4113V26.4002V26.3986H4.61367C4.09232 26.4383 3.88661 26.5842 3.84421 26.9442C3.84107 26.9727 3.8395 26.9997 3.84107 27.0282C3.84735 27.4263 4.19439 27.8338 4.6121 27.9052Z" fill="#D9596B"/>
<path d="M4.61676 26.4113C4.61833 26.4113 4.61833 26.4097 4.61833 26.4097L4.6199 26.4081C4.62147 26.4081 4.62304 26.4065 4.62304 26.405C4.62618 26.4065 4.62932 26.4081 4.63089 26.4097C4.64503 26.4161 4.65759 26.424 4.67329 26.4335C4.70941 26.4383 4.74082 26.4319 4.76594 26.4192V26.3986H4.62932H4.61676V26.4002V26.4113Z" fill="#DA7385"/>
<path d="M4.6152 27.9861H4.68901H4.76909V27.9845C4.74083 27.9639 4.71099 27.9559 4.67801 27.9607C4.67801 27.9559 4.67487 27.9512 4.6733 27.9464C4.6576 27.9211 4.64033 27.8988 4.61991 27.8814C4.61834 27.8782 4.6152 27.8766 4.61206 27.8751V27.9052C4.61363 27.9322 4.61363 27.9591 4.6152 27.9861Z" fill="#DA7385"/>
<path d="M4.77604 27.9797C4.7743 27.9815 4.77084 27.9832 4.7691 27.985L4.77604 27.9832C4.77604 27.9815 4.77604 27.9815 4.77604 27.9797Z" fill="#DA7385"/>
<path d="M4.77589 23.1459H4.77386V23.148L4.77589 23.1459Z" fill="#F06977"/>
<path d="M5.11772 23.1603C5.56212 23.0144 6.01909 23.0381 6.47605 23.0381C9.40156 23.0381 12.3255 23.0397 15.2494 23.0366C15.4803 23.035 15.719 23.0762 15.9247 22.9255C15.92 22.9208 15.9153 22.9144 15.9106 22.9097C12.6443 22.9113 9.37644 22.916 6.1086 22.9049C5.64378 22.9018 5.20723 22.9922 4.77696 23.1444L4.77539 23.146C4.88845 23.2062 5.00623 23.1983 5.11772 23.1603Z" fill="#F06977"/>
<path d="M4.76599 26.4192C4.76756 26.4177 4.7707 26.4161 4.77227 26.4161C4.79426 26.4018 4.81153 26.3828 4.82723 26.359C5.0722 26.5112 5.35015 26.4636 5.60768 26.4319C6.20755 26.359 6.80741 26.3701 7.40885 26.3701C10.0093 26.3685 12.6098 26.3701 15.2102 26.3685C15.4316 26.3669 15.6562 26.3923 15.8697 26.3066C15.887 26.2987 15.9027 26.2876 15.9153 26.2749V26.2416C12.225 26.2749 8.53477 26.1623 4.84608 26.3193C4.82252 26.3209 4.7974 26.3209 4.77384 26.3225C4.77227 26.3479 4.76913 26.3733 4.76599 26.3986V26.4192Z" fill="#D9596B"/>
<path d="M15.9216 27.8243C15.9169 27.8212 15.9106 27.8196 15.9059 27.8164C15.9059 27.8164 15.9122 27.8196 15.9216 27.8243Z" fill="#D9596B"/>
<path d="M15.8242 27.9845H15.9153L15.5196 27.9004L15.664 27.8687C15.5384 27.8465 15.4049 27.8608 15.2777 27.8608C11.9879 27.8576 8.6965 27.8576 5.40511 27.8592C5.21039 27.8592 5.01096 27.8386 4.82723 27.9337C4.81152 27.948 4.79582 27.9623 4.77855 27.9781C4.77855 27.9781 4.77855 27.9781 4.77698 27.9797C4.77698 27.9813 4.77698 27.9813 4.77698 27.9829C8.45782 27.9829 12.1402 27.9829 15.8242 27.9845Z" fill="#D9596B"/>
<path d="M4.61206 17.6763L4.6152 17.6778V17.6763V17.6747C4.27758 17.2021 4.287 16.7327 4.60891 16.2648C4.61206 16.2616 4.61363 16.2569 4.6152 16.2537C4.6152 16.2521 4.6152 16.2521 4.6152 16.2505L4.61048 16.2521C4.34196 16.4361 4.21005 16.7025 4.21162 16.969C4.21476 17.2322 4.34667 17.4955 4.61206 17.6763Z" fill="#D9596C"/>
<path d="M15.9236 17.8371V17.8237L15.9137 17.8337L15.9236 17.8371Z" fill="#F06977"/>
<path d="M4.82407 20.4087C5.58881 20.9051 6.42265 21.1699 7.34129 21.1683C10.1977 21.1636 13.0541 21.1668 15.9105 21.1683C15.9121 21.1668 15.9153 21.1636 15.9168 21.162C15.9184 21.1588 15.9215 21.1572 15.9231 21.1541C15.7205 21.0034 15.4834 21.0462 15.2573 21.0462C12.6615 21.0431 10.0658 21.0399 7.47006 21.0462C6.6849 21.0494 5.94371 20.8892 5.24648 20.5197C5.10829 20.4452 4.97325 20.3389 4.80051 20.3722C4.79737 20.3691 4.79423 20.3643 4.79266 20.3611H4.79109C4.78481 20.3516 4.77696 20.3437 4.7691 20.3373C4.77067 20.3484 4.77067 20.3595 4.77381 20.3706V20.377C4.79109 20.3881 4.80679 20.3992 4.82407 20.4087Z" fill="#F06977"/>
<path d="M4.6168 16.2537C4.61838 16.2537 4.61995 16.2553 4.62152 16.2553C4.63408 16.2601 4.64664 16.2648 4.6592 16.2696C4.70788 16.2585 4.74243 16.2299 4.7597 16.1871C4.7597 16.1855 4.76127 16.1855 4.76127 16.184C4.76127 16.184 4.76284 16.184 4.76284 16.1855C4.76599 16.1887 4.76913 16.1919 4.77384 16.1935V16.1729L4.76756 16.1713C4.76284 16.1729 4.7597 16.176 4.75499 16.1776C4.70788 16.2014 4.66391 16.2252 4.61838 16.249C4.6168 16.249 4.6168 16.2506 4.61523 16.2506C4.61523 16.2521 4.61523 16.2521 4.61523 16.2537C4.6168 16.2537 4.6168 16.2537 4.6168 16.2537Z" fill="#D97588"/>
<path d="M4.61838 17.6794C4.66706 17.7064 4.71731 17.7302 4.76599 17.7571L4.77541 17.7556V17.7254C4.75028 17.7001 4.71888 17.681 4.68276 17.6683C4.66077 17.6715 4.63722 17.6731 4.61523 17.6763V17.6778C4.6168 17.6778 4.6168 17.6794 4.61838 17.6794Z" fill="#D97588"/>
<path d="M26.661 17.7095C23.3162 17.7064 19.9714 17.7064 16.6266 17.7095C16.435 17.7095 16.2387 17.6921 16.0739 17.8237C16.077 17.8269 16.0801 17.8301 16.0833 17.8332H27.2216C27.0583 17.6873 26.8557 17.7095 26.661 17.7095Z" fill="#D9596B"/>
<path d="M16.0786 16.111C16.2387 16.23 16.4256 16.2189 16.6062 16.2189C19.9714 16.222 23.3366 16.222 26.7018 16.2189C26.8761 16.2189 27.0583 16.23 27.2074 16.1063C27.2122 16.1015 27.2169 16.0999 27.2216 16.0952H16.0833L16.0754 16.1031L16.0739 16.1047C16.0739 16.1063 16.077 16.1094 16.0786 16.111Z" fill="#D9596B"/>
<path d="M27.187 17.0847C27.0944 17.3194 27.0975 17.5557 27.1839 17.7904C27.1965 17.8031 27.2106 17.8174 27.2216 17.8285V17.0546C27.209 17.0641 27.198 17.0752 27.187 17.0847Z" fill="#D9596B"/>
<path d="M4.77539 17.7555C4.78638 17.7587 4.79738 17.7603 4.80837 17.7634C4.96069 17.7999 5.1083 17.8396 5.27161 17.8396C8.81897 17.8332 12.3663 17.8348 15.9137 17.8332L15.9231 17.8237C15.7158 17.6699 15.474 17.7111 15.2447 17.7111C12.0727 17.7079 8.9022 17.7079 5.73015 17.7127C5.43022 17.7127 5.13028 17.6651 4.83192 17.7143C4.81779 17.7238 4.80366 17.7333 4.78952 17.7412C4.78952 17.7397 4.78795 17.7365 4.78324 17.7349V17.7333C4.78167 17.7301 4.77853 17.727 4.77539 17.7254V17.7555Z" fill="#D9596B"/>
<path d="M11.5749 16.1824C12.9301 16.2585 14.2868 16.2109 15.6452 16.2046C15.7457 16.2046 15.843 16.176 15.9231 16.1063V16.1047C15.92 16.1015 15.9168 16.0983 15.9137 16.0952C14.4234 16.0936 12.9348 16.0936 11.4445 16.092C11.443 16.092 11.443 16.092 11.4414 16.092C11.443 16.0952 11.4477 16.0999 11.4493 16.1031C11.4728 16.1332 11.5105 16.1602 11.5749 16.1824Z" fill="#D9596B"/>
<path d="M4.77386 16.1934C4.77544 16.1966 4.77858 16.1982 4.78172 16.1982C4.79585 16.2109 4.81312 16.2172 4.8304 16.2236C6.02698 16.2109 7.22357 16.2188 8.41859 16.2141C8.71695 16.2125 9.01688 16.2474 9.3121 16.1697C9.35293 16.149 9.38119 16.1268 9.40161 16.103C9.40475 16.0999 9.40946 16.0951 9.4126 16.0919H9.40475C8.06526 16.0919 6.72578 16.0951 5.38786 16.0904C5.17744 16.0888 4.9733 16.1078 4.77386 16.1728V16.1934Z" fill="#D9596B"/>
<path d="M15.9671 12.787L15.9687 12.7886C15.9859 12.8282 16.0001 12.8679 16.0095 12.9075C16.0173 12.8663 16.0299 12.8266 16.0519 12.7886H16.0535C16.0597 12.787 16.0645 12.7838 16.0707 12.7806V12.7632H15.9498H15.9263C15.9404 12.7743 15.953 12.7806 15.9671 12.787Z" fill="#F06977"/>
<path d="M15.9734 18.0791C15.9813 17.9934 16.0017 17.911 16.0598 17.8364H15.9294C15.9467 17.9173 15.9624 17.9982 15.9734 18.0791Z" fill="#F06977"/>
<path d="M15.9263 22.9271C15.9388 22.9398 15.9498 22.9525 15.9624 22.9652C15.9655 23.027 15.9702 23.0889 15.9718 23.1507C15.9812 23.0873 15.9969 23.0223 16.0315 22.9636C16.044 22.9493 16.0566 22.9366 16.0707 22.9255V22.9097H15.9341H15.9263V22.9239C15.9263 22.9255 15.9263 22.9255 15.9263 22.9271Z" fill="#F06977"/>
<path d="M11.3645 16.0936H11.1242H9.78003H9.56018C10.1616 16.3616 10.763 16.3235 11.3645 16.0936Z" fill="#CF6076"/>
<path d="M16.7052 28.2272C16.702 28.224 16.6848 28.2129 16.6455 28.1907C16.6251 28.178 16.6031 28.1669 16.5811 28.1558C16.5356 28.1336 16.4885 28.113 16.4429 28.0971C16.5937 28.1748 16.7146 28.2351 16.7052 28.2272Z" fill="#D9596B"/>
<path d="M4.26506 1.74292H4.22738H4.14886L4.14415 2.82449V2.96246L4.14258 3.18131C4.16613 3.64598 4.20696 4.07575 4.26035 4.47381C4.29019 4.70059 4.32474 4.91944 4.36399 5.12719C4.50061 5.85828 4.6812 6.46568 4.87906 6.9684C5.08006 7.47747 5.29677 7.8787 5.50091 8.18794C5.94688 8.8667 6.33004 9.11093 6.33004 9.11093V9.10776L4.26506 1.74292Z" fill="#D9596B"/>
</g>
<defs>
<clipPath id="clip0_158_8989">
<rect width="31.8367" height="39" fill="white"/>
</clipPath>
</defs>
</svg>
