<?xml version="1.0" encoding="UTF-8"?>
<svg version="1.1" xmlns="http://www.w3.org/2000/svg" width="512" height="512">
<path d="M0 0 C12.29218624 9.83149148 19.8853306 22.1863847 22.41943359 37.82666016 C22.61113838 40.97546059 22.66293756 44.1242706 22.71655273 47.27807617 C22.7362059 48.22559753 22.75585907 49.1731189 22.77610779 50.14935303 C22.84008978 53.29301967 22.89749205 56.43676774 22.95458984 59.58056641 C22.99770771 61.79646874 23.04112429 64.01236528 23.08482361 66.22825623 C23.17587798 70.89634314 23.26376749 75.56447593 23.34936523 80.23266602 C23.45716158 86.10202224 23.57182222 91.9712173 23.68894291 97.84039402 C23.77997428 102.43722136 23.86746757 107.03411143 23.9540081 111.63102531 C23.9949113 113.78671016 24.03672182 115.94237805 24.07960701 118.09802437 C24.34053131 131.34672005 24.43842953 144.5899503 24.41723633 157.84082031 C24.387027 177.11708866 24.590251 196.38814495 24.82329178 215.66279435 C24.88103497 220.48315909 24.93611417 225.30355433 24.99145508 230.12394714 C25.10796566 240.2399819 25.22694595 250.35598636 25.34655762 260.47198486 C25.52693463 275.72759567 25.7054872 290.98322751 25.88136768 306.23889083 C25.93636975 311.00271952 25.99197278 315.76653959 26.04904175 320.53034401 C26.17775634 331.28084567 26.30006707 342.03135625 26.40024948 352.782166 C26.41840029 354.71653818 26.43757796 356.65090064 26.45681763 358.5852623 C26.48572074 361.76819645 26.5056637 364.95100872 26.52099609 368.1340332 C26.53345116 369.41276794 26.53345116 369.41276794 26.54615784 370.7173357 C26.60530224 401.51140183 14.76736021 428.85391617 -6.58056641 450.82666016 C-25.99147206 470.29683575 -52.9862131 482.80083033 -80.61010742 483.20703125 C-92.45748135 483.18647425 -103.24383603 482.34830575 -114.58056641 478.82666016 C-115.59787842 478.51317627 -115.59787842 478.51317627 -116.63574219 478.19335938 C-148.44495749 468.04148215 -174.20681574 444.81911344 -189.50585938 415.37231445 C-202.91250177 388.29309764 -205.34916133 358.03665497 -196.39306641 329.20166016 C-190.62082607 313.07384834 -182.10798918 298.5363827 -170.58056641 285.82666016 C-172.00758115 282.5669818 -173.77505375 280.46916213 -176.26806641 277.95166016 C-186.58199388 266.49382436 -191.33540596 251.33773265 -190.86572266 236.02197266 C-189.27927044 218.24501494 -183.82394634 202.06687039 -170.58447266 189.47900391 C-162.11369523 182.49432778 -152.01531316 177.15433553 -141.58056641 173.82666016 C-142.83160156 172.77091797 -142.83160156 172.77091797 -144.10791016 171.69384766 C-158.43131213 159.27183888 -167.39975174 145.01782923 -169.58056641 125.82666016 C-170.80636612 107.5103837 -165.39677312 91.27200119 -154.26806641 76.82666016 C-142.336913 63.22310576 -125.71350401 55.88332839 -107.81884766 54.54541016 C-99.35477098 54.3366354 -91.71296033 55.52271044 -83.58056641 57.82666016 C-83.79712891 57.02615234 -83.79712891 57.02615234 -84.01806641 56.20947266 C-87.63772759 41.68055486 -85.03298056 27.72472365 -77.52587891 14.79931641 C-69.09961624 1.92303951 -58.27871533 -4.95894169 -43.58056641 -9.17333984 C-28.3927361 -12.22636426 -12.56581374 -9.32828249 0 0 Z " fill="#F16573" transform="translate(210.58056640625,19.17333984375)"/>
<path d="M0 0 C12.23809409 10.25924999 18.22530662 23.76571146 19.671875 39.4375 C19.95010405 44.83086316 19.62375154 50.03255655 18.875 55.375 C19.72320312 55.1584375 20.57140625 54.941875 21.4453125 54.71875 C41.55732255 49.94491025 59.20408296 52.81513549 76.875 63.375 C91.21464406 72.60842542 100.37759173 88.04086105 104.41015625 104.43359375 C107.42592136 123.51654438 102.57003509 141.84444813 91.359375 157.34375 C87.34386033 162.24318299 82.62042755 167.50228623 76.875 170.375 C77.61363281 170.65472656 78.35226562 170.93445313 79.11328125 171.22265625 C97.80732065 178.61000854 112.08182795 190.46301919 121.1875 208.5625 C128.00051706 224.31062141 128.70212094 241.17372293 123.09375 257.41796875 C119.67574217 265.71101979 114.86063011 271.83324897 108.53515625 278.1484375 C106.69465319 280.16803431 106.69465319 280.16803431 106.83203125 282.2890625 C108.33455978 285.29411955 110.3876813 287.78685047 112.5 290.375 C124.8012886 306.04152906 132.87245194 324.62548131 135.875 344.375 C136.06835938 345.61830078 136.06835938 345.61830078 136.265625 346.88671875 C140.02314341 376.79854294 132.3647955 408.80771801 113.94140625 432.85546875 C110.39982984 437.17364792 106.70608385 441.31255407 102.875 445.375 C102.26269531 446.05175781 101.65039062 446.72851562 101.01953125 447.42578125 C83.53806523 466.02546472 55.46941701 478.88252111 29.96875 479.7109375 C27.43764645 479.74111904 24.90628105 479.75351545 22.375 479.75 C21.71370087 479.74945618 21.05240173 479.74891235 20.37106323 479.74835205 C-9.33495918 479.63624878 -34.82224472 468.12518839 -56.625 447.9296875 C-70.06195143 434.19880276 -80.38116815 417.06203402 -85.125 398.375 C-85.37860102 397.3814469 -85.63220203 396.38789379 -85.89348793 395.36423302 C-89.05933969 380.51406333 -88.55358064 365.41543364 -88.51717401 350.31125951 C-88.51032429 346.09997847 -88.52089352 341.88873337 -88.52911377 337.67745972 C-88.54238866 329.45104513 -88.53960201 321.22471308 -88.53087585 312.99829538 C-88.52407773 306.31066883 -88.52319173 299.62306527 -88.5264473 292.93543625 C-88.526907 291.98064054 -88.52736669 291.02584483 -88.52784032 290.04211592 C-88.52879957 288.10204304 -88.52977221 286.16197016 -88.5307581 284.22189729 C-88.53929296 266.07187723 -88.52950638 247.92190279 -88.513357 229.77189021 C-88.49994259 214.21395221 -88.50229485 198.65608134 -88.51611328 183.09814453 C-88.53218046 165.00007854 -88.53848276 146.90205236 -88.52927649 128.80398023 C-88.5283209 126.87320988 -88.52737779 124.94243952 -88.5264473 123.01166916 C-88.52598447 122.06184963 -88.52552164 121.1120301 -88.52504479 120.13342816 C-88.52245929 113.45434584 -88.52681613 106.77528888 -88.53388596 100.09621048 C-88.54231324 91.95645578 -88.53999447 83.81678784 -88.52404372 75.67704304 C-88.51617953 71.52776763 -88.51303788 67.3786367 -88.52299118 63.22936249 C-88.53197632 59.42612849 -88.52694299 55.62317198 -88.51105852 51.8199629 C-88.50615736 49.80382037 -88.51587255 47.78765835 -88.52623022 45.77153647 C-88.41449254 28.39406538 -82.50437826 14.60100543 -70.125 2.375 C-69.57199219 1.80007812 -69.01898438 1.22515625 -68.44921875 0.6328125 C-49.60239048 -17.41898828 -19.64408354 -14.64322691 0 0 Z " fill="#F16573" transform="translate(365.125,21.625)"/>
<path d="M0 0 C-1.46538781 2.45680745 -2.93953081 4.90405555 -4.46484375 7.32421875 C-13.85565298 22.39435027 -17.24669426 37.589383 -13.75 55.1875 C-9.7934531 71.63076372 -1.90555401 83.23760658 11 94 C12.01318507 94.98663874 13.01916413 95.98119629 14 97 C12.7625 97.37125 11.525 97.7425 10.25 98.125 C3.6967799 100.30246105 -4.06220291 103.06220291 -9 108 C-8.525625 108.433125 -8.05125 108.86625 -7.5625 109.3125 C-5.2172283 111.84539343 -5.00199615 113.97844163 -4.6875 117.375 C-5.05660718 121.65664327 -5.90861508 123.07571696 -9 126 C-13.15644623 128.14502314 -16.67953926 128.2115974 -21.3125 128.125 C-22.56675781 128.10695312 -23.82101563 128.08890625 -25.11328125 128.0703125 C-26.06589844 128.04710937 -27.01851563 128.02390625 -28 128 C-36.53968119 145.14686975 -38.50351187 161.27527334 -33.16796875 179.6328125 C-31.93652498 183.18299487 -30.52434074 186.56695753 -29 190 C-24.428721 189.45144652 -20.32564205 188.58255197 -16 187 C-16.58007812 186.34644531 -16.58007812 186.34644531 -17.171875 185.6796875 C-26.19532039 175.36079697 -26.19532039 175.36079697 -26.5 169.9375 C-25.95015913 165.60750311 -25.09137898 164.00045607 -22 161 C-18.71038072 159.35519036 -15.54312233 159.38105884 -12 160 C-5.5335914 163.08965823 -0.46465691 169.39725886 4.43237305 174.50463867 C8.30928006 178.50817686 10.94695242 180.63981621 16.5625 181.625 C21.88216379 181.52630494 25.17242416 178.18423247 29.2109375 175.046875 C36.56987494 169.64619822 43.97288726 167.93116925 53 169 C68.44266761 172.09744704 78.71197644 184.53254681 89.4375 195.25 C90.32115234 196.12140625 91.20480469 196.9928125 92.11523438 197.890625 C92.96279297 198.73625 93.81035156 199.581875 94.68359375 200.453125 C95.44212646 201.20754883 96.20065918 201.96197266 96.98217773 202.73925781 C99.87402703 205.97924868 101.83130254 208.65042033 102.375 213 C101.80520344 217.55837248 100.2898825 219.98901101 96.6875 222.8125 C93.31760763 224.30152221 91.65652188 224.64526857 88 224 C79.74698 219.33464391 73.19916987 211.38569373 66.625 204.6875 C64.84672516 202.88156738 63.06696999 201.077155 61.28427124 199.27558899 C60.18189054 198.16098271 59.08219412 197.04371369 57.98550415 195.92350769 C54.29543133 192.11323122 54.29543133 192.11323122 49.3671875 190.63671875 C44.73621094 191.13634847 41.91022354 193.22052312 38.125 195.8125 C29.98061909 201.31270329 23.97419922 204.49006694 13.9375 203.6875 C2.8465167 203.1833644 -6.79271095 207.20692521 -16.94726562 211.265625 C-19 212 -19 212 -21 212 C-21.39445312 212.85271484 -21.39445312 212.85271484 -21.796875 213.72265625 C-23.5068385 216.95937288 -25.74456549 219.77092926 -27.953125 222.68359375 C-29.30631623 225.00196611 -29.30631623 225.00196611 -28.2265625 227.5703125 C-27.82179688 228.37210938 -27.41703125 229.17390625 -27 230 C-25.94427914 234.14747479 -25.69811259 236.25246927 -27.3125 240.25 C-30.25175736 243.25761218 -31.07153293 243.37064148 -35 244.125 C-38.29730604 244.97232534 -39.60100688 245.36400279 -41.43359375 248.28515625 C-42.54564022 251.50013884 -43.30454265 254.66989999 -44 258 C-44.29519531 259.15628906 -44.59039062 260.31257813 -44.89453125 261.50390625 C-51.76128987 291.57341088 -45.34882411 323.06127531 -29.25 349.078125 C-28.8375 349.71234375 -28.425 350.3465625 -28 351 C-28.23749398 345.82263118 -28.77277125 340.77950928 -29.95703125 335.73046875 C-34.14656114 317.78444134 -36.35504676 297.39980317 -29 280 C-28.59136719 279.02675781 -28.18273437 278.05351562 -27.76171875 277.05078125 C-25.74867806 272.68192205 -24.21384153 269.54882175 -20 267 C-13.45454545 266.15542522 -13.45454545 266.15542522 -10.18359375 268.0546875 C-8.00810789 269.826529 -6.26296446 271.47407109 -5 274 C-5.041944 279.14862575 -6.04820311 283.35002869 -8.234375 288.01171875 C-13.29272146 301.1479348 -11.17218343 316.05837914 -8.5625 329.4375 C-8.33240234 330.66404297 -8.10230469 331.89058594 -7.86523438 333.15429688 C-7.43977659 335.42217187 -7.00951019 337.68915485 -6.57250977 339.95483398 C-6.00677303 342.96397443 -5.49284995 345.97814833 -5 349 C-3.88625 348.896875 -2.7725 348.79375 -1.625 348.6875 C5.09997347 348.6875 10.7000471 352.02097076 15.6875 356.3125 C17.51174886 360.04786671 17.23834619 363.14477131 16 367 C14.17890734 369.76101146 12.95798903 371.52100548 10 373 C6.20151022 373.22344058 3.22899289 373.06661611 -0.4375 372 C-4.54408833 370.84727345 -7.75815612 370.85116337 -12 371 C4.3169542 388.87094983 30.74269473 402.8449807 55.14526367 404.17089844 C58.57841597 404.23193226 62.00404359 404.22392416 65.4375 404.1875 C66.58798828 404.18685547 67.73847656 404.18621094 68.92382812 404.18554688 C75.99920117 404.14946849 82.96702222 403.77333388 90 403 C79.10796575 417.33162401 59.04497838 423.50272137 41.90234375 426.55078125 C26.09997399 428.36987286 10.21282032 427.72571543 -5 423 C-6.01731201 422.68651611 -6.01731201 422.68651611 -7.05517578 422.36669922 C-38.86439108 412.21482199 -64.62624934 388.99245329 -79.92529297 359.5456543 C-93.33193536 332.46643749 -95.76859493 302.20999481 -86.8125 273.375 C-81.04025966 257.24718819 -72.52742277 242.70972254 -61 230 C-62.42701475 226.74032165 -64.19448734 224.64250198 -66.6875 222.125 C-77.00142747 210.66716421 -81.75483956 195.51107249 -81.28515625 180.1953125 C-79.69870403 162.41835479 -74.24337994 146.24021023 -61.00390625 133.65234375 C-52.53312882 126.66766762 -42.43474675 121.32767537 -32 118 C-33.25103516 116.94425781 -33.25103516 116.94425781 -34.52734375 115.8671875 C-48.85074573 103.44517872 -57.81918533 89.19116907 -60 70 C-61.22579971 51.68372354 -55.81620671 35.44534103 -44.6875 21 C-33.54094366 8.29102038 -17.0837973 -0.69729785 0 0 Z " fill="#DB5669" transform="translate(101,75)"/>
<path d="M0 0 C-1.00736751 2.06603615 -2.04399354 4.07402759 -3.21875 6.05078125 C-7.399871 13.4314796 -8.19193644 20.65586543 -9 29 C-9.17007065 30.11842285 -9.3401413 31.2368457 -9.5153656 32.38916016 C-10.26839426 38.40198573 -10.13089491 44.43430858 -10.11352539 50.484375 C-10.11324289 51.83529152 -10.11340248 53.1862082 -10.1139679 54.53712463 C-10.11425342 58.18324246 -10.10839645 61.82932703 -10.10139394 65.47543716 C-10.09511945 69.29376301 -10.09455337 73.11208972 -10.09336853 76.93041992 C-10.09026725 84.15147654 -10.08207015 91.37251792 -10.07201904 98.59356785 C-10.06082045 106.81850408 -10.05533803 115.04344106 -10.05032361 123.26838303 C-10.03988648 140.17893081 -10.02231044 157.08946379 -10 174 C-8.74922106 174.49569605 -7.49574873 174.98459874 -6.24121094 175.47070312 C-5.54348572 175.74370239 -4.8457605 176.01670166 -4.12689209 176.29797363 C5.21021602 179.37988649 15.25372196 177.24756876 23.83984375 173.19140625 C25.91566195 172.1768972 25.91566195 172.1768972 27 171 C31.99759352 170.61556973 35.00624226 170.89374398 39 174 C41.2134605 175.91833244 41.93209738 177.15832334 42.16796875 180.08203125 C41.97520859 184.38700821 41.47473918 186.46439682 38.5625 189.75 C36.9296875 190.87890625 36.9296875 190.87890625 35 192 C34.23945313 192.44214844 33.47890625 192.88429687 32.6953125 193.33984375 C23.53633677 198.26172323 15.05302718 199.33376445 4.75 199.25 C3.78320312 199.25773438 2.81640625 199.26546875 1.8203125 199.2734375 C0.41652344 199.26957031 0.41652344 199.26957031 -1.015625 199.265625 C-2.27294434 199.26224121 -2.27294434 199.26224121 -3.55566406 199.25878906 C-6 199 -6 199 -11 197 C-10.67 242.87 -10.34 288.74 -10 336 C-8.35 334.35 -6.7 332.7 -5 331 C1.12298253 327.93850873 13.56621049 329.15291211 20.0625 331.125 C30.2336738 335.41284778 36.92640379 341.83381409 41.3125 351.9375 C42.81040951 355.95462096 43.54841858 359.72122481 43.82421875 363.9921875 C44.07131473 367.07421745 44.07131473 367.07421745 45 370 C49.86027346 372.98071458 55.88525218 372.35477436 61.40625 372.390625 C66.53205005 372.544399 69.25864383 373.16474879 73 377 C75.05124631 379.7039156 75.00081224 380.97766328 74.875 384.4375 C73.92645533 388.29943186 72.74586726 390.17092464 70 393 C66.3252603 394.83736985 61.98242439 394.22791168 57.9375 394.25 C56.56174805 394.2809375 56.56174805 394.2809375 55.15820312 394.3125 C45.69102064 394.36617644 38.37022394 392.19199029 31.07421875 386.0546875 C24.50269998 379.54504744 22.23239695 372.59428942 21.19970703 363.62133789 C20.73207523 360.13383431 19.97878473 357.96921946 17.97265625 355.05859375 C13.92999402 352.25901032 10.80691717 352.32817938 6 352.375 C-3.81690141 352.375 -3.81690141 352.375 -8 349 C-8.66 348.01 -9.32 347.02 -10 346 C-10.8625749 378.10695457 -4.2424718 407.67702489 18 432 C19.13695312 433.25876953 19.13695312 433.25876953 20.296875 434.54296875 C29.77635428 444.53359642 40.35740327 451.49401917 52.6875 457.4375 C53.54190674 457.85064453 54.39631348 458.26378906 55.27661133 458.68945312 C79.04667855 469.71457295 109.66401388 470.71942558 134.29296875 461.80859375 C135.94206251 461.12563573 137.57857707 460.40957637 139.1875 459.63671875 C141 459 141 459 144 460 C125.60229041 478.77427089 97.74651273 489.91783811 71.71899414 490.29248047 C39.20075662 490.45650184 12.76225888 481.02838242 -11.5 458.5546875 C-24.93695143 444.82380276 -35.25616815 427.68703402 -40 409 C-40.25360102 408.0064469 -40.50720203 407.01289379 -40.76848793 405.98923302 C-43.93433969 391.13906333 -43.42858064 376.04043364 -43.39217401 360.93625951 C-43.38532429 356.72497847 -43.39589352 352.51373337 -43.40411377 348.30245972 C-43.41738866 340.07604513 -43.41460201 331.84971308 -43.40587585 323.62329538 C-43.39907773 316.93566883 -43.39819173 310.24806527 -43.4014473 303.56043625 C-43.401907 302.60564054 -43.40236669 301.65084483 -43.40284032 300.66711592 C-43.40379957 298.72704304 -43.40477221 296.78697016 -43.4057581 294.84689729 C-43.41429296 276.69687723 -43.40450638 258.54690279 -43.388357 240.39689021 C-43.37494259 224.83895221 -43.37729485 209.28108134 -43.39111328 193.72314453 C-43.40718046 175.62507854 -43.41348276 157.52705236 -43.40427649 139.42898023 C-43.4033209 137.49820988 -43.40237779 135.56743952 -43.4014473 133.63666916 C-43.40098447 132.68684963 -43.40052164 131.7370301 -43.40004479 130.75842816 C-43.39745929 124.07934584 -43.40181613 117.40028888 -43.40888596 110.72121048 C-43.41731324 102.58145578 -43.41499447 94.44178784 -43.39904372 86.30204304 C-43.39117953 82.15276763 -43.38803788 78.0036367 -43.39799118 73.85436249 C-43.40697632 70.05112849 -43.40194299 66.24817198 -43.38605852 62.4449629 C-43.38115736 60.42882037 -43.39087255 58.41265835 -43.40123022 56.39653647 C-43.28949254 39.01906538 -37.37937826 25.22600543 -25 13 C-24.44699219 12.42507812 -23.89398438 11.85015625 -23.32421875 11.2578125 C-17.83071882 5.9960483 -7.74026307 0 0 0 Z " fill="#DB5568" transform="translate(320,11)"/>
<path d="M0 0 C-1.46538781 2.45680745 -2.93953081 4.90405555 -4.46484375 7.32421875 C-13.85565298 22.39435027 -17.24669426 37.589383 -13.75 55.1875 C-9.7934531 71.63076372 -1.90555401 83.23760658 11 94 C12.01318507 94.98663874 13.01916413 95.98119629 14 97 C12.7625 97.37125 11.525 97.7425 10.25 98.125 C5.17348766 99.80378335 0.53369809 102.13526012 -4.203125 104.59765625 C-5.12609375 105.06042969 -6.0490625 105.52320313 -7 106 C-7.73992187 106.42023438 -8.47984375 106.84046875 -9.2421875 107.2734375 C-13.60842499 108.42374936 -17.50366196 107.43747197 -21.875 106.5625 C-22.80014404 106.38364258 -23.72528809 106.20478516 -24.6784668 106.02050781 C-33.11727741 104.24422313 -40.46462696 101.12072627 -48 97 C-44.34880098 102.70985379 -40.51755454 107.94464135 -36 113 C-45.10834186 109.08199929 -50.87867965 98.54598662 -55 90 C-61.27347536 73.4038061 -62.4476619 55.52358477 -55.3359375 38.9453125 C-46.94727494 20.70056401 -34.62383212 9.5287832 -16 2 C-10.52903195 -0.00602162 -5.74892463 -0.23464998 0 0 Z " fill="#DC5669" transform="translate(101,75)"/>
<path d="M0 0 C6.4664086 3.08965823 11.53534309 9.39725886 16.43237305 14.50463867 C20.30928006 18.50817686 22.94695242 20.63981621 28.5625 21.625 C33.88216379 21.52630494 37.17242416 18.18423247 41.2109375 15.046875 C48.56987494 9.64619822 55.97288726 7.93116925 65 9 C80.44266761 12.09744704 90.71197644 24.53254681 101.4375 35.25 C102.32115234 36.12140625 103.20480469 36.9928125 104.11523438 37.890625 C105.38657227 39.1590625 105.38657227 39.1590625 106.68359375 40.453125 C107.44212646 41.20754883 108.20065918 41.96197266 108.98217773 42.73925781 C111.87402703 45.97924868 113.83130254 48.65042033 114.375 53 C113.80520344 57.55837248 112.2898825 59.98901101 108.6875 62.8125 C105.31760763 64.30152221 103.65652188 64.64526857 100 64 C91.74698 59.33464391 85.19916987 51.38569373 78.625 44.6875 C76.84672516 42.88156738 75.06696999 41.077155 73.28427124 39.27558899 C72.18189054 38.16098271 71.08219412 37.04371369 69.98550415 35.92350769 C66.29543133 32.11323122 66.29543133 32.11323122 61.3671875 30.63671875 C56.73621094 31.13634847 53.91022354 33.22052312 50.125 35.8125 C42.01236864 41.29126164 36.05473732 44.48783943 26.0625 43.625 C16.50956413 43.15840416 8.59411606 46.18833872 -0.14428711 49.79931641 C-6.40285005 52.33286704 -12.19076888 54.28664436 -19 53 C-23.21939507 49.72781607 -24.80006032 47.49954762 -25.5 42.25 C-25.41404439 38.85475323 -24.82481375 37.1822947 -22.375 34.8125 C-17.02580666 30.77014892 -10.32167633 28.9815518 -4 27 C-4.38671875 26.56429688 -4.7734375 26.12859375 -5.171875 25.6796875 C-14.19532039 15.36079697 -14.19532039 15.36079697 -14.5 9.9375 C-13.95015913 5.60750311 -13.09137898 4.00045607 -10 1 C-6.71038072 -0.64480964 -3.54312233 -0.61894116 0 0 Z " fill="#C4455E" transform="translate(89,235)"/>
<path d="M0 0 C3.56051144 0.7871879 5.17306386 2.61024804 7.25 5.515625 C9.03234186 8.90739497 9.15077087 10.76380751 8.296875 14.5078125 C6.75211992 16.69726212 5.08465094 18.59390651 3.21875 20.515625 C1.081115 22.73146616 -0.80746146 25.08371178 -2.703125 27.5078125 C-1.60613281 27.89453125 -0.50914062 28.28125 0.62109375 28.6796875 C2.07570347 29.20522392 3.5301205 29.7312939 4.984375 30.2578125 C5.70560547 30.51046875 6.42683594 30.763125 7.16992188 31.0234375 C11.49413972 32.60306046 14.95243655 34.22092653 18.296875 37.5078125 C19.49682514 41.55764421 19.55569437 43.76011209 18.171875 47.7578125 C16.06350494 50.85008859 14.75333446 52.09380636 11.296875 53.5078125 C4.21426087 54.36688969 -1.55618738 51.5173745 -8.078125 49.0078125 C-17.54965194 45.51534007 -25.25413261 43.76073128 -35.27734375 44.36328125 C-44.56523025 44.75513051 -51.25824636 39.47106493 -58.703125 34.5078125 C-63.09095751 31.71733358 -65.41213434 30.46696188 -70.703125 31.5078125 C-79.05177571 37.84644557 -86.2270377 45.96137817 -93.55126953 53.4519043 C-94.98031615 54.91112866 -96.4155116 56.36407921 -97.8515625 57.81640625 C-98.68864746 58.67032959 -99.52573242 59.52425293 -100.38818359 60.40405273 C-103.78240647 63.488636 -105.52187677 64.55076698 -110.140625 64.3828125 C-114.01983731 63.43002351 -115.89826328 62.31267422 -118.703125 59.5078125 C-119.95810457 55.7428738 -120.22376944 53.47772632 -119.703125 49.5078125 C-114.92431682 42.49834935 -107.91635688 36.50194826 -101.93334961 30.49780273 C-100.26533948 28.8200253 -98.60832209 27.13185512 -96.95117188 25.44335938 C-87.95914077 16.36121311 -80.02910538 9.69034926 -66.828125 9.1953125 C-56.0958576 9.50663018 -47.32433509 13.88660241 -39.703125 21.5078125 C-35.93423241 22.15932785 -32.30344366 22.24441539 -28.78515625 20.625 C-23.38167064 16.77688871 -18.79784046 11.74439876 -14.18261719 7.00317383 C-13.64668945 6.45298584 -13.11076172 5.90279785 -12.55859375 5.3359375 C-11.84159302 4.5919873 -11.84159302 4.5919873 -11.11010742 3.83300781 C-7.49394719 0.42705297 -4.76827354 -0.10907815 0 0 Z " fill="#C4455E" transform="translate(429.703125,234.4921875)"/>
<path d="M0 0 C3.0190434 1.75299294 5.41511201 3.83022401 7 7 C6.958056 12.14862575 5.95179689 16.35002869 3.765625 21.01171875 C-1.29272146 34.1479348 0.82781657 49.05837914 3.4375 62.4375 C3.66759766 63.66404297 3.89769531 64.89058594 4.13476562 66.15429688 C4.56022341 68.42217187 4.99048981 70.68915485 5.42749023 72.95483398 C5.99322697 75.96397443 6.50715005 78.97814833 7 82 C8.11375 81.896875 9.2275 81.79375 10.375 81.6875 C17.09997347 81.6875 22.7000471 85.02097076 27.6875 89.3125 C29.51174886 93.04786671 29.23834619 96.14477131 28 100 C26.17890734 102.76101146 24.95798903 104.52100548 22 106 C17.55272756 106.37060604 14.25002003 105.87348208 10 104.5 C4.34108268 102.71342338 -0.23790497 102.01182791 -5.8125 104.4375 C-9.42768949 106.35676083 -12.02890592 108.89093306 -14.9375 111.75 C-18.19306329 114.79019525 -20.28173941 116.63939785 -24.8125 116.8125 C-28.82267071 116.37954352 -31.20849703 114.96597191 -34 112 C-35.80508042 108.38983915 -35.81921612 104.91878756 -35 101 C-30.97815464 94.24824285 -24.98087745 90.41952674 -18.125 86.8984375 C-15.69534783 85.13165182 -15.69534783 85.13165182 -15.53125 81.99609375 C-15.83561193 77.85894552 -16.84111483 73.84699772 -17.77954102 69.81567383 C-22.0024454 51.48016931 -24.53045058 30.81475526 -17 13 C-16.59136719 12.02675781 -16.18273437 11.05351562 -15.76171875 10.05078125 C-12.39683039 2.74803593 -8.81317996 -1.86074817 0 0 Z " fill="#C4455E" transform="translate(89,342)"/>
<path d="M0 0 C4.66638756 1.95988278 6.53446282 4.528594 8.6875 8.9375 C16.43942939 28.01724878 15.39049117 48.18924714 11 68 C10.28976823 71.32732824 9.61970593 74.65485268 9 78 C8.731875 79.216875 8.46375 80.43375 8.1875 81.6875 C8.65771234 85.09792693 8.65771234 85.09792693 11.17578125 86.66796875 C13.11270499 87.83869582 15.06138052 88.99013386 17.01953125 90.125 C22.10189387 93.32229234 27.05308817 97.38879589 28.62890625 103.3984375 C28.83688686 107.43728683 28.29016087 109.5357426 26.125 113 C22.88855581 116.04606512 20.1366686 116.68414374 15.6484375 116.69140625 C10.86684085 115.44311332 7.87275706 111.8191565 4.48046875 108.3828125 C-0.86989885 103.24308929 -5.36705492 103.70715509 -12.58203125 103.796875 C-16.42843729 104.02546142 -19.37009836 104.79003279 -23 106 C-26.125 106.4375 -26.125 106.4375 -29 106 C-32.09481323 103.46788008 -34.85450518 100.89468238 -36 97 C-36 92.50527097 -35.54970312 90.60467343 -32.5 87.25 C-27.06137475 83.28869363 -20.69612758 81.48491326 -14 82 C-13.88027832 81.33790527 -13.76055664 80.67581055 -13.63720703 79.99365234 C-12.75190947 75.10951797 -11.85524965 70.22823524 -10.9296875 65.3515625 C-7.6368727 47.70073801 -5.48685927 30.58313167 -14 14 C-14.48320161 10.61758873 -14.75719828 8.25077939 -12.9453125 5.2578125 C-8.88700992 0.23896492 -6.372845 -0.53107042 0 0 Z " fill="#C4455E" transform="translate(430,342)"/>
<path d="M0 0 C10.1711738 4.28784778 16.86390379 10.70881409 21.25 20.8125 C22.74790951 24.82962096 23.48591858 28.59622481 23.76171875 32.8671875 C24.00881473 35.94921745 24.00881473 35.94921745 24.9375 38.875 C29.79777346 41.85571458 35.82275218 41.22977436 41.34375 41.265625 C46.46955005 41.419399 49.19614383 42.03974879 52.9375 45.875 C54.98874631 48.5789156 54.93831224 49.85266328 54.8125 53.3125 C53.86395533 57.17443186 52.68336726 59.04592464 49.9375 61.875 C46.2627603 63.71236985 41.91992439 63.10291168 37.875 63.125 C36.95783203 63.145625 36.04066406 63.16625 35.09570312 63.1875 C25.62852064 63.24117644 18.30772394 61.06699029 11.01171875 54.9296875 C4.44019998 48.42004744 2.16989695 41.46928942 1.13720703 32.49633789 C0.66957523 29.00883431 -0.08371527 26.84421946 -2.08984375 23.93359375 C-6.13250598 21.13401032 -9.25558283 21.20317938 -14.0625 21.25 C-23.87940141 21.25 -23.87940141 21.25 -28.0625 17.875 C-30.87975233 13.6491215 -30.86208384 9.83875312 -30.0625 4.875 C-23.56823678 -3.49918153 -9.65543566 -2.9311144 0 0 Z " fill="#C4455E" transform="translate(340.0625,342.125)"/>
<path d="M0 0 C0.84626953 -0.020625 1.69253906 -0.04125 2.56445312 -0.0625 C7.38276042 -0.09268517 10.68767494 0.05457586 14.5625 3.25 C17.42428687 7.5426803 17.49128225 11.22364901 16.5625 16.25 C14.95540274 19.61212817 13.02420874 20.94444128 9.5625 22.25 C5.73687958 22.73884985 1.90284458 22.84350862 -1.95068359 22.76196289 C-6.14658625 22.74731053 -7.92529231 22.87772879 -11.42578125 25.421875 C-13.6110217 28.49394119 -14.14800694 30.22422108 -14.5 33.9375 C-15.84973909 44.01720293 -19.11379157 52.40740454 -27.35546875 58.71875 C-34.98926601 63.79810446 -42.07435887 64.61241157 -51.0625 64.625 C-52.4546875 64.66173828 -52.4546875 64.66173828 -53.875 64.69921875 C-58.2429603 64.71799222 -60.72583933 64.69388019 -64.5 62.33984375 C-67.62300646 58.97127832 -68.46022969 57.50013276 -68.375 52.8125 C-67.27093994 48.61707178 -65.70024431 47.02333266 -62.4375 44.25 C-61.9425 43.755 -61.9425 43.755 -61.4375 43.25 C-57.94420355 43.01156265 -54.45784449 42.85471792 -50.95898438 42.73242188 C-46.4476319 42.52504834 -42.69211532 41.92606058 -38.4375 40.25 C-38.29054687 39.15042969 -38.14359375 38.05085938 -37.9921875 36.91796875 C-36.22083902 24.80803715 -33.50915278 14.66068814 -23.5234375 6.68359375 C-15.79743303 1.3737742 -9.22578691 0.05595625 0 0 Z " fill="#C4455E" transform="translate(185.4375,340.75)"/>
<path d="M0 0 C0.23344258 4.35325518 0.3747943 8.70489438 0.5 13.0625 C0.60054687 14.90618164 0.60054687 14.90618164 0.703125 16.78710938 C0.89646164 25.7530961 0.89646164 25.7530961 -1.64501953 29.28808594 C-3.67435054 31.06749934 -5.73114404 32.54324872 -8 34 C-8.86367187 34.74507812 -9.72734375 35.49015625 -10.6171875 36.2578125 C-16.07279742 40.76954527 -21.43412779 44.32088058 -28 47 C-28.78246094 47.3196875 -29.56492188 47.639375 -30.37109375 47.96875 C-43.65179627 52.44399453 -60.42448691 51.56928004 -72.99609375 45.5703125 C-83.2610572 40.20423278 -83.2610572 40.20423278 -84.6875 35.94921875 C-85.51248602 29.97838241 -85.51248602 29.97838241 -84.01171875 27.11328125 C-81.27191256 23.77540528 -79.32197718 22.16876304 -75.0625 21.625 C-70.38540418 21.65453955 -66.57759101 23.78668374 -62.453125 25.80859375 C-55.25501695 29.30449017 -45.80007359 29.05120345 -38.0390625 27.3515625 C-27.09455366 23.31210656 -19.37882839 14.56917427 -11.40771484 6.42285156 C-10.73820801 5.73932617 -10.06870117 5.05580078 -9.37890625 4.3515625 C-8.47507202 3.42077881 -8.47507202 3.42077881 -7.55297852 2.47119141 C-4.84867607 -0.09068983 -3.93053649 0 0 0 Z " fill="#C4455E" transform="translate(235,160)"/>
<path d="M0 0 C4.72312606 0.45342683 6.91614069 1.31365288 10.13671875 4.7890625 C10.87374023 5.56314453 11.61076172 6.33722656 12.37011719 7.13476562 C13.13485352 7.95654297 13.89958984 8.77832031 14.6875 9.625 C23.30300713 18.56555466 31.68333409 27.05641443 44.6640625 28.37109375 C53.8292294 28.52475039 60.77600977 27.53583548 69 23 C69.495 22.505 69.495 22.505 70 22 C74.99759352 21.61556973 78.00624226 21.89374398 82 25 C84.2134605 26.91833244 84.93209738 28.15832334 85.16796875 31.08203125 C84.97520859 35.38700821 84.47473918 37.46439682 81.5625 40.75 C79.9296875 41.87890625 79.9296875 41.87890625 78 43 C77.23945313 43.44214844 76.47890625 43.88429687 75.6953125 44.33984375 C62.98549638 51.16988513 47.12049124 52.2715331 33.1015625 49.125 C29.91144188 47.95091202 26.99722526 46.60042055 24 45 C22.989375 44.50371094 21.97875 44.00742188 20.9375 43.49609375 C13.2986907 39.45259138 2.8561483 32.5684449 0 24 C-0.08239169 22.15389468 -0.10743359 20.30494836 -0.09765625 18.45703125 C-0.09443359 17.38388672 -0.09121094 16.31074219 -0.08789062 15.20507812 C-0.07951172 14.08552734 -0.07113281 12.96597656 -0.0625 11.8125 C-0.05798828 10.68134766 -0.05347656 9.55019531 -0.04882812 8.38476562 C-0.03703498 5.58979073 -0.0205765 2.7949218 0 0 Z " fill="#C4455E" transform="translate(277,160)"/>
<path d="M0 0 C0.33 0 0.66 0 1 0 C1 1.65 1 3.3 1 5 C1.98097656 4.67257813 2.96195312 4.34515625 3.97265625 4.0078125 C8.16980492 2.80862716 12.10064102 2.77183593 16.4375 2.875 C17.53481445 2.88853516 17.53481445 2.88853516 18.65429688 2.90234375 C20.43634298 2.92563847 22.21821759 2.9614981 24 3 C16.8303733 18.36348579 1.23841218 27.39654666 -14.02734375 33.08984375 C-21.28413728 35.31170038 -29.17332189 36.32194335 -36.4375 33.8125 C-39.38904036 31.72482511 -40.63083757 30.34684149 -42 27 C-42.50746274 22.94029805 -42.4335879 20.78045822 -40.4375 17.1875 C-36.67218201 13.80836847 -33.03013885 13.22248097 -28.1484375 12.6875 C-17.52669991 11.4470051 -7.48132439 7.99181476 0 0 Z " fill="#C5455E" transform="translate(383,72)"/>
<path d="M0 0 C0.66644531 0.45890625 1.33289063 0.9178125 2.01953125 1.390625 C12.05276066 8.07008962 20.81668699 11.22724036 32.8359375 12.3125 C36.60103492 13.13059524 38.37396178 14.19086186 41 17 C41.99942947 20.74646465 41.81211769 24.21945211 41 28 C38.89828297 30.93218273 36.21156045 32.39421978 33 34 C18.87668188 35.6842117 5.39653682 29.9871796 -6 22 C-13.20644249 16.25348336 -21.08847795 9.51884369 -25 1 C-16.30428345 0.47001276 -6.40391905 1.06405397 1 6 C0.67 4.02 0.34 2.04 0 0 Z " fill="#C4455E" transform="translate(129,73)"/>
<path d="M0 0 C1.09957031 0.54269531 2.19914062 1.08539063 3.33203125 1.64453125 C13.15949535 6.42850023 22.32915343 10.65893813 33.375 11.4375 C37.69515916 11.78036977 39.9894651 12.70722745 43 16 C45.03640233 18.68434853 44.99994332 20.00311739 44.9375 23.4375 C43.82467569 27.66623237 42.36546545 29.27557559 39 32 C27.72080215 35.75973262 14.50362576 31.42467727 4 27 C5.52708963 23.56404834 7.59927045 20.88087546 10 18 C8.10706047 13.60638773 4.98474217 10.69791236 1.6796875 7.31640625 C-0.27686708 4.61818099 -0.35617328 3.25726208 0 0 Z " fill="#C5465E" transform="translate(30,287)"/>
<path d="M0 0 C0.66 0.33 1.32 0.66 2 1 C-0.81742965 5.49589837 -3.49486035 9.72072757 -7.4375 13.3125 C-8.283125 14.199375 -9.12875 15.08625 -10 16 C-9.71538467 19.12458138 -8.5215828 20.85685291 -6.4375 23.125 C-4 26 -4 26 -4 28 C-14.56630036 32.72160059 -26.34737479 35.82362039 -38 34 C-41.28091744 31.75926169 -43.88577683 29.89978108 -45 26 C-44.80743088 20.70434916 -43.69046589 17.80229819 -40 14 C-37.1097968 12.5548984 -34.27070079 12.53600506 -31.0625 12.1875 C-20.74105143 10.91148321 -7.5952733 7.5952733 0 0 Z " fill="#C5465E" transform="translate(482,286)"/>
<path d="M0 0 C-0.46149048 4.79775956 -2.4533701 7.08665635 -5.6875 10.5625 C-6.53699219 11.49191406 -7.38648438 12.42132813 -8.26171875 13.37890625 C-11.05480436 16.05245895 -13.73170846 17.96629004 -17 20 C-13.04 21.65 -9.08 23.3 -5 25 C-12.78267707 30.18845138 -24.76149065 32.29745563 -34 31 C-38.13527988 29.52311433 -41.00369637 27.99260727 -43 24 C-43.41500075 20.19582642 -43.30458068 17.7213753 -41.8125 14.1875 C-38.29928556 9.94741361 -33.22744361 9.60413878 -28.05639648 8.70605469 C-19.64722582 7.24168154 -12.64730959 5.47993268 -5.21484375 1.171875 C-3 0 -3 0 0 0 Z " fill="#C6465E" transform="translate(459,172)"/>
<path d="M0 0 C3.65110391 0.57668058 6.32864115 1.58435507 9.53515625 3.3984375 C15.31495975 6.37997159 21.07164925 7.51244516 27.4375 8.625 C29.56310534 9.00243202 31.68694187 9.39000572 33.80859375 9.7890625 C34.73470459 9.95100098 35.66081543 10.11293945 36.61499023 10.27978516 C39.26366085 11.07961915 40.32802408 11.82323308 42 14 C43.20190901 17.60572704 43.32670315 20.2102435 43 24 C40.56577878 28.05703536 38.41396628 29.53510289 34 31 C23.81713023 32.50213141 14.52305867 29.15930856 5 26 C7.50248865 24.33167423 9.41149187 23.37618326 12.1875 22.375 C13.26064453 21.98441406 13.26064453 21.98441406 14.35546875 21.5859375 C14.89816406 21.39257812 15.44085938 21.19921875 16 21 C15.18015625 20.13117188 14.3603125 19.26234375 13.515625 18.3671875 C12.42685931 17.20333453 11.3383302 16.03926021 10.25 14.875 C9.44175781 14.02035156 9.44175781 14.02035156 8.6171875 13.1484375 C0 3.90072409 0 3.90072409 0 0 Z " fill="#C5465E" transform="translate(53,172)"/>
</svg>
