<svg width="18" height="20" viewBox="0 0 18 20" fill="none" xmlns="http://www.w3.org/2000/svg">
<path d="M8.97545 0C13.0254 0 16.3321 3.19474 16.4713 7.24905L16.4755 7.5V11.597L17.8555 14.753C17.9245 14.9109 17.9602 15.0814 17.9602 15.2538C17.9602 15.9441 17.4005 16.5038 16.7102 16.5038L11.9755 16.5053C11.9755 18.1621 10.6323 19.5053 8.97545 19.5053C7.37777 19.5053 6.07179 18.2564 5.98055 16.6815L5.975 16.503L1.25032 16.5038C1.07898 16.5038 0.909469 16.4686 0.752316 16.4003C0.119113 16.1252 -0.171235 15.389 0.103804 14.7558L1.47545 11.5979V7.49989C1.47605 3.3451 4.82754 0 8.97545 0ZM10.475 16.503L7.47545 16.5053C7.47545 17.3337 8.14703 18.0053 8.97545 18.0053C9.75515 18.0053 10.3959 17.4104 10.4686 16.6497L10.475 16.503ZM8.97545 1.5C5.65529 1.5 2.97593 4.17425 2.97545 7.5V11.9096L1.63147 15.0038H16.328L14.9755 11.9106L14.9756 7.51286L14.9718 7.28765C14.8608 4.05418 12.217 1.5 8.97545 1.5Z" fill="#242424"/>
</svg>
