<svg width="57" height="39" viewBox="0 0 57 39" fill="none" xmlns="http://www.w3.org/2000/svg">
<g clip-path="url(#clip0_162_9353)">
<path d="M42.1077 27.5287C40.036 29.4753 37.6365 30.8683 34.9533 31.8107C33.9582 32.1607 32.9235 32.378 31.8888 32.5907C31.7889 32.6113 31.6982 32.5724 31.6308 32.4924C30.6705 32.8469 29.759 33.341 28.729 33.5034C28.6104 33.54 28.4919 33.5766 28.3733 33.6155C27.985 33.6887 27.5967 33.7619 27.2084 33.8374C26.4481 34.0409 25.6715 34.1119 24.8833 34.0592C19.4983 33.9838 15.2643 31.8016 12.2533 27.3801C12.2417 27.3641 12.2324 27.348 12.2231 27.3297C11.7209 26.5154 11.7232 26.52 12.3882 25.8429C12.5463 25.6805 12.6695 25.4838 12.809 25.3031C12.5323 24.8777 12.1487 24.5163 11.9836 24.0222C11.8278 23.9444 11.7092 23.83 11.6348 23.6768C11.0722 22.7801 10.4188 21.9567 9.60502 21.2636C9.47946 21.4603 9.35158 21.657 9.2237 21.8537C8.85168 22.62 8.24715 23.0775 7.37291 23.0981C6.53123 23.1164 5.9732 22.6383 5.56398 21.9635C5.24312 21.4351 5.04316 20.8679 5.01758 20.248C5.01061 20.1725 5.00363 20.0947 4.99665 20.0192C4.78972 19.1935 5.02456 18.4043 5.21987 17.6129C4.66649 17.192 4.45956 16.5584 4.20379 15.966C3.82015 15.0716 3.67599 14.1269 3.72947 13.1548C3.63879 13.1891 3.54114 13.2051 3.46441 13.2554C1.45087 14.5249 0.251111 16.3571 0.0395259 18.6674C-0.241812 21.7508 1.01142 24.1663 3.73645 25.7995C5.26869 26.7167 6.6126 27.8215 7.60542 29.3289C8.78193 31.1154 10.0817 32.8126 11.7511 34.1988C11.8441 34.2948 11.8627 34.439 11.9627 34.5304C12.8346 35.2761 13.7786 35.9212 14.7877 36.4724C14.9621 36.5937 15.1736 36.6188 15.3597 36.7126C15.6061 36.8178 15.8596 36.9116 16.1014 37.026C18.7822 38.2955 21.6165 38.9337 24.5857 38.9977C25.897 39.0252 27.1945 38.8353 28.4919 38.6615C28.5686 38.6592 28.6453 38.6569 28.722 38.6546C29.8032 38.2635 30.9611 38.1216 32.0144 37.6413C32.7305 37.3142 33.4606 37.0214 34.1861 36.7126C34.3488 36.6074 34.5534 36.6303 34.7208 36.5342C38.3108 34.4504 41.0335 31.5774 42.8354 27.8741C43.0424 27.4441 43.347 27.0278 43.3144 26.5109C43.2958 26.52 43.2772 26.5292 43.2563 26.536C42.7866 26.767 42.4704 27.1879 42.1077 27.5287Z" fill="#DBD7E5"/>
<path d="M9.89099 20.0313C9.89331 20.0266 9.89796 20.0242 9.90029 20.0219L9.86774 20.0078C9.87471 20.0149 9.88169 20.0219 9.89099 20.0313Z" fill="#EDEBF1"/>
<path d="M4.20382 15.966C4.45958 16.5584 4.66652 17.192 5.21989 17.6129C5.2292 17.5923 5.24082 17.5717 5.25012 17.5511C4.41541 16.3526 3.89226 15.0465 3.87831 13.5711C3.87598 13.4178 3.85041 13.2692 3.7295 13.1548C3.67602 14.1269 3.82018 15.0716 4.20382 15.966Z" fill="#EDEBF1"/>
<path d="M53.3519 20.6871C49.1713 20.6871 44.9908 20.6826 40.8103 20.6803C40.7847 20.7009 40.7545 20.71 40.7196 20.7123C39.7198 21.5861 39.3431 22.7778 38.9548 23.9787C37.9713 27.0255 36.167 29.4959 33.4908 31.3327C32.9584 31.7741 32.319 32.0463 31.7423 32.4192H31.74C31.7028 32.442 31.6679 32.4672 31.6307 32.4924C31.6982 32.5724 31.7888 32.6113 31.8888 32.5907C32.9235 32.378 33.9582 32.1607 34.9533 31.8107C37.6365 30.8683 40.036 29.4753 42.1077 27.5287C42.4704 27.1879 42.7866 26.767 43.2563 26.536C43.2772 26.5291 43.2958 26.52 43.3144 26.5108C43.6725 26.3393 43.6236 25.9459 43.7306 25.6531C44.1212 24.5666 44.1073 24.562 45.2187 24.4934C45.314 24.4728 45.393 24.4225 45.4651 24.363H45.9301C49.4155 24.363 52.8985 24.3561 56.3838 24.3698C56.8233 24.3721 57.0046 24.2784 56.986 23.8049C56.9419 22.7572 56.9581 21.7096 56.9512 20.662C55.7514 20.6711 54.5516 20.6871 53.3519 20.6871Z" fill="#EDEBF1"/>
<path d="M5.25011 17.5512C5.5361 16.9702 5.86627 16.4235 6.48009 16.1078C7.16368 15.4696 8.3053 15.8036 8.93076 16.5378C9.60504 17.3293 9.89103 18.2557 9.89103 19.2781C9.89103 19.5252 9.898 19.7722 9.90033 20.0215C9.898 20.0238 9.89335 20.0261 9.89103 20.0307C9.93288 20.0696 9.98403 20.1039 10.0515 20.1336C10.0701 20.1382 10.0863 20.1405 10.1049 20.1428C10.0724 20.1428 10.0375 20.1451 10.005 20.1473C9.96078 20.1542 9.91893 20.1679 9.88405 20.1862C9.88637 20.2068 9.8887 20.2251 9.89103 20.2457C9.85847 20.2892 9.8236 20.3349 9.78872 20.3784C9.805 20.6734 9.68177 20.9456 9.61434 21.227C9.62131 21.2224 9.62829 21.2201 9.63526 21.2178C10.277 21.5289 10.6351 22.1236 11.0792 22.6292C11.3233 22.9082 11.5093 23.2353 11.7116 23.5487C11.7162 23.5555 11.7209 23.5647 11.7255 23.5716C11.7395 23.5944 11.7534 23.6196 11.772 23.6402C11.7999 23.6219 11.8162 23.599 11.8302 23.5716C11.8348 23.6379 11.8488 23.7019 11.8674 23.766C11.8674 23.7683 11.8697 23.7683 11.8697 23.7683C11.9069 23.814 11.9464 23.8598 11.9836 23.9055C12.0138 23.9398 12.0417 23.9764 12.0697 24.013C12.2905 24.4339 12.6742 24.7587 12.8369 25.2162C12.8532 25.1544 12.8648 25.0881 12.9067 25.0355C13.9158 23.7248 14.3715 22.1991 14.6645 20.6094C14.6738 20.5545 14.7017 20.5019 14.7249 20.4493C14.7389 20.415 14.7551 20.3829 14.7738 20.3532C14.7761 20.3509 14.7761 20.3509 14.7738 20.3486V20.3463C14.7738 20.312 14.7714 20.28 14.7691 20.2457C14.7691 20.2388 14.7691 20.2297 14.7714 20.2228C14.7714 20.1542 14.7761 20.0856 14.7807 20.017C14.7668 19.9987 14.7551 19.9804 14.7458 19.9643C14.7063 19.8912 14.7203 19.8385 14.7807 19.8019C14.6668 19.4154 14.6854 19.0059 14.6482 18.6125C14.4459 16.5218 13.7182 14.6645 12.2533 13.1136C12.2185 13.077 12.1882 13.0381 12.1627 12.997C12.1255 12.9421 12.0976 12.8849 12.0813 12.8208C12.0348 12.7431 11.9836 12.6699 11.9232 12.6081C11.872 12.5578 11.8162 12.5143 11.7465 12.4846V12.3359C11.8232 12.2764 11.879 12.2032 11.9208 12.1255C11.9185 11.9836 11.9185 11.8418 11.9185 11.7C11.9766 11.7503 12.0278 11.7778 12.0697 11.7892C12.0697 11.7869 12.072 11.7846 12.072 11.7824C13.9646 8.83619 16.5246 6.70892 19.9122 5.59954C20.0936 5.54006 20.2843 5.50575 20.4703 5.45772C22.3141 4.8081 24.216 4.68916 26.1458 4.86528C26.8411 4.92704 27.5316 5.04828 28.2222 5.14663C28.2338 5.14892 28.2431 5.14892 28.2547 5.15121C28.3314 5.19467 28.4082 5.23584 28.4849 5.2793C28.5291 5.27702 28.5756 5.27702 28.6198 5.27473C28.6546 5.27473 28.6872 5.27244 28.7221 5.27244C28.7267 5.30218 28.729 5.33191 28.729 5.36165C30.0962 5.61784 31.3239 6.21027 32.5027 6.90564C35.7462 8.82018 37.9016 11.5765 38.9874 15.1357C39.3362 16.2794 39.7919 17.3521 40.6964 18.187L40.701 18.1893C40.7033 18.1893 40.7033 18.1893 40.7057 18.1893C40.715 18.1733 40.7266 18.1596 40.7405 18.1459C40.8894 18.0384 41.0614 18.0155 41.2358 18.0155C42.5448 18.0201 43.8562 17.9697 45.1652 18.0407C45.1885 18.0452 45.2117 18.0498 45.2327 18.0567C45.2443 18.059 45.2559 18.0635 45.2652 18.0681C45.2861 17.9926 45.3024 17.9148 45.314 17.8371C45.3187 17.9423 45.335 18.0452 45.3908 18.1321C45.4163 18.1482 45.4419 18.1665 45.4652 18.187C49.0458 18.1916 52.6265 18.1962 56.2072 18.2031C56.4327 18.2053 56.6722 18.1413 56.8838 18.2854C56.914 18.2854 56.9442 18.29 56.9744 18.3014V15.2821C56.9744 14.5272 56.9744 14.5272 56.1816 14.5272H45.2327C45.128 14.4334 45.0025 14.374 44.8653 14.3854C43.9678 14.4609 43.991 14.0789 43.819 13.4773C43.7423 13.2097 43.7423 12.8826 43.4051 12.7705C43.5376 12.5829 43.4237 12.4022 43.3516 12.2261C43.1633 11.748 42.9633 11.2723 42.7378 10.8079C41.5915 8.4359 39.9872 6.40012 37.9969 4.66171C37.6551 4.36435 37.3389 4.00523 36.8623 3.89086C36.746 3.81537 36.6298 3.7376 36.5135 3.66212C36.36 3.64382 36.2066 3.63238 36.0531 3.62552C36.1066 3.5935 36.1485 3.53631 36.1647 3.43338C35.0719 2.73344 33.9629 2.0518 32.7422 1.58517C31.5122 1.11168 30.2845 0.624464 28.9569 0.459771C28.7197 0.398012 28.6453 0.478071 28.6221 0.594727C28.6012 0.505519 28.5616 0.420886 28.4919 0.345402C28.3966 0.343115 28.3105 0.322528 28.2594 0.231032C27.4549 0.155549 26.655 0.0274547 25.8506 0.0137304C24.3857 -0.0137183 22.9256 -0.0205804 21.4631 0.215021C18.459 0.699947 15.7224 1.78417 13.2624 3.54775H13.1462C13.1066 3.58663 13.0694 3.62323 13.0299 3.66212C12.644 3.96863 12.2557 4.27285 11.8674 4.57707V4.87215C11.8418 4.81039 11.8046 4.74863 11.7511 4.69144C10.4863 5.73907 9.43298 6.97197 8.51689 8.31924C7.85191 9.29825 7.18925 10.2841 6.38011 11.1487C5.62213 11.9562 4.67581 12.5646 3.72949 13.1548C3.8504 13.2692 3.87597 13.4178 3.8783 13.5711C3.89225 15.0465 4.4154 16.3526 5.25011 17.5512Z" fill="#EDEBF1"/>
<path d="M56.2071 18.203C52.6265 18.1962 49.0458 18.1916 45.4652 18.187H45.2326C43.7236 18.187 42.2147 18.1893 40.7057 18.1893C40.7033 18.1916 40.7033 18.1939 40.701 18.1962V18.1893L40.6964 18.187H40.5057C39.1362 18.1893 37.7667 18.1916 36.3972 18.1939C36.2252 18.0406 36.0624 17.8782 35.8811 17.7364C35.4021 17.3544 35.1254 17.0204 35.6927 16.4189C36.1298 15.9568 35.988 15.314 35.5555 14.9275C35.0556 14.4814 34.3744 14.4265 33.8931 14.9046C33.4885 15.3049 33.2374 15.1471 32.9398 14.8383C32.2492 14.1223 31.5726 13.3903 30.8588 12.6973C30.0939 11.9516 29.5405 11.9401 28.736 12.5898H28.7337C28.729 12.6264 28.7221 12.663 28.7174 12.6973C28.6709 12.7453 28.6267 12.7911 28.5826 12.8368C28.5546 12.8665 28.5267 12.894 28.4965 12.9237V12.926C28.4965 13.1936 28.4965 13.4613 28.4988 13.7289C28.5267 13.7586 28.5546 13.7884 28.5826 13.8181C28.5942 13.8272 28.6035 13.8387 28.6128 13.8478C28.6384 13.8753 28.6639 13.9027 28.6918 13.9302C28.6918 13.9302 28.6918 13.9325 28.6942 13.9325C28.7011 13.9393 28.7081 13.9485 28.7151 13.9553C28.7197 13.9919 28.7267 14.0308 28.7314 14.0674C29.1708 14.5203 29.594 14.9938 30.059 15.4216C30.3496 15.6869 30.4031 15.9316 30.1055 16.1787C29.6335 16.5675 29.2661 17.0685 28.743 17.4001C28.7337 17.4367 28.7267 17.4711 28.7174 17.5054C28.7244 18.338 28.7314 19.1729 28.7383 20.0078C28.7128 19.9963 28.6849 19.9872 28.6593 19.9757C28.6593 19.9826 28.6616 19.9918 28.6639 19.9986C28.8151 20.145 29.7753 19.7013 30.4868 19.2529C30.9542 18.7932 31.3727 18.2785 31.8819 17.8645C32.1446 17.6518 32.2934 17.5237 32.5655 17.8691C32.8189 18.1916 33.1723 18.4363 33.4816 18.7154C34.1465 19.3124 34.1535 19.3581 33.6234 20.0055C33.6164 20.0078 33.6071 20.0078 33.6001 20.0078V20.0101C33.5653 20.0146 33.5304 20.0192 33.4932 20.0238C33.4769 20.0535 33.4606 20.081 33.4467 20.1107C33.4444 20.1153 33.442 20.1176 33.4397 20.1221C33.4188 20.161 33.3978 20.1999 33.3769 20.2388C34.8859 20.2388 36.3972 20.2365 37.9062 20.2365V20.2342C37.9062 20.2342 37.9062 20.2342 37.9062 20.2365C39.6105 20.2365 41.3148 20.2365 43.0191 20.2388C43.6353 20.2411 44.2514 20.2411 44.8676 20.2479C44.9932 20.2502 45.1792 20.2113 45.1908 20.3943C45.1954 20.4698 45.1768 20.5156 45.1443 20.543C45.0769 20.6048 44.9443 20.5773 44.8513 20.5773C43.5051 20.5842 42.1589 20.5865 40.8103 20.5888C40.8103 20.6185 40.808 20.6482 40.808 20.6803C44.9885 20.6825 49.169 20.6871 53.3496 20.6871C54.5493 20.6871 55.7491 20.6711 56.9489 20.662C56.9489 20.6368 56.9489 20.6116 56.9442 20.5842C57.007 20.4767 57.014 20.3623 56.9744 20.2457C56.9721 20.1679 56.9698 20.0924 56.9675 20.0146C56.9675 20.0146 56.9675 20.0146 56.9651 20.0146C56.9675 19.4428 56.9675 18.8732 56.9698 18.3014C56.9396 18.2899 56.9093 18.2854 56.8791 18.2854C56.6722 18.1413 56.4327 18.2053 56.2071 18.203Z" fill="#C34861"/>
<path d="M45.2326 18.0566C45.2117 18.0498 45.1884 18.0452 45.1652 18.0406C43.8561 17.9697 42.5448 18.02 41.2358 18.0155C41.0614 18.0155 40.8893 18.0383 40.7405 18.1458C40.7266 18.1596 40.7149 18.1733 40.7056 18.1893C42.2146 18.1893 43.7236 18.187 45.2326 18.187V18.0566Z" fill="#EDEBF1"/>
<path d="M28.9569 0.45977C28.836 0.292791 28.6523 0.361413 28.4919 0.345401C28.5616 0.420885 28.6012 0.505518 28.6221 0.594726C28.6453 0.47807 28.7197 0.398011 28.9569 0.45977Z" fill="#E8E7EF"/>
<path d="M36.0531 3.62549C36.2066 3.63235 36.36 3.64379 36.5135 3.66209C36.3972 3.5866 36.281 3.51112 36.1647 3.43335C36.1484 3.53628 36.1066 3.59347 36.0531 3.62549Z" fill="#E8E7EF"/>
<path d="M11.8674 4.57709C11.8278 4.61597 11.7906 4.65486 11.7511 4.69146C11.8046 4.74864 11.8418 4.8104 11.8674 4.87216V4.57709Z" fill="#E9E8F0"/>
<path d="M11.9185 11.7C11.9185 11.8418 11.9185 11.9836 11.9208 12.1255C11.9813 12.018 12.0208 11.9013 12.0697 11.7892C12.0278 11.7778 11.9766 11.7503 11.9185 11.7Z" fill="#E9E8F0"/>
<path d="M24.588 32.911C24.3857 32.0486 23.844 31.3761 23.3255 30.6991C23.1464 30.4658 23.0186 30.2233 22.9069 29.9625C22.1118 29.7818 21.5049 29.2672 20.9004 28.7914C19.6843 27.8353 18.7613 26.6527 18.4288 25.1224C18.1289 23.75 18.3567 22.4233 18.9147 21.1423C19.0403 20.8496 19.1728 20.5591 19.3007 20.2663C19.2984 20.264 19.2961 20.2617 19.2937 20.2571C17.9824 20.2526 16.6687 20.2617 15.3573 20.2365C15.0527 20.2297 14.8993 20.3509 14.7877 20.5888C14.5319 22.3021 14.0483 23.9238 12.8509 25.2551L12.809 25.3031C12.6695 25.4838 12.5463 25.6805 12.3882 25.8429C11.7232 26.52 11.7209 26.5154 12.2231 27.3297C12.2324 27.348 12.2417 27.364 12.2533 27.3801C15.2643 31.8016 19.4983 33.9838 24.8833 34.0592C24.86 34.0158 24.8414 33.9723 24.8228 33.9289C24.6926 33.6018 24.6671 33.2495 24.588 32.911Z" fill="#D9596B"/>
<path d="M26.6318 31.3395C26.1598 30.5573 25.7622 29.7315 25.0321 29.1208C24.1602 28.3911 23.4812 28.4849 22.9093 29.4387C22.8116 29.6011 22.8046 29.7269 22.8581 29.8619C22.8721 29.8939 22.8883 29.9282 22.9069 29.9625C23.0185 30.2233 23.1464 30.4658 23.3255 30.6991C23.844 31.3761 24.3857 32.0486 24.588 32.911C24.667 33.2495 24.6926 33.6018 24.8228 33.9289C24.8414 33.9723 24.86 34.0158 24.8833 34.0592C25.6715 34.1119 26.4481 34.0409 27.2084 33.8374C27.2107 33.7916 27.2107 33.7482 27.2084 33.7047C27.1968 32.8767 26.834 32.1264 26.6318 31.3395Z" fill="#C34761"/>
<path d="M14.7877 20.5888C14.783 20.511 14.7784 20.431 14.7737 20.3532C14.7551 20.3829 14.7388 20.415 14.7249 20.4493C14.7016 20.5019 14.6737 20.5545 14.6644 20.6094C14.3715 22.1991 13.9157 23.7248 12.9066 25.0355C12.8648 25.0881 12.8532 25.1544 12.8369 25.2162C12.6741 24.7587 12.2905 24.4339 12.0696 24.013C12.0417 23.9764 12.0138 23.9398 11.9836 23.9055V24.0222C12.1487 24.5163 12.5323 24.8777 12.809 25.3031L12.8508 25.2551C14.0483 23.9238 14.5319 22.3021 14.7877 20.5888Z" fill="#EDEBF1"/>
<path d="M6.63584 20.2549L6.65212 20.2388H6.63352C6.61957 20.2137 6.60794 20.1908 6.59632 20.1656C6.57074 20.1199 6.54516 20.0719 6.52191 20.0261L6.51494 20.0101V20.0078C6.01039 20.0124 5.50352 20.017 4.99897 20.0192H4.99664C5.00362 20.0947 5.01059 20.1725 5.01757 20.248C5.04315 20.8679 5.24543 21.4351 5.56397 21.9635C5.97319 22.6383 6.53121 23.1164 7.3729 23.0981C8.24714 23.0798 8.85167 22.6223 9.22369 21.8537C9.16556 21.8675 9.10743 21.8812 9.05163 21.8903C7.74957 22.1236 7.19619 21.1835 6.63584 20.2549Z" fill="#395167"/>
<path d="M32.2911 31.4608C31.1076 31.6529 29.9171 31.5294 28.7337 31.5706C28.7313 32.1744 28.729 32.7806 28.729 33.3868V33.5034C29.759 33.341 30.6705 32.8469 31.6307 32.4924C31.6679 32.4672 31.7028 32.4421 31.74 32.4192H31.7423C32.319 32.0463 32.9584 31.7741 33.4908 31.3327C33.442 31.3121 33.3955 31.2961 33.349 31.2869C32.9816 31.1977 32.6398 31.4036 32.2911 31.4608Z" fill="#D9596C"/>
<path d="M11.0792 22.6292C10.6351 22.1236 10.277 21.5289 9.63527 21.2178C9.62829 21.2201 9.62132 21.2224 9.61434 21.227C9.60969 21.2384 9.60737 21.2521 9.60504 21.2636C10.4188 21.9567 11.0722 22.7801 11.6349 23.6768C11.6674 23.6356 11.693 23.5921 11.7116 23.5487C11.5093 23.2353 11.3233 22.9082 11.0792 22.6292Z" fill="#EDEBF0"/>
<path d="M6.51494 20.0078C6.07317 18.9281 6.01504 17.8393 6.40333 16.7322C6.46146 16.5698 6.59632 16.4051 6.54051 16.2244C6.52889 16.1856 6.51029 16.1467 6.48006 16.1078C5.86623 16.4234 5.53607 16.9701 5.25008 17.5511C5.24078 17.5717 5.22915 17.5923 5.21985 17.6129C5.02454 18.4043 4.78971 19.1935 4.99664 20.0192H4.99897C5.50352 20.0147 6.00806 20.0124 6.51494 20.0078Z" fill="#3A5167"/>
<path d="M9.78871 20.3783C9.77011 20.3555 9.75151 20.3349 9.73058 20.3212C9.57945 20.1931 9.38182 20.2502 9.20511 20.248C8.37504 20.2388 7.54498 20.2411 6.71259 20.2388H6.65214L6.63586 20.2548C7.19622 21.1835 7.74959 22.1236 9.05165 21.8903C9.10745 21.8812 9.16558 21.8674 9.22371 21.8537C9.35159 21.657 9.47947 21.4603 9.60503 21.2636C9.60735 21.2521 9.60968 21.2384 9.61433 21.227C9.68175 20.9456 9.80498 20.6734 9.78871 20.3783Z" fill="#455D72"/>
<path d="M9.88401 20.1862C9.91888 20.1679 9.96073 20.1542 10.0049 20.1474C10.0375 20.1451 10.0723 20.1428 10.1049 20.1428C10.0863 20.1405 10.07 20.1382 10.0514 20.1336C9.98399 20.1039 9.93283 20.0696 9.89098 20.0307C9.88401 20.0353 9.87703 20.0421 9.87006 20.0467C9.87471 20.0925 9.87936 20.1405 9.88401 20.1862Z" fill="#E8E7EF"/>
<path d="M11.8697 23.7683C11.8697 23.7683 11.8673 23.7683 11.8673 23.766C11.8487 23.702 11.8348 23.6379 11.8301 23.5716C11.8162 23.599 11.7999 23.6219 11.772 23.6402C11.7534 23.6196 11.7395 23.5945 11.7255 23.5716C11.7209 23.5647 11.7162 23.5556 11.7116 23.5487C11.693 23.5922 11.6674 23.6356 11.6348 23.6768C11.7092 23.8301 11.8278 23.9444 11.9836 24.0222V23.9055C11.9464 23.8598 11.9069 23.814 11.8697 23.7683Z" fill="#E8E7EF"/>
<path d="M28.4826 31.5682C27.8943 31.6186 27.3456 31.3532 26.7666 31.3372C26.7225 31.3372 26.676 31.3372 26.6318 31.3395C26.8341 32.1264 27.1968 32.8766 27.2084 33.7047C27.2107 33.7481 27.2107 33.7916 27.2084 33.8373C27.5967 33.7619 27.985 33.6887 28.3733 33.6155C28.3919 33.5629 28.4082 33.5125 28.4221 33.4599C28.5942 32.8355 28.4407 32.1973 28.4826 31.5682Z" fill="#D9596B"/>
<path d="M28.7337 31.5706L28.7151 31.5683H28.7011C28.6337 31.566 28.5686 31.566 28.5012 31.566L28.4895 31.5683H28.4826C28.4407 32.1973 28.5942 32.8355 28.4221 33.4599C28.4082 33.5125 28.3919 33.5629 28.3733 33.6155C28.4919 33.5766 28.6105 33.54 28.729 33.5034V33.3867C28.729 32.7806 28.7314 32.1744 28.7337 31.5706Z" fill="#D9596B"/>
<path d="M6.40337 16.7323C6.01508 17.8394 6.0732 18.9282 6.51498 20.0078V20.0101L6.52195 20.0261C6.5452 20.0719 6.57078 20.1199 6.59635 20.1656C6.60798 20.1908 6.6196 20.2137 6.63356 20.2388H6.65216H6.71261C7.545 20.2411 8.37506 20.2388 9.20512 20.248C9.38183 20.2503 9.57947 20.1931 9.7306 20.3212C9.75152 20.3349 9.77012 20.3555 9.78873 20.3784C9.8236 20.3349 9.85848 20.2892 9.89103 20.2457C9.88871 20.2251 9.88638 20.2068 9.88405 20.1862C9.8794 20.1405 9.87476 20.0924 9.8701 20.0467C9.86778 20.033 9.86778 20.0192 9.86545 20.0055L9.86778 20.0078L9.90033 20.0215C9.89801 19.7722 9.89103 19.5252 9.89103 19.2781C9.89103 18.2557 9.60504 17.3293 8.93076 16.5378C8.30531 15.8036 7.16368 15.4696 6.4801 16.1078C6.51032 16.1467 6.52893 16.1856 6.54055 16.2245C6.59635 16.4052 6.4615 16.5699 6.40337 16.7323Z" fill="#455D72"/>
<path d="M39.2548 22.6452C38.9897 23.3383 38.82 24.0634 38.5433 24.7519C37.4831 27.3984 35.7857 29.56 33.442 31.2275C33.3165 31.0353 33.0886 31.1223 32.9166 31.1611C31.7935 31.4242 30.6519 31.4013 29.5126 31.3967C29.2382 31.3967 28.9522 31.3647 28.7174 31.5569H28.7151V31.5683L28.7337 31.5706C29.9172 31.5294 31.1076 31.6529 32.2911 31.4608C32.6399 31.4036 32.9817 31.1977 33.349 31.2869C33.3955 31.2961 33.442 31.3121 33.4909 31.3327C36.1671 29.4959 37.9713 27.0255 38.9549 23.9787C39.3432 22.7779 39.7198 21.5861 40.7196 20.7123H40.601C39.9151 21.1858 39.5431 21.8881 39.2548 22.6452Z" fill="#F06977"/>
<path d="M40.8079 20.5888H40.5475C39.364 20.5888 38.1806 20.5842 36.9994 20.5934C36.7948 20.5934 36.5693 20.5156 36.3995 20.7032C37.7993 20.7055 39.2013 20.7077 40.601 20.7123H40.7196C40.7545 20.71 40.7847 20.7009 40.8103 20.6803C40.8103 20.6483 40.8126 20.6185 40.8126 20.5888C40.8103 20.5888 40.8103 20.5888 40.8079 20.5888Z" fill="#C6576B"/>
<path d="M45.4651 18.187C45.4419 18.1664 45.4163 18.1481 45.3907 18.1321C45.3349 18.0452 45.3186 17.9423 45.314 17.837C45.3024 17.9148 45.2861 17.9926 45.2652 18.0681C45.2559 18.0635 45.2442 18.0589 45.2326 18.0566V18.187H45.4651Z" fill="#E8E6EF"/>
<path d="M29.8009 23.5921C29.48 23.8506 29.0685 23.917 28.7244 24.1251L28.7151 24.132H28.6546C28.6244 24.132 28.5942 24.132 28.5639 24.1343C28.543 24.132 28.5221 24.1343 28.5012 24.1343L28.4733 24.1571V24.2372C28.4756 25.0332 28.4802 25.8315 28.4826 26.6252V26.6458L28.5035 26.6595H28.5337C28.5593 26.6572 28.5825 26.6572 28.6081 26.6572C28.6453 26.655 28.6802 26.655 28.7174 26.6527C28.7221 26.6184 28.7267 26.584 28.7267 26.552C28.729 26.5475 28.729 26.5429 28.729 26.5383H28.7476C29.0383 26.5612 29.2964 26.4697 29.5661 26.3599C30.4194 26.0076 30.4217 26.0191 30.8425 26.8105C30.9309 26.9775 31.0379 27.1376 31.1425 27.2977C31.575 27.9428 32.1772 28.1486 32.7608 27.8535C33.3234 27.5676 33.5769 26.8219 33.2979 26.1769C33.1165 25.7583 32.8956 25.3534 32.6817 24.9509C32.5608 24.7244 32.5399 24.5437 32.7445 24.3401C33.9698 23.1324 35.1812 21.9155 36.3996 20.7032C36.5693 20.5156 36.7948 20.5934 36.9994 20.5934C38.1806 20.5842 39.3641 20.5888 40.5475 20.5888H40.808C40.8103 20.5888 40.8103 20.5888 40.8126 20.5888C42.1612 20.5865 43.5074 20.5842 44.8536 20.5774C44.9467 20.5774 45.0792 20.6048 45.1466 20.5431C45.1792 20.5156 45.1978 20.4699 45.1931 20.3944C45.1815 20.2114 44.9955 20.2503 44.8699 20.248C44.2538 20.2411 43.6376 20.2411 43.0215 20.2388C41.3172 20.2388 39.6129 20.2388 37.9086 20.2365C37.9086 20.2365 37.9086 20.2365 37.9086 20.2343V20.2365C36.3996 20.2365 34.8882 20.2388 33.3792 20.2388C33.342 20.248 33.3072 20.2548 33.2723 20.2594C32.1376 21.3962 31.0611 22.5857 29.8009 23.5921Z" fill="#C34761"/>
<path d="M29.2336 5.59723C32.7724 6.73864 35.5299 8.84533 37.4621 11.9882C38.2085 13.2051 38.6502 14.5386 39.0943 15.8768C39.3757 16.7231 39.7523 17.5305 40.501 18.091C40.3383 18.0269 40.1639 18.0063 39.9825 18.004C39.0013 18.004 38.0201 17.9995 37.0389 18.0086C36.8739 18.0109 36.7041 18.0063 36.5576 18.0795C36.1949 17.9194 35.9694 17.6037 35.6927 17.343C35.4904 17.1508 35.4834 16.9518 35.6671 16.7414C35.7555 16.6408 35.8229 16.5241 35.8857 16.4052C36.1693 15.8608 36.0926 15.3003 35.6811 14.8772C35.2347 14.4243 34.6627 14.3236 34.093 14.6027C33.2769 15.0007 33.2769 15.0007 32.6352 14.3396C32.4213 14.12 32.2329 13.8753 32.0214 13.6534C31.5587 13.1685 31.1192 12.6584 30.5542 12.2833C29.873 11.8349 29.2661 11.9081 28.7337 12.4914V12.5875V12.5898H28.736C29.5405 11.9402 30.0938 11.9516 30.8588 12.6973C31.5726 13.3904 32.2492 14.1223 32.9398 14.8383C33.2374 15.1471 33.4885 15.3049 33.8931 14.9046C34.3744 14.4266 35.0556 14.4815 35.5555 14.9275C35.988 15.3141 36.1298 15.9568 35.6927 16.4189C35.1254 17.0205 35.4021 17.3544 35.881 17.7364C36.0624 17.8782 36.2251 18.0406 36.3972 18.1939C37.7667 18.1916 39.1362 18.1893 40.5057 18.187H40.6963C39.7919 17.3521 39.3361 16.2793 38.9874 15.1356C37.9016 11.5765 35.7462 8.82017 32.5027 6.90562C31.3238 6.21025 30.0962 5.61782 28.729 5.36163V5.41882C28.8708 5.53319 29.0638 5.54234 29.2336 5.59723Z" fill="#F06977"/>
<path d="M28.6406 5.3205C28.6592 5.34795 28.6778 5.37311 28.7011 5.39369C28.7104 5.40284 28.7197 5.41199 28.729 5.41885V5.36167C28.729 5.33193 28.7267 5.3022 28.722 5.27246C28.6871 5.27246 28.6546 5.27475 28.6197 5.27475C28.5755 5.27704 28.529 5.27704 28.4849 5.27932V5.35709C28.5407 5.35709 28.5918 5.34566 28.6406 5.3205Z" fill="#EA8795"/>
<path d="M20.1959 5.81457C19.4053 6.56255 18.9031 7.47979 18.5427 8.48624C18.2358 9.34401 18.3102 10.2201 18.38 11.0962C18.4427 11.0733 18.4892 11.0367 18.5264 10.9932C18.5264 11.0138 18.5241 11.0321 18.5218 11.0527C18.5195 11.0687 18.5195 11.0847 18.5148 11.1007C18.5078 11.1716 18.4939 11.2403 18.4706 11.3066C18.4427 11.3386 18.4172 11.3706 18.3962 11.4027C18.6404 12.5326 19.2891 13.5299 19.5193 14.6668C19.5425 14.6828 19.5681 14.6942 19.5937 14.7079C19.5983 14.7125 19.6006 14.7148 19.6053 14.7194C19.6169 14.7285 19.6262 14.74 19.6378 14.7514C19.6053 14.7537 19.5751 14.756 19.5448 14.756C19.682 15.17 19.7587 15.5909 19.7773 16.0255C19.8285 17.3705 19.7587 18.6994 19.4193 20.0078C19.3821 20.0124 19.3472 20.0193 19.31 20.0238V20.1108C19.3077 20.1542 19.3077 20.1977 19.3077 20.2389H19.3263C19.3193 20.2434 19.3123 20.2503 19.3053 20.2572C19.303 20.2594 19.303 20.264 19.3007 20.2663C19.4216 20.4447 19.2658 20.6506 19.2007 20.829C18.9287 21.5998 18.5985 22.3478 18.5055 23.1782C18.3009 25.0012 18.8682 26.5475 20.1261 27.8764C20.8818 28.6725 21.77 29.2855 22.7349 29.7956C22.7023 29.7201 22.7047 29.6332 22.7279 29.5325C22.9441 28.6679 23.9137 28.2584 24.6996 28.7319C25.3181 29.1048 25.804 29.624 26.1644 30.2439C26.3644 30.5916 26.562 30.9438 26.748 31.3007C27.3618 31.1154 27.9222 31.3533 28.4849 31.566C28.4895 31.5614 28.4965 31.5569 28.5011 31.5523C28.5081 31.5477 28.5128 31.5431 28.5197 31.5386C28.5616 31.4768 28.5848 31.4128 28.5965 31.3441C28.6128 31.4059 28.6383 31.4654 28.6802 31.5225C28.6918 31.534 28.7034 31.5431 28.7151 31.5546V31.5569H28.7174C28.9522 31.3647 29.2382 31.3967 29.5126 31.3967C30.6519 31.4013 31.7935 31.4242 32.9165 31.1611C33.0886 31.1223 33.3164 31.0353 33.442 31.2275C35.7857 29.56 37.483 27.3984 38.5433 24.7519C38.82 24.0634 38.9897 23.3383 39.2548 22.6452C39.5431 21.8881 39.9151 21.1858 40.601 20.7123C39.2013 20.7078 37.7992 20.7055 36.3995 20.7032C35.1812 21.9155 33.9698 23.1324 32.7445 24.3401C32.5399 24.5437 32.5608 24.7244 32.6817 24.9509C32.8956 25.3535 33.1165 25.7583 33.2978 26.1769C33.5769 26.822 33.3234 27.5676 32.7607 27.8536C32.1771 28.1486 31.5749 27.9428 31.1425 27.2977C31.0378 27.1376 30.9309 26.9775 30.8425 26.8105C30.4217 26.0191 30.4194 26.0077 29.566 26.3599C29.2963 26.4697 29.0382 26.5612 28.7476 26.5383C28.7406 26.5429 28.7337 26.5475 28.7267 26.552C28.7267 26.5841 28.722 26.6184 28.7174 26.6527C28.6802 26.655 28.6453 26.655 28.6081 26.6573C28.5965 26.6893 28.5872 26.7236 28.5825 26.7579C28.5709 26.7236 28.5546 26.6916 28.5337 26.6596H28.5035L28.4825 26.6458C27.9896 26.8105 27.5013 26.7922 27.0015 26.6573C26.2411 26.456 26.0412 26.2341 26.0458 25.525C26.0505 24.8548 26.2318 24.6535 27.0084 24.4751C27.4967 24.363 27.985 24.2624 28.4732 24.1572L28.5011 24.1343C28.5314 24.1045 28.5593 24.0908 28.5895 24.0885C28.6174 24.084 28.643 24.0885 28.6709 24.1045C28.6848 24.0794 28.7034 24.0542 28.7244 24.0359V24.1251C29.0685 23.917 29.48 23.8506 29.8009 23.5922C31.0611 22.5857 32.1376 21.3963 33.2699 20.2594C33.3048 20.2549 33.3397 20.248 33.3769 20.2389C33.3978 20.2 33.4187 20.1611 33.4397 20.1222C33.442 20.1176 33.4443 20.1153 33.4467 20.1108C33.4606 20.081 33.4769 20.0536 33.4932 20.0238C33.5304 20.0193 33.5652 20.0147 33.6001 20.0101V20.0078C33.5629 19.9255 33.6048 19.818 33.6931 19.7013C33.8861 19.4497 33.8024 19.2438 33.6071 19.0494C33.2583 18.6972 32.8909 18.3632 32.5259 18.0269C32.3097 17.8302 32.1376 17.8325 31.9307 18.0247C31.6796 18.258 31.4099 18.4661 31.1773 18.7269C31.0495 18.871 30.7891 19.0631 30.4868 19.253C29.7776 19.699 28.815 20.1451 28.6639 19.9987C28.6616 19.9918 28.6593 19.9827 28.6593 19.9758C28.6128 19.9575 28.5662 19.9392 28.5197 19.9209C28.5151 19.9209 28.5104 19.9186 28.5058 19.9163L28.4802 19.8957C27.6897 19.2233 27.6897 18.4204 28.4802 17.7479C28.4872 17.7044 28.4918 17.661 28.4988 17.6175C28.529 17.6038 28.5569 17.5878 28.5872 17.5718C28.5918 17.5695 28.5965 17.5672 28.6011 17.5649C28.6407 17.5443 28.6802 17.526 28.7174 17.5054C28.7267 17.4711 28.7337 17.4368 28.743 17.4002V17.3156C29.0452 16.945 29.4149 16.6408 29.7637 16.316C30.2124 15.8997 30.2078 15.8059 29.78 15.353C29.4312 14.9824 28.9987 14.6828 28.7313 14.239V14.0675C28.7267 14.0309 28.7197 13.992 28.7151 13.9554C28.7081 13.9485 28.7011 13.9394 28.6941 13.9325C28.6918 13.9325 28.6918 13.9302 28.6918 13.9302C28.6639 13.9028 28.6383 13.8753 28.6128 13.8479C28.6034 13.8387 28.5942 13.8273 28.5825 13.8181C28.5546 13.7884 28.5267 13.7587 28.4988 13.7289C28.4965 13.4613 28.4965 13.1937 28.4965 12.9261V12.9238C28.5267 12.894 28.5546 12.8666 28.5825 12.8369C28.6267 12.7911 28.6709 12.7454 28.7174 12.6973C28.722 12.663 28.729 12.6264 28.7337 12.5898V12.5875V12.4915C29.2661 11.9082 29.873 11.835 30.5542 12.2833C31.1192 12.6584 31.5587 13.1685 32.0214 13.6535C32.2329 13.8753 32.4213 14.1201 32.6352 14.3397C33.2769 15.0007 33.2769 15.0007 34.093 14.6027C34.6627 14.3237 35.2347 14.4243 35.6811 14.8772C36.0926 15.3004 36.1693 15.8608 35.8857 16.4052C35.8229 16.5241 35.7555 16.6408 35.6671 16.7414C35.4834 16.9519 35.4904 17.1509 35.6927 17.343C35.9694 17.6038 36.1949 17.9194 36.5576 18.0796C36.7041 18.0064 36.8739 18.0109 37.0389 18.0086C38.0201 17.9995 39.0013 18.0041 39.9825 18.0041C40.1639 18.0064 40.3383 18.0269 40.501 18.091C39.7523 17.5306 39.3757 16.7231 39.0943 15.8768C38.6502 14.5387 38.2085 13.2051 37.4621 11.9882C35.5299 8.84536 32.7724 6.73868 29.2336 5.59727C29.0638 5.54237 28.8708 5.53322 28.729 5.41885C28.7197 5.41199 28.7104 5.40284 28.7011 5.39369C28.6779 5.3731 28.6593 5.34794 28.6407 5.32049C28.5918 5.34566 28.5407 5.35709 28.4849 5.35709V5.27932C28.4081 5.23586 28.3314 5.19469 28.2547 5.15123C28.2431 5.14894 28.2338 5.14894 28.2221 5.14665C27.5316 5.0483 26.841 4.92706 26.1458 4.8653C24.216 4.68917 22.314 4.80812 20.4702 5.45774C20.426 5.51492 20.3865 5.57439 20.3447 5.63387C20.3005 5.69791 20.2517 5.75967 20.1959 5.81457Z" fill="#F06977"/>
<path d="M28.4849 31.566C27.9222 31.3533 27.3619 31.1154 26.748 31.3007C26.562 30.9438 26.3644 30.5916 26.1644 30.2439C25.804 29.624 25.3181 29.1048 24.6996 28.7319C23.9137 28.2584 22.9442 28.6679 22.7279 29.5325C22.7047 29.6332 22.7023 29.7201 22.7349 29.7956C21.77 29.2855 20.8818 28.6725 20.1261 27.8764C18.8682 26.5475 18.3009 25.0012 18.5055 23.1781C18.5985 22.3478 18.9287 21.5998 19.2007 20.829C19.2658 20.6506 19.4216 20.4447 19.3007 20.2663C19.1728 20.5591 19.0403 20.8496 18.9147 21.1424C18.3567 22.4233 18.1289 23.75 18.4288 25.1224C18.7613 26.6527 19.6844 27.8353 20.9004 28.7914C21.5049 29.2672 22.1118 29.7818 22.907 29.9625C22.8884 29.9282 22.8721 29.8939 22.8581 29.8619C22.8046 29.7269 22.8116 29.6011 22.9093 29.4387C23.4813 28.4849 24.1602 28.3911 25.0321 29.1208C25.7622 29.7315 26.1598 30.5573 26.6318 31.3396C26.676 31.3373 26.7225 31.3373 26.7666 31.3373C27.3456 31.3533 27.8943 31.6186 28.4826 31.5683H28.4895L28.5012 31.566V31.5523C28.4965 31.5569 28.4895 31.5614 28.4849 31.566Z" fill="#F06977"/>
<path d="M15.3574 20.2365C16.6687 20.2617 17.9824 20.2525 19.2938 20.2571H19.3054L19.3077 20.2388C19.3077 20.1976 19.3077 20.1542 19.31 20.1107V20.0238C19.3472 20.0192 19.3821 20.0124 19.4193 20.0078C19.7588 18.6994 19.8285 17.3704 19.7774 16.0254C19.7588 15.5908 19.6821 15.17 19.5449 14.7559H19.5379C19.5332 14.7262 19.5263 14.6965 19.5193 14.6667C19.2891 13.5299 18.6404 12.5326 18.3963 11.4026C18.3893 11.3775 18.3823 11.35 18.3777 11.3249C18.3777 11.2494 18.3777 11.1716 18.38 11.0961C18.3102 10.22 18.2358 9.34398 18.5427 8.48621C18.9031 7.47976 19.4054 6.56251 20.1959 5.81454C20.2517 5.75964 20.3005 5.69788 20.3447 5.63383C20.3866 5.57436 20.4261 5.51489 20.4703 5.4577C20.2843 5.50574 20.0936 5.54005 19.9122 5.59952C16.5246 6.7089 13.9646 8.83618 12.072 11.7823C12.072 11.7846 12.0696 11.7869 12.0696 11.7892C12.0208 11.9013 11.9813 12.0179 11.9208 12.1254C11.879 12.2032 11.8232 12.2764 11.7465 12.3359V12.4846C11.8162 12.5143 11.872 12.5578 11.9232 12.6081C11.9836 12.6698 12.0348 12.743 12.0813 12.8208C12.1069 12.8414 12.1348 12.8643 12.1603 12.8871C13.3531 13.8661 13.9646 15.1974 14.425 16.6133C14.7551 17.6358 14.8621 18.6971 14.8714 19.7676C14.8528 19.8157 14.8365 19.866 14.8179 19.914C14.8063 19.946 14.7947 19.9758 14.7831 20.0078C14.7831 20.0101 14.7807 20.0147 14.7807 20.0169C14.7761 20.0856 14.7714 20.1542 14.7714 20.2228C14.7691 20.2297 14.7691 20.2388 14.7691 20.2457C14.7714 20.28 14.7737 20.312 14.7737 20.3463V20.3486C14.7761 20.3509 14.7761 20.3509 14.7737 20.3532C14.7784 20.431 14.783 20.511 14.7877 20.5888C14.8993 20.3509 15.0528 20.2297 15.3574 20.2365Z" fill="#D9596B"/>
<path d="M14.8179 19.914C14.8365 19.866 14.8528 19.8156 14.8714 19.7676C14.8621 18.6971 14.7551 17.6358 14.4249 16.6133C13.9646 15.1974 13.3531 13.8661 12.1603 12.8871C12.1347 12.8643 12.1068 12.8414 12.0812 12.8208C12.0975 12.8848 12.1254 12.942 12.1626 12.9969C12.1882 13.0381 12.2184 13.077 12.2533 13.1136C13.7181 14.6644 14.4459 16.5218 14.6482 18.6125C14.6854 19.0059 14.6668 19.4153 14.7807 19.8019C14.7202 19.8385 14.7063 19.8911 14.7458 19.9643C14.7551 19.9803 14.7667 19.9986 14.7807 20.0169C14.7807 20.0146 14.783 20.0101 14.783 20.0078C14.7946 19.9758 14.8063 19.946 14.8179 19.914Z" fill="#EDEBF1"/>
<path d="M28.5825 26.7579C28.5872 26.7236 28.5965 26.6893 28.6081 26.6572C28.5825 26.6572 28.5593 26.6572 28.5337 26.6595C28.5546 26.6915 28.5709 26.7236 28.5825 26.7579Z" fill="#E98897"/>
<path d="M28.6802 31.5225C28.6383 31.4653 28.6128 31.4059 28.5965 31.3441C28.5849 31.4127 28.5616 31.4768 28.5198 31.5385C28.5128 31.5431 28.5081 31.5477 28.5012 31.5523V31.566C28.5686 31.566 28.6337 31.566 28.7011 31.5683H28.7151V31.5568V31.5546C28.7034 31.5431 28.6918 31.534 28.6802 31.5225Z" fill="#E98897"/>
<path d="M18.5148 11.1007C18.5195 11.0847 18.5195 11.0686 18.5218 11.0526C18.5241 11.032 18.5264 11.0138 18.5264 10.9932C18.4892 11.0366 18.4427 11.0732 18.38 11.0961C18.3776 11.1716 18.3776 11.2494 18.3776 11.3248C18.3823 11.35 18.3893 11.3774 18.3962 11.4026C18.4172 11.3706 18.4427 11.3386 18.4706 11.3065C18.4939 11.2402 18.5078 11.1716 18.5148 11.1007Z" fill="#DF6B7D"/>
<path d="M19.6053 14.7194C19.6007 14.7148 19.5983 14.7125 19.5937 14.7079C19.5681 14.6942 19.5425 14.6828 19.5193 14.6667C19.5263 14.6965 19.5332 14.7262 19.5379 14.756H19.5449C19.5751 14.756 19.6053 14.7537 19.6379 14.7514C19.6262 14.7399 19.6169 14.7285 19.6053 14.7194Z" fill="#DF6B7D"/>
<path d="M31.1774 18.7269C31.4099 18.4661 31.6796 18.258 31.9307 18.0247C32.1376 17.8325 32.3097 17.8302 32.5259 18.0269C32.891 18.3632 33.2583 18.6971 33.6071 19.0494C33.8024 19.2438 33.8861 19.4497 33.6931 19.7013C33.6048 19.818 33.5629 19.9255 33.6001 20.0078C33.6071 20.0078 33.6164 20.0078 33.6234 20.0055C34.1535 19.3582 34.1465 19.3125 33.4816 18.7154C33.1723 18.4364 32.8189 18.1916 32.5655 17.8691C32.2934 17.5237 32.1446 17.6518 31.8819 17.8645C31.3704 18.2808 30.9542 18.7955 30.4868 19.253C30.7891 19.0631 31.0472 18.871 31.1774 18.7269Z" fill="#F06977"/>
<path d="M28.6546 24.132H28.7151L28.7244 24.1251V24.0359C28.7034 24.0542 28.6848 24.0793 28.6709 24.1045C28.643 24.0885 28.6174 24.0839 28.5895 24.0885C28.5593 24.0908 28.5314 24.1045 28.5012 24.1342C28.5221 24.1342 28.543 24.132 28.5639 24.1342C28.5942 24.132 28.6244 24.132 28.6546 24.132Z" fill="#E9909E"/>
<path d="M29.7799 15.353C30.2078 15.8059 30.2124 15.8996 29.7637 16.3159C29.4149 16.6408 29.0452 16.945 28.7429 17.3155V17.4002C29.2661 17.0685 29.6335 16.5676 30.1055 16.1787C30.4031 15.9317 30.3496 15.6869 30.059 15.4216C29.5939 14.9938 29.1708 14.5203 28.7313 14.0674V14.239C28.9987 14.6828 29.4312 14.9824 29.7799 15.353Z" fill="#F06977"/>
<path d="M28.5872 17.5717C28.557 17.5877 28.5291 17.6037 28.4988 17.6175C28.4919 17.6609 28.4872 17.7044 28.4802 17.7478C27.6897 18.4203 27.6897 19.2232 28.4802 19.8957L28.5058 19.9163C28.5105 19.9186 28.5151 19.9209 28.5198 19.9209C28.5663 19.9392 28.6128 19.9575 28.6593 19.9758C28.6848 19.9872 28.7127 19.9963 28.7383 20.0078C28.7313 19.1729 28.7244 18.338 28.7174 17.5054C28.6802 17.526 28.6407 17.5443 28.6011 17.5648C28.5965 17.5671 28.5918 17.5694 28.5872 17.5717Z" fill="#C34761"/>
<path d="M28.4733 24.2372V24.1571C27.985 24.2623 27.4967 24.363 27.0085 24.4751C26.2319 24.6535 26.0505 24.8548 26.0459 25.525C26.0412 26.2341 26.2412 26.4559 27.0015 26.6572C27.5014 26.7922 27.9896 26.8105 28.4826 26.6458V26.6252C28.4802 25.8315 28.4756 25.0332 28.4733 24.2372Z" fill="#C34761"/>
</g>
<defs>
<clipPath id="clip0_162_9353">
<rect width="57" height="39" fill="white"/>
</clipPath>
</defs>
</svg>
