<svg width="40" height="27" viewBox="0 0 40 27" fill="none" xmlns="http://www.w3.org/2000/svg">
<path d="M12.4441 8.83701C12.482 9.69511 13.2235 12.9698 13.2235 12.9698C13.4959 13.633 13.7305 12.9698 13.7305 12.9698C14.6275 10.2795 12.7944 8.72055 12.7944 8.72055C12.3264 8.44705 12.4441 8.83701 12.4441 8.83701ZM23.0876 8.36946C23.0876 8.36946 23.985 8.99323 23.0876 9.1101C23.0876 9.1101 19.7344 9.49984 17.2393 11.8398C17.2393 11.8398 13.4959 15.1137 12.0927 18.701C12.0927 18.701 11.6247 18.701 11.7813 17.9994C11.9371 17.2977 12.8724 14.2174 17.0438 10.4362C17.0438 10.4362 21.0608 6.77096 23.0876 8.36946Z" fill="#FF4600"/>
<path d="M6.02852 13.5603C6.17665 13.5915 6.30965 13.6068 6.50498 13.6068C7.26978 13.6068 7.78512 13.1149 7.78512 12.4901C7.78512 11.928 7.38707 11.7253 6.8722 11.7253C6.64525 11.7253 6.47349 11.741 6.3643 11.7719L6.02852 13.5603ZM5.59909 11.1239C5.91927 11.0455 6.39573 10.999 6.8641 10.999C7.35628 10.999 7.87156 11.1001 8.21496 11.3738C8.51949 11.608 8.69905 11.951 8.69905 12.4202C8.69905 13.0446 8.40221 13.5526 8.02737 13.8491C7.60597 14.1848 7.00414 14.3489 6.37955 14.3489C6.19196 14.3489 6.02852 14.3251 5.88784 14.3098L5.50515 16.3011H4.61538L5.59909 11.1239ZM11.1113 13.1537C11.0178 13.1299 10.9009 13.1149 10.7368 13.1149C9.90131 13.1149 9.24529 14.06 9.24529 14.9269C9.24529 15.3245 9.39366 15.6528 9.79206 15.6528C10.2211 15.6528 10.7368 15.1222 10.9165 14.1536L11.1113 13.1537ZM10.7445 16.3011C10.7445 16.0742 10.7756 15.7701 10.8072 15.4494H10.7915C10.4168 16.1449 9.90894 16.3868 9.42485 16.3868C8.74573 16.3868 8.30011 15.8557 8.30011 15.0907C8.30011 13.7945 9.206 12.4121 10.9787 12.4121C11.3924 12.4121 11.8377 12.4901 12.1345 12.5838L11.7363 14.5673C11.6267 15.1294 11.5644 15.848 11.5801 16.3011H10.7445ZM17.3024 14.7939C17.3024 15.3165 17.5757 15.6845 18.0443 15.6845C18.7236 15.6845 19.1767 14.747 19.1767 13.9896C19.1767 13.5988 18.9967 13.1147 18.4506 13.1147C17.7242 13.1147 17.3024 14.0833 17.3024 14.7939ZM20.1136 13.9821C20.1136 15.278 19.2154 16.3866 17.9195 16.3866C16.9586 16.3866 16.3657 15.723 16.3657 14.8169C16.3657 13.5289 17.2635 12.4122 18.5598 12.4122C19.5826 12.4122 20.1136 13.1462 20.1136 13.9821ZM20.2846 16.3011L20.7768 13.6771C20.8703 13.2241 20.9249 12.8259 20.9719 12.4982H21.7845L21.6984 13.1775H21.7137C22.0648 12.6697 22.5493 12.4121 23.0804 12.4121C23.6267 12.4121 24.0485 12.7404 24.0485 13.4587C24.0485 13.6302 24.0179 13.8956 23.9786 14.0832L23.564 16.3011H22.6505L23.0562 14.1536C23.0804 14.0131 23.1036 13.8491 23.1036 13.7005C23.1036 13.3803 22.9865 13.1537 22.6274 13.1537C22.2136 13.1537 21.6824 13.6534 21.5185 14.5441L21.1907 16.3011H20.2846ZM26.4683 13.0915C25.898 13.0915 25.5235 13.5989 25.4143 14.06C26.351 14.0677 26.9528 13.9428 26.9528 13.4822C26.9528 13.2402 26.7575 13.0915 26.4683 13.0915ZM27.3351 16.0822C26.9601 16.2773 26.453 16.3868 25.9919 16.3868C24.9387 16.3868 24.4308 15.739 24.4308 14.8095C24.4308 13.6616 25.2736 12.4123 26.5856 12.4123C27.3351 12.4123 27.8116 12.8415 27.8116 13.4822C27.8116 14.458 26.789 14.7702 25.321 14.7392C25.305 14.8718 25.3363 15.1294 25.4224 15.2779C25.5709 15.5359 25.8434 15.6685 26.2031 15.6685C26.633 15.6685 26.976 15.559 27.2501 15.4186L27.3351 16.0822ZM30.0049 13.0915C29.4352 13.0915 29.0602 13.5989 28.9509 14.06C29.8876 14.0677 30.4895 13.9428 30.4895 13.4822C30.4895 13.2402 30.2942 13.0915 30.0049 13.0915ZM30.8718 16.0822C30.4973 16.2773 29.9896 16.3868 29.5293 16.3868C28.4753 16.3868 27.9674 15.739 27.9674 14.8095C27.9674 13.6616 28.8103 12.4123 30.1223 12.4123C30.8717 12.4123 31.349 12.8415 31.349 13.4822C31.349 14.458 30.3256 14.7702 28.8576 14.7392C28.8415 14.8718 28.8729 15.1294 28.959 15.2779C29.1075 15.5359 29.3806 15.6685 29.7397 15.6685C30.1696 15.6685 30.5126 15.559 30.7867 15.4186L30.8718 16.0822ZM31.4029 16.3011L31.8478 13.9583C31.9492 13.4196 32.0038 12.8339 32.0423 12.4981H32.8313C32.808 12.7557 32.7848 13.0212 32.7455 13.2948H32.7686C33.0275 12.787 33.4404 12.4121 33.9561 12.4121C34.0268 12.4121 34.0968 12.4202 34.1595 12.4202L33.9795 13.3104C33.9327 13.3023 33.8703 13.3023 33.8076 13.3023C33.159 13.3023 32.7455 13.9583 32.5976 14.7702L32.3083 16.3011H31.4029ZM34.8503 12.846H34.9169C34.9852 12.846 35.0303 12.8079 35.0303 12.7505C35.0303 12.6857 34.9829 12.6573 34.9147 12.6573C34.8832 12.6573 34.8609 12.6596 34.8503 12.6621L34.8503 12.846ZM34.7852 12.6166C34.8263 12.6097 34.868 12.6063 34.9097 12.6063C34.9788 12.6063 35.0247 12.6203 35.0551 12.6476C35.0801 12.6698 35.0946 12.7043 35.0946 12.744C35.0946 12.8094 35.0535 12.8537 35.0005 12.8713V12.8737C35.039 12.887 35.0615 12.9232 35.0744 12.9753C35.0905 13.0448 35.1025 13.0939 35.113 13.1135H35.0456C35.0375 13.0982 35.0261 13.0558 35.0134 12.9931C34.9981 12.9236 34.9701 12.8979 34.9113 12.8955H34.8503V13.1135H34.7852V12.6166Z" fill="black"/>
<path d="M34.9347 12.4121C34.8153 12.4122 34.7009 12.4596 34.6166 12.544C34.5322 12.6284 34.4848 12.7428 34.4847 12.8621C34.4847 13.1103 34.6864 13.3122 34.9347 13.3122C35.1829 13.3122 35.3846 13.1103 35.3846 12.8621C35.3845 12.7428 35.3371 12.6284 35.2527 12.544C35.1684 12.4596 35.054 12.4122 34.9347 12.4121ZM34.9347 12.4816C34.9846 12.4816 35.0341 12.4914 35.0802 12.5106C35.1263 12.5297 35.1682 12.5577 35.2035 12.5931C35.2388 12.6284 35.2668 12.6703 35.2859 12.7165C35.3049 12.7627 35.3147 12.8121 35.3147 12.8621C35.3147 13.0725 35.1444 13.2429 34.9347 13.2429C34.8846 13.2429 34.8351 13.233 34.7889 13.2139C34.7427 13.1948 34.7007 13.1667 34.6653 13.1314C34.63 13.096 34.6019 13.054 34.5828 13.0078C34.5636 12.9616 34.5538 12.9121 34.5538 12.8621C34.5538 12.8121 34.5636 12.7625 34.5827 12.7163C34.6019 12.6701 34.6299 12.6282 34.6653 12.5928C34.7007 12.5575 34.7427 12.5295 34.7889 12.5104C34.8351 12.4913 34.8847 12.4815 34.9347 12.4816Z" fill="black"/>
</svg>
