<?xml version="1.0" encoding="UTF-8"?>
<svg version="1.1" xmlns="http://www.w3.org/2000/svg" width="512" height="512">
<path d="M0 0 C30.35837149 26.57053798 50.76084447 64.60908923 53.76369858 105.1360054 C54.52163886 117.04972567 54.76198063 128.93145373 54.74511719 140.86621094 C54.7457948 142.60804254 54.74676857 144.34987404 54.74801636 146.09170532 C54.74947582 149.71690789 54.74739868 153.34208553 54.74267578 156.96728516 C54.73702152 161.51957513 54.74034021 166.07180612 54.74610996 170.62409401 C54.76399886 187.19701216 54.73742932 203.76212497 54.17871094 220.32714844 C54.14153961 221.43399994 54.10436829 222.54085144 54.06607056 223.6812439 C51.44939188 291.00783637 30.35628195 360.242164 -16.38769531 410.09277344 C-17.09321533 410.84929199 -17.09321533 410.84929199 -17.81298828 411.62109375 C-39.52198293 434.71457268 -68.13368693 450.90491723 -100.29003906 452.25683594 C-135.8547399 453.16324682 -166.1667798 438.9394661 -191.95019531 414.78808594 C-201.1545052 405.96575193 -208.97129854 396.44367967 -216.38769531 386.09277344 C-216.81856445 385.50657227 -217.24943359 384.92037109 -217.69335938 384.31640625 C-251.02648656 338.79016366 -266.49465375 276.8935525 -266.54882812 220.99072266 C-266.55379303 219.74016586 -266.55875793 218.48960907 -266.56387329 217.20115662 C-266.57587636 213.8061232 -266.58341187 210.4111505 -266.58788395 207.01610327 C-266.5908392 204.88383196 -266.59494824 202.75156573 -266.59938812 200.61929703 C-266.61302223 193.91520114 -266.62270907 187.21111721 -266.62659001 180.50700843 C-266.63106253 172.82850244 -266.6485902 165.15017517 -266.67759061 157.47172344 C-266.69936254 151.49502525 -266.70930246 145.51837678 -266.71063113 139.54163945 C-266.71166804 135.99095488 -266.71733312 132.4404392 -266.73545074 128.88979721 C-266.80715436 114.00239651 -266.64337264 99.66526714 -263.38769531 85.09277344 C-263.1787262 84.1342598 -262.96975708 83.17574615 -262.75445557 82.18818665 C-262.27694629 80.09116386 -261.73464419 78.03363927 -261.13769531 75.96777344 C-260.92790039 75.23244385 -260.71810547 74.49711426 -260.50195312 73.73950195 C-258.16044124 65.86604155 -254.97519795 58.46976566 -251.38769531 51.09277344 C-251.05785645 50.40328613 -250.72801758 49.71379883 -250.38818359 49.00341797 C-232.24074997 11.47573219 -199.09557609 -17.18776197 -159.96582031 -31.08691406 C-103.73063152 -50.01260394 -45.08326194 -38.73880767 0 0 Z " fill="#DE4A8C" transform="translate(362.3876953125,49.9072265625)"/>
<path d="M0 0 C1.22686523 0.00676758 1.22686523 0.00676758 2.47851562 0.01367188 C4.46487647 0.02528802 6.4511988 0.04321552 8.4375 0.0625 C8.4375 1.0525 8.4375 2.0425 8.4375 3.0625 C9.75329901 4.66250128 9.75329901 4.66250128 11.5 6.3125 C22.08714953 17.97339695 26.41853886 34.73634766 25.84765625 50.1484375 C25.31456113 55.23568806 24.21818533 58.5740871 20.4375 62.0625 C15.10354854 66.00752318 10.0542959 67.61389966 3.4375 67.0625 C0.13351692 65.77946432 -2.79425377 64.27740101 -4.73828125 61.203125 C-6.16167252 57.50635526 -6.10831983 53.95505722 -5.5625 50.0625 C-3.36647859 46.26937211 -0.52524158 45.67899037 3.5 44.5625 C4.35722656 44.3665625 5.21445312 44.170625 6.09765625 43.96875 C9.00548641 42.84251194 9.94177148 41.77804595 11.4375 39.0625 C11.83392587 36.8070175 11.83392587 36.8070175 11.6875 34.5 C11.66429687 33.35337891 11.66429687 33.35337891 11.640625 32.18359375 C11.49956055 29.87476263 11.49956055 29.87476263 10.4375 27.0625 C5.8873132 24.27367583 0.57363868 24.25975633 -4.5625 25.0625 C-13.25188517 28.13384243 -19.35400711 32.26097983 -23.8046875 40.30859375 C-27.65928523 48.61591644 -27.79182315 56.9742391 -25.125 65.6875 C-21.32825089 74.90627328 -14.74783066 81.19888426 -5.7265625 85.22265625 C3.53152022 88.81559449 13.53562719 87.82256473 22.69140625 84.30859375 C32.7524606 79.74319355 39.32081945 73.12990238 43.82421875 62.91796875 C49.73885291 45.75515312 45.18615978 28.77166032 38.390625 12.6015625 C37.4375 10.0625 37.4375 10.0625 37.4375 7.0625 C66.68724178 13.79998205 92.22756935 35.08392983 108.08203125 60.125 C117.52637657 75.59558946 122.83218308 91.38821963 126.4375 109.0625 C126.61619629 109.84834473 126.79489258 110.63418945 126.97900391 111.44384766 C127.88098869 116.59543913 127.62216834 121.84657933 127.625 127.0625 C127.63724609 128.21878906 127.64949219 129.37507812 127.66210938 130.56640625 C127.71807121 163.95696901 114.20722325 193.99600859 91.4375 218.0625 C90.67824219 218.88621094 89.91898438 219.70992187 89.13671875 220.55859375 C71.49795426 239.06341869 48.21985213 249.90675627 23.4375 255.0625 C23.29054688 256.02349609 23.29054688 256.02349609 23.140625 257.00390625 C21.6010736 265.90941479 19.0960613 271.65645673 11.4375 277.0625 C5.57598979 280.39551561 0.03632075 281.03700939 -6.5625 280.0625 C-12.99326073 277.79814763 -17.83550474 273.73511313 -21.5625 268.0625 C-23.60755655 263.60055845 -23.61978394 259.92017828 -23.5625 255.0625 C-24.3875 254.91554688 -25.2125 254.76859375 -26.0625 254.6171875 C-50.68732604 249.83513423 -71.38106876 238.26426616 -89.5625 221.0625 C-90.38621094 220.30324219 -91.20992187 219.54398438 -92.05859375 218.76171875 C-113.60757649 198.22126874 -127.43623121 167.81356655 -128.68847656 138.0703125 C-129.59770256 99.99791245 -118.77256589 67.19252368 -92.5625 39.0625 C-78.66141742 24.57902316 -60.03829482 12.34407148 -40.5625 7.0625 C-39.5725 7.0625 -38.5825 7.0625 -37.5625 7.0625 C-37.5625 6.4025 -37.5625 5.7425 -37.5625 5.0625 C-34.58444722 4.41114563 -31.60521741 3.76631261 -28.625 3.125 C-27.79419922 2.94259766 -26.96339844 2.76019531 -26.10742188 2.57226562 C-17.3530624 0.69876457 -8.94687616 -0.09572789 0 0 Z " fill="#FEDDC6" transform="translate(256.5625,8.9375)"/>
<path d="M0 0 C8.99406637 -0.34648972 17.02316984 0.46805832 25.75 2.625 C26.88034668 2.89715332 28.01069336 3.16930664 29.17529297 3.44970703 C44.4160456 7.21808466 58.19741062 12.54690001 72 20 C73.05960938 20.56589844 74.11921875 21.13179687 75.2109375 21.71484375 C98.19625623 34.53473937 116.93956324 53.97271701 131 76 C131.37253906 76.57975586 131.74507813 77.15951172 132.12890625 77.75683594 C144.34038013 97.05411892 151.9498269 120.27958855 154 143 C154.12568359 144.36318359 154.12568359 144.36318359 154.25390625 145.75390625 C156.46515976 195.89942932 120.68296323 245.65308485 88.52734375 280.80859375 C79.13140754 291.00140374 69.59313084 301.0365816 59 310 C58.10410156 310.78503906 57.20820313 311.57007813 56.28515625 312.37890625 C41.11681738 325.5900401 24.6448813 337.03908219 7.47558594 347.49267578 C5.82353332 348.49857054 4.18585645 349.52845911 2.56347656 350.58154297 C-3.13845352 354.10921012 -3.13845352 354.10921012 -7.05078125 353.61328125 C-8.02402344 353.08089844 -8.99726563 352.54851562 -10 352 C-10.91144775 351.50185791 -10.91144775 351.50185791 -11.84130859 350.99365234 C-13.99293818 349.77778602 -16.08997585 348.49442597 -18.1875 347.1875 C-19.35684082 346.46433594 -19.35684082 346.46433594 -20.54980469 345.7265625 C-47.32165411 329.01152358 -71.7704676 309.41853784 -94.08666992 287.09863281 C-95.55955972 285.6279359 -97.04030265 284.16546466 -98.52148438 282.703125 C-104.78890054 276.47259554 -110.53166203 269.9493608 -116 263 C-116.47590576 262.40896484 -116.95181152 261.81792969 -117.44213867 261.20898438 C-143.31794972 229.05467704 -170.36185842 183.79676786 -165.77734375 140.91748047 C-163.54036525 123.40367172 -158.7142112 106.86275518 -151 91 C-150.67016113 90.3105127 -150.34032227 89.62102539 -150.00048828 88.91064453 C-131.48100758 50.61359015 -98.24794566 22.99429488 -58.64453125 8.59375 C-57.09855522 8.05612843 -55.55051594 7.52438456 -54 7 C-53.33145996 6.77054688 -52.66291992 6.54109375 -51.97412109 6.3046875 C-48.65534628 5.24634847 -46.29962737 4.68014905 -43 6 C-43.680625 6.1959375 -44.36125 6.391875 -45.0625 6.59375 C-76.46969497 16.28320377 -102.74343327 38.26605675 -118.265625 67.12890625 C-128.02646449 85.89685245 -133.39547862 105.20974494 -133.25 126.4375 C-133.25773437 127.56220703 -133.26546875 128.68691406 -133.2734375 129.84570312 C-133.19533706 163.83891857 -118.8650316 195.1096203 -95.25 219.1875 C-76.54384953 237.68583251 -53.99359483 246.98960145 -29 254 C-28.85304687 254.96099609 -28.85304687 254.96099609 -28.703125 255.94140625 C-27.48774194 262.97176862 -25.95206177 268.2033099 -20.625 273.25 C-19.75875 273.8275 -18.8925 274.405 -18 275 C-17.13375 275.5775 -16.2675 276.155 -15.375 276.75 C-9.62087133 278.88115877 -4.09494582 279.02580357 1.7578125 277.0859375 C8.11083801 274.14647793 11.96516359 270.86618919 15.25 264.625 C16.25915104 261.09297137 16.62832094 257.65484404 17 254 C20.86933308 252.66408718 24.75516437 251.51695718 28.70751953 250.4543457 C50.22317966 244.53267306 68.11122102 233.51215607 84 218 C84.71542969 217.34644531 85.43085938 216.69289062 86.16796875 216.01953125 C107.06319168 196.45893333 119.93424787 165.31367854 121.12597656 137.0078125 C122.03603916 98.90038106 111.19102889 66.17423288 85 38 C70.49027952 23.10104707 51.73886178 12.35658261 32 6 C32.47050781 7.20914062 32.94101562 8.41828125 33.42578125 9.6640625 C40.40392221 27.88009313 46.36264742 46.09008098 38 65 C31.23871011 76.68267125 22.82115324 82.63242119 10.1171875 86.5859375 C1.20039835 88.32981139 -8.18298226 87.80554369 -16 83 C-24.44813822 76.54758139 -30.74828117 69.57821867 -33 59 C-34.12428821 48.96267996 -32.21284513 40.77049444 -26 32.75 C-20.3719956 26.82071057 -12.80895035 22.7205871 -4.5625 22.4375 C-0.69694112 22.69809947 1.97496948 23.4476305 5 26 C7.70268792 30.05403188 7.6363834 33.24387141 7 38 C5.40307777 41.33901922 4.09699401 42.60501034 0.61328125 43.859375 C-1.13258435 44.35892195 -2.89104655 44.81687394 -4.66015625 45.2265625 C-7.27260344 46.09010932 -8.40249291 46.76864333 -10 49 C-10.43633091 51.14313515 -10.43633091 51.14313515 -10.3125 53.4375 C-10.30863281 54.19933594 -10.30476562 54.96117187 -10.30078125 55.74609375 C-9.96617982 58.25343172 -9.34514704 59.86332085 -8 62 C-3.57634914 64.88051684 -0.22809774 65.62028278 5 65 C9.81473175 63.68237117 13.9128617 61.7830072 17.0625 57.8125 C21.42394972 49.62148467 19.91543111 38.4000153 17.55664062 29.75732422 C14.12982678 18.64720457 9.5782708 8.03709691 0 1 C0 0.67 0 0.34 0 0 Z " fill="#F16CA5" transform="translate(262,10)"/>
<path d="M0 0 C3.16120848 2.96753981 4.97363572 6.40064994 7 10.1875 C24.52751747 42.08052275 50.97651852 73.60208598 79.5625 96.0625 C81.94633012 97.95733933 84.1906136 99.94570386 86.4375 102 C91.69185271 106.70126295 97.28885441 110.87470791 103 115 C104.05791748 115.77005371 104.05791748 115.77005371 105.13720703 116.55566406 C117.18325439 125.29089909 129.57840825 133.14043885 142.48681641 140.53662109 C144.95672865 141.97480392 147.38252606 143.47215241 149.8125 144.9765625 C155.7841631 148.56961248 162.0455387 151.47278457 168.375 154.375 C168.98971161 154.6575766 169.60442322 154.9401532 170.23776245 155.23129272 C194.76228767 166.48895198 219.69097805 174.87600102 246 181 C233.20909384 197.89699382 210.95032564 209.63813145 191 216 C190.12601563 216.28617188 189.25203125 216.57234375 188.3515625 216.8671875 C169.6666712 222.75881989 144.583958 222.51595208 126 216 C125.30841797 215.75862305 124.61683594 215.51724609 123.90429688 215.26855469 C82.9425319 200.61301771 53.6803501 166.60322285 34 129 C33.64454102 128.33145996 33.28908203 127.66291992 32.92285156 126.97412109 C16.30191198 95.61282712 6.86329567 60.35584363 1.6875 25.375 C1.51565186 24.22491455 1.34380371 23.0748291 1.16674805 21.88989258 C0.1471136 14.54799213 -0.20398549 7.40895432 0 0 Z " fill="#F16CA5" transform="translate(97,238)"/>
<path d="M0 0 C0.33 0 0.66 0 1 0 C1.23031978 9.13791348 0.61833895 17.8958981 -0.6875 26.9375 C-0.86756592 28.20166748 -1.04763184 29.46583496 -1.2331543 30.76831055 C-4.12388198 50.31437144 -9.14314324 69.15038357 -15 88 C-15.38164307 89.25514404 -15.38164307 89.25514404 -15.77099609 90.53564453 C-22.75105519 113.2058826 -33.82470925 135.31227166 -47 155 C-47.65613281 156.01835937 -48.31226563 157.03671875 -48.98828125 158.0859375 C-52.1575141 162.653568 -52.1575141 162.653568 -54 164 C-59.84853113 164.64571346 -65.33713994 163.26761717 -71 161.9375 C-71.96204346 161.71271973 -72.92408691 161.48793945 -73.9152832 161.25634766 C-94.39930034 156.34922036 -113.65335746 149.22628985 -133 141 C-133 140.01 -133 139.02 -133 138 C-130.69572901 136.3851718 -128.42876162 134.96722963 -126 133.5625 C-117.20145802 128.27176412 -109.10713329 122.28318235 -101 116 C-99.7566889 115.04794395 -98.51320301 114.09611612 -97.26953125 113.14453125 C-90.82055215 108.17728601 -84.65170078 103.03856343 -78.6953125 97.484375 C-76.6147574 95.56664595 -74.50962444 93.71635804 -72.36328125 91.875 C-67.54492061 87.67223076 -63.01093505 83.19701233 -58.49145508 78.67675781 C-57.07331716 77.26080053 -55.64703335 75.85301711 -54.22070312 74.4453125 C-48.03746648 68.27496655 -42.44354644 61.82518199 -37 55 C-35.44049815 53.1849197 -33.87866188 51.37183674 -32.3125 49.5625 C-19.70818533 34.39823925 -8.8198429 17.63968579 0 0 Z " fill="#F16CA5" transform="translate(414,236)"/>
<path d="M0 0 C1.1034375 -0.01611328 2.206875 -0.03222656 3.34375 -0.04882812 C17.11672087 -0.05691085 30.41626049 3.28068177 40.78125 12.765625 C46.29371016 18.57130113 47.63179078 23.71893594 47.51953125 31.46484375 C46.83298976 38.71830383 42.98211602 43.18027543 37.55078125 47.7421875 C35.06173468 49.44099348 32.59697876 50.48571398 29.8125 51.625 C27.24519629 52.7041175 27.24519629 52.7041175 25.25 54.3125 C24.43273698 56.88486884 24.37538017 59.06103713 24.359375 61.75390625 C24.14933384 66.66736899 21.9481414 70.45423609 18.67578125 74.03515625 C12.54169186 79.64543576 6.34209775 81.98498731 -1.97265625 81.72265625 C-9.02364958 80.68137031 -14.30129813 76.58241401 -18.6015625 71.05859375 C-20.67954229 67.89921632 -21.81850401 64.96255317 -21.66015625 61.1484375 C-21.62037064 58.50490466 -21.70820694 56.75806506 -22.75 54.3125 C-25.60136957 52.40262038 -28.51011231 51.12934226 -31.66015625 49.7734375 C-37.05218378 47.22398327 -40.20825698 43.40131312 -43.6875 38.6875 C-45.63450752 32.50288789 -46.14808114 25.83418167 -43.71875 19.71484375 C-37.37353693 9.4391237 -26.6671588 3.49209127 -15.17016602 0.72045898 C-10.14695218 -0.12628673 -5.08053774 -0.01463289 0 0 Z " fill="#6FABE5" transform="translate(254.75,207.6875)"/>
<path d="M0 0 C4.35084797 -0.27673238 8.64963332 -0.20194144 13 0 C14.11544189 0.02682861 14.11544189 0.02682861 15.25341797 0.05419922 C20.81417087 0.2877857 26.31495612 0.76996086 31 4 C35.58494444 10.05919841 37.22320717 17.74306071 39 25 C39.37377338 26.34705837 39.74975488 27.69350795 40.12890625 29.0390625 C43.51508911 42.49268588 43.31812023 55.81094713 36.234375 68.05078125 C29.23945736 78.22645869 20.24472578 84.60527503 8 87 C-2.1949487 87.78323913 -10.42057678 87.26138556 -18.6953125 80.94140625 C-26.74506551 73.98294629 -32.1198511 66.85771486 -33.32421875 56.10546875 C-33.66075781 47.06533324 -31.55630953 39.92293748 -26 32.75 C-20.3719956 26.82071057 -12.80895035 22.7205871 -4.5625 22.4375 C-0.69694112 22.69809947 1.97496948 23.4476305 5 26 C7.70268792 30.05403188 7.6363834 33.24387141 7 38 C5.40307777 41.33901922 4.09699401 42.60501034 0.61328125 43.859375 C-1.13258435 44.35892195 -2.89104655 44.81687394 -4.66015625 45.2265625 C-7.27260344 46.09010932 -8.40249291 46.76864333 -10 49 C-10.43633091 51.14313515 -10.43633091 51.14313515 -10.3125 53.4375 C-10.30669922 54.58025391 -10.30669922 54.58025391 -10.30078125 55.74609375 C-9.96617982 58.25343172 -9.34514704 59.86332085 -8 62 C-3.57634914 64.88051684 -0.22809774 65.62028278 5 65 C9.81473175 63.68237117 13.9128617 61.7830072 17.0625 57.8125 C21.42394972 49.62148467 19.91543111 38.4000153 17.55664062 29.75732422 C14.12982678 18.64720457 9.5782708 8.03709691 0 1 C0 0.67 0 0.34 0 0 Z " fill="#DF8862" transform="translate(262,10)"/>
<path d="M0 0 C0.66 0 1.32 0 2 0 C2.05907207 4.22910589 2.09395041 8.45810289 2.125 12.6875 C2.14175781 13.86634766 2.15851563 15.04519531 2.17578125 16.25976562 C2.22019915 24.36603153 1.5050134 32.03653369 0 40 C-0.14083008 40.74548096 -0.28166016 41.49096191 -0.42675781 42.2590332 C-5.2507437 65.9018977 -17.52813168 86.59003532 -34 104 C-34.75925781 104.82371094 -35.51851563 105.64742188 -36.30078125 106.49609375 C-53.84286574 124.89949172 -77.96750719 136.96250116 -103 141 C-102 138 -102 138 -99.5234375 136.67578125 C-97.96496094 136.00095703 -97.96496094 136.00095703 -96.375 135.3125 C-89.69809646 132.11712474 -85.09602715 128.31122641 -81.83203125 121.59765625 C-80.91999996 118.75023462 -80.76641302 116.48308449 -80.8125 113.5 C-80.81894531 112.5821875 -80.82539063 111.664375 -80.83203125 110.71875 C-80.99621012 108.06134313 -81.41265001 105.59373754 -82 103 C-81.1028125 102.61070312 -80.205625 102.22140625 -79.28125 101.8203125 C-63.88123288 94.98235423 -50.44856223 86.35214415 -38 75 C-37.21367187 74.30777344 -36.42734375 73.61554688 -35.6171875 72.90234375 C-23.87087628 61.97701127 -15.36341033 47.59947113 -9 33 C-8.71398926 32.34676758 -8.42797852 31.69353516 -8.13330078 31.02050781 C-3.80247592 20.9027834 -1.53443929 10.87567498 0 0 Z " fill="#F5CBAF" transform="translate(382,123)"/>
<path d="M0 0 C0.66 0 1.32 0 2 0 C2.15855469 0.98097656 2.31710938 1.96195312 2.48046875 2.97265625 C7.96236399 35.33808941 24.90805948 65.89627017 51.9375 85.25 C62.09386199 92.33131025 72.67999278 98.01554521 84 103 C83.84273438 103.53109375 83.68546875 104.0621875 83.5234375 104.609375 C82.10755223 111.07595551 81.61249499 118.58945872 85.0625 124.4375 C90.40245578 131.53755293 97.00605202 135.36492506 105 139 C105 139.66 105 140.32 105 141 C79.35619173 136.43219665 57.89893589 124.88060971 39 107 C38.17628906 106.24074219 37.35257813 105.48148437 36.50390625 104.69921875 C15.71888237 84.8869729 1.96437843 55.66421004 0 27 C-0.11200111 22.31145023 -0.09491032 17.62702377 -0.0625 12.9375 C-0.05798828 11.69033203 -0.05347656 10.44316406 -0.04882812 9.15820312 C-0.03713163 6.10541779 -0.02074086 3.05273502 0 0 Z " fill="#F5CBAF" transform="translate(128,123)"/>
<path d="M0 0 C0.33 0 0.66 0 1 0 C1.12004395 0.61818604 1.24008789 1.23637207 1.36376953 1.87329102 C3.84825091 14.46514747 6.46141254 26.35508833 12 38 C12.31952637 38.67724121 12.63905273 39.35448242 12.96826172 40.05224609 C26.94152694 69.24010698 51.84728137 93.0383839 82.50390625 104.046875 C89.93509391 106.59403302 97.43721219 108.87873025 105 111 C105.09796875 111.64066406 105.1959375 112.28132813 105.296875 112.94140625 C106.74191952 121.30024135 108.86605805 126.87819552 116 132 C117.01308575 132.98674073 118.01581303 133.98443316 119 135 C92.86460349 136.23636567 68.69664579 125.19907771 49.296875 107.9128418 C46.82162363 105.65206533 44.41262911 103.32755756 42 101 C41.22011719 100.28328125 40.44023437 99.5665625 39.63671875 98.828125 C15.65067694 76.16280663 1.1139369 40.61185278 -0.234375 7.890625 C-0.24681104 5.24174787 -0.20437376 2.63982778 0 0 Z " fill="#DE4B8C" transform="translate(128,153)"/>
<path d="M0 0 C0.33 0 0.66 0 1 0 C2.97171457 31.83953897 -10.70781335 68.34908407 -31.61669922 92.24975586 C-33.0607334 93.84992217 -34.52557106 95.42781104 -36 97 C-36.54172852 97.58410645 -37.08345703 98.16821289 -37.64160156 98.77001953 C-45.42443285 107.08844828 -53.34993229 113.93244109 -63 120 C-63.76957031 120.52722656 -64.53914063 121.05445313 -65.33203125 121.59765625 C-78.1513383 130.01664074 -94.5660016 136.47273307 -110 136.125 C-110.77472656 136.11597656 -111.54945313 136.10695313 -112.34765625 136.09765625 C-114.23190843 136.07439388 -116.11599832 136.0385364 -118 136 C-116.0953467 134.02752522 -114.2848741 132.46745943 -112.0625 130.8125 C-107.23537882 126.80190678 -105.04420124 121.64690001 -104.25 115.5 C-104.1675 114.345 -104.085 113.19 -104 112 C-100.13066692 110.66408718 -96.24483563 109.51695718 -92.29248047 108.4543457 C-70.77682034 102.53267306 -52.88877898 91.51215607 -37 76 C-35.92685547 75.01966797 -35.92685547 75.01966797 -34.83203125 74.01953125 C-13.99671892 54.51501731 -4.95170558 27.24821225 0 0 Z " fill="#DE4B8C" transform="translate(383,152)"/>
<path d="M0 0 C7.53556106 4.39574395 11.12345398 9.54576665 14 17.75 C14.70841891 24.25626838 12.77531878 30.44630444 9 35.75 C3.64806232 41.60658689 -2.376783 44.82669604 -10.375 45.25 C-17.13178664 45.03682292 -21.89381123 42.61622569 -26.8203125 38.0703125 C-30.03122377 34.58019155 -31.98676319 31.44773428 -33 26.75 C-33.17917969 26.02039063 -33.35835937 25.29078125 -33.54296875 24.5390625 C-34.74646212 18.01756851 -33.29615167 13.85971514 -29.890625 8.2421875 C-22.86609593 -1.017419 -11.04252258 -4.49518618 0 0 Z " fill="#82BBF3" transform="translate(266,244.25)"/>
<path d="M0 0 C5.53599878 0.44645151 8.88768145 2.8857072 13.3125 6.0625 C16.87380519 7.79972205 20.03481238 7.96313952 23.875 7.3125 C27.62917874 5.92256812 30.88437093 4.15303376 33.9375 1.5625 C37.0066125 -0.41757258 39.31104259 -0.11763279 42.875 0.3125 C48.41346154 3.38942308 48.41346154 3.38942308 49.875 6.3125 C50.53429672 11.02176231 50.44004302 14.35192687 48 18.5 C40.47018612 26.1795545 30.76604756 29.57105939 20.1875 29.75 C10.1090018 29.74298073 1.73573145 26.6252464 -5.8203125 19.83984375 C-8.85854241 16.28311353 -9.61108567 12.97919167 -9.5234375 8.28125 C-8.85077975 4.95752933 -6.67422275 3.36431343 -4.125 1.3125 C-3.125 0.3125 -3.125 0.3125 0 0 Z " fill="#395069" transform="translate(293.125,124.6875)"/>
<path d="M0 0 C3.43536004 1.47333913 6.41124071 3.57730102 9.4375 5.75 C12.99880519 7.48722205 16.15981238 7.65063952 20 7 C23.75417874 5.61006812 27.00937093 3.84053376 30.0625 1.25 C33.08920461 -0.70271265 35.48784939 -0.36970006 39 0 C42.5386994 1.65139305 43.81070153 2.71605229 46 6 C46.44482737 10.5224116 46.46318152 12.99308366 44.5625 17.125 C38.06331133 24.41677266 29.95218389 28.43491925 20.296875 29.3515625 C9.1269805 29.91308703 0.0452844 27.70059016 -8.6875 20.3125 C-12.82650136 16.4477182 -12.82650136 16.4477182 -13.23828125 13.01171875 C-13.3713075 8.84589668 -13.38831668 6.62130669 -11.125 3 C-7.47701317 -0.43339936 -4.96312621 -0.40681362 0 0 Z " fill="#395069" transform="translate(182,125)"/>
</svg>
