<svg width="39" height="39" viewBox="0 0 39 39" fill="none" xmlns="http://www.w3.org/2000/svg">
<g clip-path="url(#clip0_162_9191)">
<path d="M31.2202 25.614C31.1817 25.6395 31.1448 25.6506 31.1094 25.6442V25.614H31.2202Z" fill="#F06977"/>
<path d="M31.1094 30.7521C31.148 30.7441 31.1849 30.7537 31.2218 30.7839H31.1094V30.7521Z" fill="#F06977"/>
<path d="M32.4358 19.9669C32.4454 19.986 32.4454 20.0098 32.4261 20.0432C32.4133 20.0178 32.4004 19.9923 32.3876 19.9669C32.3812 19.9557 32.3764 19.9446 32.3699 19.9335H32.4069C32.4181 19.943 32.4293 19.9542 32.4358 19.9669Z" fill="#F06977"/>
<path d="M35.0772 31.3422V31.4536H35.0483C35.0435 31.4424 35.0419 31.4313 35.0419 31.4202C35.0419 31.3947 35.0531 31.3693 35.0772 31.3422Z" fill="#F06977"/>
<path d="M1.59932 31.3422C1.61699 31.3613 1.62662 31.3804 1.62983 31.3995C1.6202 31.3947 1.60896 31.3883 1.59932 31.3804C1.58648 31.3724 1.57524 31.3645 1.564 31.3534C1.55597 31.347 1.54794 31.3406 1.54152 31.3327L1.53991 31.3311C1.397 31.1513 1.39218 30.9382 1.39218 30.725C1.39218 28.9529 1.38255 27.1809 1.397 25.4072C1.40021 25.132 1.48371 24.8616 1.44999 24.5832C1.564 24.7073 1.51422 24.86 1.51583 25.0016C1.51904 26.8929 1.51904 28.7843 1.51583 30.6757C1.51583 30.9016 1.52867 31.1227 1.59611 31.339L1.59932 31.3422Z" fill="#F06977"/>
<path d="M6.43574 19.9335H6.47268C6.46786 19.9446 6.46144 19.9557 6.45662 19.9669C6.44217 19.9923 6.42932 20.0178 6.41648 20.0432C6.39721 20.0098 6.39721 19.986 6.40684 19.9669C6.41326 19.9542 6.4245 19.943 6.43574 19.9335Z" fill="#F06977"/>
<path d="M7.42653 31.4536C7.4185 31.4154 7.42813 31.3772 7.45864 31.3422V31.4536H7.42653Z" fill="#F06977"/>
<path d="M8.05434 26.0117V26.0419C8.02062 26.0482 7.98369 26.0371 7.94354 26.0117H8.05434Z" fill="#F06977"/>
<path d="M38.9856 36.7968C38.8041 35.1091 38.6195 33.4229 38.4364 31.7367C38.4284 31.5395 38.3385 31.4615 38.2036 31.4329C38.263 31.417 38.3192 31.3883 38.3706 31.3406C38.3385 30.9048 38.3192 30.4689 38.271 30.0362C38.096 28.5012 37.9242 26.9661 37.7251 25.4342C37.4649 23.441 36.7102 21.6451 35.4803 20.0464C35.4016 19.9923 35.3165 19.9637 35.2298 19.9494C35.2667 19.9271 35.2972 19.8857 35.3133 19.8126C35.1719 19.6392 35.0355 19.4594 34.8845 19.2924C33.8633 18.1598 32.7055 17.1974 31.3053 16.5452C31.2781 16.5166 31.2508 16.4879 31.2235 16.4593C31.1689 16.4323 31.1143 16.4036 31.0597 16.3766C31.0516 16.3845 31.0436 16.3941 31.0356 16.402C30.0673 15.963 29.0814 15.5765 28.0104 15.4603V19.4117L27.9991 19.4181C27.9991 19.4228 28.0008 19.4276 28.0024 19.4324C28.0008 19.434 27.9991 19.434 27.9991 19.434C28.004 20.1164 28.0088 20.7956 28.0136 21.4781C28.0281 21.4813 28.0425 21.4844 28.0553 21.4908C28.0634 21.4908 28.0698 21.4892 28.0778 21.486V21.4972C28.073 22.2337 28.1806 22.9734 28.012 23.7051C27.9333 24.615 27.6154 25.4199 26.9506 26.0737C26.5717 26.4459 26.1943 26.8213 25.8154 27.1952C25.2469 27.7583 24.8808 28.4343 24.6528 29.1915C24.6432 29.3522 24.6335 29.5113 24.6239 29.6703C24.6335 30.2255 24.6416 30.7823 24.6496 31.3374C24.6512 31.3852 24.6512 31.4313 24.6528 31.4774C24.6448 31.4838 24.6367 31.4917 24.6287 31.4981C24.6384 31.5267 24.648 31.5538 24.6576 31.5824C24.8872 32.6546 25.5697 33.4849 26.1718 34.3582C26.3966 34.3885 26.5074 34.5714 26.6327 34.7162C27.7679 36.0365 29.1424 36.9416 30.9152 37.1659C30.9649 37.1722 31.0131 37.2056 31.0613 37.2263L31.0661 37.2216H31.0677C31.0741 37.2152 31.0822 37.2104 31.0886 37.2056C31.0982 37.1993 31.1062 37.1913 31.1143 37.1834C31.1239 37.1563 31.1303 37.1293 31.1335 37.1022C31.1384 37.1229 31.1448 37.142 31.1512 37.1611C31.156 37.1722 31.1608 37.1818 31.1673 37.1929C31.1865 37.1977 31.2042 37.2072 31.2219 37.2231L31.2251 37.2279C31.824 37.3695 32.4406 37.2709 33.0476 37.3695C33.7204 37.4793 34.3964 37.2613 35.0772 37.3059C35.1559 36.6537 35.5172 36.1383 36.0053 35.7533C36.5256 35.3429 37.8632 35.6722 38.1859 36.2448C38.3786 36.5853 38.6644 36.8859 38.6901 37.3043C38.825 37.3186 38.8956 37.2041 38.9968 37.15C38.9936 37.0323 38.9984 36.913 38.9856 36.7968ZM32.4069 19.9335C32.4181 19.943 32.4294 19.9541 32.4358 19.9669C32.4454 19.986 32.4454 20.0098 32.4261 20.0432C32.4133 20.0178 32.4005 19.9923 32.3876 19.9669C32.3812 19.9557 32.3764 19.9446 32.3699 19.9335C32.3619 19.9192 32.3555 19.9048 32.3475 19.8905C32.3651 19.9064 32.3876 19.9192 32.4069 19.9335ZM31.0645 30.7839C31.0597 30.7791 31.0565 30.7759 31.0532 30.7711C31.0565 30.768 31.0613 30.7664 31.0645 30.7664C31.0789 30.7568 31.095 30.752 31.1094 30.752C31.148 30.7441 31.1849 30.7536 31.2219 30.7839H31.0645ZM31.2202 25.614C31.1817 25.6394 31.1448 25.6506 31.1094 25.6442C31.095 25.641 31.0805 25.6362 31.0661 25.6267C31.0629 25.6267 31.0613 25.6235 31.0581 25.6219C31.0613 25.6187 31.0629 25.6172 31.0661 25.614H31.2202ZM30.4688 31.3867C30.4688 31.3724 30.4736 31.3565 30.4832 31.3422C30.4832 31.339 30.4848 31.3343 30.488 31.3311C30.4928 31.3343 30.4961 31.3374 30.5009 31.3422V31.4981C30.4704 31.4615 30.4607 31.4249 30.4688 31.3867ZM35.0483 31.4536C35.0435 31.4424 35.0419 31.4313 35.0419 31.4202C35.0419 31.3947 35.0531 31.3692 35.0772 31.3422V31.4981C35.0644 31.4822 35.0547 31.4679 35.0483 31.4536Z" fill="#F06977"/>
<path d="M35.0483 31.4536C35.0435 31.4424 35.0419 31.4313 35.0419 31.4202H35.0772V31.4981C35.0644 31.4822 35.0547 31.4679 35.0483 31.4536Z" fill="#F06977"/>
<path d="M38.9968 37.1499C38.9245 37.2883 38.8474 37.4172 38.6612 37.3058C38.6612 37.3042 38.6596 37.3042 38.6596 37.3042C38.6564 37.2979 38.6532 37.2931 38.6499 37.2867C38.4508 36.9082 38.2469 36.5312 38.0157 36.1701C37.8358 35.8901 37.5886 35.7596 37.2562 35.739C36.0776 35.6674 35.7147 35.8885 35.2458 36.9718C35.1976 37.0847 35.1784 37.2152 35.0916 37.3074C35.09 37.309 35.0884 37.3106 35.0868 37.3122C35.0836 37.3154 35.0804 37.3186 35.0772 37.3202C35.0579 37.3392 35.0354 37.3552 35.0081 37.3695C34.2824 37.4522 33.5582 37.5715 32.8243 37.457C32.3025 37.3742 31.7549 37.5047 31.2475 37.2788C31.2395 37.274 31.2315 37.2677 31.225 37.2613C31.2218 37.2597 31.2202 37.2565 31.217 37.2549C31.2074 37.2454 31.1977 37.2343 31.1881 37.2231C31.1801 37.2136 31.1737 37.2024 31.1672 37.1929C31.1865 37.1977 31.2042 37.2072 31.2218 37.2231L31.225 37.2279C31.824 37.3695 32.4406 37.2708 33.0475 37.3695C33.7203 37.4792 34.3964 37.2613 35.0772 37.3058C35.1559 36.6536 35.5172 36.1382 36.0053 35.7533C36.5256 35.3429 37.8631 35.6722 38.1859 36.2448C38.3786 36.5852 38.6644 36.8859 38.6901 37.3042C38.825 37.3186 38.8956 37.204 38.9968 37.1499Z" fill="#F06977"/>
<path d="M30.5009 31.4981C30.4704 31.4615 30.4607 31.425 30.4688 31.3868H30.5009V31.4981Z" fill="#F06977"/>
<path d="M30.9151 37.1659C30.9649 37.1722 31.0131 37.2056 31.0612 37.2263C30.9119 37.3265 30.7401 37.2486 30.5892 37.2215C29.1055 36.9495 27.9044 36.2051 26.8928 35.1536C26.8028 35.0613 26.7161 34.9675 26.631 34.872C26.5331 34.7607 26.4351 34.6525 26.3243 34.5571C26.2665 34.5062 26.2039 34.4584 26.1381 34.4155C25.5841 33.7665 25.1136 33.0634 24.77 32.2807C24.672 32.0596 24.6993 31.8146 24.6576 31.5824C24.8872 32.6546 25.5696 33.4849 26.1718 34.3582C26.3966 34.3885 26.5074 34.5714 26.6326 34.7161C27.7679 36.0365 29.1424 36.9416 30.9151 37.1659Z" fill="#F06977"/>
<path d="M31.0686 37.2216C31.0667 37.2234 31.0649 37.2252 31.0613 37.227L31.0667 37.2216H31.0686Z" fill="#F06977"/>
<path d="M8.03671 38.6278C8.01744 38.7439 7.98694 38.86 7.93876 38.9762C5.83204 38.9777 3.72211 39 1.61539 38.9746C0.668013 38.9618 -0.0545661 38.1871 0.00324026 37.2534C0.0754982 36.0683 0.218408 34.8864 0.340444 33.7045C0.406279 33.0475 0.491383 32.3921 0.566852 31.7367C0.579698 31.5458 0.656773 31.4313 0.81574 31.4011C0.854278 31.3931 0.899238 31.3899 0.949016 31.3931C1.10317 31.4027 1.25732 31.3852 1.41147 31.4043C1.44358 31.409 1.4757 31.4138 1.50781 31.4218C1.53993 31.4313 1.57043 31.4472 1.59773 31.4663C1.60255 31.4695 1.60737 31.4727 1.61218 31.4774C1.61539 31.479 1.61861 31.4806 1.62182 31.4838C1.62503 31.4886 1.62824 31.4949 1.63145 31.4997C1.64109 31.514 1.64911 31.5283 1.65714 31.5427C1.79202 31.7797 1.80969 32.0533 1.88837 32.3094C2.64146 34.7575 4.26485 36.3164 6.75534 36.9877C7.01386 37.0577 7.2756 37.107 7.53894 37.1516C7.68024 37.1754 7.836 37.1898 7.94198 37.2947C7.94358 37.2947 7.94358 37.2963 7.94519 37.2979C7.94519 37.2979 7.94679 37.2979 7.94679 37.2995C7.94679 37.2995 7.9484 37.2995 7.9484 37.3011C7.97409 37.3266 7.99657 37.3584 8.01423 37.3966C8.01905 37.4872 8.02547 37.5795 8.0335 37.6702C8.05919 37.9915 8.09131 38.3112 8.03671 38.6278Z" fill="#D9596B"/>
<path d="M14.3039 35.984C14.116 37.7004 12.8956 38.8155 11.1486 38.9619C10.54 39.0128 9.92183 38.965 9.30845 38.9619C9.27633 38.7741 9.37428 38.623 9.48026 38.4942C9.79016 38.1204 10.0744 37.7259 10.373 37.3441C10.3763 37.3393 10.3795 37.3361 10.3827 37.3314C10.3891 37.3234 10.3955 37.3139 10.4019 37.3059C11.5211 35.8727 12.6708 34.4617 13.6712 32.9425C13.9442 32.5305 14.1032 32.0676 14.2461 31.5999C14.2477 31.5984 14.2493 31.5968 14.2509 31.5952C14.2589 31.5872 14.2685 31.5809 14.2766 31.5777C14.2975 31.5681 14.3215 31.5697 14.3472 31.584C14.3569 33.0507 14.4644 34.5253 14.3039 35.984Z" fill="#C34761"/>
<path d="M29.6948 38.9634C28.855 38.992 28.0088 39.0652 27.185 38.86C25.727 38.4957 24.717 37.2709 24.6576 35.7088C24.6062 34.336 24.6544 32.9584 24.6576 31.5824C24.8872 32.6546 25.5697 33.4849 26.1718 34.3582C26.4432 34.5984 26.6728 34.872 26.8928 35.1536C27.0855 35.4033 27.2701 35.661 27.4644 35.9076C28.1533 36.7809 28.8373 37.6574 29.4957 38.553C29.5856 38.6755 29.7301 38.7789 29.6948 38.9634Z" fill="#C34761"/>
<path d="M6.4727 19.9335C6.46788 19.9446 6.46145 19.9557 6.45664 19.9669H6.40686C6.41328 19.9542 6.42452 19.943 6.43576 19.9335H6.4727Z" fill="#F06977"/>
<path d="M37.3108 38.9825C35.2811 38.9952 33.2531 38.9793 31.2235 38.9761C31.1833 38.8457 31.1512 38.7137 31.1303 38.5832C31.0757 38.2635 31.0741 37.9437 31.1287 37.624C31.1496 37.5015 31.1785 37.3774 31.217 37.255C31.2202 37.2454 31.2218 37.2375 31.2251 37.2279C31.824 37.3695 32.4406 37.2709 33.0476 37.3695C33.7204 37.4792 34.3964 37.2613 35.0772 37.3059C35.0788 37.3059 35.0788 37.3074 35.0804 37.3074C35.082 37.309 35.0852 37.3106 35.0868 37.3122C35.0997 37.3218 35.1125 37.3297 35.127 37.3377C35.1366 37.3472 35.1463 37.3568 35.1543 37.3663C35.1607 37.3727 35.1655 37.379 35.1703 37.3854C35.1816 37.3997 35.1912 37.414 35.2008 37.4283C35.355 37.7226 35.5268 38.0058 35.7195 38.2778C35.7725 38.3526 35.8223 38.4321 35.8881 38.4973C36.3104 38.9157 37.664 38.7916 38.0028 38.3032C38.2164 37.9931 38.3898 37.6558 38.5729 37.3265C38.5761 37.3202 38.5793 37.3138 38.5825 37.3074C38.605 37.2899 38.6275 37.282 38.65 37.2868C38.6628 37.2884 38.6757 37.2947 38.6901 37.3043C38.825 37.3186 38.8956 37.204 38.9968 37.15C39.0514 38.1983 38.3609 38.9745 37.3108 38.9825Z" fill="#D9596B"/>
<path d="M32.4358 19.9669H32.3876C32.3812 19.9557 32.3764 19.9446 32.37 19.9335C32.3619 19.9191 32.3555 19.9048 32.3475 19.8905C32.3651 19.9064 32.3876 19.9191 32.4069 19.9335C32.4181 19.943 32.4294 19.9541 32.4358 19.9669Z" fill="#F06977"/>
<path d="M19.341 0C19.5273 0.00159073 19.7135 0.00318147 19.9014 0.0047722C19.911 0.179753 19.7456 0.178162 19.6525 0.249745C18.9877 0.579027 18.7694 1.16283 18.734 1.84366C18.7164 2.17294 18.7437 2.50381 18.726 2.8315C18.7083 3.15124 18.8529 3.25941 19.1531 3.23555C19.2848 3.22601 19.4197 3.2276 19.5514 3.25782C19.6236 3.28009 19.6846 3.3135 19.7216 3.3819C19.8115 3.58392 19.789 3.79708 19.789 4.00706C19.7922 4.75947 19.7922 5.51189 19.789 6.26431C19.789 6.42179 19.7922 6.58245 19.7167 6.7288C19.6734 6.80038 19.6043 6.8322 19.5273 6.85129C19.2511 6.88628 18.9749 6.90378 18.7003 6.83061C18.6537 6.81152 18.6152 6.78129 18.5831 6.74153C18.4819 6.5745 18.4996 6.38679 18.498 6.20386C18.4948 5.50712 18.498 4.80879 18.4964 4.11204C18.4948 3.61415 18.4932 3.61415 17.989 3.5187C17.936 3.50916 17.8878 3.49007 17.8413 3.46303C17.6855 3.25464 17.8557 2.99694 17.7369 2.78219C17.7385 2.14113 17.7305 1.49847 18.0034 0.893992C18.2636 0.322919 18.734 0.0636293 19.341 0Z" fill="#DBD7E5"/>
<path d="M31.1303 38.5832C31.1143 38.7136 31.0918 38.8441 31.0629 38.9761C30.6068 38.9968 30.1508 39.0127 29.6948 38.9634C28.5724 37.4951 27.4468 36.0253 26.3244 34.5571C26.273 34.4902 26.2232 34.425 26.1718 34.3582C26.3966 34.3884 26.5074 34.5714 26.6327 34.7161C27.7679 36.0364 29.1424 36.9416 30.9151 37.1659C30.9649 37.1722 31.0131 37.2056 31.0613 37.2263C31.0918 37.3599 31.1143 37.492 31.1287 37.624C31.1705 37.9437 31.1705 38.2635 31.1303 38.5832Z" fill="#D9596B"/>
<path d="M1.59609 31.339C1.58484 31.3438 1.57521 31.3486 1.56397 31.3534C1.51419 31.3772 1.46281 31.3931 1.41143 31.4043C1.21553 31.4504 1.01481 31.4249 0.8157 31.4011C0.781979 31.3979 0.748259 31.3931 0.714539 31.3899C0.640675 31.382 0.610166 31.3199 0.621406 31.2436C0.84942 29.2297 1.07583 27.2143 1.30866 25.1988C1.33275 24.992 1.40179 24.7884 1.44996 24.5832C1.56397 24.7073 1.51419 24.86 1.5158 25.0016C1.51901 26.8929 1.51901 28.7843 1.5158 30.6757C1.5158 30.9016 1.52864 31.1227 1.59609 31.339Z" fill="#D9596C"/>
<path d="M10.4309 37.387C10.1049 37.9454 9.60712 38.3844 9.30845 38.9618C8.90702 39.0143 8.50398 38.9968 8.10255 38.9762C8.07525 38.86 8.05277 38.7439 8.03671 38.6278C7.99336 38.3081 7.99496 37.9899 8.0335 37.6702C8.04635 37.5477 8.06562 37.4252 8.0897 37.3027C8.0897 37.3011 8.09131 37.2979 8.09131 37.2963L8.09291 37.2948C8.09452 37.2932 8.09773 37.2916 8.09934 37.29C8.21816 37.1945 8.36107 37.1866 8.50398 37.1834C9.00818 37.1755 9.51238 37.1691 10.0166 37.1866C10.1515 37.1914 10.3249 37.1595 10.402 37.3059C10.4148 37.3282 10.4244 37.3552 10.4309 37.387Z" fill="#D9596B"/>
<path d="M6.43574 19.9335H6.47268C6.46786 19.9446 6.46144 19.9557 6.45662 19.9669C6.44217 19.9923 6.42932 20.0178 6.41648 20.0432C6.39721 20.0098 6.39721 19.986 6.40684 19.9669C6.41326 19.9542 6.4245 19.943 6.43574 19.9335Z" fill="#E98291"/>
<path d="M8.09769 26.0117C8.1009 26.0148 8.10251 26.0164 8.10412 26.0196C8.10251 26.0228 8.1009 26.0244 8.09769 26.0244C8.08485 26.0339 8.0704 26.0387 8.05434 26.0419C8.02062 26.0482 7.98369 26.0371 7.94354 26.0117H8.09769Z" fill="#E98291"/>
<path d="M11.0169 21.2522C11.0265 21.4685 11.0699 21.6976 10.9896 21.9091C10.9896 21.9107 10.9896 21.9107 10.9896 21.9123C10.9752 21.9489 10.9559 21.9855 10.9334 22.0221C10.9206 22.0221 10.9077 22.0221 10.8965 22.0205C10.8981 21.2808 10.8981 20.5427 10.8981 19.8046C10.8981 19.7998 10.8981 19.7966 10.8997 19.7919C10.9029 19.7935 10.9061 19.7951 10.9077 19.7966C10.9174 19.7998 10.9254 19.8062 10.935 19.811C10.9575 19.8682 10.9752 19.9271 10.9896 19.9843V19.9859C11.0892 20.4027 10.9993 20.8306 11.0169 21.2522Z" fill="#E98291"/>
<path d="M28.0136 21.4781C28.028 21.4812 28.0425 21.4844 28.0553 21.4908C28.0329 21.4924 28.012 21.4844 27.9879 21.4701C27.9879 21.4669 27.9863 21.4653 27.9863 21.4621C27.9831 21.4494 27.9799 21.4351 27.9766 21.4224C27.8273 20.7606 27.8273 20.1005 27.9911 19.4387C27.9927 19.4371 27.9959 19.4356 27.9991 19.434C28.0039 20.1164 28.0088 20.7956 28.0136 21.4781Z" fill="#E98291"/>
<path d="M31.2202 25.614C31.1817 25.6395 31.1448 25.6506 31.1094 25.6442C31.095 25.6411 31.0805 25.6363 31.0661 25.6267C31.0629 25.6267 31.0613 25.6236 31.058 25.622C31.0613 25.6188 31.0629 25.6172 31.0661 25.614H31.2202Z" fill="#E98291"/>
<path d="M32.4262 20.0432C32.4133 20.0178 32.4005 19.9923 32.3876 19.9669C32.3812 19.9557 32.3764 19.9446 32.37 19.9335C32.3619 19.9191 32.3555 19.9048 32.3475 19.8905C32.3651 19.9064 32.3876 19.9191 32.4069 19.9335C32.4181 19.943 32.4294 19.9541 32.4358 19.9669C32.4454 19.9859 32.4454 20.0098 32.4262 20.0432Z" fill="#E98291"/>
<path d="M7.42653 31.4536C7.4185 31.4154 7.42813 31.3772 7.45864 31.3422V31.4981C7.45383 31.5029 7.45061 31.5061 7.4458 31.5093C7.44259 31.5061 7.44098 31.5013 7.44098 31.4981C7.43135 31.4838 7.42813 31.4679 7.42653 31.4536Z" fill="#EB7E8D"/>
<path d="M8.09769 26.0117C8.1009 26.0148 8.10251 26.0164 8.10412 26.0196C8.10251 26.0228 8.1009 26.0244 8.09769 26.0244C8.08485 26.0339 8.0704 26.0387 8.05434 26.0419C8.02062 26.0482 7.98369 26.0371 7.94354 26.0117H8.09769Z" fill="#EB7E8D"/>
<path d="M7.95642 31.8974H8.09933V31.9197C8.09291 31.9229 8.08649 31.926 8.07846 31.926C8.05116 31.9388 8.02065 31.9403 7.98693 31.9356C7.9773 31.9229 7.96606 31.9101 7.95642 31.8974Z" fill="#EB7E8D"/>
<path d="M14.3472 31.584C14.3263 31.5856 14.3054 31.5872 14.2846 31.5872C14.2733 31.5904 14.2621 31.5936 14.2509 31.5952C14.2589 31.5872 14.2685 31.5809 14.2765 31.5777C14.2974 31.5681 14.3215 31.5697 14.3472 31.584Z" fill="#EB7E8D"/>
<path d="M35.0419 31.4202C35.0419 31.3947 35.0531 31.3693 35.0772 31.3422V31.4981C35.0644 31.4822 35.0547 31.4679 35.0483 31.4536C35.0435 31.4424 35.0419 31.4313 35.0419 31.4202Z" fill="#ED7786"/>
<path d="M38.4364 31.7367C38.4284 31.5395 38.3384 31.4615 38.2036 31.4329C38.263 31.417 38.3192 31.3884 38.3705 31.3406C38.4396 31.4647 38.4621 31.5967 38.4364 31.7367Z" fill="#ED7786"/>
<path d="M32.4358 19.9669C32.4454 19.9859 32.4454 20.0098 32.4262 20.0432C32.4133 20.0178 32.4005 19.9923 32.3876 19.9669C32.3812 19.9557 32.3764 19.9446 32.37 19.9335C32.3619 19.9191 32.3555 19.9048 32.3475 19.8905C32.3651 19.9064 32.3876 19.9191 32.4069 19.9335C32.4181 19.943 32.4294 19.9541 32.4358 19.9669Z" fill="#EB7F8D"/>
<path d="M35.4802 20.0464C35.4016 19.9923 35.3164 19.9637 35.2297 19.9494C35.2667 19.9271 35.2972 19.8857 35.3132 19.8126C35.3694 19.8905 35.4256 19.9685 35.4802 20.0464Z" fill="#EB7F8D"/>
<path d="M3.65623 19.8826C3.69477 19.9192 3.73652 19.9414 3.77987 19.9542C3.69316 19.9685 3.60806 19.9955 3.52777 20.048C3.57113 19.9939 3.61287 19.9382 3.65623 19.8826Z" fill="#EB7F8D"/>
<path d="M6.47268 19.9335C6.46786 19.9446 6.46144 19.9557 6.45662 19.9669C6.44217 19.9923 6.42932 20.0178 6.41648 20.0432C6.39721 20.0098 6.39721 19.986 6.40684 19.9669C6.41326 19.9542 6.4245 19.943 6.43574 19.9335H6.47268Z" fill="#EB7F8D"/>
<path d="M31.2251 37.2279V37.2614C31.2251 37.8324 31.2251 38.4035 31.2235 38.9762H31.0629C31.0613 38.3924 31.0613 37.8102 31.0613 37.2264L31.0661 37.2216H31.0677C31.0741 37.2152 31.0822 37.2105 31.0886 37.2057C31.1143 37.1898 31.1416 37.1866 31.1673 37.193C31.1865 37.1977 31.2042 37.2073 31.2219 37.2232L31.2251 37.2279Z" fill="#D9596B"/>
<path d="M8.10255 37.3059C8.10255 37.8626 8.10255 38.4178 8.10255 38.9746C8.04795 38.9746 7.99496 38.9746 7.94037 38.9746C7.94037 38.4178 7.94037 37.861 7.94037 37.3059C7.95161 37.2947 7.96445 37.2852 7.97569 37.2741C8.0062 37.2645 8.03832 37.2645 8.06883 37.2741C8.07846 37.2852 8.09131 37.2963 8.10255 37.3059Z" fill="#D9596B"/>
<path d="M1.62981 31.3995C1.63463 31.4249 1.6282 31.452 1.61215 31.4774C1.60894 31.4838 1.60412 31.4917 1.59769 31.4981C1.38574 31.4981 1.17057 31.5172 0.96022 31.4949C0.749869 31.4711 0.642285 31.5665 0.566816 31.7367C0.552364 31.5697 0.544335 31.4027 0.62141 31.2436C0.910442 31.4393 1.23319 31.3072 1.54149 31.3327C1.56076 31.3343 1.57843 31.3359 1.59609 31.339L1.5993 31.3422C1.61696 31.3613 1.6266 31.3804 1.62981 31.3995Z" fill="#D9596B"/>
<path d="M21.2663 1.59073C21.2663 1.61777 21.2679 1.64481 21.2679 1.67344C21.1667 1.88501 21.0881 2.10612 20.9548 2.30178C20.8247 2.49426 20.7974 2.71378 20.8247 2.94126C20.8408 3.08124 20.8922 3.226 20.7878 3.35644C20.4104 3.51074 20.0363 3.52824 19.6638 3.34371C19.6108 3.34371 19.5562 3.34212 19.5032 3.34212C19.3282 3.0367 19.4358 2.69151 19.4663 2.39564C19.5225 1.82456 19.5112 1.25508 19.553 0.685598C19.5658 0.505845 19.5257 0.314957 19.6654 0.160656C19.7457 0.108162 19.8244 0.055668 19.9046 0.00317383C20.6593 0.224286 21.133 0.687189 21.2037 1.49528C21.2021 1.53028 21.2422 1.55891 21.2663 1.59073Z" fill="#EDEBF1"/>
<path d="M21.2679 8.59317C21.2679 9.12288 21.2679 9.65419 21.2663 10.1839C21.2213 10.2062 21.1748 10.2173 21.125 10.2189C20.7637 10.2125 20.4024 10.2221 20.0427 10.2125C19.6509 10.2014 19.569 10.1235 19.553 9.74645C19.5417 9.48239 19.5546 9.21674 19.5498 8.95108C19.5449 8.6393 19.6911 8.48341 20.0058 8.47705C20.1262 8.47386 20.2467 8.47227 20.3671 8.47068C21.064 8.4675 21.0624 8.4675 21.0656 7.75803C21.0672 7.47966 21.0479 7.20128 21.0865 6.92449C21.0961 6.87677 21.1154 6.83223 21.141 6.79087C21.1748 6.74633 21.2165 6.73678 21.2663 6.76223C21.2679 7.37308 21.2679 7.98233 21.2679 8.59317Z" fill="#EDEBF1"/>
<path d="M21.2679 6.76382C21.2406 6.76382 21.2149 6.76382 21.1876 6.76382C21.0784 6.6652 21.0672 6.53158 21.064 6.39955C21.0527 5.71394 21.0527 5.02993 21.064 4.34432C21.0656 4.21229 21.0784 4.07867 21.1876 3.98004C21.2149 4.00708 21.2406 4.03413 21.2679 4.05958C21.2679 4.96152 21.2679 5.86188 21.2679 6.76382Z" fill="#E7E6ED"/>
<path d="M30.488 31.3311C30.4929 31.3342 30.4961 31.3374 30.5009 31.3422V31.4981C30.4704 31.4615 30.4607 31.4249 30.4688 31.3867C30.4688 31.3724 30.4736 31.3565 30.4832 31.3422C30.4832 31.339 30.4848 31.3342 30.488 31.3311Z" fill="#EC7A89"/>
<path d="M31.1094 30.7521C31.148 30.7441 31.1849 30.7537 31.2218 30.7839H31.0645C31.0596 30.7791 31.0564 30.7759 31.0532 30.7712C31.0564 30.768 31.0613 30.7664 31.0645 30.7664C31.0789 30.7568 31.095 30.7521 31.1094 30.7521Z" fill="#EC7A89"/>
<path d="M31.1672 37.1929C31.1865 37.1977 31.2042 37.2072 31.2218 37.2231H31.1881C31.1464 37.2231 31.1078 37.2231 31.0677 37.2215C31.0741 37.2152 31.0821 37.2104 31.0886 37.2056C31.0982 37.1993 31.1062 37.1913 31.1143 37.1834C31.1239 37.1563 31.1303 37.1293 31.1335 37.1022C31.1383 37.1229 31.1448 37.142 31.1512 37.1611C31.156 37.1722 31.1608 37.1818 31.1672 37.1929Z" fill="#EC7A89"/>
<path d="M35.0772 31.3422V31.4981C35.0644 31.4822 35.0547 31.4679 35.0483 31.4536C35.0435 31.4424 35.0419 31.4313 35.0419 31.4202C35.0419 31.3947 35.0531 31.3693 35.0772 31.3422Z" fill="#EC7A89"/>
<path d="M31.0661 25.6267C31.0629 25.6267 31.0613 25.6236 31.058 25.622C31.0613 25.6188 31.0629 25.6172 31.0661 25.614H31.2202C31.1817 25.6395 31.1448 25.6506 31.1094 25.6442C31.095 25.6411 31.0805 25.6363 31.0661 25.6267Z" fill="#EB7F8D"/>
<path d="M31.2218 30.7839H31.0645C31.0596 30.7791 31.0564 30.7759 31.0532 30.7712C31.0564 30.768 31.0613 30.7664 31.0645 30.7664C31.0789 30.7568 31.095 30.7521 31.1094 30.7521C31.148 30.7441 31.1849 30.7537 31.2218 30.7839Z" fill="#EB7F8D"/>
<path d="M1.63144 31.4997C1.64107 31.514 1.6491 31.5283 1.65713 31.5427C1.63786 31.5315 1.61859 31.5156 1.59932 31.4997L1.59772 31.4981V31.4663C1.59772 31.4377 1.59932 31.409 1.59932 31.3804V31.3422C1.61699 31.3613 1.62662 31.3804 1.62983 31.3995C1.63465 31.4249 1.62823 31.452 1.61217 31.4774C1.61538 31.479 1.61859 31.4806 1.6218 31.4838C1.62501 31.4886 1.62823 31.4949 1.63144 31.4997Z" fill="#EC7988"/>
<path d="M7.45864 31.3422V31.4981C7.45383 31.5029 7.45061 31.5061 7.4458 31.5093C7.44259 31.5061 7.44098 31.5013 7.44098 31.4981C7.43135 31.4838 7.42813 31.4679 7.42653 31.4536C7.4185 31.4154 7.42813 31.3772 7.45864 31.3422Z" fill="#EC7988"/>
<path d="M38.6901 37.3042C38.6805 37.3042 38.6708 37.3058 38.6612 37.3058C38.6435 37.3074 38.6275 37.3074 38.6098 37.3074C38.597 37.3138 38.5857 37.3202 38.5729 37.3265C38.2164 37.5015 37.8471 37.4331 37.4778 37.3711C37.4473 37.3551 37.4216 37.3361 37.4007 37.3154H37.3991C37.3991 37.3138 37.3975 37.3122 37.3959 37.3122C37.3959 37.3106 37.3943 37.3106 37.3943 37.3106C37.3943 37.309 37.3927 37.3074 37.3927 37.3074C37.3092 37.2136 37.3108 37.0847 37.2915 36.9622C37.2417 36.668 37.078 36.4914 36.768 36.4643C36.4437 36.4341 36.2462 36.5948 36.1193 36.8747C36.0615 37.002 36.0824 37.1627 36.0005 37.282C35.9973 37.2899 35.9909 37.2963 35.9844 37.3042C35.9732 37.3186 35.9604 37.3313 35.9443 37.344C35.9443 37.344 35.9443 37.344 35.9427 37.344C35.9331 37.3536 35.9234 37.3615 35.9122 37.3679C35.8817 37.3742 35.8528 37.379 35.8223 37.3854C35.6264 37.422 35.4289 37.4474 35.241 37.3854C35.2185 37.379 35.1976 37.3711 35.1768 37.3615C35.1591 37.3536 35.143 37.3456 35.127 37.3377C35.1125 37.3297 35.0997 37.3217 35.0868 37.3122C35.0836 37.3122 35.0804 37.309 35.0772 37.3074V37.3058C35.1559 36.6536 35.5172 36.1382 36.0053 35.7533C36.5256 35.3429 37.8632 35.6722 38.1859 36.2448C38.3786 36.5852 38.6644 36.8859 38.6901 37.3042Z" fill="#F06977"/>
<path d="M30.5009 31.3422V31.4981C30.4704 31.4615 30.4607 31.4249 30.4688 31.3867C30.4688 31.3724 30.4736 31.3565 30.4832 31.3422C30.4832 31.339 30.4848 31.3342 30.488 31.3311C30.4929 31.3342 30.4961 31.3374 30.5009 31.3422Z" fill="#EB7F8E"/>
<path d="M7.44605 31.51C7.44267 31.5066 7.44098 31.5015 7.44098 31.4981H7.45958C7.45451 31.5032 7.45112 31.5066 7.44605 31.51Z" fill="#F06977"/>
<path d="M7.94515 37.2979C7.94355 37.2995 7.94355 37.2995 7.94194 37.3011L7.93873 37.3059C4.68552 37.0402 2.07781 34.6828 1.5993 31.4997H1.63142C1.64105 31.514 1.64908 31.5283 1.65711 31.5426C1.79199 31.7797 1.80965 32.0533 1.88834 32.3094C2.64142 34.7575 4.26482 36.3164 6.75531 36.9877C7.01383 37.0577 7.27556 37.107 7.5389 37.1516C7.68021 37.1754 7.83596 37.1897 7.94194 37.2947C7.94355 37.2947 7.94355 37.2963 7.94515 37.2979Z" fill="#F06977"/>
<path d="M2.62217 35.4749C2.99791 35.4829 3.38168 35.3938 3.64984 35.6563C4.02237 36.0205 4.25038 36.493 4.46715 36.9623C4.51051 37.0561 4.44628 37.142 4.41738 37.2279C4.27286 37.6606 4.0031 38.0233 3.74618 38.3923C3.67874 38.4894 3.57919 38.5562 3.45394 38.588C2.95295 38.7136 2.44393 38.6946 1.94616 38.6134C1.54794 38.5482 1.4259 38.1505 1.23161 37.8578C1.03571 37.5636 0.746675 37.247 0.912066 36.8827C1.13847 36.3848 1.36006 35.8535 1.86748 35.5465C2.10994 35.4002 2.39094 35.5051 2.62217 35.4749Z" fill="#D9596B"/>
<path d="M14.352 31.1783C14.3488 30.3877 14.3472 29.5956 14.344 28.805C14.3103 28.8575 14.2781 28.9084 14.2316 28.9799C13.9618 27.9014 13.236 27.1665 12.4299 26.4904C12.1554 26.3918 11.9675 26.2089 11.8711 25.9337C11.3332 25.2863 11.1004 24.5211 10.9928 23.7067C10.8467 23.3408 10.9318 22.9606 10.9254 22.5868C10.9157 22.4039 10.9061 22.2209 10.8965 22.0396C10.8949 22.0332 10.8933 22.0268 10.8917 22.0205H10.8965C10.8981 21.2808 10.8981 20.5427 10.8981 19.8046C10.8981 19.7998 10.8981 19.7966 10.8997 19.7919C10.9077 19.6932 10.9157 19.593 10.9238 19.4944C10.9157 19.469 10.9141 19.4435 10.9206 19.4165C10.9189 19.0442 10.9173 18.672 10.9157 18.2998C10.9157 17.98 10.9141 17.6619 10.9141 17.3437C10.9125 16.8601 10.9141 16.3782 10.9093 15.8946C10.9077 15.7562 10.9543 15.6019 10.813 15.4953C10.6685 15.5208 10.5239 15.543 10.381 15.5717C9.59101 15.7291 8.8588 16.0505 8.11052 16.332C8.11052 16.3495 8.10731 16.3686 8.09928 16.3845C8.0479 16.3893 7.99652 16.3941 7.94513 16.3988C7.94192 16.4195 7.93871 16.4402 7.93871 16.4609C6.20934 17.2308 4.80432 18.3984 3.65623 19.8825C3.69476 19.9191 3.73651 19.9414 3.77987 19.9541C3.69316 19.9684 3.60805 19.9955 3.52777 20.048C2.5001 21.4096 1.79197 22.9129 1.44995 24.5832C1.56396 24.7072 1.51418 24.8599 1.51579 25.0015C1.519 26.8929 1.519 28.7843 1.51579 30.6757C1.51579 30.9015 1.52863 31.1227 1.59607 31.339L1.59928 31.3422C1.61695 31.3613 1.62658 31.3804 1.62979 31.3994C1.63461 31.4249 1.62819 31.4519 1.61213 31.4774C1.61534 31.479 1.61855 31.4806 1.62176 31.4838C1.62498 31.4885 1.62819 31.4949 1.6314 31.4997C1.64103 31.514 1.64906 31.5283 1.65709 31.5426C1.79197 31.7796 1.80964 32.0532 1.88832 32.3093C2.6414 34.7575 4.2648 36.3164 6.75529 36.9877C7.01381 37.0577 7.27554 37.107 7.53888 37.1515C7.68019 37.1754 7.83594 37.1897 7.94192 37.2947C7.94353 37.2947 7.94353 37.2963 7.94513 37.2979C7.98688 37.2502 8.01418 37.2009 8.02863 37.1468C8.03827 37.1977 8.05593 37.2486 8.09286 37.2947C8.09447 37.2931 8.09768 37.2915 8.09928 37.2899C8.21811 37.1945 8.36102 37.1865 8.50393 37.1834C9.00813 37.1754 9.51233 37.169 10.0165 37.1865C10.1514 37.1913 10.3248 37.1595 10.4019 37.3058C11.5211 35.8726 12.6708 34.4616 13.6712 32.9425C13.9441 32.5305 14.1031 32.0676 14.246 31.5999C14.2476 31.5983 14.2492 31.5967 14.2508 31.5951C14.2589 31.5872 14.2685 31.5808 14.2765 31.5776C14.2974 31.5681 14.3215 31.5697 14.3472 31.584C14.3552 31.5553 14.3648 31.5283 14.3745 31.5013V31.3406C14.4018 31.2738 14.413 31.2133 14.352 31.1783ZM7.94353 26.0116H8.09768C8.10089 26.0148 8.1025 26.0164 8.1041 26.0196C8.1025 26.0228 8.10089 26.0244 8.09768 26.0244C8.08483 26.0339 8.07038 26.0387 8.05432 26.0419C8.0206 26.0482 7.98367 26.0371 7.94353 26.0116ZM6.40684 19.9668C6.41327 19.9541 6.42451 19.943 6.43575 19.9334H6.47268C6.46786 19.9446 6.46144 19.9557 6.45662 19.9668C6.44217 19.9923 6.42932 20.0178 6.41648 20.0432C6.39721 20.0098 6.39721 19.9859 6.40684 19.9668ZM7.44093 31.4981C7.4313 31.4838 7.42809 31.4678 7.42648 31.4535C7.41845 31.4154 7.42809 31.3772 7.4586 31.3422V31.4981C7.45378 31.5028 7.45057 31.506 7.44575 31.5092C7.44254 31.506 7.44093 31.5013 7.44093 31.4981ZM8.07841 31.926C8.05111 31.9673 8.03666 32.0087 8.02863 32.0532C8.01258 31.9976 7.98528 31.9451 7.94192 31.8973C7.94353 31.8926 7.94353 31.8862 7.94353 31.8814C7.94835 31.8862 7.95156 31.8926 7.95637 31.8973H8.09928V31.9196C8.09286 31.9228 8.08644 31.926 8.07841 31.926Z" fill="#F06977"/>
<path d="M8.0993 31.9197C8.09288 31.9229 8.08646 31.926 8.07843 31.926C8.08485 31.9165 8.09128 31.9069 8.0993 31.8974V31.9197Z" fill="#F06977"/>
<path d="M14.2846 31.5872C14.2798 32.0962 14.0453 32.5353 13.7852 32.9425C12.8025 34.476 11.6223 35.8678 10.5288 37.3218C10.5063 37.352 10.463 37.3663 10.4308 37.387C10.4116 37.3695 10.3923 37.3552 10.373 37.344C10.2269 37.2534 10.0551 37.3122 9.89774 37.3106C9.30041 37.2995 8.70147 37.3059 8.10253 37.3075L8.09932 37.3027C8.09771 37.2995 8.0945 37.2979 8.0929 37.2947C8.0945 37.2931 8.09771 37.2916 8.09932 37.29C8.21814 37.1945 8.36105 37.1866 8.50396 37.1834C9.00816 37.1754 9.51236 37.1691 10.0166 37.1866C10.1514 37.1913 10.3249 37.1595 10.4019 37.3059C11.5211 35.8726 12.6708 34.4616 13.6712 32.9425C13.9442 32.5305 14.1031 32.0676 14.2461 31.5999C14.2477 31.5983 14.2493 31.5967 14.2509 31.5951C14.2589 31.5872 14.2685 31.5808 14.2766 31.5776C14.2798 31.5808 14.2814 31.584 14.2846 31.5872Z" fill="#F06977"/>
<path d="M37.4055 37.3043C37.8069 37.3043 38.2084 37.3059 38.6098 37.3059C38.5102 37.8276 38.1875 38.2285 37.868 38.6293C37.7636 38.7598 37.5869 38.7661 37.436 38.8091C37.3862 38.8234 37.3284 38.8059 37.277 38.817C36.0487 39.0843 35.4802 38.3621 35.0788 37.3838C35.3582 37.3011 35.644 37.3663 35.925 37.344C36.0583 37.3265 36.1482 37.4093 36.2413 37.4824C36.3361 37.5556 36.4405 37.6447 36.5561 37.6399C36.996 37.6208 37.3814 37.7306 37.6881 38.0837C37.6688 37.7608 37.1149 37.7306 37.3541 37.3249C37.3702 37.3186 37.3878 37.3122 37.4055 37.3043Z" fill="#D9596B"/>
<path d="M36.0406 37.3854C35.7195 37.3854 35.4 37.3854 35.0788 37.3854C35.0772 37.36 35.0772 37.3329 35.0772 37.3075C35.3727 37.3059 35.6665 37.3059 35.962 37.3043C35.9877 37.2772 36.0166 37.2741 36.0471 37.2932C36.0519 37.3091 36.0583 37.325 36.0631 37.3409C36.0567 37.3552 36.0487 37.3695 36.0406 37.3854Z" fill="#D2667A"/>
<path d="M21.1876 3.98004C21.1876 4.90744 21.1876 5.83483 21.1876 6.76382C20.6786 6.95789 20.1712 6.96425 19.6622 6.76223C19.6622 5.62327 19.6622 4.48271 19.6622 3.34374C20.0363 3.3008 20.4249 3.43442 20.7894 3.26103C20.8488 3.23717 20.889 3.26898 20.9259 3.30875C21.011 3.4376 21.0977 3.56645 21.1716 3.70325C21.1812 3.76847 21.231 3.83051 21.186 3.9005C21.1876 3.92595 21.1876 3.953 21.1876 3.98004Z" fill="#DBD7E5"/>
<path d="M19.6622 6.76221C20.1712 6.76221 20.6786 6.7638 21.1876 6.7638C21.1876 7.26647 21.178 7.77073 21.1908 8.2734C21.1972 8.51201 21.1186 8.61064 20.8697 8.59632C20.5758 8.58042 20.282 8.60269 19.9881 8.58996C19.7521 8.57882 19.6638 8.65359 19.6557 8.90174C19.6156 10.0932 19.6076 10.0916 20.8119 10.1059C20.9403 10.1075 21.0832 10.063 21.1876 10.1839C21.1683 10.2014 21.1507 10.2173 21.1314 10.2348C20.3109 10.3525 19.4888 10.3366 18.6666 10.2475C18.6184 10.2236 18.5831 10.1886 18.5574 10.1425C18.4466 9.83709 18.498 9.51895 18.4948 9.20716C18.4868 8.55178 18.49 7.8964 18.4948 7.24102C18.4964 7.09785 18.4932 6.9515 18.5655 6.81947C18.5831 6.80038 18.6008 6.78289 18.6184 6.7638C18.6457 6.7638 18.6714 6.7638 18.6987 6.76539C18.8529 6.94514 18.8095 7.16307 18.8159 7.36987C18.8224 7.56712 18.8143 7.76437 18.8192 7.96162C18.824 8.14774 18.8577 8.30681 19.0986 8.30522C19.3394 8.30522 19.3731 8.14615 19.378 7.96003C19.3844 7.69756 19.3763 7.4335 19.3828 7.17103C19.386 7.02468 19.3924 6.87992 19.5 6.7638C19.5546 6.7638 19.6092 6.76221 19.6622 6.76221Z" fill="#EDEBF1"/>
<path d="M19.6622 0.162231C19.6622 1.22484 19.6686 2.28904 19.5016 3.3437C18.6185 3.34529 18.6185 3.34529 18.6185 2.48311C18.6185 2.07588 18.5944 1.66706 18.702 1.26779C18.8417 0.74603 19.1082 0.330849 19.6622 0.162231Z" fill="#EDEBF1"/>
<path d="M17.8172 6.76223C17.8172 5.64871 17.8156 4.5352 17.8156 3.42328C18.6185 3.42328 18.6185 3.42328 18.6185 4.20115C18.6185 5.05537 18.6185 5.90959 18.6185 6.76382C18.3519 6.92925 18.0838 6.93084 17.8172 6.76223Z" fill="#C5C3D7"/>
<path d="M19.5016 6.76379C19.5016 7.22352 19.4871 7.68324 19.5064 8.14296C19.5208 8.49133 19.2864 8.4277 19.0809 8.43406C18.8721 8.44043 18.6827 8.45315 18.6939 8.14455C18.7116 7.68483 18.6987 7.22511 18.6987 6.76538C18.9669 6.76379 19.2334 6.76379 19.5016 6.76379Z" fill="#EDEBF1"/>
<path d="M11.0249 17.3119C11.0217 17.6332 11.0233 17.953 11.0233 18.2743C11.0201 18.6195 11.0217 18.9647 11.0217 19.3099V19.3433C11.0233 19.3576 11.0233 19.3719 11.0233 19.3878C11.0233 19.4196 11.0233 19.453 11.0217 19.4849C11.0201 19.5024 11.0185 19.5199 11.0169 19.5374C11.0137 19.5803 11.0089 19.6233 10.996 19.663V19.6646C10.9816 19.7139 10.9559 19.7601 10.9077 19.7966C10.9045 19.7998 10.9013 19.8014 10.8981 19.8046C10.8981 19.7998 10.8981 19.7966 10.8997 19.7919C10.9077 19.6932 10.9158 19.593 10.9238 19.4944C10.9158 19.469 10.9142 19.4435 10.9206 19.4165C10.919 19.0442 10.9174 18.672 10.9158 18.2998C10.9158 17.98 10.9142 17.6619 10.9142 17.3437C10.9125 16.8601 10.9142 16.3782 10.9093 15.8946C10.9077 15.7562 10.9543 15.6019 10.813 15.4953C10.9013 15.508 10.9527 15.5398 10.9816 15.5844C10.9896 15.5939 10.9944 15.6051 10.9993 15.6162C11.033 15.6973 11.0153 15.8055 11.0185 15.8946C11.033 16.367 11.0233 16.8395 11.0249 17.3119Z" fill="#F06977"/>
<path d="M17.8076 13.526C17.8108 12.4125 17.814 11.299 17.8172 10.1839C18.0837 10.0152 18.3503 10.0168 18.6184 10.1823C18.7565 10.3382 18.718 10.5291 18.726 10.7088C18.7533 11.2878 18.8609 11.8303 19.3442 12.2295C19.4663 12.3298 19.561 12.4602 19.5947 12.6241C19.6076 12.939 19.6991 13.2603 19.4904 13.5499C18.9284 13.6962 18.368 13.728 17.8124 13.5276L17.8076 13.526Z" fill="#C5C3D7"/>
<path d="M18.6185 10.1823C18.3519 10.1823 18.0838 10.1839 17.8172 10.1839C17.8172 9.04332 17.8172 7.90277 17.8172 6.76062C18.0838 6.76062 18.3519 6.76221 18.6185 6.76221C18.6185 7.90277 18.6185 9.04332 18.6185 10.1823Z" fill="#DBD7E5"/>
<path d="M28.0778 21.4972C28.073 22.2337 28.1806 22.9734 28.012 23.7051C27.9333 24.615 27.6153 25.4199 26.9506 26.0737C26.5716 26.446 26.1943 26.8214 25.8153 27.1952C25.2469 27.7583 24.8808 28.4344 24.6528 29.1916C24.7106 28.3803 25.1634 27.7647 25.6837 27.1904C25.9582 26.885 26.2489 26.5891 26.5604 26.3219C27.3665 25.6267 27.8 24.7534 27.9236 23.7242C27.9285 23.7035 27.9301 23.6829 27.9317 23.6622C27.9349 23.6399 27.9381 23.6176 27.9397 23.5954C27.9991 23.072 27.9574 22.5471 27.9734 22.0237C27.9782 21.8424 27.9445 21.6531 28.0778 21.4972Z" fill="#F06977"/>
<path d="M30.4883 31.3311C30.4934 31.3344 30.4967 31.3378 30.5018 31.3429H30.4832C30.4832 31.3395 30.4849 31.3344 30.4883 31.3311Z" fill="#F06977"/>
<path d="M31.0532 30.7713C31.0565 30.768 31.0615 30.7664 31.0648 30.7664V30.7843C31.0598 30.7794 31.0565 30.7761 31.0532 30.7713Z" fill="#F06977"/>
<path d="M31.0665 25.614V25.6276C31.0631 25.6276 31.0614 25.6242 31.058 25.6225C31.0614 25.6191 31.0631 25.6174 31.0665 25.614Z" fill="#F06977"/>
<path d="M8.09772 26.0117C8.1011 26.0151 8.10279 26.0167 8.10448 26.0201C8.10279 26.0235 8.1011 26.0252 8.09772 26.0252V26.0117Z" fill="#F06977"/>
<path d="M14.344 28.805C14.3103 28.8575 14.2782 28.9084 14.2316 28.98C13.9618 27.9015 13.236 27.1665 12.43 26.4905C12.1554 26.3919 11.9675 26.2089 11.8712 25.9337C11.3332 25.2863 11.1004 24.5212 10.9928 23.7067C10.8467 23.3408 10.9318 22.9606 10.9254 22.5868C10.9158 22.4039 10.9061 22.221 10.8965 22.0396C10.9431 22.0794 10.972 22.1223 10.9912 22.1685V22.1701C11.0362 22.2862 11.0121 22.4166 11.0233 22.5391C11.0233 22.5502 11.0249 22.5614 11.0265 22.5725C11.0378 22.9272 10.9993 23.2836 11.0699 23.6367C11.0715 23.6447 11.0715 23.651 11.0731 23.659C11.0763 23.6828 11.0795 23.7051 11.0844 23.729C11.2064 24.4957 11.4649 25.2115 11.9049 25.8621C11.9402 25.9258 11.9787 25.9878 12.0205 26.0451C12.0992 26.1517 12.1891 26.2455 12.2967 26.3203C12.3513 26.36 12.4123 26.3934 12.4781 26.4221C13.2569 27.06 13.9763 27.7456 14.2412 28.7605C14.2669 28.8607 14.3199 28.7716 14.344 28.805Z" fill="#F06977"/>
<path d="M11.11 22.2003C11.1084 22.318 11.1261 22.4596 11.0233 22.5391C10.9993 22.5598 10.9671 22.5757 10.9254 22.5868C10.9158 22.4039 10.9061 22.221 10.8965 22.0396V22.0205C10.8981 21.2808 10.8981 20.5427 10.8981 19.8046C10.8981 19.7999 10.8981 19.7967 10.8997 19.7919C10.9077 19.6933 10.9158 19.5931 10.9238 19.4944C10.9623 19.504 10.9928 19.5183 11.0169 19.5374C11.1277 19.6153 11.1068 19.7601 11.11 19.8778C11.1245 20.6525 11.1245 21.4272 11.11 22.2003Z" fill="#E2DFEA"/>
<path d="M28.012 23.7051C27.9815 23.7178 27.951 23.7242 27.9237 23.7242C27.8033 23.7337 27.7037 23.6574 27.6058 23.6001C26.713 23.0752 25.8298 22.5327 24.9402 22.0014C24.8246 21.933 24.717 21.8566 24.6512 21.7358C24.1486 21.2394 23.5031 20.9547 22.9122 20.592C22.5895 20.3932 22.2892 20.1466 21.9118 20.0464C21.8043 19.9207 21.6437 19.8857 21.5088 19.8078C21.4269 19.8316 21.3418 19.8221 21.2744 19.7871C20.7669 19.5215 20.1776 19.4944 19.6622 19.2526C19.6092 19.251 19.5546 19.251 19.5016 19.251C18.7935 19.3878 18.1352 19.7076 17.4174 19.811C17.3082 19.8889 17.2006 19.9669 17.0914 20.0448C16.4813 20.2834 15.9562 20.6716 15.3894 20.9881C15.1003 21.1488 14.8209 21.3301 14.5463 21.5162C14.4532 21.5799 14.2782 21.618 14.3569 21.8042C13.3517 22.4214 12.3465 23.0386 11.3301 23.6383C11.2546 23.6828 11.1743 23.7321 11.0844 23.7289C11.0555 23.7273 11.025 23.721 10.9929 23.7067C10.8467 23.3408 10.9318 22.9606 10.9254 22.5868C11.0282 22.4579 11.0009 22.3116 10.9913 22.17V22.1684C10.9897 22.143 10.988 22.1159 10.988 22.0905C10.988 22.0316 10.9897 21.9712 10.9897 21.9123C10.9897 21.9107 10.9897 21.9107 10.9897 21.9091C10.9945 21.2681 10.9929 20.627 10.9897 19.9859V19.8714C10.988 19.8046 11.0009 19.733 10.9961 19.6646V19.663C10.9913 19.6026 10.9736 19.5469 10.9238 19.4944C10.9158 19.469 10.9142 19.4435 10.9206 19.4165C10.9431 19.391 10.9656 19.3656 10.988 19.3401C10.9913 19.3369 10.9945 19.3322 10.9977 19.329C10.9993 19.3274 10.9993 19.3274 11.0009 19.3258C11.0073 19.321 11.0137 19.3147 11.0218 19.3099C11.1872 19.1747 11.375 19.0729 11.5629 18.9758C11.64 18.9361 11.7251 18.8804 11.7989 18.9297C11.8038 18.9329 11.8086 18.9361 11.8134 18.9408C11.8294 18.9552 11.8471 18.9758 11.8616 19.0061C11.9402 19.2781 11.8969 19.5549 11.9049 19.8285C11.9049 19.8476 11.9033 19.8682 11.9033 19.8873C11.9017 19.9128 11.9017 19.9366 11.9017 19.9621C11.8905 20.355 11.8873 20.7479 11.9017 21.1392C11.921 21.6387 12.1024 21.7389 12.5247 21.486C13.3404 20.9992 14.1385 20.4823 14.9349 19.9653H14.9365C14.9767 19.9398 15.0136 19.9128 15.0538 19.8873C15.0778 19.8714 15.1035 19.8555 15.1276 19.8396C16.075 19.3512 16.9244 18.7006 17.8718 18.2123C18.3471 17.9689 18.8144 17.716 19.333 17.5776C19.3716 17.5696 19.4085 17.5617 19.4454 17.5521C19.4743 17.5458 19.5032 17.5394 19.5305 17.5314C19.5723 17.5219 19.614 17.5108 19.6542 17.5012C19.6847 17.4933 19.7136 17.4853 19.7441 17.4774C19.7441 17.4774 19.7441 17.4774 19.7457 17.4774C19.8003 17.463 19.8549 17.4471 19.9095 17.4328C20.7429 17.2849 21.4976 17.5378 22.2169 17.9084C23.9222 18.7897 25.5006 19.881 27.1417 20.8672C27.4275 21.039 27.7711 21.136 27.9767 21.4224C27.9895 21.4399 28.0024 21.459 28.0136 21.4781C28.0281 21.4812 28.0425 21.4844 28.0554 21.4908C28.0634 21.4924 28.0698 21.494 28.0778 21.4971C28.073 22.2337 28.1806 22.9733 28.012 23.7051Z" fill="#DBD7E5"/>
<path d="M28.0136 21.4781C28.004 21.4733 27.9959 21.4685 27.9863 21.4622C26.615 20.697 25.308 19.8285 23.964 19.022C23.0102 18.4493 22.0804 17.8305 20.9773 17.5506C20.6208 17.4599 20.2611 17.5267 19.9031 17.5012C19.7826 17.5426 19.7056 17.5362 19.6542 17.5012C19.6172 17.4742 19.5932 17.4328 19.5787 17.3835C19.5626 17.3263 19.5578 17.2563 19.5562 17.1879C19.5402 16.6566 19.5498 16.1269 19.5498 15.5971C19.5482 15.0531 19.5466 14.5107 19.5498 13.9666C19.5514 13.8855 19.5466 13.8028 19.5578 13.7233C19.5659 13.666 19.5803 13.6103 19.6124 13.5562C19.614 13.5515 19.6172 13.5451 19.6205 13.5403C19.6317 13.5355 19.6413 13.5308 19.6526 13.526C20.1359 13.3033 20.6353 13.3876 21.1331 13.4735C21.1507 13.4894 21.1668 13.5053 21.1844 13.5196L21.186 13.5212V13.5228L21.1909 13.526C21.2262 14.8813 22.0162 15.7578 23.0872 16.4545C23.4774 16.7075 23.858 16.9747 24.2546 17.2181C24.3654 17.2865 24.473 17.4265 24.6416 17.3406C24.7267 17.3008 24.7973 17.3422 24.8648 17.3819C25.8684 18.0007 26.8751 18.6148 27.8643 19.2558C27.9028 19.2813 27.9365 19.3147 27.967 19.3513C27.9703 19.356 27.9751 19.3608 27.9783 19.3656C27.9783 19.3672 27.9799 19.3704 27.9815 19.3719C27.9847 19.3815 27.9895 19.3926 27.9927 19.4022C27.9943 19.4069 27.9976 19.4133 27.9992 19.4181V19.434C28.004 20.1164 28.0088 20.7957 28.0136 21.4781Z" fill="#EDEBF1"/>
<path d="M28.0104 15.4603V19.4117C27.9991 19.399 27.9879 19.3847 27.9815 19.3719C27.9751 19.3656 27.9702 19.3576 27.967 19.3513C27.8867 19.2224 27.8851 19.0729 27.8851 18.9234C27.8819 17.9307 27.8803 16.9381 27.8867 15.9471C27.8867 15.7769 27.8723 15.5987 28.0104 15.4603Z" fill="#F06977"/>
<path d="M8.09289 37.2947C8.0945 37.2931 8.09771 37.2915 8.09932 37.29V37.3027H8.08968C8.04151 37.3027 7.99655 37.3027 7.94838 37.3011H7.94196V37.2947C7.94356 37.2947 7.94356 37.2963 7.94517 37.2979C7.98692 37.2502 8.01421 37.2009 8.02867 37.1468C8.0383 37.1977 8.05596 37.2486 8.09289 37.2947Z" fill="#EB7988"/>
<path d="M8.09932 31.8974V31.9197C8.09289 31.9229 8.08647 31.926 8.07844 31.926C8.05115 31.9674 8.03669 32.0088 8.02867 32.0533C8.01261 31.9976 7.98531 31.9451 7.94196 31.8974H8.09932Z" fill="#EB7988"/>
<path d="M28.0104 15.4603V19.4117C28.0039 19.4085 27.9991 19.4053 27.9927 19.4021C26.8478 18.7595 25.7543 18.0341 24.6415 17.3406C24.6512 16.9445 24.6094 16.5516 24.6929 16.1555C24.7844 15.7116 25.0494 15.4699 25.4717 15.349C25.9871 15.1994 26.5074 15.279 27.0244 15.3076C27.3552 15.3251 27.6828 15.4078 28.0104 15.4603Z" fill="#C34761"/>
<path d="M21.1908 13.526L21.186 13.5228C20.9982 13.2715 21.0849 12.9836 21.0704 12.7084C21.0495 12.0148 21.0624 11.3213 21.0624 10.6277C21.0624 10.4702 21.0704 10.3112 21.1876 10.1855H21.1892C21.2149 10.1855 21.2422 10.1855 21.2679 10.1855" fill="#EDEBF1"/>
<path d="M20.8697 3.34533C20.8424 3.31669 20.8167 3.28965 20.7894 3.26102C20.5357 2.61041 20.8665 2.13001 21.2663 1.67188C21.2663 2.29067 21.2695 2.90947 21.2647 3.52985C21.2631 3.65552 21.3097 3.79709 21.186 3.90049C21.1587 3.848 21.1331 3.79391 21.1058 3.74142C21.162 3.52985 21.0303 3.42804 20.8697 3.34533Z" fill="#EDEBF1"/>
<path d="M36.0407 37.3059C36.015 37.3059 35.9877 37.3043 35.962 37.3043C35.9604 36.6298 36.2317 36.3148 36.7809 36.3514C37.2482 36.3832 37.4071 36.6234 37.4055 37.3059V37.3075C37.3124 37.3679 37.2161 37.3981 37.1085 37.344C37.0121 37.2629 37.0555 37.1484 37.0426 37.0498C37.0153 36.8557 36.9142 36.7284 36.7103 36.7237C36.5208 36.7189 36.4292 36.8382 36.3907 37.0132C36.349 37.1913 36.3634 37.449 36.0407 37.3059Z" fill="#F06977"/>
<path d="M3.20185 37.0036C3.05894 37.2915 3.20506 37.511 3.52139 37.6765C3.63861 37.7369 3.7478 37.8626 3.63861 38.0042C3.50533 38.1776 3.40578 38.0201 3.31907 37.9342C3.08945 37.7067 2.86786 37.5556 2.49051 37.6049C2.08266 37.6574 1.74224 37.2597 1.7583 36.8763C1.77596 36.493 2.12762 36.1796 2.52905 36.1923C2.98347 36.2051 3.21148 36.4596 3.20185 37.0036Z" fill="#D9596B"/>
<path d="M37.0844 37.3043C37.192 37.3043 37.2979 37.3059 37.4055 37.3059C37.2722 37.4904 37.4055 37.597 37.5292 37.7004C37.6191 37.7767 37.7267 37.8356 37.8118 37.9167C37.9001 38.001 37.9097 38.106 37.8134 38.1951C37.717 38.2842 37.6464 38.2094 37.5741 38.1474C37.4425 38.0376 37.3092 37.9294 37.1759 37.8213C37.0908 37.7513 37.0137 37.7211 36.8885 37.7481C36.5272 37.8276 36.2365 37.702 36.0406 37.3838L36.0423 37.3822C36.3843 37.2979 36.7151 37.0323 37.0844 37.3043Z" fill="#D9596B"/>
<path d="M37.0844 37.3043C36.7311 37.2693 36.3891 37.3504 36.0407 37.3838C36.0407 37.3584 36.0407 37.3313 36.0391 37.3059C36.2028 37.317 36.296 37.2534 36.2783 37.0784C36.2558 36.8573 36.3152 36.6887 36.5513 36.6187C36.7327 36.5646 36.8837 36.59 37.025 36.7284C37.2129 36.9114 37.1904 37.1007 37.0844 37.3043Z" fill="#F06977"/>
<path d="M20.8697 3.34529C21.2005 3.32938 21.2792 3.45982 21.1073 3.74138C21.0287 3.60935 20.9484 3.47732 20.8697 3.34529Z" fill="#D6D3E2"/>
<path d="M21.1876 10.1839C21.1876 11.0334 21.1876 11.8812 21.186 12.7307C20.5967 12.9565 20.0379 12.8834 19.5016 12.5684C19.4952 12.5573 19.4936 12.5414 19.4839 12.5334C18.6875 11.9337 18.5574 11.0922 18.6184 10.1839C19.4743 10.1839 20.3318 10.1839 21.1876 10.1839Z" fill="#EDEBF1"/>
<path d="M19.5016 9.336C19.5016 9.45531 19.5032 9.57302 19.5016 9.69233C19.4984 10.0614 19.1484 10.257 18.8047 10.0884C18.6956 10.0359 18.702 9.94526 18.7004 9.85617C18.6972 9.52689 18.7116 9.19761 18.6956 8.86833C18.6811 8.54223 18.9043 8.59313 19.097 8.59631C19.2865 8.59791 19.5241 8.53587 19.5016 8.86356C19.492 9.01945 19.5016 9.17693 19.5016 9.336Z" fill="#EDEBF1"/>
<path d="M11.7957 19.8874C11.7957 19.5756 11.7957 19.2638 11.7957 18.952C11.8005 18.8311 11.884 18.7643 11.974 18.7086C12.703 18.2569 13.4352 17.8099 14.169 17.3645C14.2268 17.3295 14.2894 17.3104 14.3585 17.3295C14.6796 17.3931 14.8418 17.1163 15.0634 16.9859C15.8133 16.5389 16.5423 16.0664 17.1155 15.384C17.5731 14.8384 17.7112 14.1941 17.8156 13.5276C18.3792 13.5244 18.9428 13.5212 19.5064 13.5181C19.5225 13.5387 19.5386 13.5578 19.5546 13.5785C19.622 14.8336 19.5675 16.0887 19.5851 17.3438C19.5883 17.5203 19.4968 17.6078 19.3443 17.6587C18.0324 18.1073 16.9068 18.8979 15.741 19.6122C15.5595 19.7235 15.3877 19.8476 15.171 19.8874C15.1132 19.9208 15.0537 19.9542 14.9879 19.9605C13.9827 20.0608 12.9775 20.0258 11.9723 19.9796C11.9017 19.9764 11.8471 19.9287 11.7957 19.8874Z" fill="#EDEBF1"/>
<path d="M14.3568 17.3294C13.5026 17.8703 12.6483 18.4111 11.7957 18.952C11.5308 19.0999 11.2674 19.2494 11.0025 19.3974C10.8901 19.0363 10.9816 18.6641 10.9527 18.2998C10.9527 17.9769 10.9527 17.6539 10.9527 17.331C10.98 16.7059 10.8949 16.0775 11.0009 15.454C11.2273 15.3999 11.4537 15.3347 11.6913 15.3442C11.8696 15.2837 12.059 15.3283 12.2421 15.2853C12.4027 15.2472 12.5327 15.3458 12.605 15.4762C12.8972 16.0059 13.3517 16.1905 13.9377 16.1237C14.0421 16.1109 14.1497 16.1284 14.2493 16.1762C14.3472 16.2255 14.3071 16.3368 14.3568 16.4084C14.3552 16.7154 14.3568 17.0224 14.3568 17.3294Z" fill="#C34761"/>
<path d="M12.1152 15.2631C12.5488 15.2726 12.9823 15.1756 13.4191 15.2917C13.9554 15.4333 14.2059 15.6862 14.2814 16.2302C14.0967 16.2302 13.9088 16.2112 13.7258 16.2334C13.159 16.305 12.7864 16.041 12.5456 15.5669C12.4492 15.3792 12.3095 15.3458 12.1249 15.3538C11.9804 15.3601 11.8342 15.349 11.6881 15.3458C11.8182 15.2472 11.9771 15.306 12.1152 15.2631Z" fill="#B8516B"/>
<path d="M11.0009 15.454C11.0009 15.5081 10.9993 15.5622 10.9993 15.6163C10.9928 16.1921 10.9896 16.7679 10.9832 17.3438C10.9736 17.3597 10.9623 17.3677 10.9527 17.3692C10.9398 17.3708 10.927 17.3629 10.9142 17.3438C10.9125 16.8602 10.9142 16.3782 10.9093 15.8946C10.9077 15.7562 10.9543 15.6019 10.813 15.4954C10.866 15.4381 10.935 15.4508 11.0009 15.454Z" fill="#DE7888"/>
<path d="M11.0025 19.399C10.9752 19.4053 10.9479 19.4117 10.9206 19.4165C10.919 19.0443 10.9174 18.672 10.9158 18.2998C10.9286 18.2775 10.9415 18.268 10.9527 18.2727C10.9623 18.2743 10.9704 18.2839 10.98 18.2998C10.988 18.6418 10.9945 18.9822 11.0009 19.3258C11.0009 19.3497 11.0025 19.3751 11.0025 19.399Z" fill="#DC93A2"/>
<path d="M10.9832 17.3438C10.9816 17.6619 10.9816 17.9816 10.98 18.2998L10.9527 18.2982H10.9479L10.9158 18.2998C10.9158 17.98 10.9142 17.6619 10.9142 17.3438C10.927 17.3422 10.9399 17.3422 10.9527 17.3422C10.9624 17.3422 10.9736 17.3422 10.9832 17.3438Z" fill="#DC8292"/>
<path d="M19.5016 12.5684C20.0556 12.6908 20.6144 12.7736 21.186 12.7306C21.186 12.9947 21.186 13.2587 21.1844 13.5228C20.677 13.5244 20.1696 13.526 19.6622 13.5276C19.6076 13.5721 19.5546 13.5721 19.5 13.5276L19.5032 13.5196C19.5032 13.2015 19.5032 12.8849 19.5016 12.5684Z" fill="#C6C4D7"/>
<path d="M14.3569 21.8042C14.3537 24.1378 14.3488 26.4698 14.344 28.8034V28.805C14.3103 28.8575 14.2782 28.9084 14.2316 28.98C13.9619 27.9015 13.2361 27.1666 12.43 26.4905C12.2212 26.3266 12.0318 26.1437 11.8712 25.9337C11.3333 25.2863 11.1004 24.5212 10.9929 23.7067C11.0202 23.6908 11.0458 23.6749 11.0731 23.659C12.0478 23.0816 13.0225 22.5009 13.9988 21.9251C14.108 21.8599 14.2027 21.7422 14.3569 21.8042Z" fill="#C34761"/>
<path d="M28.012 23.7051C27.9333 24.615 27.6154 25.4199 26.9506 26.0737C26.5716 26.4459 26.1943 26.8214 25.8153 27.1952C25.2469 27.7583 24.8808 28.4344 24.6528 29.1915C24.6528 26.7068 24.6512 24.2221 24.6512 21.7358C25.621 22.31 26.5893 22.8859 27.5592 23.4601C27.6812 23.5301 27.8064 23.5969 27.9317 23.6622C27.959 23.6765 27.9847 23.6908 28.012 23.7051Z" fill="#C34761"/>
<path d="M12.4299 26.4905C12.1554 26.3918 11.9675 26.2089 11.8712 25.9337C11.9225 25.9687 11.9723 26.0053 12.0205 26.0451C12.1216 26.1278 12.2132 26.22 12.2967 26.3203C12.3432 26.3759 12.3866 26.4316 12.4299 26.4905Z" fill="#DF7D8D"/>
<path d="M11.7957 19.8873C12.9197 19.8873 14.0437 19.8873 15.1678 19.8873C14.633 20.3677 13.9747 20.6668 13.3918 21.0772C13.1108 21.2744 12.8009 21.4319 12.5071 21.6133C12.0751 21.8789 11.8134 21.7469 11.7973 21.2347C11.7829 20.7861 11.7941 20.3359 11.7957 19.8873Z" fill="#EDEBF1"/>
<path d="M19.5 13.526C19.5546 13.526 19.6076 13.526 19.6621 13.526C19.6621 14.7365 19.6621 15.9455 19.6621 17.1561C19.6621 17.3263 19.6268 17.5203 19.903 17.5012C19.7312 17.6078 19.5385 17.6444 19.341 17.6603C19.508 17.5474 19.5048 17.3803 19.5032 17.2038C19.5 15.9773 19.5016 14.7525 19.5 13.526Z" fill="#EDEBF1"/>
<path d="M2.52098 37.309C2.15327 37.3011 2.07459 37.1134 2.0762 36.835C2.0778 36.5312 2.27209 36.4389 2.51456 36.4389C2.79075 36.4405 2.97059 36.6107 2.95453 36.8891C2.93847 37.1659 2.74418 37.2947 2.52098 37.309Z" fill="#D9596B"/>
<path d="M19.2271 3.34371C19.2271 3.34371 21.2663 3.30712 21.2679 3.14486C21.2679 2.98261 21.2744 3.7398 21.2744 3.7398L21.2679 4.05954V6.76219L20.9195 6.74946L19.9609 3.65549L19.2271 3.34371Z" fill="#DBD7E5"/>
<path d="M21.2663 1.59075C21.2663 1.59075 21.0046 -0.00316325 19.9014 0.00479041L21.2663 1.59075Z" fill="#EDEBF1"/>
<path d="M24.6512 21.7358C24.6512 21.7358 21.8396 19.6487 19.6622 19.2526C17.4848 18.8565 24.6239 20.4632 24.6239 20.4632L24.6512 21.7358Z" fill="#DBD7E5"/>
<path d="M19.6621 19.2526C19.6621 19.2526 16.6562 19.7712 14.2942 21.7946L14.6892 20.5586L19.5465 18.8438" fill="#DBD7E5"/>
</g>
<defs>
<clipPath id="clip0_162_9191">
<rect width="39" height="39" fill="white"/>
</clipPath>
</defs>
</svg>
