<svg width="19" height="19" viewBox="0 0 19 19" fill="none" xmlns="http://www.w3.org/2000/svg">
<path d="M15.4669 8.16885L13.6473 9.92248C13.3974 10.1629 13.2277 10.6437 13.2796 10.9879L13.5624 13.0432C13.7462 14.3584 12.9307 14.9288 11.7522 14.316L9.75345 13.2694C9.41875 13.095 8.87192 13.1045 8.54665 13.2977L6.79774 14.3207C5.41653 15.1268 4.59157 14.5187 4.95927 12.963L5.4731 10.7899C5.56738 10.3939 5.39296 9.85177 5.09597 9.58307L3.44134 8.08871C2.25812 7.01862 2.5881 6.04753 4.18145 5.92497L6.19906 5.77412C6.57618 5.74583 7.03345 5.44885 7.20787 5.11415L8.25438 3.10597C8.87192 1.93217 9.86659 1.93688 10.4653 3.12011L11.3987 4.96802C11.5589 5.27914 11.9643 5.58084 12.3085 5.6327L14.8069 6.0381C16.1551 6.26438 16.4521 7.22133 15.4669 8.16885Z" fill="#FFD600"/>
</svg>
