<?xml version="1.0" encoding="UTF-8"?>
<svg version="1.1" xmlns="http://www.w3.org/2000/svg" width="512" height="512">
<path d="M0 0 C15.07810589 12.55996044 22.34858948 29.4238512 24.91015625 48.66015625 C25.1915579 52.79016877 25.23546108 56.89663462 25.22265625 61.03515625 C25.23876953 62.06898437 25.25488281 63.1028125 25.27148438 64.16796875 C25.28017736 78.14629135 20.99433156 89.52254499 14.91015625 101.84765625 C13.65079435 104.42003145 12.40021952 106.99639001 11.16015625 109.578125 C10.71965942 110.49475418 10.71965942 110.49475418 10.27026367 111.42990112 C7.94148359 116.37638081 6.2151584 121.35703146 4.91015625 126.66015625 C6.49546143 126.63659058 6.49546143 126.63659058 8.11279297 126.61254883 C12.12736026 126.55722806 16.14189596 126.523445 20.15673828 126.49536133 C21.87684844 126.48050249 23.59692236 126.46020969 25.31689453 126.43383789 C40.51206378 126.20711067 55.56211326 127.22149008 70.03515625 132.28515625 C70.76178467 132.52878906 71.48841309 132.77242187 72.23706055 133.0234375 C78.48767034 135.24298931 84.13773459 138.33726881 89.69775391 141.93994141 C93.28830341 144.24590714 93.28830341 144.24590714 97.3984375 144.1484375 C98.22730469 143.65730469 99.05617188 143.16617188 99.91015625 142.66015625 C101.05226563 142.07621094 102.194375 141.49226562 103.37109375 140.890625 C104.313479 140.39695435 104.313479 140.39695435 105.27490234 139.89331055 C125.85625962 129.18770535 146.05286482 126.12027589 169.03515625 126.47265625 C170.78384237 126.48776194 172.53254142 126.50143972 174.28125 126.51367188 C178.49121582 126.54613928 182.70053481 126.59757993 186.91015625 126.66015625 C183.5701975 115.87166248 179.38790038 106.01049377 174.1953125 95.95703125 C168.58565046 84.73770717 166.34824612 73.98433452 166.47265625 61.47265625 C166.48292847 59.85580933 166.48292847 59.85580933 166.4934082 58.20629883 C166.90290248 37.5490765 173.02808253 19.40380162 187.09765625 3.97265625 C201.10317069 -9.23889479 218.40978323 -12.80811264 236.95703125 -12.55078125 C259.21903833 -11.85883091 280.18994818 -1.63593243 296.91015625 12.66015625 C297.70679688 13.335625 298.5034375 14.01109375 299.32421875 14.70703125 C326.45675266 38.39549739 341.34922901 69.96451444 348.91015625 104.66015625 C349.08949707 105.4687207 349.26883789 106.27728516 349.45361328 107.11035156 C358.9771763 152.4111131 350.25635222 205.10483538 325.51464844 244.21630859 C307.48144825 271.81039927 281.13101167 293.19296809 248.5390625 300.40625 C229.108129 303.78858536 210.60447165 301.30365302 193.91015625 290.66015625 C178.32585175 279.30383475 170.63908049 262.09203065 167.35546875 243.5234375 C164.90934324 222.30222581 167.61944039 204.7272906 177.76098633 185.98583984 C181.77401329 178.47659919 184.39733088 170.76417175 186.91015625 162.66015625 C181.79074465 162.70498202 176.67248913 162.77548835 171.55371094 162.86767578 C169.82008169 162.89553425 168.08633371 162.91691921 166.35253906 162.93115234 C152.02388884 163.05567711 138.54573707 164.38360989 125.51171875 170.92578125 C123.91015625 171.66015625 123.91015625 171.66015625 121.91015625 171.66015625 C122.55082031 172.75070313 123.19148438 173.84125 123.8515625 174.96484375 C142.14635158 206.62685511 147.11783672 239.92389915 147.02368164 276.09399414 C147.02339853 277.6531321 147.02355991 279.2122702 147.02412415 280.77140808 C147.0244073 284.94383413 147.01858957 289.11623055 147.01155019 293.2886498 C147.00523539 297.67147112 147.0047065 302.05429336 147.00352478 306.43711853 C147.00043516 314.70972878 146.99225419 322.98232559 146.98217529 331.25492996 C146.97093996 340.68440532 146.96548513 350.11388138 146.96047986 359.54336178 C146.95006921 378.91563575 146.93175372 398.28789131 146.91015625 417.66015625 C135.03015625 417.66015625 123.15015625 417.66015625 110.91015625 417.66015625 C110.88828247 410.38090088 110.88828247 410.38090088 110.8659668 402.95458984 C110.81544747 386.85339367 110.7489688 370.75229188 110.67444134 354.6511898 C110.62967534 344.89686547 110.59021769 335.14257608 110.5637207 325.38818359 C110.54058379 316.87589103 110.50701442 308.36371089 110.46145469 299.85150778 C110.43773162 295.35377181 110.41886716 290.85614572 110.41254234 286.35834885 C110.36972115 259.45204085 109.71569902 233.69948594 99.78515625 208.28515625 C99.53145264 207.63554932 99.27774902 206.98594238 99.01635742 206.31665039 C97.74295042 202.82721607 97.74295042 202.82721607 94.91015625 200.66015625 C94.63945312 201.50449219 94.36875 202.34882813 94.08984375 203.21875 C93.09070944 206.13344312 91.97259168 208.96091688 90.8034668 211.80981445 C83.20534878 230.72664149 81.78194474 250.68665952 81.70483398 270.87182617 C81.69523546 272.47934204 81.68522429 274.0868555 81.67483521 275.69436646 C81.64799366 280.02620593 81.62687288 284.35805607 81.60683322 288.68993163 C81.58484438 293.22896079 81.55751928 297.76795787 81.53077698 302.30696106 C81.48102336 310.88786598 81.43602083 319.46878887 81.39275461 328.04972869 C81.34323335 337.82490969 81.28837082 347.60005848 81.23307502 357.37520826 C81.11952131 377.47016225 81.01333008 397.5651461 80.91015625 417.66015625 C69.03015625 417.66015625 57.15015625 417.66015625 44.91015625 417.66015625 C44.86478038 397.49128118 44.82803498 377.32244828 44.80653191 357.15353489 C44.79627649 347.78601296 44.78232775 338.4185253 44.75927734 329.05102539 C44.73916583 320.87387517 44.72639832 312.69674981 44.72197926 304.51957554 C44.7194015 300.20114016 44.71346688 295.88277579 44.69869614 291.56436348 C44.5708797 252.61144056 45.95843845 215.61332443 64.91015625 180.66015625 C65.44511719 179.67144531 65.98007813 178.68273437 66.53125 177.6640625 C67.63955368 175.65153373 68.76079836 173.64942953 69.91015625 171.66015625 C68.76546875 171.28890625 68.76546875 171.28890625 67.59765625 170.91015625 C65.52536801 170.20768566 63.45821958 169.48758575 61.4140625 168.70703125 C60.50527344 168.3615625 59.59648437 168.01609375 58.66015625 167.66015625 C57.809375 167.33015625 56.95859375 167.00015625 56.08203125 166.66015625 C45.26327815 163.24931783 34.53023244 163.23517984 23.28515625 163.03515625 C21.49998244 162.99690484 19.71482567 162.95784915 17.9296875 162.91796875 C13.5899848 162.82275177 9.25019606 162.73844117 4.91015625 162.66015625 C8.25021435 172.58431395 11.82611264 182.06765197 16.59765625 191.41015625 C26.90494219 212.5331129 28.3478887 236.43827427 20.80859375 258.94921875 C14.27544522 275.59821017 4.16701045 288.51394518 -12.2578125 296.12890625 C-33.09508459 304.69285081 -55.54823892 302.9314588 -76.10546875 294.453125 C-87.61055239 289.41894107 -97.70411563 283.02251837 -107.08984375 274.66015625 C-107.91742188 273.9640625 -108.745 273.26796875 -109.59765625 272.55078125 C-122.18209553 261.74157635 -130.99421393 249.00821446 -139.08984375 234.66015625 C-139.4353125 234.05059082 -139.78078125 233.44102539 -140.13671875 232.81298828 C-147.68844009 219.25316077 -152.43118321 204.42000816 -155.90234375 189.34765625 C-156.09715332 188.50203125 -156.29196289 187.65640625 -156.49267578 186.78515625 C-159.49294855 172.97597129 -160.50149092 159.42760573 -160.46484375 145.34765625 C-160.46396759 144.51933289 -160.46309143 143.69100952 -160.46218872 142.83758545 C-160.30349902 97.07894386 -145.85832924 53.1732987 -113.71484375 19.91015625 C-84.95996187 -7.90395424 -35.74714802 -27.07021702 0 0 Z " fill="#F37B7B" transform="translate(160.08984375,53.33984375)"/>
<path d="M0 0 C1.40915241 1.15054391 2.80481571 2.31777923 4.1875 3.5 C4.98414063 4.17546875 5.78078125 4.8509375 6.6015625 5.546875 C33.73409641 29.23534114 48.62657276 60.80435819 56.1875 95.5 C56.36684082 96.30856445 56.54618164 97.11712891 56.73095703 97.95019531 C66.25452005 143.25095685 57.53369597 195.94467913 32.79199219 235.05615234 C14.758792 262.65024302 -11.59164458 284.03281184 -44.18359375 291.24609375 C-63.61452725 294.62842911 -82.1181846 292.14349677 -98.8125 281.5 C-114.3968045 270.1436785 -122.08357576 252.9318744 -125.3671875 234.36328125 C-127.81331301 213.14206956 -125.10321586 195.56713435 -114.96166992 176.82568359 C-110.94864296 169.31644294 -108.32532537 161.6040155 -105.8125 153.5 C-110.9319116 153.54482577 -116.05016712 153.6153321 -121.16894531 153.70751953 C-122.90257456 153.735378 -124.63632254 153.75676296 -126.37011719 153.77099609 C-142.73357445 153.91320459 -156.85453093 156.5876052 -171.8125 163.5 C-172.5859375 162.5821875 -173.359375 161.664375 -174.15625 160.71875 C-179.80859604 154.04598042 -185.5025377 147.56570569 -191.8125 141.5 C-193.48155958 139.83572969 -195.14868965 138.1695181 -196.8125 136.5 C-178.07044415 124.04743675 -157.30803308 117.25474561 -134.71875 117.40234375 C-133.88661987 117.4037587 -133.05448975 117.40517365 -132.19714355 117.40663147 C-129.5688907 117.41217833 -126.94072662 117.42472055 -124.3125 117.4375 C-122.51823041 117.44252188 -120.72395946 117.44708358 -118.9296875 117.45117188 C-114.55725805 117.46213028 -110.18489402 117.47935752 -105.8125 117.5 C-109.15245875 106.71150623 -113.33475587 96.85033752 -118.52734375 86.796875 C-124.13700579 75.57755092 -126.37441013 64.82417827 -126.25 52.3125 C-126.24315186 51.23460205 -126.23630371 50.1567041 -126.22924805 49.04614258 C-125.81975377 28.38892025 -119.69457372 10.24364537 -105.625 -5.1875 C-75.6545632 -33.45893245 -29.59306736 -22.37651234 0 0 Z " fill="#F37B7B" transform="translate(452.8125,62.5)"/>
<path d="M0 0 C5.22457906 -0.0754997 10.44882439 -0.12922164 15.67382812 -0.16479492 C17.44243923 -0.17966123 19.21101502 -0.19996029 20.97949219 -0.22631836 C36.31652512 -0.44878385 51.51680359 0.49125719 66.125 5.625 C66.85887939 5.88023437 67.59275879 6.13546875 68.34887695 6.3984375 C87.10856385 13.23553409 101.55211842 25.53024961 114 41 C114.65097656 41.80179688 115.30195313 42.60359375 115.97265625 43.4296875 C139.17862795 73.56615172 143.20923845 112.66524051 143.11352539 149.43383789 C143.11324228 150.99297585 143.11340366 152.55211395 143.1139679 154.11125183 C143.11425105 158.28367788 143.10843332 162.4560743 143.10139394 166.62849355 C143.09507914 171.01131487 143.09455025 175.39413711 143.09336853 179.77696228 C143.09027891 188.04957253 143.08209794 196.32216934 143.07201904 204.59477371 C143.06078371 214.02424907 143.05532888 223.45372513 143.05032361 232.88320553 C143.03991296 252.2554795 143.02159747 271.62773506 143 291 C131.12 291 119.24 291 107 291 C106.98541748 286.14716309 106.97083496 281.29432617 106.95581055 276.29443359 C106.90529122 260.19323742 106.83881255 244.09213563 106.76428509 227.99103355 C106.71951909 218.23670922 106.68006144 208.48241983 106.65356445 198.72802734 C106.63042754 190.21573478 106.59685817 181.70355464 106.55129844 173.19135153 C106.52757537 168.69361556 106.50871091 164.19598947 106.50238609 159.6981926 C106.4595649 132.7918846 105.80554277 107.03932969 95.875 81.625 C95.62129639 80.97539307 95.36759277 80.32578613 95.10620117 79.65649414 C93.83279417 76.16705982 93.83279417 76.16705982 91 74 C90.72929687 74.84433594 90.45859375 75.68867188 90.1796875 76.55859375 C89.18055319 79.47328687 88.06243543 82.30076063 86.89331055 85.1496582 C79.29519253 104.06648524 77.87178849 124.02650327 77.79467773 144.21166992 C77.78507921 145.81918579 77.77506804 147.42669925 77.76467896 149.03421021 C77.73783741 153.36604968 77.71671663 157.69789982 77.69667697 162.02977538 C77.67468813 166.56880454 77.64736303 171.10780162 77.62062073 175.64680481 C77.57086711 184.22770973 77.52586458 192.80863262 77.48259836 201.38957244 C77.4330771 211.16475344 77.37821457 220.93990223 77.32291877 230.71505201 C77.20936506 250.810006 77.10317383 270.90498985 77 291 C65.12 291 53.24 291 41 291 C40.95462413 270.83112493 40.91787873 250.66229203 40.89637566 230.49337864 C40.88612024 221.12585671 40.8721715 211.75836905 40.84912109 202.39086914 C40.82900958 194.21371892 40.81624207 186.03659356 40.81182301 177.85941929 C40.80924525 173.54098391 40.80331063 169.22261954 40.78853989 164.90420723 C40.66072345 125.95128431 42.0482822 88.95316818 61 54 C61.53496094 53.01128906 62.06992188 52.02257812 62.62109375 51.00390625 C63.72939743 48.99137748 64.85064211 46.98927328 66 45 C65.236875 44.7525 64.47375 44.505 63.6875 44.25 C61.61521176 43.54752941 59.54806333 42.8274295 57.50390625 42.046875 C56.59511719 41.70140625 55.68632812 41.3559375 54.75 41 C53.47382813 40.505 53.47382813 40.505 52.171875 40 C41.36238357 36.59208152 30.67194789 36.60555223 19.4375 36.4375 C16.80435792 36.39353823 14.1713358 36.34697216 11.53834534 36.29469299 C9.90915608 36.26276344 8.27985898 36.23586471 6.65049744 36.21446228 C1.11189341 36.11189341 1.11189341 36.11189341 0 35 C-1.05665762 28.59308305 -1.15112162 22.29501587 -1.125 15.8125 C-1.12886719 14.84119141 -1.13273438 13.86988281 -1.13671875 12.86914062 C-1.13542969 11.92876953 -1.13414062 10.98839844 -1.1328125 10.01953125 C-1.13168457 9.17495361 -1.13055664 8.33037598 -1.12939453 7.46020508 C-0.99426948 4.89104436 -0.56386047 2.50713529 0 0 Z " fill="#43B5E6" transform="translate(164,180)"/>
<path d="M0 0 C2.20167481 1.66477516 4.31627321 3.38994491 6.4140625 5.18359375 C7.21070313 5.8590625 8.00734375 6.53453125 8.828125 7.23046875 C35.96065891 30.91893489 50.85313526 62.48795194 58.4140625 97.18359375 C58.59340332 97.9921582 58.77274414 98.80072266 58.95751953 99.63378906 C68.48108255 144.9345506 59.76025847 197.62827288 35.01855469 236.73974609 C16.9853545 264.33383677 -9.36508208 285.71640559 -41.95703125 292.9296875 C-52.15654676 294.70511337 -62.36339488 294.78712985 -72.5859375 293.18359375 C-72.5859375 292.52359375 -72.5859375 291.86359375 -72.5859375 291.18359375 C-71.91691406 291.04824219 -71.24789063 290.91289062 -70.55859375 290.7734375 C-40.10971413 283.94798395 -14.43924248 264.04998101 2.30078125 237.95654297 C17.09223341 214.40050666 25.92389334 188.78154605 29.4140625 161.18359375 C29.5083252 160.44085205 29.60258789 159.69811035 29.69970703 158.93286133 C31.88336175 139.71943424 31.00078376 120.15051737 27.4140625 101.18359375 C27.1975 99.96414062 26.9809375 98.7446875 26.7578125 97.48828125 C26.08152249 94.0182694 25.28369468 90.61031458 24.4140625 87.18359375 C24.23568848 86.46977539 24.05731445 85.75595703 23.87353516 85.02050781 C17.17988103 58.87085164 4.38377207 36.14690331 -13.5859375 16.18359375 C-14.22789062 15.45785156 -14.86984375 14.73210937 -15.53125 13.984375 C-28.70785399 -0.07637341 -47.11846565 -10.67392563 -65.5859375 -15.81640625 C-66.34132813 -16.03941406 -67.09671875 -16.26242188 -67.875 -16.4921875 C-69.44043488 -16.95059174 -71.01224214 -17.38721661 -72.5859375 -17.81640625 C-72.5859375 -18.14640625 -72.5859375 -18.47640625 -72.5859375 -18.81640625 C-47.2409317 -25.12721091 -20.4465199 -14.3619815 0 0 Z " fill="#DC7070" transform="translate(450.5859375,60.81640625)"/>
<path d="M0 0 C19.04623955 0.04082 36.16670691 4.40310777 50.05297852 18.27099609 C64.34081685 33.45061266 69.25683536 53.31883806 69.19360352 73.75537109 C69.2097168 74.78919922 69.22583008 75.82302734 69.24243164 76.88818359 C69.25106916 90.77731779 65.04580083 102.03842373 58.94360352 114.25537109 C52.27111757 127.61414693 47.05220765 140.36690053 47.50610352 155.63037109 C47.53087769 157.05265015 47.53087769 157.05265015 47.55615234 158.50366211 C47.7181186 164.96394508 48.10609887 171.13953029 49.88110352 177.38037109 C50.16469727 178.42837891 50.44829102 179.47638672 50.74047852 180.55615234 C53.22413607 188.79001706 56.70581378 196.29729488 60.50610352 204.00537109 C70.81897378 225.21065823 72.35003106 249.06534629 64.77954102 271.66943359 C58.24639249 288.31842501 48.13795772 301.23416002 31.71313477 308.84912109 C19.22930998 313.97986868 5.22682599 316.45259082 -8.11889648 313.38037109 C-5.59814916 310.85962377 -3.68063651 310.60356599 -0.24389648 309.69287109 C14.5350078 305.25593736 25.3477633 296.57277419 33.31469727 283.41162109 C43.24148739 264.20167313 46.87354578 238.3565541 40.48657227 217.46630859 C38.10150454 211.0415632 35.01161498 204.88143331 31.94238281 198.76171875 C23.88110352 182.67838098 23.88110352 182.67838098 23.88110352 177.38037109 C22.65114402 178.29597369 21.42217966 179.21291312 20.19360352 180.13037109 C19.46141602 180.67435547 18.72922852 181.21833984 17.97485352 181.77880859 C16.32837863 183.03823901 14.7469113 184.3826805 13.19360352 185.75537109 C10.88110352 187.38037109 10.88110352 187.38037109 8.31860352 187.88037109 C4.99197395 187.19798554 3.84031433 186.13777891 1.88110352 183.38037109 C1.19360352 180.63037109 1.19360352 180.63037109 1.88110352 177.38037109 C6.47259623 170.25072402 13.64189525 164.44017316 21.88110352 162.38037109 C21.88110352 159.08037109 21.88110352 155.78037109 21.88110352 152.38037109 C20.78088867 151.96851563 20.78088867 151.96851563 19.65844727 151.54833984 C12.68691422 148.61656997 5.82478918 143.97302298 1.88110352 137.38037109 C1.25610352 134.19287109 1.25610352 134.19287109 1.88110352 131.38037109 C3.89441386 128.4378406 5.17473239 127.55696387 8.63110352 126.69287109 C12.8802767 127.59173465 14.89204968 129.66816193 17.95141602 132.65380859 C19.84612771 134.34907695 21.5656913 135.36158972 23.88110352 136.38037109 C24.11442383 135.56439453 24.34774414 134.74841797 24.58813477 133.90771484 C27.51127948 124.41524138 31.43313194 115.69779537 35.95849609 106.85473633 C41.19164155 96.38753229 43.43950485 86.44314469 43.31860352 74.75537109 C43.31175537 73.71993164 43.30490723 72.68449219 43.29785156 71.61767578 C42.94732119 54.58741368 38.77566035 38.29774161 28.43188477 24.53662109 C26.88110352 22.38037109 26.88110352 22.38037109 25.92407227 20.22412109 C24.59098567 17.86750359 23.31798529 17.47944531 20.88110352 16.38037109 C19.59442178 15.31590945 18.32488481 14.23054643 17.06860352 13.13037109 C10.03125315 7.53327713 0.73842718 3.83405398 -8.11889648 2.38037109 C-5.50476807 -0.23375732 -3.5675241 0.06803829 0 0 Z " fill="#DC7070" transform="translate(116.118896484375,40.61962890625)"/>
<path d="M0 0 C9.44644566 1.6632568 18.092231 12.14080323 23.5 19.5625 C25.21600177 22.29982186 25.97523927 23.62033542 26.1875 26.875 C24.74838967 30.66213246 23.04594131 34.29500176 21.33203125 37.96484375 C13.02558173 56.89185629 11.87248037 77.84539187 11.79467773 98.21166992 C11.78507921 99.81918579 11.77506804 101.42669925 11.76467896 103.03421021 C11.73783741 107.36604968 11.71671663 111.69789982 11.69667697 116.02977538 C11.67468813 120.56880454 11.64736303 125.10780162 11.62062073 129.64680481 C11.57086711 138.22770973 11.52586458 146.80863262 11.48259836 155.38957244 C11.4330771 165.16475344 11.37821457 174.93990223 11.32291877 184.71505201 C11.20936506 204.810006 11.10317383 224.90498985 11 245 C-0.88 245 -12.76 245 -25 245 C-25.04537587 224.83112493 -25.08212127 204.66229203 -25.10362434 184.49337864 C-25.11387976 175.12585671 -25.1278285 165.75836905 -25.15087891 156.39086914 C-25.17099042 148.21371892 -25.18375793 140.03659356 -25.18817699 131.85941929 C-25.19075475 127.54098391 -25.19668937 123.22261954 -25.21146011 118.90420723 C-25.34871288 77.07549826 -23.97222123 35.95833184 0 0 Z " fill="#E94444" transform="translate(230,226)"/>
<path d="M0 0 C30.82320271 -0.85094731 60.46868424 3.37608824 83.9375 25 C85.99384185 26.96628084 88.00571831 28.97097966 90 31 C91.12341797 32.12535156 91.12341797 32.12535156 92.26953125 33.2734375 C100.35660437 41.85498649 106.27027448 52.03441648 111.3125 62.625 C111.62574219 63.28048828 111.93898438 63.93597656 112.26171875 64.61132812 C116.83905739 74.57779837 119.63005628 84.88130674 121.6875 95.625 C121.89955078 96.67945313 122.11160156 97.73390625 122.33007812 98.8203125 C124.6391704 110.59158417 125.14336114 122.03295546 125.11352539 134.00634766 C125.11324285 135.60386147 125.11340256 137.20137542 125.1139679 138.79888916 C125.11425325 143.10808846 125.10839892 147.41725957 125.10139394 151.72645235 C125.09511675 156.2401086 125.09455316 160.75376559 125.09336853 165.26742554 C125.09026804 173.80234682 125.08207202 182.33725519 125.07201904 190.87217081 C125.06081798 200.5941023 125.05533741 210.31603443 125.05032361 220.03797078 C125.03988827 240.02532123 125.02211089 260.01265935 125 280 C119.39 280 113.78 280 108 280 C107.99413376 277.99424896 107.98826752 275.98849792 107.98222351 273.92196655 C107.92532161 254.94491251 107.85212397 235.96796995 107.76428509 216.99103355 C107.71951909 207.23670922 107.68006144 197.48241983 107.65356445 187.72802734 C107.63042754 179.21573478 107.59685817 170.70355464 107.55129844 162.19135153 C107.52757537 157.69361556 107.50871091 153.19598947 107.50238609 148.6981926 C107.45511632 118.99666118 105.97693915 91.64160072 94 64 C93.49146484 62.81083984 93.49146484 62.81083984 92.97265625 61.59765625 C87.32833826 49.36426319 77.26081442 39.85181703 65.4375 33.6875 C64.85621338 33.37417725 64.27492676 33.06085449 63.67602539 32.73803711 C49.95187525 26.02219269 34.96236773 25.39168882 20 25.3125 C17.41388018 25.28337486 14.82793293 25.24898606 12.24194336 25.21000671 C10.65169247 25.18760361 9.06133286 25.17173308 7.47094727 25.16316223 C2.10973213 25.10973213 2.10973213 25.10973213 1 24 C-0.45538178 16.07625477 -0.08764295 8.02419937 0 0 Z " fill="#4AC8FE" transform="translate(163,191)"/>
<path d="M0 0 C4.59241663 2.01907972 6.95629645 5.12840909 10 9 C10.804375 10.010625 11.60875 11.02125 12.4375 12.0625 C14 15 14 15 14.0625 17.6875 C12.80096747 21.62051318 11.07811026 25.22612126 9.33203125 28.96484375 C1.02558173 47.89185629 -0.12751963 68.84539187 -0.20532227 89.21166992 C-0.21492079 90.81918579 -0.22493196 92.42669925 -0.23532104 94.03421021 C-0.26216259 98.36604968 -0.28328337 102.69789982 -0.30332303 107.02977538 C-0.32531187 111.56880454 -0.35263697 116.10780162 -0.37937927 120.64680481 C-0.42913289 129.22770973 -0.47413542 137.80863262 -0.51740164 146.38957244 C-0.5669229 156.16475344 -0.62178543 165.93990223 -0.67708123 175.71505201 C-0.79063493 195.81000478 -0.89734164 215.90498887 -1 236 C-5.95 236 -10.9 236 -16 236 C-16.0929454 212.25898501 -16.16415636 188.51801446 -16.20724869 164.77685356 C-16.22779685 153.75123745 -16.25576774 142.72573709 -16.30175781 131.70019531 C-16.34186444 122.0804772 -16.36748895 112.460843 -16.37635398 102.84104359 C-16.38152874 97.75635892 -16.39352598 92.67191409 -16.42292023 87.58730698 C-16.59120849 57.27272366 -16.56281403 26.66495593 0 0 Z " fill="#BD3737" transform="translate(242,235)"/>
<path d="M0 0 C0.85432617 0.00141495 1.70865234 0.0028299 2.58886719 0.00428772 C5.28844873 0.00983663 7.98794399 0.02237928 10.6875 0.03515625 C12.52994671 0.04017786 14.37239473 0.04473961 16.21484375 0.04882812 C20.70576186 0.05978926 25.19661636 0.077018 29.6875 0.09765625 C30.62342226 6.16224576 30.8708859 11.97587152 30.875 18.09765625 C30.88724609 19.05671875 30.89949219 20.01578125 30.91210938 21.00390625 C30.91404297 21.94234375 30.91597656 22.88078125 30.91796875 23.84765625 C30.92207764 24.688125 30.92618652 25.52859375 30.93041992 26.39453125 C30.62542812 29.78836968 29.69632136 32.85103572 28.6875 36.09765625 C27.62015625 36.10700195 26.5528125 36.11634766 25.453125 36.12597656 C21.41204279 36.16649298 17.37167384 36.23240563 13.33105469 36.30517578 C11.59742544 36.33303425 9.86367746 36.35441921 8.12988281 36.36865234 C-8.23357445 36.51086084 -22.35453093 39.18526145 -37.3125 46.09765625 C-38.0859375 45.17984375 -38.859375 44.26203125 -39.65625 43.31640625 C-45.30859604 36.64363667 -51.0025377 30.16336194 -57.3125 24.09765625 C-58.98155958 22.43338594 -60.64868965 20.76717435 -62.3125 19.09765625 C-43.48003712 6.58502493 -22.68528081 -0.14423142 0 0 Z " fill="#E84343" transform="translate(318.3125,179.90234375)"/>
<path d="M0 0 C4.23947269 0.89681153 6.14200193 2.95734556 9.25 5.87109375 C17.89856094 13.72574382 27.91271221 13.74272602 39.25 14.6875 C39.25 25.2475 39.25 35.8075 39.25 46.6875 C36.81625 46.77 34.3825 46.8525 31.875 46.9375 C20.28488559 47.58756594 13.42752181 50.95180794 4.79296875 58.859375 C1.9272571 60.91951794 0.69497064 61.2326637 -2.75 60.6875 C-5.63368831 58.66112443 -6.58152052 57.36141794 -7.4375 53.9375 C-5.83801562 46.37630112 0.97403847 41.83364189 7.13671875 37.81640625 C9.25 36.6875 9.25 36.6875 13.25 35.6875 C13.25 32.3875 13.25 29.0875 13.25 25.6875 C12.51652344 25.41292969 11.78304687 25.13835937 11.02734375 24.85546875 C4.0558107 21.92369887 -2.80631433 17.28015189 -6.75 10.6875 C-7.375 7.5 -7.375 7.5 -6.75 4.6875 C-4.73668966 1.7449695 -3.45637112 0.86409278 0 0 Z " fill="#C66565" transform="translate(124.75,167.3125)"/>
<path d="M0 0 C2.375 1.625 2.375 1.625 4 4 C4.34410325 7.32784061 4.35663551 9.34542986 2.7421875 12.30859375 C-6.01737318 22.29595896 -18.0010969 27.17202925 -31 29 C-34.05454706 29.18666676 -36.93759043 29.15571574 -40 29 C-40 29.66 -40 30.32 -40 31 C-39.319375 30.94199219 -38.63875 30.88398438 -37.9375 30.82421875 C-25.59553212 30.24979205 -12.44261717 33.73770998 -3 42 C0.69507754 45.44000689 3.6240028 48.22255869 4.6875 53.25 C3.82340722 56.70637112 2.9425305 57.98668966 0 60 C-2.8125 60.6875 -2.8125 60.6875 -6 60 C-7.84367206 58.41337837 -9.43085154 56.68283931 -11.0703125 54.88671875 C-17.72490129 48.38030907 -25.30638357 46.92003679 -34.25 46.4375 C-36.8075 46.293125 -39.365 46.14875 -42 46 C-42 35.44 -42 24.88 -42 14 C-39.23625 13.773125 -36.4725 13.54625 -33.625 13.3125 C-23.46059893 12.29213541 -15.98482555 9.83147107 -9 2 C-5.50875983 -0.32749345 -4.10777749 -0.50299316 0 0 Z " fill="#C76565" transform="translate(390,168)"/>
<path d="M0 0 C1.84961082 0.00212242 1.84961082 0.00212242 3.73658752 0.00428772 C7.6590522 0.00986684 11.58145894 0.02241557 15.50390625 0.03515625 C18.16992104 0.04073927 20.83593529 0.04473638 23.50195312 0.04882812 C30.02345713 0.05982944 36.54492755 0.0765468 43.06640625 0.09765625 C43.26032826 5.62443358 42.81435655 9.85380536 41.06640625 15.09765625 C39.9990625 15.10700195 38.93171875 15.11634766 37.83203125 15.12597656 C33.79094904 15.16649298 29.75058009 15.23240563 25.70996094 15.30517578 C23.97633169 15.33303425 22.24258371 15.35441921 20.50878906 15.36865234 C4.1453318 15.51086084 -9.97562468 18.18526145 -24.93359375 25.09765625 C-26.89395842 22.82854913 -28.85194591 20.55746467 -30.80859375 18.28515625 C-31.36417969 17.64255859 -31.91976563 16.99996094 -32.4921875 16.33789062 C-33.02714844 15.71591797 -33.56210937 15.09394531 -34.11328125 14.453125 C-34.60554199 13.88231201 -35.09780273 13.31149902 -35.60498047 12.72338867 C-36.93359375 11.09765625 -36.93359375 11.09765625 -38.93359375 8.09765625 C-35.91714325 6.94004997 -32.89476052 5.79876621 -29.87109375 4.66015625 C-29.02353516 4.33466797 -28.17597656 4.00917969 -27.30273438 3.67382812 C-26.46806641 3.36123047 -25.63339844 3.04863281 -24.7734375 2.7265625 C-24.01409912 2.4385376 -23.25476074 2.1505127 -22.47241211 1.85375977 C-15.09175914 -0.34432488 -7.63407077 -0.03314395 0 0 Z " fill="#BE3737" transform="translate(305.93359375,200.90234375)"/>
<path d="M0 0 C1.340625 0.309375 2.68125 0.61875 4.0625 0.9375 C10.99051379 2.34303949 17.95282796 2.64294328 25 3 C25 3.99 25 4.98 25 6 C24.20078125 6.03738281 23.4015625 6.07476562 22.578125 6.11328125 C14.74673753 6.58206149 7.53845168 7.84033547 0 10 C0 6.7 0 3.4 0 0 Z " fill="#DA6F6F" transform="translate(138,193)"/>
</svg>
